<svg width="546" height="584" viewBox="0 0 546 584" fill="none" xmlns="http://www.w3.org/2000/svg">
<path d="M503.87 265.724C515.853 265.724 525.566 255.393 525.566 242.65C525.566 229.906 515.853 219.576 503.87 219.576C491.888 219.576 482.174 229.906 482.174 242.65C482.174 255.393 491.888 265.724 503.87 265.724Z" fill="url(#paint0_radial)"/>
<path d="M95.022 72.9261C95.022 72.9261 156.253 21.1374 178.913 18.5736C233.394 12.4204 395.391 59.5944 528.459 193.425C530.388 195.476 527.495 198.04 525.084 196.501C397.319 103.179 324.035 81.6431 255.572 71.9006C149.021 56.005 100.325 82.1558 95.022 72.9261Z" fill="url(#paint1_radial)"/>
<path d="M308.607 0.114155C305.232 -0.911365 301.375 5.24176 306.678 7.80556C315.357 10.8821 380.927 43.186 434.926 89.8472C487.96 136.508 523.638 190.861 523.638 190.861C523.638 190.861 532.798 198.04 531.834 193.938C530.87 189.323 504.353 119.587 451.8 72.4134C425.765 49.8519 389.123 26.2649 308.607 0.114155Z" fill="url(#paint2_radial)"/>
<path d="M370.802 522.104C370.802 522.104 220.376 542.102 35.2374 419.039C19.8092 410.322 18.3628 398.529 18.3628 398.529C18.3628 398.529 2.45237 347.766 0.041707 289.824C-0.440426 284.696 3.41664 286.235 3.41664 286.235C3.41664 286.235 112.861 395.452 234.84 428.782C356.82 462.111 502.906 433.909 502.906 433.909C502.906 433.909 512.549 431.858 511.585 434.935C507.727 448.267 370.802 522.104 370.802 522.104Z" fill="url(#paint3_radial)"/>
<path d="M114.789 521.079C114.789 521.079 235.322 541.589 340.909 515.438C446.014 488.775 503.87 441.601 503.87 441.601C503.87 441.601 509.174 441.601 507.245 445.19C505.317 448.779 432.515 559.536 340.427 577.482C256.536 595.942 180.841 573.893 112.861 527.744C106.593 523.13 111.414 519.54 114.789 521.079Z" fill="url(#paint4_radial)"/>
<path d="M156.735 369.301C156.735 369.301 149.985 364.687 156.735 361.61C163.485 358.534 206.877 338.536 214.591 309.821C222.305 281.107 221.823 232.394 195.788 178.042C171.199 125.228 164.449 111.896 176.02 105.743C187.11 99.5896 194.342 113.947 194.342 113.947C194.342 113.947 236.769 189.835 266.661 208.295C296.554 226.754 318.732 223.678 344.285 217.012C369.356 210.346 421.426 180.606 421.426 180.606C421.426 180.606 437.819 171.889 443.604 181.631C449.39 191.886 441.676 199.578 435.89 204.193C429.622 208.808 376.106 245.726 354.41 267.262C332.714 289.311 326.446 299.053 321.625 315.974C316.803 332.383 314.393 361.61 325.482 383.659C331.749 396.478 341.874 412.373 337.053 414.937C327.892 419.552 204.466 404.169 156.735 369.301Z" fill="url(#paint5_radial)"/>
<path d="M145.164 344.176C144.682 347.253 144.2 351.868 149.985 349.817C156.253 347.253 182.77 335.459 195.306 312.385C207.359 289.311 211.216 266.237 202.056 232.395C199.163 221.627 194.824 228.293 194.824 228.293C194.824 228.293 177.949 252.392 151.914 253.931C130.218 255.469 99.3613 242.65 83.4509 229.318C71.3976 219.063 65.1298 228.293 65.1298 228.293C65.1298 228.293 59.8264 238.548 71.3976 245.214C82.9687 251.879 112.379 270.852 125.396 288.285C133.111 295.464 151.432 310.847 145.164 344.176Z" fill="url(#paint6_radial)"/>
<path d="M152.878 241.624C167.789 241.624 179.877 228.768 179.877 212.91C179.877 197.051 167.789 184.195 152.878 184.195C137.966 184.195 125.878 197.051 125.878 212.91C125.878 228.768 137.966 241.624 152.878 241.624Z" fill="url(#paint7_radial)"/>
<path d="M362.123 405.707C361.159 408.784 359.231 412.886 355.374 407.758C351.034 402.118 333.678 378.018 333.678 351.355C333.678 324.691 340.91 302.643 365.016 278.03C372.248 269.826 373.212 278.03 373.212 278.03C373.212 278.03 376.587 307.77 398.283 323.153C417.087 335.972 449.389 340.587 469.157 337.51C484.103 334.946 485.549 346.227 485.549 346.227C485.549 346.227 485.067 357.508 472.532 357.508C459.514 357.508 425.283 358.533 405.998 365.712C395.391 370.327 372.248 373.916 362.123 405.707Z" fill="url(#paint8_radial)"/>
<path d="M416.604 315.975C431.516 315.975 443.604 303.119 443.604 287.26C443.604 271.401 431.516 258.545 416.604 258.545C401.693 258.545 389.605 271.401 389.605 287.26C389.605 303.119 401.693 315.975 416.604 315.975Z" fill="url(#paint9_radial)"/>
<path d="M155.288 83.6941C155.288 83.6941 147.574 81.643 146.128 91.8982C144.681 102.153 135.039 137.534 122.021 148.302C109.486 159.07 95.5039 161.634 82.9685 161.121C70.433 160.608 47.7728 153.429 47.7728 153.429C47.7728 153.429 39.0944 150.866 36.6837 159.07C34.273 167.787 43.4336 170.351 43.4336 170.351C43.4336 170.351 65.6117 172.914 85.3791 185.733C105.147 198.552 106.111 203.68 106.111 203.68C106.111 203.68 108.039 207.782 111.414 206.757C114.789 205.731 116.236 203.167 115.753 200.603C115.753 198.04 115.271 184.195 126.843 177.016C138.414 169.838 145.646 170.863 145.646 170.863C145.646 170.863 149.985 171.889 152.396 169.838C155.288 167.787 154.806 161.634 153.842 159.07C152.878 155.481 152.878 141.123 154.324 130.868C156.253 122.151 167.824 85.2324 155.288 83.6941Z" fill="url(#paint10_radial)"/>
<path d="M99.3613 151.379C111.344 151.379 121.057 141.048 121.057 128.304C121.057 115.561 111.344 105.23 99.3613 105.23C87.3789 105.23 77.6653 115.561 77.6653 128.304C77.6653 141.048 87.3789 151.379 99.3613 151.379Z" fill="url(#paint11_radial)"/>
<path d="M474.461 175.991C474.461 175.991 482.175 178.555 479.282 187.784C475.907 197.014 469.157 233.933 475.425 249.315C481.693 265.211 492.782 274.441 503.871 280.081C514.478 285.721 538.102 291.362 538.102 291.362C538.102 291.362 546.781 293.413 544.852 302.13C542.923 310.847 533.763 308.796 533.763 308.796C533.763 308.796 513.031 300.079 489.889 301.104C467.229 302.13 463.854 306.232 463.854 306.232C463.854 306.232 460.479 308.796 457.586 306.232C454.693 303.668 455.175 300.592 456.14 298.54C457.586 296.489 463.854 284.183 456.622 271.877C449.39 259.571 442.64 257.007 442.64 257.007C442.64 257.007 438.783 255.469 436.854 252.392C435.408 249.316 438.301 244.188 440.229 242.137C442.64 239.573 448.908 226.754 452.283 217.524C456.622 208.807 462.889 170.863 474.461 175.991Z" fill="url(#paint12_radial)"/>
<path d="M308.125 207.782C332.888 207.782 352.963 186.432 352.963 160.095C352.963 133.759 332.888 112.409 308.125 112.409C283.361 112.409 263.286 133.759 263.286 160.095C263.286 186.432 283.361 207.782 308.125 207.782Z" fill="url(#paint13_radial)"/>
<defs>
<radialGradient id="paint0_radial" cx="0" cy="0" r="1" gradientUnits="userSpaceOnUse" gradientTransform="translate(503.997 242.844) scale(21.9127 23.3048)">
<stop stop-color="#28B4E5"/>
<stop offset="0.5353" stop-color="#00A6E0"/>
<stop offset="0.9984" stop-color="#0979EC"/>
</radialGradient>
<radialGradient id="paint1_radial" cx="0" cy="0" r="1" gradientUnits="userSpaceOnUse" gradientTransform="translate(312.056 107.059) scale(165.003 175.485)">
<stop stop-color="#BDDF29"/>
<stop offset="1" stop-color="#9DBE11"/>
</radialGradient>
<radialGradient id="paint2_radial" cx="0" cy="0" r="1" gradientUnits="userSpaceOnUse" gradientTransform="translate(417.984 97.6017) scale(103.442 110.013)">
<stop stop-color="#28B4E5"/>
<stop offset="0.5353" stop-color="#00A6E0"/>
<stop offset="0.9984" stop-color="#0979EC"/>
</radialGradient>
<radialGradient id="paint3_radial" cx="0" cy="0" r="1" gradientUnits="userSpaceOnUse" gradientTransform="translate(255.826 404.663) scale(197.675 210.232)">
<stop stop-color="#BDDF29"/>
<stop offset="1" stop-color="#9DBE11"/>
</radialGradient>
<radialGradient id="paint4_radial" cx="0" cy="0" r="1" gradientUnits="userSpaceOnUse" gradientTransform="translate(308.742 512.558) scale(148.362 157.787)">
<stop stop-color="#28B4E5"/>
<stop offset="0.5353" stop-color="#00A6E0"/>
<stop offset="0.9984" stop-color="#0979EC"/>
</radialGradient>
<radialGradient id="paint5_radial" cx="0" cy="0" r="1" gradientUnits="userSpaceOnUse" gradientTransform="translate(299.694 259.973) scale(145.649 154.901)">
<stop stop-color="#28B4E5"/>
<stop offset="0.5353" stop-color="#00A6E0"/>
<stop offset="0.9984" stop-color="#0979EC"/>
</radialGradient>
<radialGradient id="paint6_radial" cx="0" cy="0" r="1" gradientUnits="userSpaceOnUse" gradientTransform="translate(135.714 287.174) scale(65.6946 69.8678)">
<stop stop-color="#BDDF29"/>
<stop offset="1" stop-color="#9DBE11"/>
</radialGradient>
<radialGradient id="paint7_radial" cx="0" cy="0" r="1" gradientUnits="userSpaceOnUse" gradientTransform="translate(152.878 212.759) scale(27.2228 28.9521)">
<stop stop-color="#BDDF29"/>
<stop offset="1" stop-color="#9DBE11"/>
</radialGradient>
<radialGradient id="paint8_radial" cx="0" cy="0" r="1" gradientUnits="userSpaceOnUse" gradientTransform="translate(409.444 342.47) scale(70.3224 74.7897)">
<stop stop-color="#BDDF29"/>
<stop offset="1" stop-color="#9DBE11"/>
</radialGradient>
<radialGradient id="paint9_radial" cx="0" cy="0" r="1" gradientUnits="userSpaceOnUse" gradientTransform="translate(416.724 287.51) scale(27.1787 28.9052)">
<stop stop-color="#BDDF29"/>
<stop offset="1" stop-color="#9DBE11"/>
</radialGradient>
<radialGradient id="paint10_radial" cx="0" cy="0" r="1" gradientUnits="userSpaceOnUse" gradientTransform="translate(98.8743 145.403) scale(60.0511 63.8659)">
<stop stop-color="#28B4E5"/>
<stop offset="0.5353" stop-color="#00A6E0"/>
<stop offset="0.9984" stop-color="#0979EC"/>
</radialGradient>
<radialGradient id="paint11_radial" cx="0" cy="0" r="1" gradientUnits="userSpaceOnUse" gradientTransform="translate(99.4248 128.04) scale(21.9084 23.3002)">
<stop stop-color="#28B4E5"/>
<stop offset="0.5353" stop-color="#00A6E0"/>
<stop offset="0.9984" stop-color="#0979EC"/>
</radialGradient>
<radialGradient id="paint12_radial" cx="0" cy="0" r="1" gradientUnits="userSpaceOnUse" gradientTransform="translate(491.394 242.004) scale(58.292 61.995)">
<stop stop-color="#28B4E5"/>
<stop offset="0.5353" stop-color="#00A6E0"/>
<stop offset="0.9984" stop-color="#0979EC"/>
</radialGradient>
<radialGradient id="paint13_radial" cx="0" cy="0" r="1" gradientUnits="userSpaceOnUse" gradientTransform="translate(308.017 159.965) scale(44.5772 47.409)">
<stop stop-color="#28B4E5"/>
<stop offset="0.5353" stop-color="#00A6E0"/>
<stop offset="0.9984" stop-color="#0979EC"/>
</radialGradient>
</defs>
</svg>
