<svg width="42" height="54" viewBox="0 0 42 54" fill="none" xmlns="http://www.w3.org/2000/svg">
<path d="M24.1599 21C22.9377 21 21.7428 21.3624 20.7265 22.0415C19.7102 22.7206 18.9182 23.6858 18.4504 24.815C17.9827 25.9442 17.8603 27.1869 18.0987 28.3857C18.3372 29.5845 18.9258 30.6856 19.7901 31.5499C20.6544 32.4142 21.7555 33.0028 22.9543 33.2413C24.1531 33.4797 25.3957 33.3573 26.5249 32.8896C27.6542 32.4218 28.6194 31.6297 29.2984 30.6134C29.9775 29.5971 30.34 28.4023 30.34 27.18C30.34 25.541 29.6889 23.969 28.5299 22.8101C27.3709 21.6511 25.799 21 24.1599 21V21ZM24.1599 31.28C23.3466 31.28 22.5516 31.0387 21.8755 30.5867C21.1994 30.1346 20.6726 29.4921 20.3619 28.7405C20.0511 27.989 19.9703 27.162 20.1297 26.3645C20.2891 25.567 20.6815 24.8346 21.2573 24.2603C21.8331 23.6859 22.5664 23.2952 23.3643 23.1378C24.1622 22.9803 24.9889 23.0631 25.7397 23.3757C26.4905 23.6883 27.1318 24.2167 27.5822 24.8939C28.0326 25.5711 28.272 26.3667 28.27 27.18C28.2713 27.7206 28.166 28.2561 27.96 28.7559C27.754 29.2557 27.4515 29.7099 27.0697 30.0927C26.688 30.4754 26.2344 30.779 25.7351 30.9862C25.2358 31.1934 24.7005 31.3 24.1599 31.3V31.28Z" fill="white"/>
<path d="M40.11 22.79H38.1801C37.9206 21.9644 37.5859 21.1644 37.1801 20.4L38.54 19.04C38.637 18.945 38.7136 18.8314 38.7651 18.7059C38.8167 18.5804 38.8422 18.4457 38.8401 18.31C38.8422 18.1743 38.8167 18.0396 38.7651 17.9141C38.7136 17.7886 38.637 17.675 38.54 17.58L33.7601 12.81C33.6665 12.7101 33.5535 12.6304 33.4279 12.576C33.3024 12.5215 33.167 12.4935 33.0301 12.4935C32.8932 12.4935 32.7578 12.5215 32.6322 12.576C32.5066 12.6304 32.3936 12.7101 32.3 12.81L31.0001 14.17C30.2364 13.7627 29.4362 13.4279 28.61 13.17V11.25C28.61 10.9848 28.5047 10.7304 28.3171 10.5429C28.1296 10.3554 27.8753 10.25 27.61 10.25H20.86C20.5948 10.25 20.3405 10.3554 20.153 10.5429C19.9654 10.7304 19.86 10.9848 19.86 11.25V13.17C18.9186 13.4608 18.0104 13.8497 17.1501 14.33C16.6011 12.8271 15.7308 11.462 14.6 10.33L13.11 9L16.8201 5.28998C17.015 5.09504 17.1245 4.83067 17.1245 4.55499C17.1245 4.27931 17.015 4.01494 16.8201 3.82001C16.6251 3.62507 16.3608 3.51556 16.0851 3.51556C15.8094 3.51556 15.545 3.62507 15.35 3.82001L6.00006 13.1C5.34245 13.7509 4.82039 14.5258 4.46411 15.3797C4.10784 16.2336 3.92444 17.1497 3.92444 18.075C3.92444 19.0003 4.10784 19.9164 4.46411 20.7703C4.82039 21.6243 5.34245 22.3991 6.00006 23.05L7.38007 24.43L6.08008 25.73L4.70007 24.35C3.95148 23.6098 3.34476 22.7388 2.91003 21.78C2.79599 21.5294 2.58709 21.3343 2.32922 21.2377C2.07136 21.1412 1.78566 21.151 1.53503 21.265C1.2844 21.3791 1.08938 21.588 0.992798 21.8458C0.896217 22.1037 0.906037 22.3894 1.02008 22.64C1.56544 23.8209 2.31337 24.8972 3.23004 25.82L4.61005 27.2L3.23004 28.58C1.18736 30.6402 0.0412598 33.4239 0.0412598 36.325C0.0412598 39.2262 1.18736 42.0099 3.23004 44.07L4.61005 45.45L0.910034 49.15C0.7151 49.3436 0.605064 49.6067 0.604126 49.8815C0.603188 50.1562 0.711482 50.4201 0.90509 50.615C1.0987 50.8099 1.36179 50.92 1.63654 50.9209C1.91128 50.9218 2.17512 50.8136 2.37006 50.62L11.6901 41.3C12.3477 40.6491 12.8697 39.8743 13.226 39.0203C13.5822 38.1664 13.7657 37.2503 13.7657 36.325C13.7657 35.3997 13.5822 34.4836 13.226 33.6297C12.8697 32.7758 12.3477 32.0009 11.6901 31.35L10.3401 30L11.6401 28.69L13.0001 30C13.8249 30.8246 14.4792 31.8036 14.9257 32.8812C15.3721 33.9587 15.6019 35.1137 15.6019 36.28C15.6019 37.4464 15.3721 38.6013 14.9257 39.6788C14.4792 40.7564 13.8249 41.7354 13.0001 42.56L3.69006 51.88C3.59015 51.9735 3.5105 52.0866 3.45605 52.2122C3.4016 52.3377 3.37354 52.4731 3.37354 52.61C3.37354 52.7469 3.4016 52.8822 3.45605 53.0078C3.5105 53.1334 3.59015 53.2465 3.69006 53.34C3.78417 53.4388 3.89747 53.5171 4.02301 53.5704C4.14855 53.6237 4.28366 53.6509 4.42004 53.65C4.55643 53.6509 4.69154 53.6237 4.81708 53.5704C4.94262 53.5171 5.05598 53.4388 5.15009 53.34L8.85004 49.64L12.5701 53.35C12.665 53.4469 12.7787 53.5235 12.9042 53.5751C13.0297 53.6266 13.1644 53.6522 13.3 53.65C13.5114 53.6679 13.7229 53.6181 13.9041 53.5078C14.0853 53.3976 14.2268 53.2326 14.308 53.0367C14.3893 52.8408 14.4062 52.6241 14.3562 52.418C14.3062 52.2118 14.192 52.027 14.0301 51.89L10.3201 48.18L11.6201 46.87L15.3301 50.58C15.5272 50.7754 15.7925 50.8866 16.0701 50.89C16.2065 50.8909 16.3416 50.8638 16.4671 50.8105C16.5926 50.7572 16.7059 50.6787 16.8 50.58C16.9 50.4865 16.9796 50.3734 17.0341 50.2479C17.0885 50.1223 17.1166 49.9868 17.1166 49.85C17.1166 49.7131 17.0885 49.5777 17.0341 49.4521C16.9796 49.3266 16.9 49.2135 16.8 49.12L13.0901 45.41L14.47 44.03C15.6008 42.898 16.4711 41.533 17.0201 40.03C17.8821 40.5095 18.7899 40.9014 19.73 41.2V43.12C19.73 43.3852 19.8354 43.6396 20.0229 43.8271C20.2105 44.0146 20.4648 44.12 20.73 44.12H27.48C27.7453 44.12 27.9997 44.0146 28.1872 43.8271C28.3747 43.6396 28.48 43.3852 28.48 43.12V41.2C29.3046 40.9378 30.1044 40.6031 30.8701 40.2L32.23 41.56C32.325 41.6569 32.4387 41.7335 32.5642 41.785C32.6897 41.8366 32.8244 41.8621 32.9601 41.86C33.0957 41.8621 33.2304 41.8366 33.3559 41.785C33.4814 41.7335 33.5951 41.6569 33.6901 41.56L38.47 36.79C38.6624 36.5937 38.7702 36.3298 38.7702 36.055C38.7702 35.7802 38.6624 35.5163 38.47 35.32L37.2001 34C37.6076 33.2399 37.9424 32.443 38.2001 31.62H40.1301C40.3953 31.62 40.6496 31.5146 40.8372 31.3271C41.0247 31.1396 41.1301 30.8852 41.1301 30.62V23.87C41.1413 23.7304 41.1231 23.59 41.0766 23.4579C41.0301 23.3258 40.9564 23.2049 40.8603 23.1031C40.7641 23.0013 40.6477 22.9208 40.5184 22.8669C40.3892 22.8129 40.2501 22.7867 40.11 22.79V22.79ZM8.87006 13.18L10.2501 14.56L10.3701 14.68H7.37006L7.48004 14.56L8.87006 13.18ZM6.22003 16.75H11.5301C11.704 17.4017 11.7481 18.0813 11.66 18.75H6.09009C6.00203 18.0813 6.04614 17.4017 6.22003 16.75V16.75ZM7.49005 21.59C7.26514 21.3646 7.0641 21.1166 6.89008 20.85H10.8901C10.7149 21.1155 10.5103 21.3605 10.2801 21.58L8.87006 23L7.49005 21.59ZM4.73004 42.59C3.90519 41.7654 3.25086 40.7863 2.80444 39.7088C2.35802 38.6313 2.1283 37.4763 2.1283 36.31C2.1283 35.1436 2.35802 33.9887 2.80444 32.9112C3.25086 31.8337 3.90519 30.8546 4.73004 30.03L6.83008 27.93L11.7001 23.06C12.3577 22.4091 12.8797 21.6343 13.236 20.7803C13.5922 19.9264 13.7757 19.0103 13.7757 18.085C13.7757 17.1597 13.5922 16.2436 13.236 15.3897C12.8797 14.5358 12.3577 13.7609 11.7001 13.11L10.3201 11.73L11.6201 10.42L13.0001 11.8C13.8249 12.6246 14.4792 13.6037 14.9257 14.6812C15.3721 15.7587 15.6019 16.9137 15.6019 18.08C15.6019 19.2464 15.3721 20.4013 14.9257 21.4788C14.4792 22.5564 13.8249 23.5354 13.0001 24.36L6.00006 31.36C5.34245 32.0109 4.82039 32.7858 4.46411 33.6397C4.10784 34.4936 3.92444 35.4097 3.92444 36.335C3.92444 37.2603 4.10784 38.1764 4.46411 39.0303C4.82039 39.8843 5.34245 40.6591 6.00006 41.31L7.38007 42.69L6.08008 43.99L4.73004 42.59ZM11.5701 37.45H6.17004C6.03778 36.7899 6.03778 36.1101 6.17004 35.45H11.6801C11.7826 36.1204 11.7452 36.8048 11.5701 37.46V37.45ZM8.87006 41.21L7.49005 39.83L7.22003 39.52H10.5301C10.4421 39.628 10.3486 39.7315 10.2501 39.83L8.87006 41.21ZM10.2501 32.8C10.4266 32.9746 10.5904 33.1618 10.7401 33.36H7.00006C7.14923 33.1643 7.30947 32.9773 7.48004 32.8L8.86005 31.42L10.2501 32.8ZM39.0701 29.53H37.4001C37.1689 29.5244 36.9429 29.599 36.7606 29.7412C36.5783 29.8834 36.4509 30.0844 36.4001 30.31C36.1001 31.4766 35.6354 32.5945 35.0201 33.63C34.8967 33.8261 34.8451 34.0588 34.8743 34.2886C34.9035 34.5184 35.0116 34.731 35.1801 34.89L36.36 36.07L33.05 39.38L31.8701 38.2C31.7098 38.0331 31.4967 37.9269 31.2669 37.8995C31.0371 37.8722 30.805 37.9254 30.61 38.05C29.5715 38.664 28.45 39.1254 27.2801 39.42C27.0588 39.4788 26.8629 39.6084 26.722 39.7889C26.5812 39.9695 26.5033 40.1911 26.5001 40.42V42.08H21.8201V40.42C21.8257 40.1888 21.7511 39.9628 21.6089 39.7805C21.4667 39.5982 21.2656 39.4708 21.04 39.42C19.8738 39.1235 18.7559 38.6622 17.72 38.05L17.5601 37.97C17.8232 36.2721 17.6823 34.5362 17.1489 32.903C16.6155 31.2697 15.7046 29.7853 14.4901 28.57L13.11 27.19L14.4901 25.81C15.7014 24.5904 16.6101 23.1039 17.1432 21.4698C17.6764 19.8356 17.8192 18.0993 17.5601 16.4L17.72 16.33C18.7458 15.7355 19.8499 15.2878 21.0001 15C21.2256 14.9492 21.4266 14.8218 21.5688 14.6395C21.7111 14.4571 21.7857 14.2312 21.7801 14V12.33H26.47V14C26.4644 14.2312 26.5391 14.4571 26.6813 14.6395C26.8235 14.8218 27.0245 14.9492 27.2501 15C28.4167 15.3 29.5346 15.7646 30.5701 16.38C30.7661 16.5034 30.9989 16.5549 31.2287 16.5257C31.4585 16.4965 31.6711 16.3885 31.8301 16.22L33.0101 15.04L36.3201 18.35L35.1401 19.53C34.9716 19.689 34.8635 19.9015 34.8344 20.1313C34.8052 20.3612 34.8566 20.5939 34.98 20.79C35.5973 21.8281 36.062 22.9496 36.36 24.12C36.4108 24.3456 36.5383 24.5466 36.7206 24.6888C36.9029 24.831 37.1289 24.9057 37.36 24.9H39.0301V29.58L39.0701 29.53Z" fill="white"/>
<path d="M4.63995 9L3.25995 10.38C2.33648 11.3031 1.58472 12.3833 1.03992 13.57C0.978925 13.6933 0.944027 13.8278 0.937378 13.9651C0.930729 14.1025 0.952479 14.2398 1.00128 14.3683C1.05008 14.4969 1.12489 14.614 1.22101 14.7124C1.31713 14.8108 1.43252 14.8883 1.55994 14.94C1.6955 14.9994 1.84191 15.0301 1.98993 15.03C2.18848 15.0347 2.38392 14.98 2.55133 14.8732C2.71874 14.7663 2.85054 14.612 2.92993 14.43C3.37039 13.4661 3.98001 12.5889 4.72992 11.84L14.0499 2.52002C14.2423 2.32374 14.3501 2.05981 14.3501 1.78497C14.3501 1.51013 14.2423 1.24626 14.0499 1.04999C13.9564 0.950077 13.8433 0.870429 13.7178 0.815979C13.5922 0.761529 13.4568 0.733459 13.3199 0.733459C13.1831 0.733459 13.0477 0.761529 12.9221 0.815979C12.7966 0.870429 12.6835 0.950077 12.59 1.04999L8.86993 4.76001L5.15991 1C5.06637 0.900089 4.95333 0.820441 4.82776 0.765991C4.70219 0.711541 4.5668 0.683472 4.42993 0.683472C4.29307 0.683472 4.15767 0.711541 4.0321 0.765991C3.90654 0.820441 3.79349 0.900089 3.69995 1C3.50756 1.19628 3.39978 1.46014 3.39978 1.73499C3.39978 2.00983 3.50756 2.2737 3.69995 2.46997L7.40991 6.17999L6.10992 7.47998L2.39996 3.77002C2.20503 3.57509 1.9406 3.46558 1.66492 3.46558C1.38924 3.46558 1.12487 3.57509 0.929932 3.77002C0.734998 3.96495 0.625488 4.22933 0.625488 4.505C0.625488 4.78068 0.734998 5.04506 0.929932 5.23999L4.63995 9Z" fill="white"/>
<path d="M24.16 19H24.26C24.5345 18.9867 24.7925 18.865 24.9772 18.6615C25.162 18.458 25.2583 18.1895 25.245 17.915C25.2317 17.6405 25.11 17.3825 24.9065 17.1978C24.703 17.0131 24.4345 16.9167 24.16 16.93C23.9925 16.9291 23.8274 16.9704 23.68 17.05C23.4148 17.1136 23.1858 17.28 23.0432 17.5126C22.9007 17.7451 22.8563 18.0247 22.92 18.29C22.9836 18.5552 23.15 18.7843 23.3826 18.9268C23.6151 19.0693 23.8948 19.1136 24.16 19.05V19Z" fill="white"/>
<path d="M28.6999 18C28.4533 17.878 28.1683 17.859 27.9076 17.9471C27.6469 18.0353 27.4319 18.2233 27.3099 18.47C27.1879 18.7166 27.1689 19.0016 27.2571 19.2623C27.3452 19.523 27.5333 19.738 27.78 19.86C29.1645 20.5313 30.331 21.5803 31.1449 22.8862C31.9589 24.192 32.387 25.7013 32.3799 27.24C32.3799 27.5145 32.489 27.7778 32.6831 27.9719C32.8772 28.166 33.1404 28.275 33.4149 28.275C33.6894 28.275 33.9527 28.166 34.1468 27.9719C34.3409 27.7778 34.4499 27.5145 34.4499 27.24C34.4487 25.3168 33.9095 23.4323 32.8934 21.7995C31.8773 20.1667 30.4248 18.8506 28.6999 18V18Z" fill="white"/>
</svg>
