<svg width="39" height="38" viewBox="0 0 39 38" fill="none" xmlns="http://www.w3.org/2000/svg">
<g clip-path="url(#clip0)">
<path d="M27.9977 37.61C26.7845 37.6155 25.5798 37.409 24.4377 37C19.2046 35.0831 14.4537 32.0456 10.5177 28.1C6.58207 24.1598 3.55185 19.4097 1.63766 14.18C1.04016 12.5435 0.858051 10.7842 1.10766 9.06C1.3524 7.42224 1.97498 5.86393 2.92611 4.50839C3.87725 3.15284 5.13084 2.03729 6.58766 1.25C8.1249 0.425205 9.84313 -0.00435214 11.5877 2.26042e-06C11.8562 0.00254321 12.1159 0.0958128 12.3247 0.264653C12.5335 0.433493 12.679 0.667979 12.7377 0.930002L14.5977 9.54C14.6408 9.73157 14.635 9.93091 14.5808 10.1197C14.5266 10.3084 14.4258 10.4805 14.2877 10.62L11.1277 13.77C14.1133 19.6924 18.9231 24.4987 24.8477 27.48L27.9977 24.33C28.1363 24.1899 28.3075 24.0863 28.496 24.0287C28.6845 23.9711 28.8844 23.9613 29.0777 24L37.6777 25.85C37.9423 25.9035 38.1799 26.0476 38.3497 26.2576C38.5195 26.4675 38.6107 26.73 38.6077 27C38.6133 28.7447 38.1836 30.4632 37.3577 32C36.5684 33.4614 35.4487 34.7181 34.0877 35.67C32.7378 36.6221 31.1823 37.2422 29.5477 37.48C29.0447 37.5564 28.5364 37.5932 28.0277 37.59L27.9977 37.61ZM10.6677 2.4C9.42975 2.5399 8.23967 2.95866 7.18694 3.6248C6.1342 4.29093 5.24621 5.1871 4.58976 6.2459C3.9333 7.3047 3.52547 8.49857 3.39693 9.73771C3.2684 10.9768 3.4225 12.229 3.84766 13.4C5.63039 18.31 8.47036 22.7683 12.1666 26.4594C15.8629 30.1505 20.3251 32.9842 25.2377 34.76C26.4086 35.1872 27.6613 35.3428 28.9011 35.2152C30.141 35.0875 31.3357 34.6799 32.395 34.0232C33.4543 33.3664 34.3507 32.4775 35.0163 31.4238C35.682 30.37 36.0996 29.1788 36.2377 27.94L29.2377 26.44L25.9477 29.74C25.7745 29.9106 25.5533 30.0241 25.3137 30.0652C25.0742 30.1063 24.8278 30.0731 24.6077 29.97C17.5898 26.6683 11.9449 21.02 8.64766 14C8.54393 13.7817 8.51036 13.5366 8.55154 13.2985C8.59272 13.0603 8.70665 12.8408 8.87766 12.67L12.1677 9.38L10.6677 2.4Z" fill="white"/>
<path d="M37.4374 20C37.283 20.0013 37.1297 19.972 36.9866 19.9138C36.8435 19.8556 36.7134 19.7696 36.6037 19.6609C36.4939 19.5521 36.4069 19.4227 36.3474 19.2801C36.288 19.1375 36.2574 18.9845 36.2574 18.83C36.2601 14.4636 34.5288 10.2749 31.4441 7.18455C28.3594 4.09424 24.1738 2.3553 19.8074 2.35C19.4962 2.35001 19.1976 2.22706 18.9766 2.00793C18.7556 1.78879 18.6301 1.49122 18.6274 1.18C18.6274 0.867044 18.7518 0.566907 18.9731 0.345614C19.1943 0.124321 19.4945 0 19.8074 0C22.2771 -3.49379e-07 24.7226 0.486607 27.0042 1.43202C29.2858 2.37743 31.3587 3.76313 33.1046 5.50993C34.8505 7.25673 36.235 9.3304 37.1792 11.6125C38.1234 13.8946 38.6088 16.3403 38.6074 18.81C38.6101 18.9653 38.5818 19.1196 38.5242 19.2639C38.4666 19.4082 38.3808 19.5395 38.2719 19.6503C38.163 19.761 38.0331 19.849 37.8898 19.9091C37.7466 19.9691 37.5928 20 37.4374 20Z" fill="white"/>
<path d="M32.7376 20C32.5831 20.0013 32.4299 19.972 32.2867 19.9138C32.1436 19.8556 32.0135 19.7697 31.9038 19.6609C31.7941 19.5521 31.707 19.4227 31.6476 19.2801C31.5881 19.1375 31.5575 18.9845 31.5576 18.83C31.5602 15.7101 30.3241 12.7169 28.1208 10.508C25.9175 8.29907 22.9274 7.05531 19.8076 7.05001C19.6441 7.0651 19.4794 7.04594 19.3238 6.99375C19.1682 6.94156 19.0252 6.85749 18.9039 6.74691C18.7827 6.63634 18.6858 6.50168 18.6195 6.35155C18.5533 6.20142 18.519 6.03912 18.519 5.87501C18.519 5.7109 18.5533 5.5486 18.6195 5.39846C18.6858 5.24833 18.7827 5.11368 18.9039 5.0031C19.0252 4.89252 19.1682 4.80845 19.3238 4.75627C19.4794 4.70408 19.6441 4.68492 19.8076 4.70001C23.5472 4.7053 27.132 6.19391 29.7754 8.83919C32.4188 11.4845 33.9049 15.0703 33.9076 18.81C33.9102 18.9653 33.8819 19.1196 33.8243 19.2639C33.7667 19.4082 33.6809 19.5395 33.572 19.6503C33.4631 19.7611 33.3332 19.849 33.19 19.9091C33.0467 19.9691 32.8929 20 32.7376 20Z" fill="white"/>
<path d="M27.9976 20C27.8431 20.0013 27.6899 19.972 27.5468 19.9138C27.4036 19.8556 27.2735 19.7696 27.1638 19.6609C27.0541 19.5521 26.967 19.4227 26.9076 19.2801C26.8482 19.1374 26.8176 18.9845 26.8176 18.83C26.8176 16.9679 26.0821 15.1812 24.771 13.8589C23.4599 12.5366 21.6796 11.7858 19.8176 11.77C19.6542 11.7851 19.4894 11.7659 19.3338 11.7137C19.1782 11.6615 19.0352 11.5775 18.914 11.4669C18.7927 11.3563 18.6958 11.2217 18.6296 11.0715C18.5633 10.9214 18.5291 10.7591 18.5291 10.595C18.5291 10.4309 18.5633 10.2686 18.6296 10.1185C18.6958 9.96832 18.7927 9.83366 18.914 9.72309C19.0352 9.61251 19.1782 9.52844 19.3338 9.47625C19.4894 9.42406 19.6542 9.4049 19.8176 9.41999C22.3107 9.42529 24.7001 10.4187 26.4621 12.1826C28.224 13.9464 29.2149 16.3368 29.2176 18.83C29.2177 18.9879 29.1859 19.1443 29.124 19.2896C29.0621 19.4349 28.9714 19.5662 28.8574 19.6755C28.7434 19.7848 28.6084 19.8699 28.4607 19.9257C28.3129 19.9815 28.1554 20.0067 27.9976 20Z" fill="white"/>
</g>
<defs>
<clipPath id="clip0">
<rect width="37.61" height="37.61" fill="white" transform="translate(0.997559)"/>
</clipPath>
</defs>
</svg>
