<svg width="39" height="30" viewBox="0 0 39 30" fill="none" xmlns="http://www.w3.org/2000/svg">
<g clip-path="url(#clip0)">
<path d="M35 0H3.38C2.48357 0 1.62385 0.356106 0.989979 0.989979C0.356106 1.62385 0 2.48357 0 3.38L0 25.88C0.00264705 26.7747 0.359921 27.6318 0.993508 28.2636C1.62709 28.8953 2.4853 29.25 3.38 29.25H35C35.893 29.2474 36.7486 28.8915 37.38 28.26C38.0115 27.6286 38.3674 26.773 38.37 25.88V3.38C38.37 2.4853 38.0153 1.62709 37.3836 0.993508C36.7519 0.359921 35.8947 0.00264705 35 0V0ZM34.53 2.25L19.27 17.54L3.85 2.25H34.53ZM2.25 25.41V3.83L13.09 14.57L2.25 25.41ZM3.84 27L14.68 16.16L18.48 19.92C18.5841 20.0249 18.708 20.1082 18.8444 20.165C18.9809 20.2218 19.1272 20.2511 19.275 20.2511C19.4228 20.2511 19.5691 20.2218 19.7056 20.165C19.842 20.1082 19.9659 20.0249 20.07 19.92L23.78 16.22L34.56 27H3.84ZM36.15 25.41L25.37 14.63L36.15 3.84V25.41Z" fill="white"/>
</g>
<defs>
<clipPath id="clip0">
<rect width="38.4" height="29.25" fill="white"/>
</clipPath>
</defs>
</svg>
