<svg width="43" height="43" viewBox="0 0 43 43" fill="none" xmlns="http://www.w3.org/2000/svg">
<path d="M42.71 20.82V0.5H14.26V7.27002H10.51C10.9476 6.77929 11.2595 6.18958 11.4189 5.55164C11.5783 4.9137 11.5803 4.24663 11.4248 3.60773C11.2694 2.96883 10.961 2.37724 10.5264 1.88385C10.0917 1.39046 9.54372 1.01004 8.92952 0.775269C8.31531 0.540502 7.65328 0.458395 7.00034 0.536072C6.3474 0.613748 5.7231 0.848879 5.18111 1.22119C4.63913 1.5935 4.19569 2.09187 3.88891 2.67346C3.58213 3.25506 3.4212 3.90246 3.41996 4.56C3.41724 5.13867 3.54011 5.71104 3.78009 6.23761C4.02007 6.76418 4.37144 7.2324 4.80996 7.60999C3.61463 8.02794 2.57837 8.80644 1.84405 9.83807C1.10972 10.8697 0.713485 12.1037 0.709961 13.37V15.37C0.712596 16.0879 0.998961 16.7757 1.50661 17.2833C2.01427 17.791 2.70203 18.0774 3.41996 18.08V25.19C3.42414 25.5371 3.50616 25.8788 3.65996 26.19H0.709961V31.61H3.65996C3.37991 32.3747 3.33997 33.2068 3.54547 33.9948C3.75097 34.7829 4.19213 35.4894 4.80996 36.02C3.61461 36.4349 2.57785 37.2111 1.84326 38.2413C1.10867 39.2715 0.712619 40.5047 0.709961 41.77V42.45H38.65V41.77C38.6473 40.5047 38.2512 39.2715 37.5167 38.2413C36.7821 37.2111 35.7453 36.4349 34.55 36.02C35.1678 35.4894 35.609 34.7829 35.8145 33.9948C36.02 33.2068 35.98 32.3747 35.7 31.61H42.7V26.19H38.35L35.1 20.77L42.71 20.82ZM15.61 1.82001H41.36V19.44H15.61V11.31H17.61C18.0292 11.3111 18.4383 11.1804 18.7792 10.9363C19.1202 10.6923 19.3758 10.3473 19.51 9.95001H27.77V3.17999H17V7.23999H15.61V1.82001ZM11.31 26.21C11.4638 25.8988 11.5458 25.5571 11.55 25.21V11.34H14.26V20.82H21.87L18.62 26.24L11.31 26.21ZM23.45 20.79H25.26L22 26.24H20.2L23.45 20.79ZM26.45 21.43V26.21H23.58L26.45 21.43ZM27.81 20.79H29.16V26.21H27.81V20.79ZM30.52 21.43L33.39 26.21H30.52V21.43ZM19.52 8.59998C19.4208 8.31557 19.2587 8.05728 19.0457 7.8443C18.8327 7.63132 18.5744 7.46916 18.29 7.37V4.53003H26.42V8.59998H19.52ZM7.44996 1.82001C7.98595 1.82001 8.5099 1.97895 8.95556 2.27673C9.40122 2.57451 9.74856 2.99773 9.95367 3.49292C10.1588 3.98811 10.2125 4.53303 10.1079 5.05872C10.0033 5.5844 9.74522 6.06729 9.36622 6.44629C8.98722 6.82529 8.50435 7.08336 7.97866 7.18793C7.45297 7.29249 6.90808 7.2388 6.41289 7.03369C5.9177 6.82858 5.49446 6.48124 5.19668 6.03558C4.8989 5.58993 4.73996 5.06602 4.73996 4.53003C4.74388 4.17414 4.81786 3.82247 4.95768 3.49518C5.09751 3.16788 5.30043 2.87136 5.55487 2.6225C5.8093 2.37363 6.11027 2.17728 6.44058 2.04474C6.77089 1.9122 7.12407 1.84601 7.47996 1.84998L7.44996 1.82001ZM4.73996 25.19V13.37H3.41996V16.76C3.24183 16.76 3.06546 16.7248 2.90102 16.6563C2.73658 16.5878 2.58731 16.4875 2.46181 16.3611C2.33632 16.2347 2.23709 16.0846 2.16984 15.9197C2.10259 15.7547 2.06864 15.5781 2.06996 15.4V13.4C2.06996 12.1429 2.56935 10.9373 3.45827 10.0483C4.3472 9.15942 5.55284 8.65997 6.80996 8.65997H17.65C17.8148 8.68008 17.9666 8.75987 18.0768 8.88422C18.1869 9.00857 18.2477 9.16893 18.2477 9.33502C18.2477 9.50111 18.1869 9.66142 18.0768 9.78577C17.9666 9.91012 17.8148 9.98991 17.65 10.01H10.19V25.25C10.19 25.5152 10.0846 25.7696 9.89707 25.9571C9.70953 26.1446 9.45518 26.25 9.18996 26.25C8.92474 26.25 8.67039 26.1446 8.48286 25.9571C8.29532 25.7696 8.18996 25.5152 8.18996 25.25V16.11H6.80996V25.25C6.80996 25.5152 6.7046 25.7696 6.51707 25.9571C6.32953 26.1446 6.07518 26.25 5.80996 26.25C5.54475 26.25 5.29039 26.1446 5.10286 25.9571C4.91532 25.7696 4.80996 25.5152 4.80996 25.25L4.73996 25.19ZM7.44996 30.27C7.98633 30.2641 8.51239 30.4175 8.96153 30.7108C9.41066 31.004 9.76267 31.424 9.97295 31.9174C10.1832 32.4109 10.2424 32.9556 10.1428 33.4827C10.0433 34.0098 9.78955 34.4955 9.41377 34.8783C9.038 35.2611 8.55708 35.5237 8.03193 35.633C7.50677 35.7423 6.961 35.6933 6.46373 35.4921C5.96647 35.291 5.54008 34.9468 5.23856 34.5032C4.93704 34.0595 4.77395 33.5364 4.76996 33C4.77261 32.283 5.05929 31.5963 5.56723 31.0902C6.07517 30.5841 6.76295 30.3 7.47996 30.3L7.44996 30.27ZM2.07996 41.11C2.24561 39.9818 2.81157 38.9509 3.67449 38.2054C4.5374 37.46 5.63967 37.0499 6.77996 37.05H8.12996C9.27025 37.0499 10.3725 37.46 11.2354 38.2054C12.0984 38.9509 12.6643 39.9818 12.83 41.11H2.07996ZM10.08 36.04C10.6978 35.5094 11.139 34.8028 11.3445 34.0148C11.55 33.2267 11.51 32.3947 11.23 31.63H15.77C15.4922 32.4066 15.4613 33.25 15.6815 34.0449C15.9017 34.8397 16.3622 35.547 17 36.07C15.5158 36.5916 14.2905 37.6664 13.58 39.07C12.8695 37.6664 11.6442 36.5916 10.16 36.07L10.08 36.04ZM22.39 33C22.39 33.536 22.231 34.06 21.9332 34.5056C21.6355 34.9513 21.2122 35.2986 20.717 35.5037C20.2218 35.7088 19.677 35.7625 19.1513 35.6579C18.6256 35.5533 18.1427 35.2953 17.7637 34.9163C17.3847 34.5373 17.1266 34.0544 17.022 33.5287C16.9175 33.003 16.9711 32.4581 17.1762 31.963C17.3814 31.4678 17.7287 31.0445 18.1744 30.7467C18.62 30.4489 19.144 30.29 19.68 30.29C20.3987 30.29 21.088 30.5755 21.5962 31.0837C22.1044 31.592 22.39 32.2813 22.39 33V33ZM14.31 41.13C14.4775 40.0053 15.043 38.9781 15.9036 38.2349C16.7642 37.4918 17.8629 37.082 19 37.08H20.36C21.4985 37.0823 22.5984 37.4935 23.4592 38.2387C24.3201 38.9839 24.8846 40.0135 25.05 41.14L14.31 41.13ZM22.31 36.06C22.9215 35.5247 23.3588 34.8187 23.5656 34.0327C23.7723 33.2467 23.739 32.4169 23.47 31.65H28C27.7309 32.4169 27.6976 33.2467 27.9044 34.0327C28.1111 34.8187 28.5484 35.5247 29.16 36.06C27.6731 36.5812 26.4445 37.6558 25.73 39.06C25.022 37.6545 23.7958 36.5788 22.31 36.06V36.06ZM32.51 37.06C33.6485 37.0623 34.7484 37.4735 35.6092 38.2187C36.4701 38.9639 37.0346 39.9935 37.2 41.12H26.5C26.6654 39.9935 27.2299 38.9639 28.0907 38.2187C28.9515 37.4735 30.0514 37.0623 31.19 37.06H32.51ZM31.83 35.7C31.2953 35.6921 30.775 35.5262 30.3344 35.2233C29.8938 34.9203 29.5527 34.4937 29.354 33.9973C29.1553 33.5009 29.1079 32.9568 29.2178 32.4335C29.3276 31.9102 29.5898 31.4311 29.9714 31.0565C30.3529 30.6819 30.8368 30.4285 31.362 30.3283C31.8872 30.2281 32.4303 30.2855 32.923 30.4932C33.4157 30.701 33.8359 31.0499 34.1307 31.4959C34.4256 31.942 34.5819 32.4653 34.58 33C34.5813 33.3567 34.5122 33.7102 34.3766 34.0402C34.241 34.3701 34.0415 34.67 33.7898 34.9227C33.538 35.1754 33.2388 35.3759 32.9093 35.5128C32.5799 35.6496 32.2267 35.72 31.87 35.72L31.83 35.7ZM41.32 30.28H34.89C34.5103 29.8614 34.0473 29.5269 33.5306 29.298C33.0139 29.069 32.4551 28.9507 31.89 28.9507C31.3248 28.9507 30.766 29.069 30.2493 29.298C29.7326 29.5269 29.2696 29.8614 28.89 30.28H22.7C22.3203 29.8614 21.8573 29.5269 21.3406 29.298C20.8239 29.069 20.2651 28.9507 19.7 28.9507C19.1348 28.9507 18.576 29.069 18.0593 29.298C17.5426 29.5269 17.0796 29.8614 16.7 30.28H10.51C10.1295 29.8628 9.66618 29.5295 9.14962 29.3015C8.63306 29.0734 8.07462 28.9556 7.50996 28.9556C6.9453 28.9556 6.38686 29.0734 5.8703 29.3015C5.35374 29.5295 4.89042 29.8628 4.50996 30.28H2.06996V27.57H41.36L41.32 30.28ZM36.73 26.22H35L31.75 20.8H33.56L36.73 26.22Z" fill="white"/>
<path d="M27.81 15.4V16.76H26.45V11.34H25.1V16.76H23.74V18.11H40V8.63H38.65V16.76H37.29V10H35.94V16.78H34.58V14.07H33.23V16.78H31.87V12.71H30.52V16.78H29.16V15.4H27.81Z" fill="white"/>
</svg>
