<svg width="38" height="38" viewBox="0 0 38 38" fill="none" xmlns="http://www.w3.org/2000/svg">
<path d="M21.26 37.8H16.54C15.8614 37.7513 15.2298 37.4355 14.7837 36.9219C14.3375 36.4083 14.1133 35.7387 14.16 35.06C14.1654 35.0269 14.1654 34.9931 14.16 34.96V31.65C14.1386 30.8649 13.949 30.0935 13.604 29.3879C13.2589 28.6823 12.7665 28.059 12.16 27.56C10.811 26.5241 9.7232 25.187 8.98349 23.6555C8.24377 22.1239 7.87272 20.4406 7.9 18.74C7.98499 15.8891 9.15344 13.1779 11.1674 11.1583C13.1814 9.13881 15.8894 7.96287 18.74 7.87C21.6739 7.83215 24.5035 8.9575 26.61 11C28.7098 13.0871 29.8995 15.9195 29.92 18.88C29.9414 20.5165 29.5833 22.1357 28.8737 23.6105C28.164 25.0853 27.1222 26.3756 25.83 27.38C25.1586 27.906 24.6121 28.5744 24.23 29.3369C23.8478 30.0995 23.6395 30.9373 23.62 31.79V35.41C23.61 36.0356 23.359 36.6332 22.9194 37.0784C22.4798 37.5236 21.8854 37.7821 21.26 37.8ZM18.9 9.45C16.4366 9.49937 14.0853 10.4892 12.3283 12.2165C10.5712 13.9438 9.54142 16.2778 9.45 18.74C9.41717 20.1959 9.7278 21.6391 10.3567 22.9525C10.9857 24.266 11.9152 25.4128 13.07 26.3C13.8924 26.9309 14.5608 27.7402 15.0251 28.6669C15.4893 29.5936 15.7372 30.6136 15.75 31.65V35C15.75 35.32 15.75 36.26 16.54 36.26H21.26C21.4573 36.271 21.651 36.2036 21.799 36.0725C21.9469 35.9414 22.0371 35.7572 22.05 35.56V31.81C22.0886 30.7175 22.3612 29.6459 22.8494 28.6677C23.3376 27.6896 24.0301 26.8276 24.88 26.14C25.9691 25.2749 26.8473 24.1737 27.4484 22.9195C28.0496 21.6652 28.3579 20.2908 28.35 18.9C28.3539 17.6389 28.1045 16.3899 27.6167 15.2269C27.1288 14.064 26.4124 13.0109 25.51 12.13C24.6391 11.2698 23.6068 10.5903 22.4725 10.1304C21.3381 9.67043 20.124 9.43922 18.9 9.45Z" fill="white"/>
<path d="M15 33.07C14.8895 33.0825 14.7776 33.0715 14.6716 33.0378C14.5656 33.004 14.4679 32.9483 14.385 32.8742C14.302 32.8 14.2356 32.7093 14.1902 32.6077C14.1447 32.5062 14.1213 32.3962 14.1213 32.285C14.1213 32.1738 14.1447 32.0638 14.1902 31.9623C14.2356 31.8607 14.302 31.77 14.385 31.6958C14.4679 31.6217 14.5656 31.566 14.6716 31.5322C14.7776 31.4985 14.8895 31.4875 15 31.5H22.87C22.9805 31.4875 23.0925 31.4985 23.1984 31.5322C23.3044 31.566 23.4021 31.6217 23.485 31.6958C23.568 31.77 23.6344 31.8607 23.6798 31.9623C23.7253 32.0638 23.7487 32.1738 23.7487 32.285C23.7487 32.3962 23.7253 32.5062 23.6798 32.6077C23.6344 32.7093 23.568 32.8 23.485 32.8742C23.4021 32.9483 23.3044 33.004 23.1984 33.0378C23.0925 33.0715 22.9805 33.0825 22.87 33.07H15Z" fill="white"/>
<path d="M18.9 4.72C18.8004 4.72678 18.7004 4.71332 18.6061 4.68043C18.5118 4.64754 18.4251 4.59591 18.3513 4.52864C18.2775 4.46136 18.2181 4.37985 18.1766 4.289C18.1351 4.19814 18.1125 4.09984 18.11 4V0.79C18.11 0.580479 18.1932 0.379539 18.3414 0.231386C18.4895 0.0832319 18.6905 0 18.9 0C19.1095 0 19.3105 0.0832319 19.4586 0.231386C19.6068 0.379539 19.69 0.580479 19.69 0.79V3.94C19.6954 4.03721 19.6816 4.13453 19.6493 4.22638C19.617 4.31824 19.5669 4.40282 19.5019 4.47527C19.4368 4.54773 19.3582 4.60665 19.2703 4.64864C19.1825 4.69064 19.0872 4.71489 18.99 4.72C18.9608 4.72991 18.9292 4.72991 18.9 4.72Z" fill="white"/>
<path d="M29.45 9.13C29.2312 9.16299 29.0079 9.11689 28.82 9C28.7486 8.92933 28.692 8.84523 28.6533 8.75254C28.6147 8.65985 28.5948 8.56042 28.5948 8.46C28.5948 8.35958 28.6147 8.26015 28.6533 8.16746C28.692 8.07477 28.7486 7.99067 28.82 7.92L31 5.67C31.1445 5.52148 31.3422 5.43646 31.5494 5.43365C31.7566 5.43083 31.9565 5.51046 32.105 5.655C32.2535 5.79954 32.3385 5.99717 32.3414 6.20439C32.3442 6.41162 32.2645 6.61148 32.12 6.76L29.92 9C29.7708 9.06695 29.6124 9.11078 29.45 9.13Z" fill="white"/>
<path d="M37 19.69H33.86C33.6505 19.69 33.4495 19.6068 33.3014 19.4586C33.1532 19.3105 33.07 19.1095 33.07 18.9C33.07 18.6905 33.1532 18.4895 33.3014 18.3414C33.4495 18.1932 33.6505 18.11 33.86 18.11H37C37.2095 18.11 37.4105 18.1932 37.5586 18.3414C37.7068 18.4895 37.79 18.6905 37.79 18.9C37.79 19.1095 37.7068 19.3105 37.5586 19.4586C37.4105 19.6068 37.2095 19.69 37 19.69Z" fill="white"/>
<path d="M31.65 32.44C31.428 32.4583 31.2063 32.402 31.02 32.28L28.82 30.08C28.6916 29.9308 28.6244 29.7387 28.6318 29.5421C28.6391 29.3454 28.7205 29.1588 28.8597 29.0197C28.9988 28.8805 29.1854 28.7991 29.3821 28.7918C29.5787 28.7844 29.7708 28.8516 29.92 28.98L32.13 31.18C32.2717 31.324 32.3511 31.518 32.3511 31.72C32.3511 31.922 32.2717 32.116 32.13 32.26C32.13 32.44 32 32.44 31.65 32.44Z" fill="white"/>
<path d="M6.14 32.44C5.91804 32.4583 5.69632 32.402 5.51 32.28C5.3713 32.1364 5.29378 31.9446 5.29378 31.745C5.29378 31.5454 5.3713 31.3536 5.51 31.21L7.72 29C7.86915 28.8716 8.06131 28.8044 8.25794 28.8118C8.45458 28.8191 8.64117 28.9005 8.78031 29.0397C8.91945 29.1788 9.00086 29.3654 9.00822 29.5621C9.01558 29.7587 8.94835 29.9508 8.82 30.1L6.61 32.3C6.54664 32.3562 6.47172 32.3979 6.39052 32.4221C6.30932 32.4463 6.22381 32.4524 6.14 32.44Z" fill="white"/>
<path d="M3.94 19.69H0.79C0.580479 19.69 0.379539 19.6068 0.231386 19.4586C0.0832319 19.3105 0 19.1095 0 18.9C0 18.6905 0.0832319 18.4895 0.231386 18.3414C0.379539 18.1932 0.580479 18.11 0.79 18.11H3.94C4.14952 18.11 4.35046 18.1932 4.49861 18.3414C4.64677 18.4895 4.73 18.6905 4.73 18.9C4.73 19.1095 4.64677 19.3105 4.49861 19.4586C4.35046 19.6068 4.14952 19.69 3.94 19.69Z" fill="white"/>
<path d="M8.35 9.13C8.1312 9.16389 7.90752 9.11773 7.72 9L5.51 6.61C5.36466 6.46385 5.28308 6.26611 5.28308 6.06C5.28308 5.85389 5.36466 5.65615 5.51 5.51C5.58152 5.43834 5.66647 5.38149 5.75999 5.3427C5.85351 5.30391 5.95376 5.28394 6.055 5.28394C6.15624 5.28394 6.25649 5.30391 6.35001 5.3427C6.44353 5.38149 6.52848 5.43834 6.6 5.51L8.82 7.72C8.96106 7.86233 9.04021 8.05461 9.04021 8.255C9.04021 8.45539 8.96106 8.64767 8.82 8.79C8.66 9 8.5 9.13 8.35 9.13Z" fill="white"/>
<path d="M25.2 19.69C25.0027 19.701 24.809 19.6336 24.661 19.5025C24.5131 19.3714 24.4229 19.1872 24.41 18.99V18.9C24.3944 17.4435 23.8089 16.0511 22.7789 15.0211C21.7489 13.9911 20.3565 13.4056 18.9 13.39C18.6905 13.39 18.4895 13.3068 18.3414 13.1586C18.1932 13.0105 18.11 12.8095 18.11 12.6C18.11 12.3905 18.1932 12.1895 18.3414 12.0414C18.4895 11.8932 18.6905 11.81 18.9 11.81C19.826 11.7994 20.7448 11.9727 21.6034 12.3197C22.4619 12.6667 23.243 13.1807 23.9015 13.8318C24.5601 14.4828 25.0828 15.2581 25.4396 16.1126C25.7964 16.9671 25.9801 17.884 25.98 18.81V18.87C25.9868 18.9672 25.9743 19.0648 25.9433 19.1572C25.9122 19.2496 25.8633 19.335 25.7991 19.4084C25.735 19.4818 25.657 19.5418 25.5697 19.585C25.4823 19.6282 25.3873 19.6537 25.29 19.66L25.2 19.69Z" fill="white"/>
</svg>
