<svg id="Capa_1" data-name="Capa 1" xmlns="http://www.w3.org/2000/svg" xmlns:xlink="http://www.w3.org/1999/xlink" viewBox="0 0 37.8 37.8"><defs><style>.cls-1{fill:none;}.cls-2{fill:#019ae2;}.cls-3{clip-path:url(#clip-path);}</style><clipPath id="clip-path"><rect class="cls-1" x="-279.02" y="121.16" width="298" height="344"/></clipPath></defs><g id="lampara"><g id="Grupo_261" data-name="Grupo 261"><path id="Trazado_952" data-name="Trazado 952" class="cls-2" d="M21.26,37.8H16.54a2.57,2.57,0,0,1-2.38-2.74.31.31,0,0,0,0-.1V31.65a5.49,5.49,0,0,0-2-4.09,10.9,10.9,0,0,1-4.26-8.82A11.21,11.21,0,0,1,18.74,7.87,11.1,11.1,0,0,1,26.61,11a11.22,11.22,0,0,1,3.31,7.88,10.59,10.59,0,0,1-4.09,8.5,5.77,5.77,0,0,0-2.21,4.41v3.62A2.43,2.43,0,0,1,21.26,37.8ZM18.9,9.45a9.65,9.65,0,0,0-9.45,9.29,9.27,9.27,0,0,0,3.62,7.56,6.85,6.85,0,0,1,2.68,5.35V35c0,.32,0,1.26.79,1.26h4.72a.75.75,0,0,0,.79-.7V31.81a7.64,7.64,0,0,1,2.83-5.67,9.18,9.18,0,0,0,3.47-7.24,9.42,9.42,0,0,0-2.84-6.77A9.29,9.29,0,0,0,18.9,9.45Z"/></g><g id="Grupo_262" data-name="Grupo 262"><path id="Trazado_953" data-name="Trazado 953" class="cls-2" d="M22.83,33.07H15a.79.79,0,1,1,0-1.57h7.87a.79.79,0,1,1,0,1.57Z"/></g><g id="Grupo_263" data-name="Grupo 263"><path id="Trazado_954" data-name="Trazado 954" class="cls-2" d="M18.9,4.72A.74.74,0,0,1,18.11,4V.79a.79.79,0,0,1,1.58,0V3.94a.74.74,0,0,1-.7.78A.14.14,0,0,1,18.9,4.72Z"/></g><g id="Grupo_264" data-name="Grupo 264"><path id="Trazado_955" data-name="Trazado 955" class="cls-2" d="M29.45,9.13A.93.93,0,0,1,28.82,9a.76.76,0,0,1,0-1.08l0,0L31,5.67a.78.78,0,0,1,1.12,1.09h0L29.92,9A1.61,1.61,0,0,1,29.45,9.13Z"/></g><g id="Grupo_265" data-name="Grupo 265"><path id="Trazado_956" data-name="Trazado 956" class="cls-2" d="M37,19.69H33.86a.79.79,0,0,1,0-1.58H37a.79.79,0,0,1,0,1.58Z"/></g><g id="Grupo_266" data-name="Grupo 266"><path id="Trazado_957" data-name="Trazado 957" class="cls-2" d="M31.65,32.44a1,1,0,0,1-.63-.16l-2.2-2.2a.78.78,0,0,1,1.1-1.1l2.21,2.2a.77.77,0,0,1,0,1.08l0,0C32.13,32.44,32,32.44,31.65,32.44Z"/></g><g id="Grupo_267" data-name="Grupo 267"><path id="Trazado_958" data-name="Trazado 958" class="cls-2" d="M6.14,32.44a1,1,0,0,1-.63-.16.77.77,0,0,1,0-1.07l0,0L7.72,29a.78.78,0,0,1,1.1,1.1l-2.21,2.2A.58.58,0,0,1,6.14,32.44Z"/></g><g id="Grupo_268" data-name="Grupo 268"><path id="Trazado_959" data-name="Trazado 959" class="cls-2" d="M3.94,19.69H.79a.79.79,0,0,1,0-1.58H3.94a.79.79,0,0,1,0,1.58Z"/></g><g id="Grupo_269" data-name="Grupo 269"><path id="Trazado_960" data-name="Trazado 960" class="cls-2" d="M8.35,9.13A.92.92,0,0,1,7.72,9L5.51,6.61a.78.78,0,0,1,0-1.1.77.77,0,0,1,1.09,0L8.82,7.72a.76.76,0,0,1,0,1.07l0,0C8.66,9,8.5,9.13,8.35,9.13Z"/></g><g id="Grupo_270" data-name="Grupo 270"><path id="Trazado_961" data-name="Trazado 961" class="cls-2" d="M25.2,19.69a.75.75,0,0,1-.79-.7V18.9a5.57,5.57,0,0,0-5.51-5.51.79.79,0,0,1,0-1.58,7,7,0,0,1,7.08,7v.06a.74.74,0,0,1-.69.79Z"/></g></g><g class="cls-3"><image width="3456" height="5184" transform="translate(-332.02 28.16) scale(0.12)" xlink:href="../../../PROPUESTA%20DISE%C3%91O/CARNET/fotos/Nueva%20carpeta/CRISTOPHER%20SOLANO.png"/></g></svg>