<svg width="34" height="48" viewBox="0 0 34 48" fill="none" xmlns="http://www.w3.org/2000/svg">
<path d="M16.7977 0C13.8064 0.000417357 10.8694 0.799496 8.29027 2.31468C5.71111 3.82986 3.58328 6.0062 2.1266 8.61885C0.669918 11.2315 -0.0627754 14.1857 0.0042144 17.1762C0.0712042 20.1668 0.935447 23.0852 2.50766 25.63L15.8377 47.12C15.9642 47.3215 16.1397 47.4877 16.3478 47.6031C16.5558 47.7185 16.7897 47.7793 17.0277 47.78C17.2679 47.7791 17.5037 47.716 17.7123 47.5969C17.9209 47.4777 18.095 47.3065 18.2177 47.1L31.2177 25.41C32.7361 22.8599 33.5522 19.9532 33.5832 16.9854C33.6142 14.0176 32.8589 11.0946 31.394 8.5133C29.9292 5.93204 27.807 3.78462 25.2433 2.28932C22.6795 0.794026 19.7656 0.00415599 16.7977 0V0ZM28.7977 24L16.9977 43.69L4.88766 24.16C3.58573 22.0455 2.86964 19.6228 2.8128 17.1403C2.75597 14.6577 3.36043 12.2048 4.56422 10.0329C5.76801 7.86104 7.52779 6.04842 9.66312 4.78094C11.7984 3.51346 14.2325 2.83672 16.7156 2.82012C19.1987 2.80353 21.6415 3.44767 23.7936 4.6865C25.9457 5.92533 27.7295 7.71426 28.9622 9.86984C30.195 12.0254 30.8321 14.4701 30.8085 16.9531C30.7849 19.4362 30.1012 21.8683 28.8277 24H28.7977Z" fill="white"/>
<path d="M16.7975 8.39999C15.1361 8.39999 13.512 8.89265 12.1307 9.81565C10.7493 10.7387 9.67265 12.0506 9.03688 13.5855C8.4011 15.1204 8.23475 16.8093 8.55887 18.4388C8.88298 20.0682 9.68301 21.5649 10.8578 22.7397C12.0325 23.9145 13.5293 24.7145 15.1587 25.0386C16.7881 25.3627 18.4771 25.1964 20.012 24.5606C21.5469 23.9248 22.8588 22.8482 23.7818 21.4668C24.7048 20.0854 25.1975 18.4614 25.1975 16.8C25.1948 14.573 24.309 12.438 22.7342 10.8632C21.1595 9.28849 19.0245 8.40264 16.7975 8.39999ZM16.7975 22.4C15.6855 22.402 14.598 22.074 13.6724 21.4577C12.7469 20.8414 12.025 19.9644 11.5981 18.9376C11.1712 17.9109 11.0585 16.7806 11.2742 15.6897C11.49 14.5989 12.0244 13.5966 12.81 12.8096C13.5956 12.0226 14.5969 11.4864 15.6874 11.2687C16.7778 11.0511 17.9083 11.1618 18.9358 11.5868C19.9633 12.0119 20.8416 12.7322 21.4596 13.6567C22.0776 14.5811 22.4075 15.668 22.4075 16.78C22.4101 18.2714 21.8209 19.703 20.7691 20.7604C19.7173 21.8178 18.2889 22.4147 16.7975 22.42V22.4Z" fill="white"/>
</svg>
