<svg width="46" height="49" viewBox="0 0 46 49" fill="none" xmlns="http://www.w3.org/2000/svg">
<path d="M44.6101 30.24C44.1172 29.3868 43.461 28.6392 42.679 28.0397C41.8971 27.4402 41.0047 27.0007 40.0528 26.7462C39.1009 26.4918 38.1082 26.4274 37.1314 26.5567C36.1546 26.686 35.2129 27.0066 34.3601 27.5L30.5601 29.7V21.56C30.5544 20.544 30.2251 19.5562 29.6201 18.74L24.9301 12.49V9.82999C25.4785 9.6361 25.9535 9.27739 26.2901 8.80298C26.6266 8.32856 26.8083 7.76166 26.8101 7.17999V2.87C26.8074 2.12555 26.5105 1.41236 25.9841 0.885956C25.4577 0.359549 24.7445 0.0626328 24.0001 0.0599976H7.12006C6.3748 0.0599976 5.66006 0.356049 5.13309 0.883026C4.60611 1.41 4.31006 2.12474 4.31006 2.87V7.17999C4.30967 7.7608 4.48926 8.32748 4.82414 8.80203C5.15901 9.27659 5.63271 9.63569 6.18006 9.82999V12.49L1.49006 18.74C0.887921 19.5571 0.562129 20.545 0.560059 21.56V39.71C0.560056 40.9522 1.0528 42.1436 1.93019 43.0228C2.80757 43.9021 3.99793 44.3974 5.24006 44.4H20.3101C21.3201 46.0916 22.9551 47.3178 24.8619 47.8137C26.7686 48.3095 28.7939 48.0352 30.5001 47.05L41.8601 40.49C43.5808 39.4924 44.8362 37.8539 45.3516 35.9329C45.867 34.0119 45.6004 31.9649 44.6101 30.24V30.24ZM6.18006 2.87C6.18006 2.62069 6.27909 2.38161 6.45538 2.20532C6.63166 2.02904 6.87075 1.92999 7.12006 1.92999H24.0001C24.2494 1.92999 24.4885 2.02904 24.6647 2.20532C24.841 2.38161 24.9401 2.62069 24.9401 2.87V7.17999C24.9401 7.4293 24.841 7.66838 24.6647 7.84467C24.4885 8.02095 24.2494 8.12 24.0001 8.12H7.12006C6.87075 8.12 6.63166 8.02095 6.45538 7.84467C6.27909 7.66838 6.18006 7.4293 6.18006 7.17999V2.87ZM2.99006 19.87L7.87006 13.37C7.9884 13.2068 8.05463 13.0116 8.06006 12.81V10H23.0601V11.88H14.6201C14.4891 11.8664 14.3569 11.8805 14.2317 11.9214C14.1066 11.9622 13.9915 12.0288 13.8937 12.1169C13.796 12.2051 13.7178 12.3127 13.6644 12.433C13.6109 12.5532 13.5832 12.6834 13.5832 12.815C13.5832 12.9466 13.6109 13.0767 13.6644 13.197C13.7178 13.3172 13.796 13.4249 13.8937 13.5131C13.9915 13.6012 14.1066 13.6678 14.2317 13.7086C14.3569 13.7495 14.4891 13.7636 14.6201 13.75H23.5301L28.1201 19.88C28.4161 20.2819 28.6023 20.7541 28.6601 21.25H2.45006C2.5091 20.7497 2.69879 20.2738 3.00006 19.87H2.99006ZM5.24006 42.52C4.4948 42.52 3.78006 42.2239 3.25309 41.697C2.72611 41.17 2.43006 40.4553 2.43006 39.71V38.71H19.4301C19.1151 39.9436 19.1151 41.2364 19.4301 42.47L5.24006 42.52ZM20.2401 36.9H2.43006V23.12H28.6801V30.78L23.0001 34.06C21.8269 34.7358 20.8592 35.7174 20.2001 36.9H20.2401ZM29.6001 45.43C28.3109 46.1169 26.8053 46.2758 25.4012 45.8734C23.997 45.4709 22.8043 44.5384 22.0748 43.2729C21.3454 42.0074 21.1363 40.5079 21.4918 39.0911C21.8473 37.6744 22.7395 36.4512 23.9801 35.68L29.0001 32.75L34.6301 42.49L29.6001 45.43ZM40.9701 38.86L36.3101 41.55L30.6901 31.81L35.3401 29.12C36.6268 28.4466 38.1239 28.2965 39.5188 28.701C40.9136 29.1055 42.0981 30.0334 42.8249 31.2907C43.5517 32.5481 43.7645 34.0376 43.4188 35.4482C43.0732 36.8587 42.1958 38.0811 40.9701 38.86V38.86Z" fill="white"/>
</svg>
