<svg width="39" height="49" viewBox="0 0 39 49" fill="none" xmlns="http://www.w3.org/2000/svg">
<path d="M37.71 41.56H27.8C30.4653 40.2582 32.7811 38.3388 34.555 35.9614C36.3288 33.5841 37.5094 30.8175 37.9985 27.8919C38.4875 24.9663 38.271 21.9663 37.3668 19.1412C36.4626 16.3162 34.8969 13.7479 32.8 11.65L31.66 10.51L32.66 9.51001C32.8617 9.30849 33.0217 9.06917 33.1309 8.80579C33.24 8.5424 33.2962 8.26008 33.2962 7.97498C33.2962 7.68987 33.24 7.40761 33.1309 7.14423C33.0217 6.88084 32.8617 6.64153 32.66 6.44L32.01 5.78003L32.7 5.09003C32.8875 4.9041 33.0363 4.68287 33.1378 4.43915C33.2394 4.19543 33.2916 3.93401 33.2916 3.66998C33.2916 3.40596 33.2394 3.14454 33.1378 2.90082C33.0363 2.6571 32.8875 2.43593 32.7 2.25L31.58 1.13C31.3941 0.942548 31.1729 0.793737 30.9292 0.6922C30.6855 0.590662 30.4241 0.538391 30.16 0.538391C29.896 0.538391 29.6346 0.590662 29.3909 0.6922C29.1472 0.793737 28.9259 0.942548 28.74 1.13L28.05 1.82001L27.39 1.15997C26.9788 0.756874 26.4259 0.531128 25.85 0.531128C25.2742 0.531128 24.7213 0.756874 24.31 1.15997L8.87003 16.61C8.46211 17.0187 8.233 17.5726 8.233 18.15C8.233 18.7275 8.46211 19.2813 8.87003 19.69L9.52002 20.35L6.30002 23.57C6.21264 23.6573 6.14333 23.761 6.09604 23.8751C6.04874 23.9892 6.02438 24.1115 6.02438 24.235C6.02438 24.3585 6.04874 24.4808 6.09604 24.5949C6.14333 24.709 6.21264 24.8127 6.30002 24.9L9.00003 27.5C9.1744 27.6769 9.41168 27.7776 9.66003 27.78C9.91056 27.7739 10.1497 27.674 10.33 27.5L13.55 24.28L14.21 24.93C14.4109 25.1329 14.6499 25.2939 14.9134 25.4038C15.1769 25.5137 15.4595 25.5703 15.745 25.5703C16.0305 25.5703 16.3132 25.5137 16.5766 25.4038C16.8401 25.2939 17.0792 25.1329 17.28 24.93L23.93 18.29C24.7484 18.8284 25.7183 19.089 26.6963 19.0331C27.6743 18.9773 28.6083 18.608 29.36 17.98C30.5484 19.6742 31.2748 21.6488 31.4677 23.7092C31.6606 25.7696 31.3133 27.8447 30.46 29.73C30.4054 29.8427 30.3739 29.9653 30.3673 30.0904C30.3607 30.2155 30.3792 30.3406 30.4217 30.4585C30.4641 30.5764 30.5297 30.6845 30.6146 30.7767C30.6995 30.8688 30.8019 30.9431 30.9159 30.9951C31.0299 31.047 31.1531 31.0757 31.2783 31.0794C31.4035 31.0831 31.5282 31.0617 31.6451 31.0165C31.7619 30.9714 31.8685 30.9033 31.9587 30.8163C32.0488 30.7293 32.1207 30.6252 32.17 30.51C33.1865 28.2475 33.5734 25.7527 33.29 23.2886C33.0067 20.8246 32.0635 18.4827 30.56 16.51C30.9057 15.7956 31.0607 15.0039 31.0099 14.2119C30.9591 13.4198 30.7042 12.6544 30.27 11.99L30.38 11.89L31.51 13.02C33.1069 14.5656 34.3803 16.4135 35.2559 18.4561C36.1316 20.4986 36.592 22.6951 36.6104 24.9174C36.6288 27.1396 36.2047 29.3433 35.363 31.4001C34.5212 33.4569 33.2786 35.3256 31.7075 36.8974C30.1364 38.4692 28.2682 39.7126 26.2118 40.5552C24.1553 41.3978 21.9518 41.8228 19.7295 41.8054C17.5072 41.7879 15.3106 41.3284 13.2677 40.4536C11.2247 39.5788 9.37627 38.3063 7.83002 36.71C7.60002 36.47 7.37002 36.23 7.15002 35.98H11.62C13.707 37.4996 16.1805 38.3996 18.756 38.5765C21.3316 38.7534 23.9049 38.2 26.18 36.98C26.2891 36.9223 26.3856 36.8435 26.4638 36.7481C26.5421 36.6528 26.6007 36.5428 26.636 36.4246C26.6714 36.3064 26.6829 36.1823 26.6698 36.0596C26.6568 35.9369 26.6195 35.8181 26.56 35.71C26.4415 35.4917 26.2414 35.3292 26.0034 35.258C25.7655 35.1868 25.509 35.2127 25.29 35.33C23.8058 36.1278 22.169 36.6009 20.4881 36.7181C18.8072 36.8354 17.1206 36.594 15.54 36.01C15.7614 35.9698 15.9628 35.8562 16.1116 35.6874C16.2604 35.5187 16.3479 35.3047 16.36 35.08V31.29C16.36 31.0433 16.2621 30.8068 16.0876 30.6324C15.9132 30.458 15.6767 30.36 15.43 30.36H2.43002C2.18244 30.36 1.94486 30.4576 1.76886 30.6318C1.59286 30.8059 1.49265 31.0424 1.49002 31.29V35C1.49265 35.2476 1.59286 35.4841 1.76886 35.6582C1.94486 35.8323 2.18244 35.93 2.43002 35.93H4.75003C5.29127 36.654 5.88272 37.339 6.52002 37.98C7.9748 39.4445 9.66491 40.6546 11.52 41.56H1.72003C1.47073 41.56 1.23164 41.659 1.05536 41.8353C0.879075 42.0116 0.780029 42.2507 0.780029 42.5V47.56C0.780029 47.8093 0.879075 48.0484 1.05536 48.2247C1.23164 48.401 1.47073 48.5 1.72003 48.5H37.72C37.9693 48.5 38.2084 48.401 38.3847 48.2247C38.561 48.0484 38.66 47.8093 38.66 47.56V42.5C38.66 42.3757 38.6354 42.2526 38.5875 42.1379C38.5397 42.0232 38.4695 41.9192 38.3812 41.8318C38.2928 41.7444 38.188 41.6753 38.0728 41.6287C37.9576 41.582 37.8343 41.5587 37.71 41.56V41.56ZM30.12 2.41998C30.1442 2.39676 30.1765 2.38379 30.21 2.38379C30.2436 2.38379 30.2758 2.39676 30.3 2.41998L31.42 3.53998C31.4272 3.55567 31.4309 3.57277 31.4309 3.59003C31.4309 3.60728 31.4272 3.62433 31.42 3.64001C31.4271 3.65397 31.4307 3.66937 31.4307 3.685C31.4307 3.70063 31.4271 3.71602 31.42 3.72998L30.73 4.41998L29.42 3.12L30.12 2.41998ZM9.64005 25.51L8.33002 24.2L10.9 21.64L11.55 22.3L12.21 22.95L9.64005 25.51ZM26.42 17.16C25.8841 17.16 25.3601 17.0011 24.9144 16.7033C24.4688 16.4055 24.1214 15.9822 23.9163 15.4871C23.7112 14.9919 23.6575 14.447 23.7621 13.9213C23.8667 13.3956 24.1248 12.9128 24.5038 12.5338C24.8828 12.1548 25.3656 11.8966 25.8913 11.7921C26.417 11.6875 26.9619 11.7412 27.4571 11.9463C27.9523 12.1514 28.3755 12.4987 28.6733 12.9444C28.9711 13.3901 29.13 13.914 29.13 14.45C29.13 15.1687 28.8445 15.858 28.3363 16.3663C27.8281 16.8745 27.1388 17.16 26.42 17.16V17.16ZM31.42 8.15997L28.96 10.62C28.0799 10.0385 27.026 9.77858 25.9763 9.88428C24.9267 9.98998 23.9458 10.4548 23.1992 11.2001C22.4527 11.9455 21.9864 12.9257 21.879 13.9752C21.7717 15.0246 22.0299 16.079 22.61 16.96L15.97 23.61C15.9112 23.6634 15.8345 23.693 15.755 23.693C15.6755 23.693 15.5989 23.6634 15.54 23.61L14.23 22.29L12.59 20.65L15.48 17.77C15.6564 17.5937 15.7555 17.3544 15.7555 17.105C15.7555 16.8556 15.6564 16.6164 15.48 16.44C15.3037 16.2636 15.0645 16.1646 14.815 16.1646C14.5656 16.1646 14.3264 16.2636 14.15 16.44L11.27 19.33L10.27 18.33C10.2416 18.3029 10.219 18.2704 10.2035 18.2343C10.188 18.1982 10.18 18.1593 10.18 18.12C10.18 18.0807 10.188 18.0418 10.2035 18.0057C10.219 17.9696 10.2416 17.9371 10.27 17.91L25.72 2.46002C25.7754 2.4035 25.8509 2.37112 25.93 2.37C25.9709 2.36922 26.0115 2.3768 26.0493 2.39227C26.0871 2.40775 26.1214 2.43082 26.15 2.46002L31.42 7.72998C31.4695 7.79251 31.4938 7.87127 31.4883 7.95081C31.4827 8.03034 31.4477 8.10492 31.39 8.15997H31.42ZM5.22003 34.06H3.35004V32.15H14.5V34.06H5.22003ZM36.81 46.62H2.65002V43.43H36.78V46.62H36.81Z" fill="white"/>
<path d="M29.36 33.2C29.2727 33.1126 29.1691 33.0433 29.055 32.996C28.9409 32.9487 28.8186 32.9244 28.695 32.9244C28.5715 32.9244 28.4492 32.9487 28.3351 32.996C28.221 33.0433 28.1173 33.1126 28.03 33.2V33.2C27.9426 33.2873 27.8733 33.391 27.826 33.5051C27.7787 33.6192 27.7544 33.7415 27.7544 33.865C27.7544 33.9885 27.7787 34.1108 27.826 34.2249C27.8733 34.339 27.9426 34.4427 28.03 34.53C28.115 34.6194 28.2174 34.6904 28.3309 34.7385C28.4445 34.7867 28.5667 34.811 28.69 34.81C28.8124 34.8106 28.9337 34.7871 29.0469 34.7408C29.1602 34.6945 29.2632 34.6262 29.35 34.54C29.4408 34.4539 29.5133 34.3504 29.5631 34.2357C29.6129 34.1209 29.6391 33.9972 29.6401 33.8721C29.641 33.747 29.6167 33.623 29.5686 33.5075C29.5205 33.392 29.4495 33.2874 29.36 33.2Z" fill="white"/>
<path d="M17.8 14.09C17.6475 13.9424 17.4487 13.852 17.2372 13.8342C17.0257 13.8164 16.8145 13.8722 16.6395 13.9923C16.4645 14.1124 16.3364 14.2893 16.2769 14.4931C16.2174 14.6968 16.2302 14.9148 16.3131 15.1102C16.396 15.3056 16.5439 15.4663 16.7317 15.5651C16.9196 15.6639 17.1358 15.6948 17.3438 15.6524C17.5517 15.61 17.7386 15.497 17.8728 15.3325C18.007 15.1681 18.0802 14.9623 18.08 14.75C18.0804 14.6268 18.0558 14.5047 18.0077 14.3912C17.9596 14.2778 17.8889 14.1754 17.8 14.09V14.09Z" fill="white"/>
</svg>
