<svg width="37" height="34" viewBox="0 0 37 34" fill="none" xmlns="http://www.w3.org/2000/svg">
<g clip-path="url(#clip0)">
<path d="M22.48 8.86999C22.5395 8.95777 22.6177 9.03131 22.7089 9.08536C22.8001 9.13941 22.9022 9.17265 23.0078 9.18268C23.1133 9.19271 23.2198 9.1793 23.3196 9.14341C23.4194 9.10751 23.51 9.05001 23.585 8.97503C23.66 8.90004 23.7175 8.80941 23.7534 8.70963C23.7893 8.60984 23.8027 8.50335 23.7927 8.39778C23.7826 8.29221 23.7494 8.19016 23.6953 8.09892C23.6413 8.00768 23.5677 7.92951 23.48 7.86999V7.86999C23.4205 7.78222 23.3423 7.70868 23.2511 7.65463C23.1598 7.60057 23.0578 7.56734 22.9522 7.55731C22.8466 7.54727 22.7401 7.56068 22.6403 7.59658C22.5406 7.63248 22.4499 7.68997 22.3749 7.76496C22.3 7.83995 22.2425 7.93057 22.2066 8.03036C22.1707 8.13015 22.1573 8.23663 22.1673 8.34221C22.1773 8.44778 22.2106 8.54983 22.2646 8.64107C22.3187 8.73231 22.3922 8.81048 22.48 8.86999V8.86999Z" fill="white"/>
<path d="M34.07 15.66L36.57 13.16C36.7019 13.027 36.7759 12.8473 36.7759 12.66C36.7759 12.4727 36.7019 12.293 36.57 12.16C36.5038 12.0914 36.4246 12.0366 36.337 11.9988C36.2495 11.9611 36.1553 11.9411 36.06 11.94H30.86C30.4157 9.89672 29.5668 7.96312 28.3633 6.25323C27.1597 4.54334 25.6259 3.0918 23.8524 1.98423C22.0788 0.876655 20.1014 0.135486 18.0368 -0.19556C15.9721 -0.526606 13.8621 -0.440824 11.8312 0.0567246C9.80025 0.554274 7.88952 1.45351 6.21172 2.7014C4.53391 3.94928 3.12301 5.52054 2.06223 7.32248C1.00145 9.12443 0.312283 11.1206 0.0353812 13.1931C-0.241521 15.2657 -0.10055 17.3728 0.449977 19.39C1.42594 23.3931 3.94123 26.8498 7.44998 29.01L5.30998 32.84C5.25892 32.9225 5.22534 33.0147 5.21131 33.1108C5.19728 33.2068 5.2031 33.3047 5.2284 33.3985C5.25371 33.4922 5.29796 33.5797 5.35843 33.6557C5.4189 33.7316 5.4943 33.7943 5.57998 33.84C5.69039 33.9001 5.81428 33.931 5.93998 33.93H9.62998C9.75726 33.9301 9.88236 33.8969 9.99287 33.8338C10.1034 33.7706 10.1955 33.6797 10.26 33.57L11.79 30.86C14.3337 31.5 16.9963 31.5 19.54 30.86L21.07 33.57C21.1345 33.6797 21.2266 33.7706 21.3371 33.8338C21.4476 33.8969 21.5727 33.9301 21.7 33.93H25.4C25.5902 33.9301 25.7729 33.8559 25.9092 33.7233C26.0456 33.5907 26.1248 33.4101 26.13 33.22C26.1326 33.0928 26.0978 32.9676 26.03 32.86L23.86 29C27.3696 26.8454 29.8856 23.3913 30.86 19.39H36.06C36.2509 19.39 36.4341 19.3141 36.5691 19.1791C36.7041 19.0441 36.78 18.8609 36.78 18.67C36.7783 18.4793 36.7031 18.2966 36.57 18.16L34.07 15.66ZM32.76 15H27.76L29.34 13.42H34.34L32.76 15ZM9.20998 32.47H7.20998L8.76998 29.71C9.30536 29.9764 9.85637 30.2101 10.42 30.41L9.20998 32.47ZM24.21 32.47H22.21L21 30.41C21.5643 30.2119 22.1154 29.9781 22.65 29.71L24.21 32.47ZM25.77 25.72C24.8393 26.66 23.7785 27.4615 22.62 28.1C21.7476 28.5816 20.8255 28.9671 19.87 29.25H19.76C17.1617 29.9901 14.4083 29.9901 11.81 29.25H11.7C10.7406 28.969 9.81502 28.5834 8.93998 28.1C7.78149 27.4615 6.72066 26.66 5.78998 25.72C4.19546 24.199 2.97625 22.3282 2.22857 20.2553C1.48089 18.1824 1.2252 15.9641 1.48168 13.7754C1.73817 11.5868 2.4998 9.48771 3.70647 7.64383C4.91315 5.79996 6.53184 4.26175 8.43482 3.15061C10.3378 2.03946 12.473 1.38579 14.6718 1.24118C16.8707 1.09656 19.0731 1.46496 21.1052 2.3173C23.1373 3.16964 24.9435 4.4826 26.3813 6.15256C27.8191 7.82252 28.8491 9.80378 29.39 11.94H29C28.9051 11.938 28.8108 11.9557 28.7231 11.9918C28.6353 12.0279 28.556 12.0818 28.49 12.15L26.58 14.05C26.3877 12.741 25.9609 11.4774 25.32 10.32C25.2272 10.1529 25.0718 10.0295 24.888 9.97702C24.7042 9.92451 24.5071 9.94715 24.34 10.04C24.1729 10.1328 24.0495 10.2882 23.997 10.472C23.9445 10.6558 23.9672 10.8529 24.06 11.02V11.02C24.7413 12.2437 25.1442 13.6027 25.24 15H22.09C21.906 13.3567 21.0998 11.8463 19.837 10.7788C18.5742 9.71134 16.9506 9.16789 15.2996 9.26003C13.6486 9.35218 12.0956 10.0729 10.9594 11.2743C9.82326 12.4757 9.19016 14.0664 9.19016 15.72C9.19016 17.3735 9.82326 18.9643 10.9594 20.1657C12.0956 21.367 13.6486 22.0878 15.2996 22.1799C16.9506 22.2721 18.5742 21.7286 19.837 20.6612C21.0998 19.5937 21.906 18.0832 22.09 16.44H25.25C25.0923 18.3315 24.3781 20.1339 23.1973 21.62C22.0165 23.1061 20.4222 24.2092 18.6152 24.7903C16.8083 25.3713 14.8698 25.4043 13.0442 24.8851C11.2185 24.3658 9.58751 23.3176 8.35687 21.8725C7.12623 20.4275 6.35105 18.6504 6.12911 16.7654C5.90717 14.8804 6.24841 12.9718 7.10979 11.2805C7.97116 9.58914 9.31409 8.19075 10.9692 7.26168C12.6243 6.3326 14.5175 5.91446 16.41 6.05998C17.7813 6.16977 19.1138 6.56851 20.32 7.22998C20.4008 7.30147 20.4966 7.3539 20.6003 7.38339C20.7041 7.41288 20.8131 7.41869 20.9194 7.40037C21.0257 7.38205 21.1266 7.34009 21.2145 7.27757C21.3024 7.21505 21.3751 7.13359 21.4273 7.03918C21.4795 6.94478 21.5098 6.83986 21.516 6.73217C21.5222 6.62448 21.5041 6.51678 21.4631 6.41701C21.4221 6.31725 21.3591 6.22798 21.279 6.1558C21.1988 6.08361 21.1035 6.03036 21 5.99998C18.937 4.85534 16.5622 4.39973 14.2221 4.69962C11.8819 4.9995 9.69882 6.03919 7.9911 7.66704C6.28339 9.29489 5.14042 11.4258 4.72889 13.7489C4.31736 16.072 4.65879 18.4658 5.7034 20.5812C6.748 22.6966 8.44113 24.423 10.5359 25.5085C12.6306 26.594 15.0173 26.9819 17.348 26.6156C19.6787 26.2493 21.8313 25.1479 23.4921 23.4721C25.1528 21.7964 26.2347 19.6339 26.58 17.3L28.49 19.2C28.5562 19.2686 28.6354 19.3234 28.7229 19.3611C28.8105 19.3989 28.9046 19.4189 29 19.42H29.37C28.7216 21.8119 27.456 23.9913 25.7 25.74L25.77 25.72ZM18 14.31C17.9524 14.2262 17.8885 14.1528 17.8121 14.0941C17.7356 14.0355 17.6482 13.9928 17.555 13.9685C17.4617 13.9443 17.3645 13.939 17.2692 13.953C17.1739 13.967 17.0823 14 17 14.05V14.05L15.28 15.05C15.1206 15.1424 15.0028 15.2925 14.9507 15.4692C14.8986 15.6459 14.9162 15.8359 15 16C15.0689 16.1089 15.1611 16.2011 15.27 16.27L16.99 17.27C17.1198 17.3365 17.2667 17.362 17.4114 17.3431C17.556 17.3243 17.6915 17.2619 17.7999 17.1643C17.9083 17.0668 17.9845 16.9386 18.0185 16.7967C18.0524 16.6549 18.0425 16.5061 17.99 16.37H20.58C20.4278 17.4458 19.9293 18.4427 19.16 19.21V19.21C18.3626 20.003 17.3212 20.504 16.2039 20.6321C15.0867 20.7602 13.9589 20.508 13.0027 19.9161C12.0465 19.3243 11.3177 18.4273 10.9341 17.3702C10.5505 16.3131 10.5345 15.1575 10.8886 14.0902C11.2427 13.0228 11.9463 12.106 12.8857 11.4879C13.8252 10.8697 14.9455 10.5863 16.0659 10.6833C17.1863 10.7804 18.2412 11.2524 19.0603 12.0229C19.8793 12.7935 20.4147 13.8176 20.58 14.93H18.05C18.0992 14.8323 18.1249 14.7244 18.1249 14.615C18.1249 14.5056 18.0992 14.3977 18.05 14.3L18 14.31ZM29.32 18L27.75 16.42H32.75L34.34 18H29.32Z" fill="white"/>
</g>
<defs>
<clipPath id="clip0">
<rect width="36.79" height="33.91" fill="white"/>
</clipPath>
</defs>
</svg>
