<svg id="Capa_1" data-name="Capa 1" xmlns="http://www.w3.org/2000/svg" xmlns:xlink="http://www.w3.org/1999/xlink" viewBox="0 0 36.79 33.91"><defs><style>.cls-1{fill:none;}.cls-2{fill:#019ae2;}.cls-3{clip-path:url(#clip-path);}</style><clipPath id="clip-path"><rect class="cls-1" x="-57.93" y="123" width="298" height="344"/></clipPath></defs><path class="cls-2" d="M22.48,8.87a.72.72,0,1,0,1-1h0a.72.72,0,1,0-1,1Z"/><path class="cls-2" d="M34.07,15.66l2.5-2.5a.71.71,0,0,0,0-1,.72.72,0,0,0-.51-.22h-5.2A15.66,15.66,0,1,0,.45,19.39a15.65,15.65,0,0,0,7,9.62L5.31,32.84a.71.71,0,0,0,.27,1,.74.74,0,0,0,.36.09H9.63a.73.73,0,0,0,.63-.36l1.53-2.71a15.88,15.88,0,0,0,7.75,0l1.53,2.71a.73.73,0,0,0,.63.36h3.7a.73.73,0,0,0,.73-.71.65.65,0,0,0-.1-.36L23.86,29a15.61,15.61,0,0,0,7-9.61h5.2a.72.72,0,0,0,.72-.72.74.74,0,0,0-.21-.51ZM32.76,15h-5l1.58-1.58h5ZM9.21,32.47h-2l1.56-2.76a14.83,14.83,0,0,0,1.65.7Zm15,0h-2L21,30.41a14.08,14.08,0,0,0,1.65-.7Zm1.56-6.75a13.82,13.82,0,0,1-3.15,2.38l0,0,0,0a13.79,13.79,0,0,1-2.75,1.15l-.11,0a14.51,14.51,0,0,1-7.95,0l-.11,0a13.63,13.63,0,0,1-2.76-1.15l0,0,0,0a13.82,13.82,0,0,1-3.15-2.38A14.22,14.22,0,1,1,29.39,11.94H29a.69.69,0,0,0-.51.21l-1.91,1.9a11,11,0,0,0-1.26-3.73.72.72,0,0,0-1.26.7h0A9.52,9.52,0,0,1,25.24,15H22.09a6.47,6.47,0,1,0,0,1.44h3.16A9.61,9.61,0,1,1,16.41,6.06a9.75,9.75,0,0,1,3.91,1.17A.72.72,0,1,0,21,6h0a11.07,11.07,0,1,0,5.58,11.3l1.91,1.9a.72.72,0,0,0,.51.22h.37a14.14,14.14,0,0,1-3.67,6.32ZM18,14.31a.72.72,0,0,0-1-.26h0l-1.72,1A.72.72,0,0,0,15,16a.87.87,0,0,0,.27.27l1.72,1a.72.72,0,0,0,1-.9h2.59a5,5,0,0,1-1.42,2.84h0a5,5,0,1,1,1.42-4.28H18.05a.7.7,0,0,0,0-.63ZM29.32,18l-1.57-1.58h5L34.34,18Z"/><g class="cls-3"><image width="3456" height="5184" transform="translate(-110.93 30) scale(0.12)" xlink:href="../../../PROPUESTA%20DISE%C3%91O/CARNET/fotos/Nueva%20carpeta/CRISTOPHER%20SOLANO.png"/></g></svg>