<svg width="41" height="50" viewBox="0 0 41 50" fill="none" xmlns="http://www.w3.org/2000/svg">
<path d="M39.9999 12.77C39.9383 12.6611 39.855 12.5658 39.7553 12.4902C39.6556 12.4145 39.5414 12.3601 39.4199 12.33L32.3299 10.43C32.4292 10.1513 32.4995 9.86312 32.5399 9.57002C33.641 9.22905 34.5679 8.47588 35.1269 7.46778C35.686 6.45969 35.8339 5.27458 35.5399 4.15998C35.2888 3.22861 34.7426 2.40376 33.9831 1.80909C33.2236 1.21443 32.2918 0.882045 31.3274 0.861765C30.363 0.841486 29.418 1.13439 28.6342 1.6966C27.8504 2.25881 27.2699 3.06 26.9799 3.97999C26.8012 4.00604 26.6242 4.04281 26.4499 4.09004C25.5612 4.32649 24.757 4.80824 24.1293 5.48023C23.5015 6.15223 23.0755 6.98732 22.8999 7.89002L9.80992 4.38001C9.56587 4.32185 9.30891 4.35752 9.08995 4.47999C8.98132 4.53959 8.88612 4.62098 8.81041 4.71906C8.7347 4.81715 8.6801 4.92982 8.64995 5.05L0.179914 36.67C0.146723 36.7884 0.137601 36.9122 0.153059 37.0341C0.168517 37.1561 0.208268 37.2737 0.269941 37.38C0.399235 37.5981 0.606507 37.759 0.849897 37.83L6.93992 39.46V48.31C6.93992 48.5752 7.0453 48.8296 7.23283 49.0171C7.42037 49.2046 7.67471 49.31 7.93992 49.31H38.6199C38.8851 49.31 39.1395 49.2046 39.327 49.0171C39.5145 48.8296 39.6199 48.5752 39.6199 48.31V15.71L40.2099 13.48C40.2431 13.3616 40.2523 13.2379 40.2368 13.1159C40.2213 12.994 40.1816 12.8764 40.1199 12.77H39.9999ZM30.5499 2.83003C31.2075 2.65874 31.9061 2.75379 32.4941 3.09455C33.082 3.43532 33.5117 3.99429 33.6899 4.65003C33.8199 5.13996 33.8022 5.65737 33.6388 6.13722C33.4755 6.61706 33.174 7.03786 32.7721 7.34675C32.3702 7.65564 31.8859 7.83886 31.3802 7.87324C30.8745 7.90762 30.3699 7.79164 29.9299 7.53999C29.4891 7.28606 29.1336 6.90702 28.9084 6.45088C28.6831 5.99473 28.5983 5.48204 28.6647 4.97767C28.7311 4.4733 28.9457 3.99994 29.2813 3.61762C29.6169 3.2353 30.0584 2.96123 30.5499 2.83003V2.83003ZM25.0899 7.32002C25.4668 6.66408 26.0776 6.17475 26.7999 5.95002C26.8245 6.12492 26.8579 6.29843 26.8999 6.46998C27.1315 7.30976 27.6013 8.06456 28.2525 8.64308C28.9038 9.22159 29.7087 9.59908 30.5699 9.72999C30.4301 10.1164 30.2123 10.4699 29.9302 10.7686C29.6481 11.0674 29.3077 11.305 28.93 11.4667C28.5523 11.6285 28.1453 11.7109 27.7344 11.7089C27.3235 11.7069 26.9174 11.6205 26.5413 11.4551C26.1652 11.2897 25.8271 11.0488 25.5479 10.7473C25.2687 10.4458 25.0544 10.0902 24.9183 9.70252C24.7822 9.31482 24.7272 8.90325 24.7568 8.49342C24.7863 8.08359 24.8997 7.68422 25.0899 7.32002ZM10.2099 6.46003L22.8999 9.85999L22.9599 10.1C23.1 10.619 23.3229 11.112 23.6199 11.56L22.6199 12.56C22.4541 12.7438 22.3623 12.9825 22.3623 13.23C22.3623 13.4775 22.4541 13.7163 22.6199 13.9C22.8003 14.074 23.0394 14.1739 23.2899 14.18C23.5404 14.1739 23.7796 14.074 23.9599 13.9L24.9599 12.9C25.7729 13.4379 26.7252 13.7263 27.6999 13.73C28.1291 13.7319 28.5564 13.6748 28.9699 13.56C29.878 13.3154 30.6971 12.8157 31.3299 12.12L38.0199 13.91L31.6299 37.77L26.6299 36.42C26.3894 36.3711 26.1393 36.4124 25.9273 36.5359C25.7152 36.6594 25.556 36.8567 25.4799 37.09L24.1299 42.09L2.24992 36.22L10.2099 6.46003ZM29.8499 39.25L26.2899 41.31L27.0399 38.5L29.8499 39.25ZM37.6099 47.37H8.80992V40L24.5399 44.21C24.6196 44.2197 24.7002 44.2197 24.78 44.21C24.946 44.2135 25.1093 44.1683 25.2499 44.08L32.7699 39.74C32.8786 39.6804 32.9737 39.599 33.0494 39.5009C33.1251 39.4028 33.1798 39.2902 33.2099 39.17L37.6099 22.77V47.37V47.37Z" fill="white"/>
<path d="M11.79 18.69L30.47 23.69C30.5497 23.6997 30.6303 23.6997 30.71 23.69C30.9362 23.6848 31.1531 23.599 31.3217 23.4481C31.4903 23.2972 31.5995 23.0911 31.6296 22.8668C31.6598 22.6426 31.6088 22.4149 31.4861 22.2249C31.3633 22.0348 31.1768 21.8948 30.96 21.83L12.28 16.83C12.1566 16.7867 12.0255 16.7692 11.895 16.7789C11.7645 16.7885 11.6373 16.8251 11.5216 16.8861C11.4059 16.9472 11.304 17.0315 11.2224 17.1338C11.1408 17.2361 11.0812 17.3541 11.0474 17.4806C11.0135 17.607 11.0061 17.739 11.0257 17.8684C11.0453 17.9978 11.0913 18.1218 11.1611 18.2325C11.2308 18.3432 11.3227 18.4384 11.4309 18.5119C11.5391 18.5855 11.6614 18.6359 11.79 18.66V18.69Z" fill="white"/>
<path d="M10.8 22.36L29.48 27.36C29.5631 27.3698 29.647 27.3698 29.73 27.36C29.9591 27.3611 30.1808 27.2785 30.3532 27.1277C30.5257 26.9768 30.6372 26.7682 30.6667 26.541C30.6961 26.3138 30.6416 26.0836 30.5133 25.8938C30.3851 25.7039 30.1918 25.5675 29.97 25.51L11.29 20.51C11.0547 20.4659 10.8115 20.5123 10.6089 20.6399C10.4063 20.7674 10.2593 20.9668 10.1974 21.198C10.1354 21.4293 10.1631 21.6754 10.2749 21.8872C10.3866 22.0989 10.5742 22.2607 10.8 22.3401V22.36Z" fill="white"/>
<path d="M15.54 25.6L10.3101 24.2C10.0747 24.1559 9.83143 24.2023 9.62884 24.3299C9.42624 24.4574 9.27932 24.6568 9.2174 24.888C9.15548 25.1193 9.18311 25.3654 9.29485 25.5772C9.4066 25.7889 9.59419 25.9507 9.82006 26.0301L15.05 27.43C15.1298 27.4397 15.2103 27.4397 15.29 27.43C15.5162 27.4248 15.7331 27.339 15.9017 27.1881C16.0703 27.0372 16.1795 26.8311 16.2096 26.6068C16.2398 26.3826 16.1889 26.1549 16.0662 25.9649C15.9434 25.7748 15.7568 25.6348 15.54 25.57V25.6Z" fill="white"/>
<path d="M19.4001 26.67C19.2169 26.6799 19.0404 26.7427 18.8921 26.8507C18.7437 26.9588 18.6299 27.1075 18.5643 27.2789C18.4987 27.4503 18.4841 27.637 18.5223 27.8165C18.5605 27.996 18.65 28.1606 18.7797 28.2903C18.9095 28.4201 19.0741 28.5095 19.2536 28.5478C19.4331 28.586 19.6198 28.5714 19.7912 28.5058C19.9625 28.4402 20.1113 28.3263 20.2193 28.178C20.3274 28.0297 20.3902 27.8532 20.4001 27.67C20.4089 27.5363 20.3891 27.4024 20.342 27.2771C20.2949 27.1517 20.2215 27.038 20.1268 26.9433C20.0321 26.8486 19.9183 26.7752 19.793 26.7281C19.6677 26.6809 19.5337 26.6611 19.4001 26.67V26.67Z" fill="white"/>
</svg>
