<svg width="35" height="49" viewBox="0 0 35 49" fill="none" xmlns="http://www.w3.org/2000/svg">
<path d="M16.55 5H17.0801V5.53003C17.0801 5.72364 17.157 5.9093 17.2939 6.0462C17.4308 6.18311 17.6165 6.26001 17.8101 6.26001C18.0037 6.26001 18.1893 6.18311 18.3262 6.0462C18.4631 5.9093 18.54 5.72364 18.54 5.53003V5H19.0001C19.1937 5 19.3793 4.9231 19.5162 4.78619C19.6531 4.64929 19.73 4.46363 19.73 4.27002C19.7288 4.17636 19.7088 4.08388 19.6711 3.99811C19.6335 3.91233 19.5791 3.83497 19.511 3.77063C19.4429 3.70629 19.3626 3.65628 19.2748 3.62354C19.1871 3.59079 19.0936 3.57599 19.0001 3.58002H18.47V3.04999C18.47 2.85638 18.3931 2.67072 18.2562 2.53381C18.1193 2.39691 17.9337 2.32001 17.7401 2.32001C17.5464 2.32001 17.3608 2.39691 17.2239 2.53381C17.087 2.67072 17.0101 2.85638 17.0101 3.04999V3.58002H16.5601C16.4642 3.58002 16.3693 3.59887 16.2807 3.63556C16.1921 3.67225 16.1117 3.72604 16.0439 3.79382C15.9761 3.86161 15.9223 3.94207 15.8856 4.03064C15.8489 4.11921 15.8301 4.21413 15.8301 4.31C15.83 4.40319 15.8488 4.49544 15.8853 4.58118C15.9219 4.66691 15.9754 4.74436 16.0427 4.80884C16.1099 4.87332 16.1896 4.9235 16.2768 4.95636C16.364 4.98922 16.4569 5.00405 16.55 5V5Z" fill="white"/>
<path d="M7.18004 36.14C6.41155 36.6727 5.73587 37.3281 5.18004 38.08C5.11667 38.1529 5.07007 38.2388 5.04351 38.3316C5.01695 38.4245 5.0111 38.522 5.02636 38.6174C5.04162 38.7127 5.07762 38.8036 5.13183 38.8836C5.18603 38.9635 5.25713 39.0306 5.34008 39.08C5.41296 39.1394 5.49699 39.1834 5.58727 39.2096C5.67755 39.2358 5.77221 39.2435 5.86553 39.2323C5.95885 39.2211 6.04896 39.1912 6.13048 39.1444C6.21201 39.0976 6.28331 39.035 6.34008 38.96C6.82456 38.3356 7.38561 37.7745 8.01006 37.29C8.0904 37.2383 8.15891 37.1702 8.21117 37.0902C8.26343 37.0102 8.29825 36.9201 8.31334 36.8258C8.32844 36.7314 8.32351 36.6349 8.29882 36.5426C8.27413 36.4503 8.23022 36.3642 8.17003 36.29C8.11958 36.2094 8.05232 36.1407 7.97283 36.0885C7.89334 36.0363 7.80354 36.0019 7.70952 35.9877C7.61551 35.9734 7.51947 35.9796 7.42809 36.0059C7.33671 36.0322 7.25211 36.078 7.18004 36.14Z" fill="white"/>
<path d="M23.82 32C23.5203 31.9801 23.2196 31.9801 22.92 32C22.784 31.997 22.6534 31.9462 22.5511 31.8566C22.4487 31.7671 22.3811 31.6444 22.36 31.51C25.344 31.1776 28.222 30.2091 30.8 28.67C30.9039 28.6039 30.9906 28.5142 31.0532 28.4082C31.1158 28.3022 31.1524 28.1829 31.16 28.06V16.29C31.16 11.7 29.62 8.08999 26.66 5.72999L27.8 1.39002C27.8297 1.2846 27.8344 1.17363 27.8135 1.06611C27.7926 0.958584 27.7467 0.857513 27.6796 0.770942C27.6124 0.684372 27.5259 0.614748 27.427 0.567695C27.3281 0.520643 27.2195 0.497452 27.11 0.500007H8.42999C8.32114 0.499517 8.21363 0.524046 8.11578 0.571724C8.01793 0.619402 7.93235 0.688948 7.86566 0.774971C7.79896 0.860994 7.75299 0.961174 7.7312 1.06782C7.7094 1.17446 7.71239 1.28473 7.73998 1.39002C8.02998 2.49002 8.91998 5.72999 8.91998 5.72999C5.91998 8.04999 4.41998 11.73 4.41998 16.29V28C4.41925 28.1247 4.45235 28.2473 4.51574 28.3547C4.57913 28.4622 4.67049 28.5503 4.78002 28.61C7.34418 30.1789 10.229 31.1497 13.22 31.45C13.2006 31.5843 13.1332 31.707 13.0302 31.7952C12.9272 31.8835 12.7956 31.9314 12.66 31.93C12.33 31.93 11.72 31.98 11.66 31.98C8.71483 32.1913 5.9614 33.5187 3.96173 35.6912C1.96205 37.8637 0.866974 40.7175 0.900019 43.67V47.89C0.907576 48.0829 0.988228 48.2657 1.12567 48.4013C1.2631 48.5369 1.44701 48.6151 1.64001 48.62H34C34.1912 48.6126 34.3727 48.5333 34.508 48.398C34.6433 48.2626 34.7226 48.0813 34.73 47.89V43.71C34.66 39.55 31.81 32.65 23.82 32ZM17.77 37.19L13.39 33.19C13.766 33.0486 14.0885 32.7934 14.3126 32.46C14.5367 32.1266 14.6511 31.7316 14.64 31.33V30.03C16.6834 30.7197 18.8966 30.7197 20.94 30.03V31.33C20.9388 31.7294 21.0572 32.12 21.28 32.4515C21.5028 32.783 21.8197 33.0402 22.19 33.19L17.77 37.19ZM9.15997 16.81C14.36 16.33 18.26 14.91 21.06 12.47C22.64 14.54 23.7 15.96 26.42 16.57V20.47C26.42 22.7641 25.5087 24.9643 23.8865 26.5865C22.2643 28.2087 20.0641 29.12 17.77 29.12C15.4759 29.12 13.2757 28.2087 11.6535 26.5865C10.0313 24.9643 9.11999 22.7641 9.11999 20.47L9.15997 16.81ZM22.36 30.01V29.44C24.0099 28.604 25.3957 27.3266 26.3632 25.7501C27.3306 24.1736 27.8418 22.3597 27.84 20.51V16.86C28.4697 16.9453 29.1046 16.9854 29.74 16.98V27.57C27.47 28.8717 24.9592 29.6984 22.36 30V30.01ZM26.17 1.91999L24.47 8.28999C20.1613 6.60964 15.3786 6.60964 11.07 8.28999L9.36999 1.91999H26.17ZM9.33001 7.24L9.94 9.43C9.96866 9.53028 10.0191 9.62301 10.0876 9.70161C10.1562 9.7802 10.2413 9.84277 10.3367 9.88477C10.4322 9.92678 10.5357 9.9472 10.64 9.94465C10.7443 9.9421 10.8467 9.91662 10.94 9.87C13.104 8.92328 15.438 8.42652 17.8 8.40998C20.1598 8.446 22.49 8.94195 24.66 9.87C24.7535 9.91483 24.8557 9.93895 24.9595 9.94062C25.0632 9.9423 25.1661 9.92149 25.261 9.87971C25.356 9.83792 25.4408 9.77611 25.5097 9.69849C25.5786 9.62087 25.6298 9.52928 25.66 9.43L26.27 7.24C27.3826 8.31992 28.2652 9.61368 28.865 11.0435C29.4647 12.4733 29.7692 14.0095 29.76 15.56C26.52 15.56 24.53 15.15 21.76 11.01C21.6992 10.93 21.6222 10.8638 21.5339 10.8157C21.4457 10.7677 21.3482 10.739 21.248 10.7315C21.1478 10.7239 21.0472 10.7377 20.9527 10.7719C20.8582 10.8062 20.7721 10.86 20.7 10.93C17.7 13.93 12.79 15.48 5.92999 15.56C5.90909 14.016 6.19936 12.4835 6.7835 11.0541C7.36765 9.62465 8.23372 8.3275 9.33001 7.24ZM5.84002 17C6.49002 17 7.12998 17 7.73998 17V20.61C7.73817 22.4597 8.24941 24.2737 9.21685 25.8502C10.1843 27.4267 11.57 28.7039 13.22 29.54V30.11C10.6119 29.8162 8.09625 28.9708 5.84002 27.63V17ZM2.29998 43.71C2.29997 41.1731 3.23711 38.7256 4.93145 36.8375C6.62579 34.9493 8.95788 33.7536 11.48 33.48L16.71 38.23L15.01 39.81C14.9316 39.8736 14.869 39.9546 14.8274 40.0466C14.7857 40.1386 14.7661 40.2391 14.77 40.34V47.24H2.29998V43.71ZM33.23 47.2H16.23V40.6L24.1 33.46H24.18C24.815 33.5316 25.4413 33.6655 26.05 33.86V33.86C28.1461 34.5129 29.9785 35.8191 31.2793 37.5877C32.5801 39.3563 33.2812 41.4946 33.28 43.69L33.23 47.2Z" fill="white"/>
<path d="M26.9401 40.36H23.29C23.0964 40.36 22.9108 40.4369 22.7739 40.5738C22.637 40.7107 22.5601 40.8964 22.5601 41.09C22.5601 41.2836 22.637 41.4693 22.7739 41.6062C22.9108 41.7431 23.0964 41.82 23.29 41.82H26.9401C27.1337 41.82 27.3193 41.7431 27.4562 41.6062C27.5931 41.4693 27.67 41.2836 27.67 41.09C27.665 40.898 27.5864 40.7152 27.4506 40.5794C27.3148 40.4436 27.1321 40.365 26.9401 40.36V40.36Z" fill="white"/>
</svg>
