<svg width="33" height="39" viewBox="0 0 33 39" fill="none" xmlns="http://www.w3.org/2000/svg">
<path d="M32.76 33.91L26.83 23.65C28.6808 21.6314 29.9042 19.1178 30.351 16.4159C30.7977 13.7139 30.4485 10.9403 29.3459 8.43342C28.2433 5.92652 26.435 3.79467 24.1415 2.29791C21.8481 0.801139 19.1686 0.00415039 16.43 0.00415039C13.6913 0.00415039 11.0118 0.801139 8.71838 2.29791C6.42493 3.79467 4.61662 5.92652 3.51403 8.43342C2.41144 10.9403 2.06222 13.7139 2.50896 16.4159C2.95571 19.1178 4.17912 21.6314 6.02996 23.65L0.0999621 33.91C0.0458989 34.0047 0.0125918 34.1099 0.00224786 34.2185C-0.00809609 34.3271 0.00475927 34.4367 0.0399621 34.54C0.0648478 34.6297 0.107886 34.7133 0.166411 34.7857C0.224937 34.8581 0.297702 34.9177 0.380201 34.9608C0.462699 35.004 0.553173 35.0297 0.646019 35.0364C0.738864 35.0431 0.832104 35.0307 0.919962 35V35L5.65996 33.11L6.38996 38.18C6.39896 38.2829 6.43397 38.3819 6.49169 38.4676C6.54941 38.5533 6.62796 38.6229 6.71996 38.67C6.80149 38.7229 6.89315 38.7583 6.9891 38.7738C7.08504 38.7894 7.18318 38.7848 7.27725 38.7603C7.37132 38.7359 7.45927 38.6921 7.53549 38.6318C7.61171 38.5714 7.67454 38.4959 7.71996 38.41L13.72 28.04C14.6035 28.2095 15.5004 28.2998 16.4 28.31C17.2743 28.2872 18.1447 28.1834 19 28L25 38.37C25.0998 38.5352 25.2603 38.6548 25.4471 38.7034C25.6339 38.752 25.8323 38.7256 26 38.63C26.092 38.5829 26.1705 38.5133 26.2282 38.4276C26.286 38.3419 26.321 38.2429 26.33 38.14L27.06 33.07L31.8 34.96C31.9685 35.0261 32.1563 35.0232 32.3227 34.9522C32.4892 34.8811 32.6211 34.7474 32.69 34.58C32.783 34.4971 32.8418 34.3825 32.8547 34.2585C32.8677 34.1346 32.8339 34.0103 32.76 33.91ZM7.55996 35.91L6.99996 32C6.97036 31.8197 6.8733 31.6573 6.72846 31.5459C6.58363 31.4345 6.40184 31.3823 6.21996 31.4C6.15053 31.4092 6.08302 31.4295 6.01996 31.46L2.29996 32.89L7.06996 24.64C8.58674 25.9904 10.3777 26.9968 12.32 27.59L7.55996 35.91ZM16.43 26.84C13.9185 26.8447 11.4621 26.104 9.37181 24.7118C7.28152 23.3196 5.65134 21.3385 4.68767 19.0192C3.72399 16.7 3.47017 14.147 3.95834 11.6834C4.44651 9.21982 5.6547 6.95649 7.42996 5.17998C8.59562 3.97285 9.99452 3.01529 11.5417 2.36548C13.0888 1.71568 14.7519 1.38719 16.43 1.39998C18.9414 1.3953 21.3978 2.13595 23.4881 3.52815C25.5784 4.92034 27.2086 6.90148 28.1723 9.22072C29.1359 11.54 29.3898 14.093 28.9016 16.5566C28.4134 19.0201 27.2052 21.2835 25.43 23.06C24.2601 24.2616 22.8604 25.2154 21.3142 25.8648C19.768 26.5142 18.107 26.8459 16.43 26.84V26.84ZM26.9 31.44C26.8386 31.4052 26.7703 31.3847 26.7 31.38C26.5171 31.3542 26.3314 31.4018 26.1835 31.5123C26.0355 31.6228 25.9372 31.7873 25.91 31.97L25.32 35.91L20.54 27.6C22.4892 27.0091 24.2872 26.0027 25.81 24.65L30.58 32.9L26.9 31.44Z" fill="white"/>
<path d="M22.93 11.6599C22.7791 11.4419 22.5717 11.269 22.33 11.1599C22.0934 11.0478 21.8305 11.0029 21.57 11.0299H18.82L18 8.30994C17.861 7.91885 17.5883 7.58945 17.23 7.37994C17.0037 7.27166 16.7559 7.21545 16.505 7.21545C16.2541 7.21545 16.0064 7.27166 15.78 7.37994C15.4103 7.57578 15.1334 7.91023 15.01 8.30994L14.11 10.9999H11.36C11.0995 10.9729 10.8367 11.0178 10.6 11.1299C10.3583 11.239 10.1509 11.4119 10 11.6299C9.88018 11.7936 9.79527 11.9801 9.75055 12.1779C9.70582 12.3758 9.70223 12.5807 9.74001 12.7799C9.77292 12.9802 9.84563 13.1719 9.95383 13.3437C10.062 13.5154 10.2035 13.6638 10.37 13.7799L12.69 15.4399L11.79 18.1499V18.2199C11.7403 18.4371 11.7403 18.6627 11.79 18.8799C11.8233 19.1257 11.9236 19.3575 12.08 19.5499C12.3214 19.8791 12.6789 20.1043 13.08 20.1799C13.2836 20.2117 13.4915 20.2015 13.691 20.1499C13.8905 20.0983 14.0774 20.0064 14.24 19.8799L16.56 18.1899L18.88 19.8799C19.2175 20.1174 19.6297 20.224 20.04 20.1799C20.4431 20.1092 20.8022 19.883 21.04 19.5499C21.1879 19.3513 21.2903 19.1226 21.34 18.8799C21.3897 18.6627 21.3897 18.4371 21.34 18.2199C21.34 18.2199 21.34 18.1499 21.34 18.1499L20.45 15.4399L22.77 13.7799C23.103 13.5421 23.3293 13.183 23.4 12.7799C23.3437 12.372 23.1817 11.9859 22.93 11.6599V11.6599ZM21.77 12.7099L19.06 14.6999C18.941 14.7823 18.8509 14.9 18.8024 15.0364C18.7539 15.1728 18.7496 15.321 18.79 15.4599L19.79 18.6099V18.7499V18.8099C19.7541 18.8504 19.7039 18.8755 19.65 18.8799C19.6072 18.8891 19.5629 18.8891 19.52 18.8799L16.79 16.8799C16.668 16.7833 16.5155 16.7336 16.36 16.7399C16.2058 16.7419 16.0558 16.7907 15.93 16.8799L13.22 18.8799C13.1777 18.893 13.1323 18.893 13.09 18.8799C13.0389 18.8669 12.9911 18.843 12.95 18.8099C12.9453 18.7989 12.9429 18.787 12.9429 18.7749C12.9429 18.7629 12.9453 18.751 12.95 18.7399V18.6099L13.95 15.4599C13.999 15.3215 13.9989 15.1704 13.9498 15.0321C13.9006 14.8937 13.8054 14.7764 13.68 14.6999L11.13 12.6999C11.13 12.6999 11.06 12.6399 11.06 12.5999C11.0469 12.5576 11.0469 12.5123 11.06 12.4699C11.06 12.4699 11.06 12.4699 11.12 12.4699C11.18 12.4699 11.19 12.4699 11.22 12.4699H14.57C14.7176 12.4683 14.861 12.42 14.9795 12.332C15.098 12.244 15.1857 12.1208 15.23 11.9799L16.23 8.79994C16.2284 8.78642 16.2299 8.77272 16.2343 8.75985C16.2388 8.74699 16.2461 8.7353 16.2557 8.72567C16.2654 8.71605 16.277 8.70873 16.2899 8.70427C16.3028 8.69981 16.3165 8.69833 16.33 8.69994C16.33 8.69994 16.38 8.69994 16.39 8.69994C16.4 8.69994 16.46 8.69994 16.46 8.69994L16.56 8.79994L17.56 11.9799C17.6104 12.117 17.6997 12.2364 17.8169 12.3234C17.9341 12.4105 18.0742 12.4614 18.22 12.4699H21.56C21.5924 12.4585 21.6277 12.4585 21.66 12.4699C21.66 12.4699 21.66 12.4699 21.73 12.4699C21.73 12.4699 21.73 12.5399 21.73 12.5999C21.6795 12.6275 21.6324 12.6611 21.59 12.6999L21.77 12.7099Z" fill="white"/>
<path d="M24.2199 6.31996C22.4233 4.51792 20.0576 3.39448 17.5256 3.14103C14.9936 2.88757 12.4521 3.51976 10.334 4.92993C8.21587 6.34009 6.65214 8.44098 5.90921 10.8747C5.16628 13.3085 5.29009 15.9245 6.25956 18.2772C7.22902 20.6299 8.98418 22.5737 11.226 23.7775C13.4679 24.9813 16.0577 25.3707 18.5544 24.8792C21.0511 24.3878 23.3002 23.0459 24.9186 21.0822C26.5369 19.1186 27.4244 16.6546 27.4299 14.11C27.433 12.6643 27.1511 11.2321 26.6003 9.89545C26.0495 8.55877 25.2406 7.34379 24.2199 6.31996V6.31996ZM23.2199 20.9C21.3977 22.5403 19.0179 23.4229 16.5668 23.3676C14.1156 23.3123 11.7781 22.3232 10.0317 20.6023C8.28537 18.8815 7.26194 16.5588 7.17053 14.1087C7.07912 11.6587 7.92662 9.26616 9.53991 7.41996L9.63991 7.31996C10.5247 6.41648 11.5812 5.69895 12.7472 5.20952C13.9132 4.7201 15.1653 4.46865 16.4299 4.46996C18.3301 4.47721 20.1859 5.04532 21.7645 6.10304C23.3432 7.16076 24.5744 8.66102 25.3038 10.4157C26.0332 12.1703 26.2284 14.1013 25.8648 15.9664C25.5012 17.8315 24.595 19.5478 23.2599 20.9H23.2199Z" fill="white"/>
</svg>
