<svg id="Capa_1" data-name="Capa 1" xmlns="http://www.w3.org/2000/svg" viewBox="0 0 44.31 47.78"><defs><style>.cls-1{fill:#019ae2;}</style></defs><g id="Grupo_404" data-name="Grupo 404"><path id="Trazado_1111" data-name="Trazado 1111" class="cls-1" d="M32.36,26.47h-6.8a.7.7,0,0,0,0,1.39h6.8a.69.69,0,0,0,.69-.7h0A.69.69,0,0,0,32.36,26.47Z"/><path id="Trazado_1112" data-name="Trazado 1112" class="cls-1" d="M27.85,29.51H25.56a.7.7,0,0,0-.69.7.69.69,0,0,0,.69.69h2.28a.69.69,0,0,0,.7-.69h0A.71.71,0,0,0,27.85,29.51Z"/><path id="Trazado_1113" data-name="Trazado 1113" class="cls-1" d="M42.05,36.12h-3V17.3a.7.7,0,0,0-.7-.7.69.69,0,0,0-.69.7h0V36.13H35.06V33.59a2.28,2.28,0,0,0,1.58-2.15V25.93a2.26,2.26,0,0,0-1.58-2.15V4.44h1.36a1.25,1.25,0,0,1,1.25,1.25v8.36a.69.69,0,0,0,.69.69h0a.69.69,0,0,0,.7-.69V5.69a2.65,2.65,0,0,0-2.64-2.64H30.29A1.44,1.44,0,0,0,29,2.2H25.05a3,3,0,0,0-5.82,0H15.29A1.45,1.45,0,0,0,14,3.05H7.85A2.64,2.64,0,0,0,5.22,5.69V9.92a6.36,6.36,0,0,0,0,12.51V41.56A2.64,2.64,0,0,0,7.85,44.2h8a6.51,6.51,0,0,0,1.36,1.85.69.69,0,0,0,1,0h0a.69.69,0,0,0,0-1h0a4.92,4.92,0,0,1-1.56-3.62,5,5,0,1,1,5,5,4.56,4.56,0,0,1-.9-.08.7.7,0,0,0-.25,1.37h0a7.34,7.34,0,0,0,1.15.1,6.4,6.4,0,0,0,5.72-3.59H29a2.27,2.27,0,0,0,2.23,2H42.06a2.26,2.26,0,0,0,2.25-2.26V38.38A2.26,2.26,0,0,0,42.05,36.12Zm-6.8-4.68a.87.87,0,0,1-.87.87H23.54a.87.87,0,0,1-.87-.87V25.92a.87.87,0,0,1,.87-.87H34.38a.88.88,0,0,1,.87.87v5.52ZM22.14,1.38a1.66,1.66,0,0,1,1.41.82H20.72a1.62,1.62,0,0,1,1.41-.82ZM15.25,3.63a0,0,0,0,1,0,0H29a0,0,0,0,1,0,0V5.46a0,0,0,0,1,0,0H15.29a0,0,0,0,1,0,0Zm2.09,3.26h9.6v.16a1.39,1.39,0,0,1-1.35,1.41A1.36,1.36,0,0,1,25,8.31a2.34,2.34,0,0,0-2.18,0,1.41,1.41,0,0,1-.64.16,1.44,1.44,0,0,1-.64-.16,2.34,2.34,0,0,0-2.18,0,1.35,1.35,0,0,1-.62.15,1.4,1.4,0,0,1-1.36-1.41ZM1.39,16.17a5,5,0,1,1,5,5,5,5,0,0,1-5-5ZM8.93,28.78a5,5,0,1,1,5,5,5,5,0,0,1-5-5Zm-1.08,14a1.25,1.25,0,0,1-1.24-1.25v-19a6.4,6.4,0,0,0,2.61-.68v2.63a6.34,6.34,0,0,0,0,8.6v3.61a1.16,1.16,0,0,0,1.16,1.16h5.93a6.3,6.3,0,0,0-1.1,3.57,6,6,0,0,0,.16,1.39Zm9.74-6.35h-7V34.22a6.36,6.36,0,1,0,0-10.88V20.9a6.36,6.36,0,0,0-4-11.08V5.69A1.25,1.25,0,0,1,7.86,4.44H9.22V8a.69.69,0,0,0,.69.7h0a.7.7,0,0,0,.7-.7h0V4.44h3.25v1A1.44,1.44,0,0,0,15.3,6.89H16v.16a2.77,2.77,0,0,0,2.73,2.79A2.63,2.63,0,0,0,20,9.54a1,1,0,0,1,.9,0,2.77,2.77,0,0,0,1.29.32,2.74,2.74,0,0,0,1.29-.32,1,1,0,0,1,.9,0,2.7,2.7,0,0,0,1.27.3,2.77,2.77,0,0,0,2.73-2.79V6.89H29a1.43,1.43,0,0,0,1.43-1.43v-1h3.26V23.67H23.54a2.26,2.26,0,0,0-2.26,2.25v5.52a2.26,2.26,0,0,0,2.26,2.25H33.67v2.43H31.21a2.28,2.28,0,0,0-1.19.34H25.55a6.36,6.36,0,0,0-8,0Zm9.25,1.39H29a2.33,2.33,0,0,0-.06.53v4.43H27.78a6.5,6.5,0,0,0,.15-1.39,6.24,6.24,0,0,0-1.1-3.57Zm16.08,6a.87.87,0,0,1-.87.87H31.21a.87.87,0,0,1-.87-.87V38.38a.87.87,0,0,1,.87-.87H42.05a.87.87,0,0,1,.87.87Z"/><path id="Trazado_1114" data-name="Trazado 1114" class="cls-1" d="M40,38.93h-6.8a.69.69,0,0,0-.7.69h0a.69.69,0,0,0,.7.69H40a.69.69,0,0,0,.69-.69h0a.69.69,0,0,0-.69-.69Z"/><path id="Trazado_1115" data-name="Trazado 1115" class="cls-1" d="M38.46,42H33.23a.7.7,0,0,0,0,1.39h5.23a.7.7,0,0,0,.7-.69h0a.7.7,0,0,0-.7-.7Z"/><path id="Trazado_1116" data-name="Trazado 1116" class="cls-1" d="M29.09,18.93V13.41a2.25,2.25,0,0,0-2.25-2.25H16a2.26,2.26,0,0,0-2.26,2.25v5.52A2.26,2.26,0,0,0,16,21.18H26.84A2.25,2.25,0,0,0,29.09,18.93Zm-14,0V13.41a.87.87,0,0,1,.87-.87H26.84a.87.87,0,0,1,.87.87v5.52a.87.87,0,0,1-.87.87H16A.87.87,0,0,1,15.13,18.93Z"/><path id="Trazado_1117" data-name="Trazado 1117" class="cls-1" d="M24.82,14H18a.7.7,0,0,0-.7.7h0a.69.69,0,0,0,.7.69h6.8a.7.7,0,0,0,0-1.39Z"/><path id="Trazado_1118" data-name="Trazado 1118" class="cls-1" d="M24.82,17H18a.7.7,0,0,0-.7.7h0a.69.69,0,0,0,.7.69h6.8a.69.69,0,0,0,.69-.69.71.71,0,0,0-.69-.7Z"/><path id="Trazado_1119" data-name="Trazado 1119" class="cls-1" d="M16.07,31.56a.7.7,0,0,0-.7-.68h-1.5c.3-.4.7-.95,1.23-1.71a4.26,4.26,0,0,0,.69-1.44.15.15,0,0,0,0-.07l0-.21s0-.06,0-.09a2.1,2.1,0,0,0-4.17-.4.7.7,0,0,0,.55.82h0a.69.69,0,0,0,.81-.55h0a.72.72,0,0,1,1.43.1l0,.13a2.86,2.86,0,0,1-.47.92c-.88,1.25-1.4,1.93-1.68,2.3s-.52.69-.4,1.07a.7.7,0,0,0,.46.47c.1,0,2.26.06,3,.05a.7.7,0,0,0,.69-.7h0Z"/><path id="Trazado_1120" data-name="Trazado 1120" class="cls-1" d="M7,19.21V13.69A.69.69,0,0,0,6.34,13H5.16a.69.69,0,1,0,0,1.38h.49v4.83a.69.69,0,0,0,.69.69h0A.69.69,0,0,0,7,19.21Z"/><path id="Trazado_1121" data-name="Trazado 1121" class="cls-1" d="M21.53,45a2.11,2.11,0,0,0,2.1-2.1,2.07,2.07,0,0,0-.55-1.41,2.07,2.07,0,0,0,.55-1.41,2.1,2.1,0,0,0-4.17-.4.69.69,0,0,0,.55.81h0a.69.69,0,0,0,.81-.54.72.72,0,1,1,.71.85.7.7,0,0,0-.7.7h0a.69.69,0,0,0,.7.69h0a.72.72,0,1,1-.71.82.34.34,0,0,1,0-.1.69.69,0,0,0-.69-.69h0a.74.74,0,0,0-.71.78.64.64,0,0,0,0,.2A2.13,2.13,0,0,0,21.53,45Z"/></g></svg>