<svg width="53" height="53" viewBox="0 0 53 53" fill="none" xmlns="http://www.w3.org/2000/svg">
<path d="M48.75 9.94001H47.07V7.83002L48.22 7.37C48.4267 7.28764 48.5924 7.12661 48.6805 6.92225C48.7686 6.71788 48.772 6.48692 48.69 6.28004C48.6494 6.17291 48.5864 6.07559 48.5054 5.99457C48.4244 5.91356 48.3271 5.85065 48.22 5.81L35.64 0.810004C35.4411 0.729917 35.2189 0.729917 35.02 0.810004L22.44 5.81C22.2841 5.87233 22.1504 5.97993 22.0563 6.11896C21.9621 6.258 21.9117 6.42212 21.9117 6.59003C21.9117 6.75795 21.9621 6.92201 22.0563 7.06104C22.1504 7.20008 22.2841 7.30768 22.44 7.37L26.1 8.83002V9.94001H3.46002C2.57051 9.94526 1.71889 10.301 1.0899 10.9299C0.460917 11.5589 0.105224 12.4105 0.0999756 13.3V41.81C0.102614 42.7003 0.457485 43.5534 1.08704 44.183C1.71659 44.8125 2.56971 45.1674 3.46002 45.17H20.75L19.63 48.52H16.88C16.7697 48.52 16.6604 48.5417 16.5585 48.5839C16.4566 48.6261 16.364 48.6881 16.286 48.7661C16.208 48.8441 16.1462 48.9367 16.1039 49.0386C16.0617 49.1405 16.04 49.2497 16.04 49.36V51H7.65002C7.42724 51 7.21356 51.0885 7.05603 51.246C6.8985 51.4036 6.81 51.6173 6.81 51.84C6.81 52.0628 6.8985 52.2764 7.05603 52.434C7.21356 52.5915 7.42724 52.68 7.65002 52.68H44.56C44.7828 52.68 44.9965 52.5915 45.154 52.434C45.3115 52.2764 45.4 52.0628 45.4 51.84C45.4 51.6173 45.3115 51.4036 45.154 51.246C44.9965 51.0885 44.7828 51 44.56 51H36.17V49.32C36.1674 49.098 36.0781 48.8859 35.9211 48.7289C35.7641 48.5719 35.552 48.4826 35.33 48.48H32.58L31.46 45.13H48.75C49.1908 45.13 49.6272 45.043 50.0343 44.874C50.4414 44.7051 50.8112 44.4574 51.1224 44.1453C51.4336 43.8331 51.6801 43.4627 51.8479 43.0551C52.0157 42.6475 52.1013 42.2108 52.1 41.77V13.3C52.0974 12.4114 51.7439 11.5598 51.1165 10.9305C50.4891 10.3013 49.6386 9.94528 48.75 9.94001ZM47.07 25C47.07 25.1661 47.0207 25.3285 46.9284 25.4667C46.8361 25.6048 46.7049 25.7125 46.5515 25.7761C46.398 25.8396 46.229 25.8563 46.0661 25.8239C45.9032 25.7914 45.7535 25.7115 45.636 25.594C45.5186 25.4765 45.4385 25.3268 45.4061 25.1639C45.3737 25.0009 45.3903 24.832 45.4539 24.6785C45.5175 24.525 45.6252 24.3939 45.7633 24.3016C45.9014 24.2093 46.0638 24.16 46.23 24.16C46.3403 24.16 46.4495 24.1817 46.5515 24.2239C46.6534 24.2662 46.746 24.328 46.824 24.406C46.902 24.484 46.9638 24.5766 47.006 24.6785C47.0483 24.7804 47.07 24.8897 47.07 25ZM25 6.59003L35.32 2.46003L45.64 6.59003L43.38 7.49L35.32 10.72L27.26 7.49L25 6.59003ZM42.87 9.50001V21.11C38.0108 22.9822 32.6293 22.9822 27.77 21.11V9.50001L35.01 12.4C35.2089 12.4801 35.4311 12.4801 35.63 12.4L42.87 9.50001ZM34.48 50.2V51H17.72V50.16L34.48 50.2ZM21.39 48.52L22.51 45.17H29.68L30.8 48.52H21.39ZM50.39 41.81C50.39 42.2556 50.213 42.6829 49.8979 42.9979C49.5829 43.313 49.1556 43.49 48.71 43.49H3.46002C3.01446 43.49 2.58709 43.313 2.27203 42.9979C1.95697 42.6829 1.78003 42.2556 1.78003 41.81V40.14H50.43L50.39 41.81ZM50.39 38.46H1.78003V13.3C1.78003 12.8544 1.95697 12.4271 2.27203 12.1121C2.58709 11.797 3.01446 11.62 3.46002 11.62H26.1V21.68C26.0987 21.8484 26.1488 22.0133 26.2435 22.1526C26.3381 22.2919 26.473 22.3992 26.63 22.46C32.2006 24.7668 38.4594 24.7668 44.03 22.46C44.1871 22.3992 44.3219 22.2919 44.4166 22.1526C44.5112 22.0133 44.5612 21.8484 44.56 21.68V8.83002L45.39 8.50001V22.5C45.3845 22.5465 45.3845 22.5935 45.39 22.64C44.8298 22.835 44.3568 23.222 44.0547 23.7325C43.7527 24.2431 43.6412 24.844 43.7401 25.4289C43.839 26.0138 44.1418 26.5447 44.5948 26.9276C45.0478 27.3105 45.6219 27.5206 46.215 27.5206C46.8082 27.5206 47.3822 27.3105 47.8352 26.9276C48.2882 26.5447 48.591 26.0138 48.6899 25.4289C48.7887 24.844 48.6773 24.2431 48.3753 23.7325C48.0733 23.222 47.6002 22.835 47.04 22.64C47.0453 22.5935 47.0453 22.5465 47.04 22.5V11.6H48.72C49.1655 11.6 49.5929 11.777 49.908 12.092C50.223 12.4071 50.4 12.8345 50.4 13.28L50.39 38.46Z" fill="white"/>
<path d="M9.32996 41H4.32996C4.21263 40.9871 4.09388 40.9992 3.98151 41.0353C3.86913 41.0714 3.76562 41.1307 3.67773 41.2095C3.58984 41.2883 3.51956 41.3847 3.47144 41.4925C3.42331 41.6003 3.39844 41.717 3.39844 41.835C3.39844 41.953 3.42331 42.0697 3.47144 42.1775C3.51956 42.2853 3.58984 42.3817 3.67773 42.4605C3.76562 42.5393 3.86913 42.5987 3.98151 42.6348C4.09388 42.6709 4.21263 42.6828 4.32996 42.67H9.32996C9.44728 42.6828 9.56597 42.6709 9.67834 42.6348C9.79072 42.5987 9.89423 42.5393 9.98212 42.4605C10.07 42.3817 10.1403 42.2853 10.1885 42.1775C10.2366 42.0697 10.2615 41.953 10.2615 41.835C10.2615 41.717 10.2366 41.6003 10.1885 41.4925C10.1403 41.3847 10.07 41.2883 9.98212 41.2095C9.89423 41.1307 9.79072 41.0714 9.67834 41.0353C9.56597 40.9992 9.44728 40.9871 9.32996 41Z" fill="white"/>
<path d="M12.68 41H11.85C11.7326 40.9871 11.614 40.9992 11.5016 41.0353C11.3892 41.0714 11.2857 41.1307 11.1978 41.2095C11.1099 41.2883 11.0396 41.3847 10.9915 41.4925C10.9434 41.6003 10.9185 41.717 10.9185 41.835C10.9185 41.953 10.9434 42.0697 10.9915 42.1775C11.0396 42.2853 11.1099 42.3817 11.1978 42.4605C11.2857 42.5393 11.3892 42.5987 11.5016 42.6348C11.614 42.6709 11.7326 42.6828 11.85 42.67H12.68C12.7973 42.6828 12.9161 42.6709 13.0284 42.6348C13.1408 42.5987 13.2443 42.5393 13.3322 42.4605C13.4201 42.3817 13.4904 42.2853 13.5385 42.1775C13.5866 42.0697 13.6115 41.953 13.6115 41.835C13.6115 41.717 13.5866 41.6003 13.5385 41.4925C13.4904 41.3847 13.4201 41.2883 13.3322 41.2095C13.2443 41.1307 13.1408 41.0714 13.0284 41.0353C12.9161 40.9992 12.7973 40.9871 12.68 41Z" fill="white"/>
<path d="M15.2 13.3H6.80994C5.92146 13.3 5.06935 13.6529 4.4411 14.2812C3.81285 14.9094 3.45996 15.7615 3.45996 16.65V25.88C3.45996 26.7685 3.81285 27.6205 4.4411 28.2488C5.06935 28.877 5.92146 29.23 6.80994 29.23H15.2C16.0885 29.2274 16.9401 28.8739 17.5694 28.2465C18.1987 27.6191 18.5547 26.7686 18.5599 25.88V16.65C18.5547 15.7614 18.1987 14.9109 17.5694 14.2835C16.9401 13.6561 16.0885 13.3026 15.2 13.3ZM16.8799 25.88C16.8773 26.3248 16.6994 26.7506 16.3849 27.0651C16.0705 27.3796 15.6447 27.5574 15.2 27.56H6.80994C6.36692 27.5548 5.94369 27.3758 5.63135 27.0616C5.319 26.7474 5.14254 26.323 5.13995 25.88V16.65C5.13995 16.2071 5.3159 15.7823 5.62909 15.4691C5.94228 15.1559 6.36702 14.98 6.80994 14.98H15.2C15.6438 14.98 16.0696 15.1556 16.3843 15.4685C16.6991 15.7814 16.8773 16.2062 16.8799 16.65V25.88Z" fill="white"/>
<path d="M15.1501 25.59L11.8 16.37C11.7233 16.16 11.5669 15.9888 11.3647 15.8934C11.1626 15.7979 10.9309 15.7859 10.72 15.86C10.6043 15.903 10.4996 15.971 10.4131 16.0592C10.3267 16.1473 10.2608 16.2535 10.22 16.37L6.86004 25.59C6.82007 25.6943 6.80133 25.8055 6.80486 25.9172C6.8084 26.0288 6.83417 26.1387 6.88067 26.2402C6.92717 26.3418 6.99342 26.4331 7.07562 26.5087C7.15782 26.5844 7.25429 26.6428 7.35937 26.6807C7.46445 26.7186 7.57606 26.7352 7.68762 26.7295C7.79917 26.7237 7.90846 26.6958 8.00909 26.6473C8.10972 26.5988 8.19967 26.5308 8.27368 26.4471C8.34768 26.3634 8.40423 26.2658 8.44006 26.16L9.44006 23.36H12.5301L13.5301 26.16C13.5879 26.3234 13.6948 26.465 13.8362 26.5653C13.9777 26.6656 14.1467 26.7196 14.3201 26.72C14.4188 26.7188 14.5166 26.7019 14.61 26.67C14.8182 26.5912 14.9871 26.434 15.0806 26.2321C15.1741 26.0302 15.1847 25.7997 15.11 25.59H15.1501ZM10.0701 21.68L11.0101 19.11L11.9401 21.68H10.0701Z" fill="white"/>
<path d="M4.29993 34.27H17.7199C17.9419 34.2674 18.1541 34.1781 18.311 34.0211C18.468 33.8641 18.5573 33.652 18.5599 33.43V30.91C18.5573 30.688 18.468 30.4759 18.311 30.3189C18.1541 30.1619 17.9419 30.0726 17.7199 30.07H4.29993C4.07714 30.07 3.86352 30.1585 3.70599 30.316C3.54846 30.4736 3.45996 30.6872 3.45996 30.91V33.43C3.45996 33.6528 3.54846 33.8665 3.70599 34.024C3.86352 34.1815 4.07714 34.27 4.29993 34.27ZM5.13995 31.75H16.8799V32.59H5.13995V31.75Z" fill="white"/>
<path d="M21.07 31.75H41.2C41.422 31.7474 41.6341 31.6581 41.7911 31.5011C41.948 31.3441 42.0374 31.1319 42.04 30.91V27.56C42.04 27.3372 41.9515 27.1235 41.7939 26.966C41.6364 26.8085 41.4228 26.72 41.2 26.72H21.07C20.8472 26.72 20.6335 26.8085 20.476 26.966C20.3185 27.1235 20.23 27.3372 20.23 27.56V30.91C20.2326 31.1319 20.3219 31.3441 20.4789 31.5011C20.6359 31.6581 20.848 31.7474 21.07 31.75ZM21.91 28.39H40.36V30.07H21.91V28.39Z" fill="white"/>
<path d="M4.29993 36.78H17.7199C17.8302 36.78 17.9395 36.7583 18.0414 36.7161C18.1433 36.6739 18.2359 36.612 18.3139 36.534C18.3919 36.456 18.4538 36.3634 18.496 36.2615C18.5382 36.1596 18.5599 36.0503 18.5599 35.94C18.5599 35.8297 18.5382 35.7204 18.496 35.6185C18.4538 35.5166 18.3919 35.424 18.3139 35.346C18.2359 35.268 18.1433 35.2062 18.0414 35.1639C17.9395 35.1217 17.8302 35.1 17.7199 35.1H4.29993C4.07714 35.1 3.86352 35.1885 3.70599 35.346C3.54846 35.5035 3.45996 35.7172 3.45996 35.94C3.45996 36.1628 3.54846 36.3765 3.70599 36.534C3.86352 36.6915 4.07714 36.78 4.29993 36.78Z" fill="white"/>
<path d="M21.07 34.27H41.2C41.4228 34.27 41.6364 34.1815 41.7939 34.024C41.9515 33.8665 42.04 33.6528 42.04 33.43C42.04 33.2072 41.9515 32.9936 41.7939 32.8361C41.6364 32.6785 41.4228 32.59 41.2 32.59H21.07C20.8472 32.59 20.6335 32.6785 20.476 32.8361C20.3185 32.9936 20.23 33.2072 20.23 33.43C20.23 33.6528 20.3185 33.8665 20.476 34.024C20.6335 34.1815 20.8472 34.27 21.07 34.27Z" fill="white"/>
<path d="M21.07 36.78H27.78C28.0028 36.78 28.2164 36.6915 28.374 36.534C28.5315 36.3765 28.62 36.1628 28.62 35.94C28.62 35.7172 28.5315 35.5035 28.374 35.346C28.2164 35.1885 28.0028 35.1 27.78 35.1H21.07C20.9597 35.1 20.8504 35.1217 20.7485 35.1639C20.6466 35.2062 20.554 35.268 20.476 35.346C20.398 35.424 20.3362 35.5166 20.2939 35.6185C20.2517 35.7204 20.23 35.8297 20.23 35.94C20.23 36.0503 20.2517 36.1596 20.2939 36.2615C20.3362 36.3634 20.398 36.456 20.476 36.534C20.554 36.612 20.6466 36.6739 20.7485 36.7161C20.8504 36.7583 20.9597 36.78 21.07 36.78Z" fill="white"/>
<path d="M31.14 35.1H30.2999C30.0771 35.1 29.8635 35.1885 29.706 35.346C29.5485 35.5035 29.46 35.7172 29.46 35.94C29.46 36.1628 29.5485 36.3765 29.706 36.534C29.8635 36.6915 30.0771 36.78 30.2999 36.78H31.14C31.3627 36.78 31.5764 36.6915 31.7339 36.534C31.8914 36.3765 31.9799 36.1628 31.9799 35.94C31.9799 35.7172 31.8914 35.5035 31.7339 35.346C31.5764 35.1885 31.3627 35.1 31.14 35.1Z" fill="white"/>
</svg>
