<svg width="38" height="38" viewBox="0 0 38 38" fill="none" xmlns="http://www.w3.org/2000/svg">
<g clip-path="url(#clip0)">
<path d="M29.1299 37.8H0.789941C0.68535 37.8 0.581798 37.7793 0.485294 37.7389C0.388789 37.6986 0.301252 37.6395 0.227761 37.5651C0.154271 37.4907 0.0962898 37.4024 0.0571818 37.3054C0.0180737 37.2084 -0.00138271 37.1046 -5.87716e-05 37C-0.00108885 36.8667 0.0334292 36.7355 0.0999412 36.62L14.2699 10.62C14.326 10.5275 14.4002 10.4473 14.4881 10.3842C14.576 10.3212 14.6758 10.2766 14.7815 10.2533C14.8871 10.2299 14.9964 10.2282 15.1027 10.2483C15.209 10.2683 15.3101 10.3097 15.3999 10.37C15.502 10.4322 15.5877 10.5179 15.6499 10.62L29.8299 36.62C29.8932 36.7413 29.9243 36.8767 29.9203 37.0134C29.9164 37.1501 29.8774 37.2835 29.8072 37.4008C29.737 37.5182 29.6379 37.6155 29.5193 37.6837C29.4007 37.7518 29.2667 37.7884 29.1299 37.79V37.8ZM2.12994 36.22H27.8299L14.9999 12.67L2.12994 36.22Z" fill="white"/>
<path d="M37 37.8H29.13C28.9205 37.8 28.7196 37.7167 28.5714 37.5686C28.4232 37.4204 28.34 37.2195 28.34 37.01C28.34 36.8004 28.4232 36.5995 28.5714 36.4514C28.7196 36.3032 28.9205 36.22 29.13 36.22H35.68L28.39 23L25.39 29.21C25.2794 29.3623 25.118 29.4701 24.9349 29.514C24.7518 29.5578 24.5591 29.5349 24.3915 29.4493C24.2238 29.3636 24.0922 29.2209 24.0205 29.0469C23.9487 28.8728 23.9414 28.6789 24 28.5L27.67 20.92C27.7325 20.7888 27.83 20.6773 27.9517 20.5979C28.0735 20.5185 28.2147 20.4742 28.36 20.47C28.5035 20.472 28.6441 20.5107 28.7684 20.5825C28.8927 20.6542 28.9966 20.7567 29.07 20.88L37.7 36.63C37.8002 36.8131 37.8238 37.0284 37.7657 37.2289C37.7076 37.4294 37.5726 37.5988 37.39 37.7C37.2698 37.7637 37.1361 37.798 37 37.8Z" fill="white"/>
<path d="M15 11.81C14.8962 11.81 14.7935 11.7896 14.6976 11.7499C14.6018 11.7102 14.5147 11.652 14.4413 11.5786C14.368 11.5053 14.3098 11.4182 14.2701 11.3223C14.2304 11.2265 14.21 11.1237 14.21 11.02V0.79C14.21 0.580479 14.2932 0.379539 14.4413 0.231386C14.5895 0.0832319 14.7904 0 15 0L24.45 0C24.6595 0 24.8604 0.0832319 25.0086 0.231386C25.1567 0.379539 25.24 0.580479 25.24 0.79C25.2413 0.892529 25.2215 0.994235 25.182 1.08883C25.1424 1.18343 25.0839 1.26892 25.01 1.34L22.41 3.94L25 6.53C25.1436 6.67908 25.2238 6.87801 25.2238 7.085C25.2238 7.29199 25.1436 7.49092 25 7.64C24.9263 7.71327 24.839 7.7713 24.7429 7.81077C24.6468 7.85024 24.5438 7.87036 24.44 7.87H15.75V11C15.7554 11.2062 15.6801 11.4064 15.5399 11.5577C15.3998 11.7091 15.206 11.7996 15 11.81ZM15.79 6.3H22.55L20.7 4.49C20.5564 4.34092 20.4761 4.14199 20.4761 3.935C20.4761 3.72801 20.5564 3.52908 20.7 3.38L22.51 1.57H15.75L15.79 6.3Z" fill="white"/>
<path d="M17.32 23.62H17.27C17.1567 23.613 17.0463 23.5817 16.9462 23.5282C16.8461 23.4747 16.7587 23.4003 16.69 23.31L15 21L13.27 23.31C13.2028 23.3996 13.1171 23.4736 13.0187 23.5271C12.9204 23.5806 12.8117 23.6123 12.7 23.62C12.586 23.6308 12.471 23.6158 12.3637 23.576C12.2563 23.5361 12.1593 23.4726 12.08 23.39L9.39998 20.75C9.26647 20.5999 9.19518 20.4045 9.20061 20.2037C9.20603 20.0028 9.28778 19.8116 9.4292 19.6689C9.57063 19.5262 9.76111 19.4428 9.96189 19.4355C10.1627 19.4283 10.3587 19.4978 10.51 19.63L12.51 21.63L14.33 19.2C14.3977 19.1165 14.4814 19.0473 14.5762 18.9965C14.6709 18.9456 14.7749 18.9142 14.8819 18.9039C14.989 18.8937 15.097 18.9049 15.1997 18.9368C15.3023 18.9688 15.3976 19.0208 15.48 19.09C15.5215 19.1215 15.5585 19.1585 15.59 19.2L17.41 21.63L19.41 19.63C19.5585 19.4815 19.7599 19.398 19.97 19.398C20.18 19.398 20.3815 19.4815 20.53 19.63C20.6785 19.7785 20.7619 19.98 20.7619 20.19C20.7619 20.4 20.6785 20.6015 20.53 20.75L17.88 23.39C17.8063 23.4633 17.719 23.5213 17.6229 23.5608C17.5268 23.6002 17.4239 23.6204 17.32 23.62Z" fill="white"/>
</g>
<defs>
<clipPath id="clip0">
<rect width="37.8" height="37.8" fill="white"/>
</clipPath>
</defs>
</svg>
