<svg id="Capa_1" data-name="Capa 1" xmlns="http://www.w3.org/2000/svg" viewBox="0 0 49.37 49.36"><defs><style>.cls-1{fill:#019ae2;}</style></defs><g id="Grupo_375" data-name="Grupo 375"><g id="Grupo_358" data-name="Grupo 358"><g id="Grupo_357" data-name="Grupo 357"><path id="Trazado_1122" data-name="Trazado 1122" class="cls-1" d="M49.24,32l-8.9-15.43A1,1,0,0,0,39,16.19h0l-6.47,3.73a1,1,0,0,0-.45.59,1,1,0,0,0,0,.41H30.79a4.3,4.3,0,0,0-3,1.24l-1.68,1.7L25,22.44a4.19,4.19,0,0,0-3.23-1.52H17.29a1,1,0,0,0,0-.41,1,1,0,0,0-.45-.59l-6.47-3.73A1,1,0,0,0,9,16.54H9L6.89,20.26a1,1,0,0,0,.35,1.32h0a1,1,0,0,0,1.32-.35h0l1.67-2.89L15,21.11,7.08,34.87,2.28,32.1,4.07,29a1,1,0,0,0-.35-1.32h0A1,1,0,0,0,2.4,28h0L.13,32a1,1,0,0,0-.1.73,1,1,0,0,0,.45.58L7,37a1,1,0,0,0,.48.13,1,1,0,0,0,.25,0,1,1,0,0,0,.59-.45l.09-.15L11,38.05a2.74,2.74,0,0,0,2.37,2.74,2.74,2.74,0,0,0,2.37,2.7,2.75,2.75,0,0,0,.68,1.79,2.86,2.86,0,0,0,1.69.91A2.72,2.72,0,0,0,18.75,48a2.77,2.77,0,0,0,3.86.29l0,0,1.53-1.36a3.16,3.16,0,0,0,.37.45l1.22,1.22a2.8,2.8,0,0,0,4,0,2.83,2.83,0,0,0,.81-1.78,2.79,2.79,0,0,0,2.59-2.59,2.79,2.79,0,0,0,2.59-2.59,2.79,2.79,0,0,0,2.41-3.8L40.73,36l.38.65a.94.94,0,0,0,.58.45,1.07,1.07,0,0,0,.25,0,.89.89,0,0,0,.48-.13l6.47-3.74A1,1,0,0,0,49.24,32ZM28.36,47.18a.87.87,0,0,1-1.23,0L25.91,46a.83.83,0,0,1-.26-.61.87.87,0,0,1,1.48-.62L28.36,46A.87.87,0,0,1,28.36,47.18ZM31,44.59a.86.86,0,0,1-1.22,0L28.5,43.36a.83.83,0,0,1-.26-.61.87.87,0,0,1,.87-.87.9.9,0,0,1,.62.25L31,43.36a.88.88,0,0,1,0,1.23ZM33.54,42a.86.86,0,0,1-1.22,0l-1.23-1.23a.82.82,0,0,1-.25-.61.85.85,0,0,1,.86-.87.9.9,0,0,1,.62.25l1.22,1.23a.87.87,0,0,1,0,1.23Zm2.59-2.59a.88.88,0,0,1-1.22,0l-1.23-1.23a.87.87,0,0,1,.61-1.48.9.9,0,0,1,.62.25l1.23,1.23a.89.89,0,0,1,0,1.23Zm.8-3.16-.66-.66a2.81,2.81,0,0,0-4,0,2.85,2.85,0,0,0-.81,1.78,2.8,2.8,0,0,0-1.78.81A2.85,2.85,0,0,0,28.91,40a2.79,2.79,0,0,0-2.59,2.59,2.85,2.85,0,0,0-1.78.81,2.82,2.82,0,0,0-.72,1.25l-2.43,2.15,0,0a.83.83,0,0,1-1.1-1.25l2.8-2.7a1,1,0,0,0,0-1.36h0a1,1,0,0,0-1.36,0h0L19.2,44a.72.72,0,0,0-.2.14A.85.85,0,0,1,17.82,44a.84.84,0,0,1,.08-1.17.89.89,0,0,0,.22-.29l2.64-2.65a1,1,0,0,0,0-1.36h0a1,1,0,0,0-1.36,0l-2.8,2.81-.12.14a.83.83,0,0,1-1-.18.82.82,0,0,1-.21-.6.89.89,0,0,1,.28-.57l0,0,0,0L18.64,37a1,1,0,0,0-1.36-1.36l-3,3a.83.83,0,0,1-1.08-1.26l2.69-2.59a1,1,0,0,0,0-1.36h0a1,1,0,0,0-1.36,0h0s-2.81,2.71-2.87,2.78L9.33,34.85l6.92-12h5.47a2.27,2.27,0,0,1,1.75.82l3.9,4.7a1.1,1.1,0,0,1-.38,1.7,1.1,1.1,0,0,1-1.22-.2l-4.18-4a1,1,0,0,0-1.36,0h0a1,1,0,0,0,0,1.36h0l.27.26a4.25,4.25,0,0,1-4.1,2.32h0a1,1,0,0,0-1,.89h0a1,1,0,0,0,.88,1h0a3.39,3.39,0,0,0,.45,0A6.2,6.2,0,0,0,22,28.93l2.47,2.35a3,3,0,0,0,2.08.83,3.09,3.09,0,0,0,1.27-.28,3,3,0,0,0,1.06-4.68l-1.49-1.79,1.82-1.83a2.29,2.29,0,0,1,1.61-.67h2.33l6.63,11.49Zm5.36-1.38L34.35,21.11l4.8-2.77L47.09,32.1Z"/></g></g><g id="Grupo_360" data-name="Grupo 360"><g id="Grupo_359" data-name="Grupo 359"><path id="Trazado_1123" data-name="Trazado 1123" class="cls-1" d="M5.93,23.86a1,1,0,0,0-1.32.35h0l-.06.11a1,1,0,0,0,.35,1.31.91.91,0,0,0,.48.13,1,1,0,0,0,.84-.48l.06-.11a1,1,0,0,0-.35-1.31Z"/></g></g><g id="Grupo_362" data-name="Grupo 362"><g id="Grupo_361" data-name="Grupo 361"><path id="Trazado_1124" data-name="Trazado 1124" class="cls-1" d="M43.88,30.17a1,1,0,0,0-.68-.29,1,1,0,0,0-.68.29,1,1,0,0,0-.28.68,1,1,0,0,0,1,1,1,1,0,0,0,.68-.28,1,1,0,0,0,.29-.68A1,1,0,0,0,43.88,30.17Z"/></g></g><g id="Grupo_364" data-name="Grupo 364"><g id="Grupo_363" data-name="Grupo 363"><path id="Trazado_1125" data-name="Trazado 1125" class="cls-1" d="M6.85,30.17a1,1,0,0,0-.68-.29,1,1,0,0,0-.68.29,1,1,0,0,0-.28.68,1,1,0,0,0,1,1,1,1,0,0,0,.68-.28,1,1,0,0,0,.29-.68A1,1,0,0,0,6.85,30.17Z"/></g></g><g id="Grupo_366" data-name="Grupo 366"><g id="Grupo_365" data-name="Grupo 365"><path id="Trazado_1126" data-name="Trazado 1126" class="cls-1" d="M22.51,7.5a1,1,0,0,0-.68-.28,1,1,0,0,0-.68.28,1.05,1.05,0,0,0-.29.69,1,1,0,0,0,.29.68,1,1,0,0,0,.68.28,1,1,0,0,0,1-1A1,1,0,0,0,22.51,7.5Z"/></g></g><g id="Grupo_368" data-name="Grupo 368"><g id="Grupo_367" data-name="Grupo 367"><path id="Trazado_1127" data-name="Trazado 1127" class="cls-1" d="M28.47,7.5a1,1,0,0,0-.68-.28,1,1,0,0,0-.68.28,1,1,0,0,0-.28.69,1,1,0,0,0,1,1,1,1,0,0,0,.68-.28.94.94,0,0,0,.29-.68A1,1,0,0,0,28.47,7.5Z"/></g></g><g id="Grupo_370" data-name="Grupo 370"><g id="Grupo_369" data-name="Grupo 369"><path id="Trazado_1128" data-name="Trazado 1128" class="cls-1" d="M33.88,6.5a1,1,0,0,0-1.23-.59h0a1,1,0,0,0-.59,1.23,8,8,0,0,1,.44,2.6,7.82,7.82,0,1,1-7.82-7.82,8,8,0,0,1,2.47.4,1,1,0,0,0,1.22-.61h0A1,1,0,0,0,27.76.49h0A10.07,10.07,0,0,0,24.68,0a9.75,9.75,0,1,0,9.75,9.75A10,10,0,0,0,33.88,6.5Z"/></g></g><g id="Grupo_372" data-name="Grupo 372"><g id="Grupo_371" data-name="Grupo 371"><path id="Trazado_1129" data-name="Trazado 1129" class="cls-1" d="M31.73,3l-.08-.08a1,1,0,0,0-1.38,1.35l.07.07a1,1,0,0,0,.7.3.94.94,0,0,0,.66-.27,1,1,0,0,0,0-1.36Z"/></g></g><g id="Grupo_374" data-name="Grupo 374"><g id="Grupo_373" data-name="Grupo 373"><path id="Trazado_1130" data-name="Trazado 1130" class="cls-1" d="M27.35,11.67a1,1,0,0,0-1.36,0,1.67,1.67,0,0,1-2.36,0,1,1,0,0,0-1.36,0h0a1,1,0,0,0,0,1.37h0a3.6,3.6,0,0,0,5.08,0,1,1,0,0,0,0-1.37Z"/></g></g></g></svg>