<svg id="Capa_1" data-name="Capa 1" xmlns="http://www.w3.org/2000/svg" viewBox="0 0 62 62"><defs><style>.cls-1{fill:#fff;}</style></defs><path class="cls-1" d="M61.84,40.15,50.65,20.78A1.2,1.2,0,0,0,49,20.34L40.87,25a1.2,1.2,0,0,0-.56.74,1,1,0,0,0,0,.52H38.67a5.29,5.29,0,0,0-3.74,1.56L32.81,30l-1.48-1.78a5.24,5.24,0,0,0-4.06-1.9H21.71a1.14,1.14,0,0,0,0-.52,1.2,1.2,0,0,0-.56-.74L13,20.34a1.2,1.2,0,0,0-1.65.44l-2.7,4.68a1.2,1.2,0,0,0,.44,1.65,1.21,1.21,0,0,0,1.66-.44L12.84,23l6,3.48L8.89,43.8l-6-3.48,2.25-3.9a1.2,1.2,0,0,0-.44-1.65A1.22,1.22,0,0,0,3,35.21L.16,40.15a1.23,1.23,0,0,0-.12.92,1.21,1.21,0,0,0,.57.74L8.73,46.5a1.21,1.21,0,0,0,.61.16,1.1,1.1,0,0,0,.31,0,1.2,1.2,0,0,0,.74-.56l.11-.19,3.26,1.92a3.46,3.46,0,0,0,3,3.45,3.47,3.47,0,0,0,3,3.39,3.46,3.46,0,0,0,3,3.38,3.47,3.47,0,0,0,5.7,2.61s0,0,.05,0l1.93-1.7a3.42,3.42,0,0,0,.46.56L32.36,61a3.5,3.5,0,0,0,5,0,3.47,3.47,0,0,0,1-2.24,3.47,3.47,0,0,0,3.25-3.25,3.51,3.51,0,0,0,3.26-3.25,3.56,3.56,0,0,0,2.24-1,3.52,3.52,0,0,0,.78-3.76l3.27-2.21.47.82a1.2,1.2,0,0,0,.74.56,1.1,1.1,0,0,0,.31,0,1.21,1.21,0,0,0,.61-.16l8.12-4.69A1.22,1.22,0,0,0,61.84,40.15ZM35.61,59.26a1.1,1.1,0,0,1-1.54,0l-1.54-1.54a1.07,1.07,0,0,1-.32-.77,1,1,0,0,1,.32-.77,1.06,1.06,0,0,1,.77-.32,1.07,1.07,0,0,1,.77.32l1.54,1.54A1.08,1.08,0,0,1,35.61,59.26ZM38.87,56a1.09,1.09,0,0,1-1.55,0l-1.54-1.54a1.1,1.1,0,0,1-.32-.77,1.09,1.09,0,0,1,1.09-1.09,1.1,1.1,0,0,1,.77.32l1.55,1.54A1.1,1.1,0,0,1,38.87,56Zm3.25-3.25a1.08,1.08,0,0,1-1.54,0L39,51.21a1.07,1.07,0,0,1-.32-.77,1.09,1.09,0,0,1,1.09-1.09,1.07,1.07,0,0,1,.77.32l1.54,1.54A1.1,1.1,0,0,1,42.12,52.75Zm3.25-3.25a1.1,1.1,0,0,1-1.54,0L42.29,48a1.11,1.11,0,0,1,0-1.55,1.11,1.11,0,0,1,1.54,0L45.37,48A1.08,1.08,0,0,1,45.37,49.5Zm1-4-.84-.84a3.51,3.51,0,0,0-6,2.24,3.51,3.51,0,0,0-2.24,1,3.45,3.45,0,0,0-1,2.23,3.51,3.51,0,0,0-3.26,3.26,3.45,3.45,0,0,0-2.23,1A3.53,3.53,0,0,0,29.91,56l-3,2.7,0,0a1,1,0,1,1-1.38-1.57L29,53.79a1.21,1.21,0,1,0-1.71-1.72L24.11,55.2a1,1,0,0,0-.25.17,1,1,0,0,1-1.38-1.57,1.1,1.1,0,0,0,.28-.37l3.32-3.32a1.21,1.21,0,1,0-1.72-1.71l-3.52,3.53c-.05,0-.1.12-.15.18a1,1,0,0,1-1.18-1.7l0,0,0,0,3.85-3.85a1.21,1.21,0,1,0-1.72-1.71l-3.8,3.81A1,1,0,0,1,16.53,47l3.38-3.25A1.21,1.21,0,0,0,18.24,42s-3.53,3.4-3.6,3.48l-2.93-1.73L20.4,28.71h6.87a2.85,2.85,0,0,1,2.2,1l4.9,5.9a1.38,1.38,0,0,1-2,1.88l-5.25-5a1.21,1.21,0,0,0-1.67,1.76l.34.32a5.33,5.33,0,0,1-5.14,2.92h0A1.21,1.21,0,1,0,20.43,40h0A5.43,5.43,0,0,0,21,40a7.78,7.78,0,0,0,6.56-3.63l3.11,2.94a3.8,3.8,0,0,0,2.61,1A3.71,3.71,0,0,0,34.9,40a3.79,3.79,0,0,0,1.33-5.88l-1.86-2.25,2.27-2.29a2.91,2.91,0,0,1,2-.84H41.6l8.33,14.42ZM53.1,43.8l-10-17.28,6-3.48,10,17.28Z"/><path class="cls-1" d="M7.44,30a1.2,1.2,0,0,0-1.65.44l-.08.13a1.21,1.21,0,0,0,2.1,1.22l.08-.14A1.21,1.21,0,0,0,7.44,30Z"/><path class="cls-1" d="M55.1,37.89a1.21,1.21,0,0,0-.85-.35A1.2,1.2,0,0,0,53,38.75,1.21,1.21,0,0,0,54.25,40a1.23,1.23,0,0,0,1.21-1.21A1.22,1.22,0,0,0,55.1,37.89Z"/><path class="cls-1" d="M8.61,37.89a1.21,1.21,0,0,0-2.07.86,1.21,1.21,0,0,0,2.42,0A1.25,1.25,0,0,0,8.61,37.89Z"/><path class="cls-1" d="M28.27,9.44a1.21,1.21,0,0,0-2.07.85,1.25,1.25,0,0,0,.35.86,1.23,1.23,0,0,0,1.72,0,1.25,1.25,0,0,0,.35-.86A1.21,1.21,0,0,0,28.27,9.44Z"/><path class="cls-1" d="M35.76,9.44a1.21,1.21,0,0,0-2.07.85,1.25,1.25,0,0,0,.35.86,1.23,1.23,0,0,0,1.72,0,1.25,1.25,0,0,0,.35-.86A1.21,1.21,0,0,0,35.76,9.44Z"/><path class="cls-1" d="M42.55,8.18a1.21,1.21,0,1,0-2.29.8,9.71,9.71,0,0,1,.56,3.26A9.81,9.81,0,1,1,34.1,2.92a1.21,1.21,0,1,0,.76-2.3,12.24,12.24,0,1,0,8.38,11.62A12.41,12.41,0,0,0,42.55,8.18Z"/><path class="cls-1" d="M39.84,3.77a.94.94,0,0,1-.1-.1A1.21,1.21,0,1,0,38,5.36l.08.09a1.19,1.19,0,0,0,.87.37,1.22,1.22,0,0,0,.88-2.05Z"/><path class="cls-1" d="M34.35,14.67a1.23,1.23,0,0,0-1.72,0,2.09,2.09,0,0,1-3,0A1.21,1.21,0,1,0,28,16.38a4.53,4.53,0,0,0,6.39,0A1.21,1.21,0,0,0,34.35,14.67Z"/></svg>