<svg width="37" height="48" viewBox="0 0 37 48" fill="none" xmlns="http://www.w3.org/2000/svg">
<path d="M12.5901 23.13C14.5209 23.9707 16.6042 24.4046 18.7101 24.4046C20.816 24.4046 22.8993 23.9707 24.8301 23.13C25.1306 22.9929 25.385 22.7716 25.5625 22.493C25.7399 22.2144 25.8329 21.8903 25.8301 21.56V14.92L29.0301 13.16C29.1715 13.0797 29.2891 12.9633 29.3709 12.8228C29.4527 12.6823 29.4958 12.5226 29.4958 12.36C29.4958 12.1974 29.4527 12.0377 29.3709 11.8972C29.2891 11.7566 29.1715 11.6403 29.0301 11.56L19.1001 6.09998C18.966 6.02371 18.8144 5.98364 18.6601 5.98364C18.5058 5.98364 18.3542 6.02371 18.2201 6.09998L13.7101 8.58002C13.6295 8.62285 13.5584 8.68147 13.5009 8.75238C13.4435 8.82329 13.4009 8.90502 13.3757 8.99274C13.3505 9.08045 13.3432 9.17235 13.3543 9.26294C13.3654 9.35353 13.3945 9.44095 13.4401 9.52002C13.5286 9.67812 13.6758 9.79506 13.8498 9.84558C14.0238 9.8961 14.2107 9.87609 14.3701 9.78998L18.6601 7.42999L27.6601 12.36L22.6601 15.13L19.1901 11.86C19.127 11.7868 19.0491 11.7276 18.9617 11.6864C18.8742 11.6452 18.779 11.6229 18.6824 11.6208C18.5857 11.6187 18.4897 11.637 18.4005 11.6744C18.3113 11.7118 18.231 11.7676 18.1648 11.838C18.0986 11.9085 18.0479 11.9921 18.0161 12.0834C17.9842 12.1747 17.9719 12.2716 17.98 12.368C17.988 12.4643 18.0162 12.5579 18.0628 12.6427C18.1093 12.7275 18.1731 12.8015 18.2501 12.86L21.3901 15.86L18.7201 17.32C18.0501 16.98 15.9101 15.75 9.72012 12.39L12.0001 11.15C12.1589 11.0596 12.276 10.9106 12.3265 10.735C12.377 10.5593 12.3567 10.3709 12.2701 10.21C12.2273 10.1294 12.1687 10.0582 12.0978 10.0008C12.0269 9.94334 11.9451 9.9008 11.8574 9.87561C11.7697 9.85042 11.6778 9.84312 11.5872 9.85419C11.4966 9.86525 11.4092 9.89443 11.3301 9.94L8.39011 11.56C8.24605 11.6381 8.12574 11.7537 8.04191 11.8945C7.95807 12.0353 7.91382 12.1961 7.91382 12.36C7.91382 12.5239 7.95807 12.6847 8.04191 12.8255C8.12574 12.9663 8.24605 13.0819 8.39011 13.16L11.5901 14.91V21.56C11.5873 21.8903 11.6803 22.2144 11.8578 22.493C12.0352 22.7716 12.2896 22.9929 12.5901 23.13V23.13ZM18.1701 18.57C18.3454 18.6677 18.54 18.7258 18.7401 18.74C18.8889 18.7425 19.0351 18.7008 19.1601 18.62L21.8501 17.14V20.82C21.8501 21.003 21.9228 21.1785 22.0522 21.3079C22.1816 21.4373 22.3571 21.51 22.5401 21.51C22.7231 21.51 22.8986 21.4373 23.028 21.3079C23.1574 21.1785 23.2301 21.003 23.2301 20.82V16.38L24.5001 15.68V21.56C24.5001 21.6229 24.481 21.6843 24.4453 21.7361C24.4096 21.7879 24.3589 21.8276 24.3001 21.85C22.5366 22.618 20.6337 23.0144 18.7101 23.0144C16.7866 23.0144 14.8837 22.618 13.1201 21.85C13.0613 21.8276 13.0106 21.7879 12.9749 21.7361C12.9392 21.6843 12.9201 21.6229 12.9201 21.56V15.67C16.4701 17.67 17.6901 18.33 18.1701 18.57V18.57Z" fill="white"/>
<path d="M33.4001 6.66998C33.4001 6.48698 33.3274 6.31147 33.198 6.18207C33.0686 6.05267 32.8931 5.97998 32.7101 5.97998H29.5201C29.3371 5.97998 29.1616 6.05267 29.0322 6.18207C28.9028 6.31147 28.8301 6.48698 28.8301 6.66998C28.8301 6.85298 28.9028 7.0285 29.0322 7.1579C29.1616 7.2873 29.3371 7.35999 29.5201 7.35999H32.7101C32.8931 7.35999 33.0686 7.2873 33.198 7.1579C33.3274 7.0285 33.4001 6.85298 33.4001 6.66998V6.66998Z" fill="white"/>
<path d="M36 11.67C36.183 11.67 36.3585 11.5973 36.4879 11.4679C36.6173 11.3385 36.69 11.163 36.69 10.98V5.08002C36.6796 4.52816 36.4544 4.00212 36.0622 3.61371C35.6701 3.22529 35.1419 3.00511 34.59 3H21.43V2.71002C21.388 2.01844 21.0836 1.36895 20.5791 0.894104C20.0745 0.419262 19.4078 0.154846 18.715 0.154846C18.0221 0.154846 17.3554 0.419262 16.8508 0.894104C16.3463 1.36895 16.042 2.01844 16 2.71002V3H2.82996C2.2677 3 1.72847 3.22333 1.33089 3.62091C0.933317 4.01849 0.709961 4.55774 0.709961 5.12V25.35C0.709961 25.9122 0.933317 26.4515 1.33089 26.8491C1.72847 27.2466 2.2677 27.47 2.82996 27.47H8.33996V29.14C8.35036 29.5742 8.52952 29.9873 8.83943 30.2916C9.14935 30.5959 9.56563 30.7675 9.99996 30.77H10.18C8.59996 33.54 7.26996 36 6.06996 38.34C6.01735 38.4209 5.98227 38.5118 5.96698 38.607C5.95169 38.7022 5.95653 38.7996 5.98119 38.8928C6.00585 38.9861 6.04978 39.0731 6.11015 39.1483C6.17052 39.2235 6.24598 39.2852 6.33167 39.3295C6.41735 39.3737 6.51137 39.3995 6.60764 39.4052C6.70391 39.4109 6.80031 39.3963 6.8906 39.3624C6.9809 39.3286 7.06309 39.2762 7.13188 39.2086C7.20066 39.141 7.25452 39.0597 7.28996 38.97C8.72996 36.17 10.29 33.43 11.77 30.77H15.35L14.82 31.65C12.33 35.74 9.69996 39.76 6.93996 43.58C6.45996 44.25 6.01996 44.84 5.59996 45.4C5.53906 45.4867 5.45821 45.5574 5.36422 45.6062C5.27023 45.655 5.16588 45.6805 5.05996 45.6805C4.95405 45.6805 4.84969 45.655 4.7557 45.6062C4.66172 45.5574 4.58086 45.4867 4.51996 45.4C4.46563 45.3039 4.43708 45.1954 4.43708 45.085C4.43708 44.9746 4.46563 44.8661 4.51996 44.77C4.80996 44.15 5.11996 43.48 5.51996 42.77C5.71996 42.35 5.92996 41.93 6.12996 41.52C6.1709 41.4394 6.19535 41.3514 6.2019 41.2613C6.20844 41.1711 6.19695 41.0806 6.16808 40.9949C6.13922 40.9093 6.09356 40.8302 6.03379 40.7624C5.97402 40.6946 5.90132 40.6394 5.81996 40.6C5.65523 40.5196 5.46553 40.507 5.29164 40.565C5.11774 40.623 4.97352 40.7468 4.88996 40.91L4.27996 42.17C3.90996 42.93 3.59996 43.6 3.27996 44.23C3.12376 44.5453 3.05353 44.8963 3.07636 45.2474C3.09918 45.5986 3.21426 45.9375 3.40996 46.23C3.58151 46.5153 3.82159 46.7534 4.1084 46.9224C4.39522 47.0915 4.7197 47.1863 5.05243 47.1982C5.38515 47.2101 5.71559 47.1388 6.01377 46.9907C6.31195 46.8425 6.56843 46.6223 6.75996 46.35C7.17996 45.79 7.61996 45.19 8.10996 44.51C10.93 40.61 13.58 36.51 16.05 32.51L16.59 42.88C16.59 43.4237 16.8059 43.9451 17.1904 44.3296C17.5748 44.714 18.0963 44.93 18.64 44.93C19.1837 44.93 19.7051 44.714 20.0895 44.3296C20.474 43.9451 20.69 43.4237 20.69 42.88L21.24 32.51C23.71 36.51 26.36 40.62 29.18 44.51L30.53 46.34C30.8204 46.8002 31.2817 47.1261 31.8124 47.2461C32.3431 47.3661 32.8998 47.2704 33.36 46.98C33.8201 46.6896 34.1461 46.2283 34.2661 45.6976C34.3861 45.1668 34.2904 44.6102 34 44.15L33 42.09C31.35 38.68 29.46 35.09 27 30.77H27.41C27.6293 30.77 27.8464 30.7268 28.049 30.6429C28.2517 30.559 28.4358 30.436 28.5908 30.2809C28.7459 30.1258 28.8689 29.9417 28.9528 29.7391C29.0368 29.5365 29.08 29.3193 29.08 29.1V27.43H34.58C34.8584 27.43 35.134 27.3752 35.3913 27.2686C35.6485 27.1621 35.8822 27.0059 36.079 26.8091C36.2759 26.6122 36.432 26.3785 36.5386 26.1213C36.6451 25.8641 36.7 25.5884 36.7 25.31V13.74C36.7 13.557 36.6273 13.3815 36.4979 13.2521C36.3685 13.1227 36.193 13.05 36.01 13.05C35.827 13.05 35.6515 13.1227 35.5221 13.2521C35.3927 13.3815 35.32 13.557 35.32 13.74V25.31C35.32 25.5063 35.242 25.6945 35.1032 25.8333C34.9644 25.972 34.7762 26.05 34.58 26.05H2.82996C2.73279 26.05 2.63656 26.0308 2.54678 25.9937C2.45699 25.9565 2.37542 25.902 2.3067 25.8333C2.23799 25.7645 2.18348 25.683 2.14629 25.5932C2.1091 25.5034 2.08996 25.4072 2.08996 25.31V5.08002C2.08996 4.98284 2.1091 4.88659 2.14629 4.79681C2.18348 4.70703 2.23799 4.62548 2.3067 4.55676C2.37542 4.48805 2.45699 4.43349 2.54678 4.3963C2.63656 4.35911 2.73279 4.34003 2.82996 4.34003H34.59C34.7862 4.34003 34.9744 4.41799 35.1132 4.55676C35.252 4.69554 35.33 4.88376 35.33 5.08002V11C35.33 11.183 35.4027 11.3585 35.5321 11.4879C35.6615 11.6173 35.837 11.69 36.02 11.69L36 11.67ZM19.26 42.67C19.2497 42.8433 19.1736 43.0062 19.0472 43.1252C18.9208 43.2442 18.7536 43.3103 18.58 43.31C18.4073 43.3102 18.2413 43.2437 18.1165 43.1245C17.9917 43.0053 17.9177 42.8424 17.91 42.67L17.29 30.78H19.9L19.26 42.67ZM31.73 42.67C32.1 43.43 32.41 44.1 32.73 44.72C32.7994 44.8684 32.8111 45.0374 32.7628 45.194C32.7145 45.3506 32.6097 45.4837 32.4687 45.5673C32.3277 45.6509 32.1607 45.679 32.0001 45.6462C31.8395 45.6135 31.6969 45.5222 31.6 45.39C31.19 44.83 30.75 44.24 30.27 43.57C27.51 39.75 24.88 35.73 22.39 31.64C22.21 31.36 22.03 31.06 21.85 30.76H25.43C27.72 34.76 29.83 38.67 31.76 42.67H31.73ZM27.73 27.42V29.09C27.73 29.1281 27.7225 29.1658 27.7079 29.201C27.6933 29.2362 27.6719 29.2681 27.645 29.295C27.6181 29.322 27.5861 29.3433 27.5509 29.3579C27.5158 29.3725 27.478 29.38 27.44 29.38H9.99996C9.96105 29.3813 9.92226 29.3748 9.88591 29.3608C9.84956 29.3469 9.8164 29.3258 9.78841 29.2987C9.76041 29.2716 9.73815 29.2392 9.72295 29.2033C9.70776 29.1675 9.69994 29.129 9.69996 29.09V27.42H27.73ZM17.37 3V2.71002C17.37 2.35463 17.5111 2.01375 17.7624 1.76245C18.0137 1.51115 18.3546 1.37 18.71 1.37C19.0654 1.37 19.4062 1.51115 19.6575 1.76245C19.9088 2.01375 20.05 2.35463 20.05 2.71002V3H17.37Z" fill="white"/>
</svg>
