<svg width="49" height="35" viewBox="0 0 49 35" fill="none" xmlns="http://www.w3.org/2000/svg">
<path d="M47.91 2.29999H45.51V1.5C45.51 1.28783 45.4257 1.08436 45.2757 0.934326C45.1257 0.784297 44.9222 0.700012 44.71 0.700012H27.11C26.9859 0.700777 26.8637 0.73004 26.7527 0.785522C26.6418 0.841005 26.545 0.92123 26.47 1.02002L24.71 3.35999L23 1C22.925 0.901211 22.8282 0.820985 22.7172 0.765503C22.6063 0.710021 22.484 0.680757 22.36 0.679993H4.76001C4.54784 0.679993 4.34437 0.764278 4.19434 0.914307C4.04431 1.06434 3.96002 1.26781 3.96002 1.47998V2.28003H1.56C1.34782 2.28003 1.14435 2.36431 0.994324 2.51434C0.844295 2.66437 0.76001 2.86784 0.76001 3.08002V31.88C0.76001 32.0922 0.844295 32.2956 0.994324 32.4457C1.14435 32.5957 1.34782 32.68 1.56 32.68H35.96V33.48C35.96 33.6922 36.0443 33.8957 36.1943 34.0457C36.3444 34.1957 36.5478 34.28 36.76 34.28C36.9175 34.2795 37.0711 34.2306 37.2 34.14L39.2 32.84L41.2 34.14C41.2873 34.1985 41.3853 34.2391 41.4883 34.2597C41.5914 34.2803 41.6975 34.2804 41.8006 34.2599C41.9037 34.2395 42.0017 34.199 42.0891 34.1406C42.1765 34.0823 42.2516 34.0073 42.31 33.92C42.3933 33.7882 42.4383 33.6359 42.44 33.48V32.68H48.04C48.2522 32.68 48.4557 32.5957 48.6057 32.4457C48.7557 32.2956 48.84 32.0922 48.84 31.88V3.09998C48.8416 2.98303 48.8175 2.86718 48.7694 2.76056C48.7213 2.65393 48.6504 2.55912 48.5618 2.48285C48.4731 2.40658 48.3688 2.35069 48.2562 2.31909C48.1436 2.2875 48.0254 2.28097 47.91 2.29999ZM42.31 26.3H43.91V27.9H42.31V26.3ZM27.51 2.29999H43.91V24.7H27.11C26.9859 24.7008 26.8637 24.73 26.7527 24.7855C26.6418 24.841 26.545 24.9212 26.47 25.02L25.47 26.3V5L27.51 2.29999ZM5.51001 26.3H21.91L23.11 27.9H5.51001V26.3ZM35.91 26.3V27.9H26.31L27.51 26.3H35.91ZM5.51001 2.29999H21.91L23.91 4.96002V26.3L23 25C22.925 24.9012 22.8282 24.821 22.7172 24.7655C22.6063 24.71 22.484 24.6808 22.36 24.68H5.56L5.51001 2.29999ZM2.31 31.1V3.90002H3.90997V28.7C3.90997 28.9122 3.99426 29.1157 4.14429 29.2657C4.29432 29.4157 4.49785 29.5 4.71002 29.5H35.91V31.1H2.31ZM39.55 31.23C39.4203 31.1414 39.267 31.0941 39.11 31.0941C38.953 31.0941 38.7996 31.1414 38.67 31.23L37.51 32V26.3H40.71V32L39.55 31.23ZM47.11 31.1H42.31V29.5H44.71C44.9222 29.5 45.1257 29.4157 45.2757 29.2657C45.4257 29.1157 45.51 28.9122 45.51 28.7V3.90002H47.11V31.1Z" fill="white"/>
<path d="M11.11 11.9H7.90997C7.6978 11.9 7.49433 11.9843 7.3443 12.1343C7.19427 12.2844 7.10999 12.4878 7.10999 12.7V20.7C7.10999 21.3365 7.36284 21.9469 7.81293 22.397C8.26301 22.8471 8.87349 23.1 9.51001 23.1C10.1465 23.1 10.7569 22.8471 11.207 22.397C11.6571 21.9469 11.91 21.3365 11.91 20.7V12.7C11.91 12.4878 11.8257 12.2844 11.6757 12.1343C11.5256 11.9843 11.3222 11.9 11.11 11.9ZM10.31 13.5V15.1H8.71002V13.5H10.31ZM9.51001 21.5C9.29784 21.5 9.09437 21.4157 8.94434 21.2657C8.79431 21.1157 8.71002 20.9122 8.71002 20.7V16.7H10.31V20.7C10.31 20.8051 10.2893 20.9091 10.2491 21.0062C10.2089 21.1032 10.15 21.1914 10.0757 21.2657C10.0014 21.34 9.91322 21.3989 9.81616 21.4391C9.7191 21.4793 9.61507 21.5 9.51001 21.5V21.5Z" fill="white"/>
<path d="M20.7101 5.5H11.11C10.8979 5.5 10.6944 5.58428 10.5444 5.73431C10.3943 5.88434 10.3101 6.08781 10.3101 6.29999C10.3101 6.51216 10.3943 6.71563 10.5444 6.86566C10.6944 7.01569 10.8979 7.09998 11.11 7.09998H20.7101C20.9223 7.09998 21.1257 7.01569 21.2758 6.86566C21.4258 6.71563 21.5101 6.51216 21.5101 6.29999C21.5101 6.08781 21.4258 5.88434 21.2758 5.73431C21.1257 5.58428 20.9223 5.5 20.7101 5.5Z" fill="white"/>
<path d="M20.71 11.9H15.91C15.6978 11.9 15.4943 11.9843 15.3443 12.1343C15.1943 12.2844 15.11 12.4878 15.11 12.7C15.11 12.9122 15.1943 13.1157 15.3443 13.2657C15.4943 13.4157 15.6978 13.5 15.91 13.5H20.71C20.9222 13.5 21.1257 13.4157 21.2757 13.2657C21.4257 13.1157 21.51 12.9122 21.51 12.7C21.51 12.4878 21.4257 12.2844 21.2757 12.1343C21.1257 11.9843 20.9222 11.9 20.71 11.9V11.9Z" fill="white"/>
<path d="M20.71 15.1H14.31C14.0978 15.1 13.8944 15.1843 13.7443 15.3343C13.5943 15.4843 13.51 15.6879 13.51 15.9C13.51 16.1122 13.5943 16.3157 13.7443 16.4657C13.8944 16.6157 14.0978 16.7 14.31 16.7H20.71C20.9222 16.7 21.1257 16.6157 21.2757 16.4657C21.4257 16.3157 21.51 16.1122 21.51 15.9C21.51 15.6879 21.4257 15.4843 21.2757 15.3343C21.1257 15.1843 20.9222 15.1 20.71 15.1V15.1Z" fill="white"/>
<path d="M20.71 21.5H14.31C14.0978 21.5 13.8944 21.5843 13.7443 21.7343C13.5943 21.8843 13.51 22.0878 13.51 22.3C13.51 22.5122 13.5943 22.7156 13.7443 22.8657C13.8944 23.0157 14.0978 23.1 14.31 23.1H20.71C20.9222 23.1 21.1257 23.0157 21.2757 22.8657C21.4257 22.7156 21.51 22.5122 21.51 22.3C21.51 22.0878 21.4257 21.8843 21.2757 21.7343C21.1257 21.5843 20.9222 21.5 20.71 21.5Z" fill="white"/>
<path d="M28.71 23.1H33.5099C33.7221 23.1 33.9256 23.0157 34.0756 22.8657C34.2257 22.7156 34.3099 22.5122 34.3099 22.3C34.3099 22.0878 34.2257 21.8843 34.0756 21.7343C33.9256 21.5843 33.7221 21.5 33.5099 21.5H28.71C28.4978 21.5 28.2943 21.5843 28.1442 21.7343C27.9942 21.8843 27.9099 22.0878 27.9099 22.3C27.9099 22.5122 27.9942 22.7156 28.1442 22.8657C28.2943 23.0157 28.4978 23.1 28.71 23.1V23.1Z" fill="white"/>
<path d="M41.5099 21.5H36.71C36.4978 21.5 36.2943 21.5843 36.1442 21.7343C35.9942 21.8843 35.9099 22.0878 35.9099 22.3C35.9099 22.5122 35.9942 22.7156 36.1442 22.8657C36.2943 23.0157 36.4978 23.1 36.71 23.1H41.5099C41.7221 23.1 41.9256 23.0157 42.0756 22.8657C42.2257 22.7156 42.3099 22.5122 42.3099 22.3C42.3099 22.0878 42.2257 21.8843 42.0756 21.7343C41.9256 21.5843 41.7221 21.5 41.5099 21.5Z" fill="white"/>
<path d="M14.31 19.9H15.91C16.1221 19.9 16.3257 19.8157 16.4757 19.6657C16.6257 19.5157 16.71 19.3121 16.71 19.1C16.71 18.8878 16.6257 18.6843 16.4757 18.5343C16.3257 18.3843 16.1221 18.3 15.91 18.3H14.31C14.0978 18.3 13.8944 18.3843 13.7443 18.5343C13.5943 18.6843 13.51 18.8878 13.51 19.1C13.51 19.3121 13.5943 19.5157 13.7443 19.6657C13.8944 19.8157 14.0978 19.9 14.31 19.9V19.9Z" fill="white"/>
<path d="M20.7101 18.3H19.11C18.8979 18.3 18.6944 18.3843 18.5444 18.5343C18.3943 18.6843 18.3101 18.8878 18.3101 19.1C18.3101 19.3121 18.3943 19.5157 18.5444 19.6657C18.6944 19.8157 18.8979 19.9 19.11 19.9H20.7101C20.9223 19.9 21.1257 19.8157 21.2758 19.6657C21.4258 19.5157 21.5101 19.3121 21.5101 19.1C21.5101 18.8878 21.4258 18.6843 21.2758 18.5343C21.1257 18.3843 20.9223 18.3 20.7101 18.3Z" fill="white"/>
<path d="M20.71 8.70001H7.90997C7.6978 8.70001 7.49433 8.7843 7.3443 8.93433C7.19427 9.08436 7.10999 9.28783 7.10999 9.5C7.10999 9.71217 7.19427 9.91564 7.3443 10.0657C7.49433 10.2157 7.6978 10.3 7.90997 10.3H20.71C20.9222 10.3 21.1257 10.2157 21.2757 10.0657C21.4257 9.91564 21.51 9.71217 21.51 9.5C21.51 9.28783 21.4257 9.08436 21.2757 8.93433C21.1257 8.7843 20.9222 8.70001 20.71 8.70001Z" fill="white"/>
<path d="M29.25 14C27.72 15.73 27.82 16.84 28.18 17.46C28.4065 17.8087 28.726 18.0871 29.1024 18.2638C29.4787 18.4405 29.897 18.5085 30.31 18.46C30.7807 18.4518 31.2496 18.3982 31.71 18.3L32.44 18.12C32.95 20.12 33.82 21.5 35.11 21.5C36.4 21.5 37.28 20.07 37.78 18.12L38.51 18.3C38.9705 18.3982 39.4392 18.4518 39.91 18.46C40.3229 18.5085 40.7412 18.4405 41.1176 18.2638C41.494 18.0871 41.8135 17.8087 42.04 17.46C42.4 16.84 42.5 15.73 40.97 14C40.81 13.82 40.63 13.64 40.45 13.46C40.63 13.28 40.81 13.09 40.97 12.91C42.5 11.18 42.4 10.08 42.04 9.46002C41.68 8.84002 40.78 8.18997 38.51 8.65997L37.78 8.84003C37.28 6.84003 36.4 5.46002 35.11 5.46002C33.82 5.46002 32.95 6.88003 32.44 8.84003L31.71 8.65997C29.44 8.18997 28.54 8.84002 28.18 9.46002C27.82 10.08 27.72 11.18 29.25 12.91C29.41 13.09 29.59 13.28 29.77 13.46C29.59 13.64 29.41 13.82 29.25 14ZM33.51 13.46C33.51 13.15 33.51 12.85 33.51 12.55C33.76 12.38 34.02 12.23 34.29 12.07L35.09 11.63L35.89 12.07C36.16 12.23 36.42 12.38 36.67 12.55C36.67 12.85 36.67 13.15 36.67 13.46C36.67 13.77 36.67 14.07 36.67 14.37C36.42 14.53 36.16 14.69 35.89 14.84C35.62 14.99 35.36 15.14 35.09 15.28C34.82 15.14 34.56 15 34.29 14.84C34.02 14.68 33.76 14.53 33.51 14.37C33.52 14.11 33.51 13.81 33.51 13.5V13.46ZM36.05 18.3C35.62 19.59 35.18 19.86 35.11 19.86C35.04 19.86 34.6 19.59 34.17 18.3C34.1 18.07 34.03 17.82 33.96 17.57C34.34 17.42 34.72 17.25 35.11 17.07C35.5 17.25 35.88 17.42 36.26 17.57C36.2 17.86 36.13 18.11 36.05 18.34V18.3ZM39.77 15.06C40.67 16.06 40.69 16.6 40.65 16.66C40.61 16.72 40.16 16.96 38.83 16.66L38.09 16.48C38.15 16.07 38.2 15.65 38.24 15.23C38.59 14.99 38.92 14.74 39.24 14.49C39.43 14.74 39.61 14.92 39.77 15.1V15.06ZM38.83 10.23C39.185 10.1523 39.5466 10.1087 39.91 10.1C40.43 10.1 40.63 10.22 40.65 10.26C40.67 10.3 40.65 10.83 39.77 11.85C39.61 12.03 39.43 12.21 39.24 12.4C38.92 12.15 38.59 11.9 38.24 11.65C38.24 11.23 38.15 10.81 38.09 10.41C38.35 10.34 38.59 10.27 38.83 10.23V10.23ZM34.17 8.62C34.6 7.33 35.04 7.06 35.11 7.06C35.18 7.06 35.62 7.33 36.05 8.62C36.1331 8.85935 36.2033 9.10302 36.26 9.34998C35.88 9.49998 35.5 9.65998 35.11 9.84998C34.72 9.65998 34.34 9.49998 33.96 9.34998C34 9.12998 34.1 8.88997 34.17 8.65997V8.62ZM30.45 11.85C29.55 10.85 29.53 10.32 29.57 10.26C29.61 10.2 29.79 10.1 30.31 10.1C30.6733 10.1087 31.035 10.1523 31.39 10.23C31.63 10.23 31.87 10.34 32.13 10.41C32.07 10.81 32.02 11.23 31.98 11.65C31.63 11.9 31.3 12.14 30.98 12.4C30.79 12.21 30.61 12.03 30.45 11.85V11.85ZM32 15.3C32 15.72 32.09 16.14 32.15 16.55L31.41 16.73C30.08 17 29.62 16.73 29.59 16.73C29.56 16.73 29.59 16.15 30.47 15.13C30.63 14.95 30.81 14.77 31 14.59C31.3 14.81 31.63 15.06 32 15.3Z" fill="white"/>
</svg>
