<svg width="48" height="45" viewBox="0 0 48 45" fill="none" xmlns="http://www.w3.org/2000/svg">
<path d="M36.92 20.22C36.738 20.22 36.5602 20.2739 36.4089 20.375C36.2576 20.4761 36.1396 20.6198 36.07 20.7879C36.0004 20.956 35.9822 21.141 36.0177 21.3195C36.0532 21.4979 36.1408 21.6618 36.2695 21.7905C36.3981 21.9192 36.5621 22.0068 36.7405 22.0423C36.919 22.0778 37.104 22.0596 37.2721 21.9899C37.4402 21.9203 37.5838 21.8024 37.6849 21.6511C37.786 21.4998 37.84 21.3219 37.84 21.14C37.84 20.896 37.7431 20.662 37.5705 20.4894C37.398 20.3169 37.164 20.22 36.92 20.22V20.22Z" fill="white"/>
<path d="M11.25 20.22C11.068 20.22 10.8902 20.2739 10.7389 20.375C10.5876 20.4761 10.4696 20.6198 10.4 20.7879C10.3304 20.956 10.3121 21.141 10.3476 21.3195C10.3831 21.4979 10.4708 21.6618 10.5995 21.7905C10.7281 21.9192 10.892 22.0068 11.0705 22.0423C11.2489 22.0778 11.4339 22.0596 11.602 21.9899C11.7701 21.9203 11.9138 21.8024 12.0149 21.6511C12.116 21.4998 12.17 21.3219 12.17 21.14C12.17 20.896 12.073 20.662 11.9005 20.4894C11.728 20.3169 11.494 20.22 11.25 20.22V20.22Z" fill="white"/>
<path d="M32.34 23.89H27.7499V19.31C27.75 19.0677 27.6544 18.8352 27.484 18.663C27.3136 18.4907 27.0822 18.3926 26.84 18.39H21.34C21.096 18.39 20.8619 18.4869 20.6894 18.6595C20.5169 18.832 20.4199 19.066 20.4199 19.31V23.89H15.84C15.7191 23.89 15.5995 23.9138 15.4879 23.96C15.3762 24.0063 15.2748 24.074 15.1894 24.1595C15.104 24.2449 15.0362 24.3463 14.99 24.4579C14.9438 24.5695 14.9199 24.6892 14.9199 24.81V30.31C14.9226 30.5523 15.0207 30.7837 15.1929 30.9541C15.3652 31.1244 15.5977 31.22 15.84 31.22H20.4199V35.81C20.4226 36.0523 20.5207 36.2837 20.6929 36.4541C20.8652 36.6244 21.0977 36.72 21.34 36.72H26.84C27.0813 36.72 27.3127 36.6241 27.4834 36.4535C27.6541 36.2828 27.7499 36.0513 27.7499 35.81V31.22H32.34C32.5813 31.22 32.8127 31.1241 32.9834 30.9535C33.1541 30.7828 33.2499 30.5513 33.2499 30.31V24.81C33.25 24.5677 33.1544 24.3352 32.984 24.163C32.8136 23.9907 32.5822 23.8926 32.34 23.89V23.89ZM31.4199 29.39H26.84C26.596 29.39 26.3619 29.4869 26.1894 29.6595C26.0169 29.832 25.9199 30.066 25.9199 30.31V34.89H22.2499V30.31C22.25 30.0677 22.1544 29.8352 21.984 29.663C21.8136 29.4907 21.5822 29.3926 21.34 29.39H16.7499V25.72H21.34C21.5813 25.72 21.8127 25.6241 21.9834 25.4535C22.1541 25.2828 22.2499 25.0513 22.2499 24.81V20.22H25.9199V24.81C25.9226 25.0523 26.0207 25.2837 26.1929 25.4541C26.3652 25.6244 26.5977 25.72 26.84 25.72H31.4199V29.39Z" fill="white"/>
<path d="M43.0001 11.06H36.0001V5.56C36.0001 4.10131 35.4206 2.70235 34.3892 1.6709C33.3577 0.639448 31.9588 0.0599976 30.5001 0.0599976H17.67C16.2114 0.0599976 14.8124 0.639448 13.7809 1.6709C12.7495 2.70235 12.17 4.10131 12.17 5.56V11.06H5.17004C3.95616 11.0626 2.79279 11.546 1.93445 12.4044C1.0761 13.2627 0.59273 14.4261 0.590088 15.64V39.47C0.590085 40.6856 1.07228 41.8516 1.93091 42.7121C2.78954 43.5726 3.95443 44.0573 5.17004 44.06H43.0001C44.2157 44.0573 45.3806 43.5726 46.2392 42.7121C47.0978 41.8516 47.5801 40.6856 47.5801 39.47V15.64C47.5801 14.4253 47.0975 13.2604 46.2386 12.4015C45.3797 11.5425 44.2148 11.06 43.0001 11.06V11.06ZM14.0001 5.56C14.0027 4.58746 14.3902 3.65552 15.0779 2.96783C15.7656 2.28015 16.6975 1.89265 17.67 1.89001H30.5001C31.4726 1.89265 32.4045 2.28015 33.0922 2.96783C33.7799 3.65552 34.1674 4.58746 34.17 5.56V11.06H32.3401V6.47C32.3375 5.74147 32.0468 5.04354 31.5317 4.52838C31.0165 4.01323 30.3186 3.72264 29.5901 3.72H18.5901C17.8607 3.72 17.1612 4.00973 16.6455 4.52545C16.1298 5.04118 15.8401 5.74066 15.8401 6.47V11.06H14.0001V5.56ZM30.5001 6.47V11.06H17.67V6.47C17.6727 6.22774 17.7708 5.9963 17.9431 5.82593C18.1153 5.65555 18.3478 5.55998 18.5901 5.56H29.5901C29.7096 5.56 29.8279 5.58354 29.9383 5.62927C30.0487 5.675 30.149 5.74204 30.2335 5.82654C30.318 5.91104 30.3851 6.01136 30.4308 6.12177C30.4765 6.23217 30.5001 6.3505 30.5001 6.47V6.47ZM6.67004 42.22H5.20007C4.47073 42.22 3.77122 41.9303 3.25549 41.4146C2.73977 40.8988 2.45007 40.1993 2.45007 39.47V15.64C2.45007 14.9107 2.73977 14.2112 3.25549 13.6955C3.77122 13.1797 4.47073 12.89 5.20007 12.89H6.67004V42.22ZM39.67 42.22H37.8401V24.81C37.8401 24.566 37.7432 24.332 37.5706 24.1595C37.3981 23.9869 37.164 23.89 36.92 23.89C36.676 23.89 36.4421 23.9869 36.2695 24.1595C36.097 24.332 36.0001 24.566 36.0001 24.81V42.22H12.17V24.81C12.1835 24.6818 12.1698 24.5522 12.1299 24.4297C12.0901 24.3071 12.0249 24.1943 11.9386 24.0985C11.8523 24.0027 11.7469 23.9261 11.6292 23.8737C11.5114 23.8213 11.384 23.7942 11.2551 23.7942C11.1262 23.7942 10.9987 23.8213 10.8809 23.8737C10.7632 23.9261 10.6577 24.0027 10.5715 24.0985C10.4852 24.1943 10.4201 24.3071 10.3802 24.4297C10.3403 24.5522 10.3267 24.6818 10.3401 24.81V42.22H8.50006V12.89H10.3401V17.47C10.3267 17.5982 10.3403 17.7278 10.3802 17.8503C10.4201 17.9729 10.4852 18.0857 10.5715 18.1815C10.6577 18.2773 10.7632 18.3539 10.8809 18.4063C10.9987 18.4587 11.1262 18.4858 11.2551 18.4858C11.384 18.4858 11.5114 18.4587 11.6292 18.4063C11.7469 18.3539 11.8523 18.2773 11.9386 18.1815C12.0249 18.0857 12.0901 17.9729 12.1299 17.8503C12.1698 17.7278 12.1835 17.5982 12.17 17.47V12.89H36.0001V17.47C36.0001 17.714 36.097 17.948 36.2695 18.1205C36.4421 18.2931 36.676 18.39 36.92 18.39C37.164 18.39 37.3981 18.2931 37.5706 18.1205C37.7432 17.948 37.8401 17.714 37.8401 17.47V12.89H39.67V42.22ZM45.72 39.47C45.72 40.1993 45.4303 40.8988 44.9146 41.4146C44.3989 41.9303 43.6994 42.22 42.97 42.22H41.5001V12.89H43.0001C43.7294 12.89 44.4289 13.1797 44.9446 13.6955C45.4603 14.2112 45.7501 14.9107 45.7501 15.64L45.72 39.47Z" fill="white"/>
</svg>
