<svg width="48" height="61" viewBox="0 0 48 61" fill="none" xmlns="http://www.w3.org/2000/svg">
<g clip-path="url(#clip0)">
<path d="M24 8.9C24.38 8.86941 24.7568 8.98973 25.0488 9.23491C25.3408 9.48009 25.5244 9.8304 25.56 10.21C25.56 10.5256 25.6854 10.8283 25.9085 11.0515C26.1317 11.2746 26.4344 11.4 26.75 11.4C27.0656 11.4 27.3683 11.2746 27.5915 11.0515C27.8146 10.8283 27.94 10.5256 27.94 10.21C27.9208 9.4068 27.6427 8.63127 27.1472 7.99884C26.6517 7.3664 25.9653 6.91085 25.19 6.7V6.53C25.19 6.21439 25.0646 5.91171 24.8415 5.68854C24.6183 5.46537 24.3156 5.34 24 5.34C23.6844 5.34 23.3817 5.46537 23.1585 5.68854C22.9354 5.91171 22.81 6.21439 22.81 6.53V6.7C22.0347 6.91085 21.3483 7.3664 20.8528 7.99884C20.3573 8.63127 20.0792 9.4068 20.06 10.21C20.0939 11.2215 20.5279 12.1783 21.2666 12.8701C22.0053 13.562 22.9884 13.9324 24 13.9C24.38 13.8694 24.7568 13.9897 25.0488 14.2349C25.3408 14.4801 25.5244 14.8304 25.56 15.21C25.5004 15.5808 25.3107 15.9183 25.0248 16.162C24.7389 16.4056 24.3756 16.5394 24 16.5394C23.6244 16.5394 23.2611 16.4056 22.9752 16.162C22.6893 15.9183 22.4996 15.5808 22.44 15.21C22.44 14.8944 22.3146 14.5917 22.0915 14.3685C21.8683 14.1454 21.5656 14.02 21.25 14.02C20.9344 14.02 20.6317 14.1454 20.4085 14.3685C20.1854 14.5917 20.06 14.8944 20.06 15.21C20.0787 16.0145 20.3564 16.7915 20.8518 17.4256C21.3472 18.0598 22.0339 18.5172 22.81 18.73V18.89C22.81 19.2056 22.9354 19.5083 23.1585 19.7315C23.3817 19.9546 23.6844 20.08 24 20.08C24.3156 20.08 24.6183 19.9546 24.8415 19.7315C25.0646 19.5083 25.19 19.2056 25.19 18.89V18.73C25.9661 18.5172 26.6528 18.0598 27.1482 17.4256C27.6436 16.7915 27.9213 16.0145 27.94 15.21C27.9035 14.1994 27.4687 13.2442 26.7306 12.5529C25.9924 11.8616 25.0109 11.4903 24 11.52C23.62 11.5506 23.2432 11.4303 22.9512 11.1851C22.6592 10.9399 22.4756 10.5896 22.44 10.21C22.4756 9.8304 22.6592 9.48009 22.9512 9.23491C23.2432 8.98973 23.62 8.86941 24 8.9V8.9Z" fill="white"/>
<path d="M46.81 32.58H41.38C37.9984 32.5853 34.7569 33.9317 32.3667 36.3238C29.9765 38.7159 28.6326 41.9584 28.63 45.34V50.28L25.19 53.71V25.37C28.3403 25.0692 31.2656 23.6058 33.3954 21.2652C35.5252 18.9246 36.7069 15.8746 36.71 12.71C36.714 11.3509 36.4978 10.0001 36.07 8.71C36.0208 8.56161 35.9428 8.42437 35.8405 8.30612C35.7382 8.18786 35.6136 8.09092 35.4739 8.02081C35.3341 7.9507 35.1819 7.9088 35.026 7.89751C34.87 7.88622 34.7134 7.90576 34.565 7.955C34.4166 8.00425 34.2794 8.08224 34.1611 8.18453C34.0429 8.28681 33.9459 8.41139 33.8758 8.55114C33.7342 8.83338 33.7105 9.16031 33.81 9.46C34.1615 10.5075 34.3405 11.6051 34.34 12.71C34.342 14.7555 33.7372 16.7556 32.6023 18.4573C31.4673 20.159 29.8531 21.4859 27.9639 22.27C26.0747 23.0542 23.9953 23.2604 21.9889 22.8625C19.9825 22.4647 18.1391 21.4807 16.6921 20.035C15.245 18.5893 14.2592 16.747 13.8594 14.7409C13.4596 12.7349 13.6638 10.6553 14.4461 8.76537C15.2284 6.8754 16.5537 5.25992 18.2544 4.1233C19.955 2.98669 21.9545 2.38 24 2.38C25.0408 2.37643 26.076 2.53155 27.07 2.84C27.3672 2.9213 27.6844 2.88413 27.9548 2.73629C28.2252 2.58846 28.4277 2.34151 28.5197 2.0474C28.6117 1.75329 28.586 1.43496 28.448 1.15941C28.3101 0.883854 28.0706 0.672564 27.78 0.570004C26.0839 0.0517319 24.298 -0.105829 22.5374 0.107454C20.7767 0.320737 19.0801 0.900142 17.5568 1.80841C16.0335 2.71668 14.7171 3.9337 13.6923 5.38121C12.6676 6.82873 11.9571 8.47469 11.6065 10.2133C11.256 11.9518 11.2732 13.7445 11.6571 15.476C12.0409 17.2075 12.7829 18.8395 13.8353 20.2671C14.8877 21.6947 16.2272 22.8862 17.7677 23.765C19.3082 24.6439 21.0156 25.1906 22.78 25.37V43.47L19.37 40V35.09C19.3674 31.7093 18.0232 28.4678 15.6327 26.0773C13.2422 23.6868 10.0007 22.3427 6.62 22.34H1.19C0.874392 22.34 0.571711 22.4654 0.348543 22.6885C0.125375 22.9117 0 23.2144 0 23.53L0 29C0.0158551 32.3747 1.36689 35.6059 3.75785 37.9875C6.14881 40.3691 9.38529 41.7074 12.76 41.71H17.69L22.81 46.83V58.46H10.91C10.7452 58.4449 10.5791 58.4642 10.4223 58.5169C10.2654 58.5696 10.1213 58.6543 9.99902 58.7659C9.87678 58.8774 9.77915 59.0132 9.71234 59.1645C9.64553 59.3159 9.61103 59.4795 9.61103 59.645C9.61103 59.8105 9.64553 59.9741 9.71234 60.1255C9.77915 60.2769 9.87678 60.4126 9.99902 60.5241C10.1213 60.6357 10.2654 60.7205 10.4223 60.7731C10.5791 60.8258 10.7452 60.8452 10.91 60.83H37.09C37.2548 60.8452 37.4209 60.8258 37.5777 60.7731C37.7346 60.7205 37.8787 60.6357 38.001 60.5241C38.1232 60.4126 38.2209 60.2769 38.2877 60.1255C38.3545 59.9741 38.389 59.8105 38.389 59.645C38.389 59.4795 38.3545 59.3159 38.2877 59.1645C38.2209 59.0132 38.1232 58.8774 38.001 58.7659C37.8787 58.6543 37.7346 58.5696 37.5777 58.5169C37.4209 58.4642 37.2548 58.4449 37.09 58.46H25.19V57.07L30.31 52H35.24C36.9183 51.9974 38.5796 51.6642 40.1292 51.0195C41.6787 50.3749 43.0861 49.4313 44.271 48.2427C45.4558 47.0541 46.395 45.6438 47.0348 44.0922C47.6747 42.5407 48.0026 40.8783 48 39.2V33.77C48 33.4544 47.8746 33.1517 47.6515 32.9285C47.4283 32.7054 47.1256 32.58 46.81 32.58V32.58ZM12.76 39.34C10.0148 39.3374 7.38215 38.2484 5.43724 36.311C3.49232 34.3736 2.39321 31.7452 2.38 29V24.71H6.62C9.37132 24.7153 12.0084 25.8106 13.9539 27.7561C15.8994 29.7016 16.9947 32.3387 17 35.09V37.66L11.75 32.41C11.6402 32.2987 11.5094 32.2104 11.3652 32.1501C11.221 32.0898 11.0663 32.0587 10.91 32.0587C10.7537 32.0587 10.599 32.0898 10.4548 32.1501C10.3106 32.2104 10.1798 32.2987 10.07 32.41C9.85013 32.6343 9.72697 32.9359 9.72697 33.25C9.72697 33.5641 9.85013 33.8657 10.07 34.09L15.32 39.34H12.76ZM45.62 39.2C45.6174 41.9521 44.5229 44.5908 42.5768 46.5368C40.6308 48.4829 37.9921 49.5774 35.24 49.58H32.68L37.93 44.33C38.0512 44.2223 38.1491 44.0909 38.2177 43.944C38.2864 43.797 38.3242 43.6376 38.329 43.4755C38.3338 43.3134 38.3053 43.1521 38.2455 43.0013C38.1856 42.8506 38.0956 42.7137 37.981 42.599C37.8663 42.4844 37.7294 42.3944 37.5787 42.3345C37.4279 42.2747 37.2666 42.2463 37.1045 42.251C36.9424 42.2558 36.783 42.2936 36.636 42.3623C36.4891 42.4309 36.3577 42.5288 36.25 42.65L31 47.9V45.34C31.0132 42.5948 32.1123 39.9664 34.0572 38.029C36.0021 36.0916 38.6348 35.0026 41.38 35H45.62V39.2Z" fill="white"/>
<path d="M32.12 5.73001C32.2828 5.73501 32.4449 5.70652 32.5963 5.64632C32.7477 5.58611 32.8851 5.49547 33 5.38001C33.1112 5.27023 33.1996 5.13945 33.2599 4.99525C33.3202 4.85105 33.3512 4.69631 33.3512 4.54001C33.3512 4.38371 33.3202 4.22896 33.2599 4.08476C33.1996 3.94056 33.1112 3.80978 33 3.70001C32.7774 3.47666 32.4753 3.35078 32.16 3.35001C31.8453 3.35397 31.5444 3.47937 31.32 3.70001C31.1024 3.92554 30.9809 4.22666 30.9809 4.54001C30.9809 4.85335 31.1024 5.15447 31.32 5.38001C31.5343 5.59138 31.8193 5.71604 32.12 5.73001Z" fill="white"/>
</g>
<defs>
<clipPath id="clip0">
<rect width="48" height="60.83" fill="white"/>
</clipPath>
</defs>
</svg>
