<svg id="Capa_1" data-name="Capa 1" xmlns="http://www.w3.org/2000/svg" viewBox="0 0 36.06 45.71"><defs><style>.cls-1{fill:#019ae2;}</style></defs><g id="Grupo_410" data-name="Grupo 410"><g id="Grupo_409" data-name="Grupo 409"><path id="Trazado_1137" data-name="Trazado 1137" class="cls-1" d="M18,6.69a1.11,1.11,0,0,1,1.18,1A.89.89,0,0,0,21,7.74V7.68A2.8,2.8,0,0,0,18.92,5V4.91a.89.89,0,0,0-1.78,0V5a2.8,2.8,0,0,0-2.07,2.64,2.87,2.87,0,0,0,3,2.77,1,1,0,0,1,.81,1.16,1,1,0,0,1-2-.18.89.89,0,0,0-1.78,0,2.8,2.8,0,0,0,2.07,2.64v.13a.89.89,0,1,0,1.78,0v-.13A2.8,2.8,0,0,0,21,11.43a2.88,2.88,0,0,0-3-2.77,1,1,0,0,1-.35-2,1,1,0,0,1,.35,0Z"/><path id="Trazado_1138" data-name="Trazado 1138" class="cls-1" d="M35.17,24.48H31.09a9.6,9.6,0,0,0-9.58,9.59v3.71l-2.59,2.58V19.06A9.56,9.56,0,0,0,27.54,8.65a10,10,0,0,0-.44-2.11A.89.89,0,0,0,26,6a.9.9,0,0,0-.59,1.12v0a7.74,7.74,0,1,1-5.06-5,.89.89,0,0,0,.53-1.7A9.56,9.56,0,1,0,15.2,18.68a9.79,9.79,0,0,0,1.94.38v13.6l-2.58-2.58V26.37A9.6,9.6,0,0,0,5,16.79H.89a.89.89,0,0,0-.89.89v4.08a9.59,9.59,0,0,0,9.58,9.58h3.71l3.85,3.85v8.73H8.2a.9.9,0,1,0-.06,1.79H27.86a.9.9,0,1,0,.06-1.79h-9v-1L22.77,39h3.71a9.59,9.59,0,0,0,9.58-9.58V25.38a.89.89,0,0,0-.89-.9ZM9.58,29.56a7.82,7.82,0,0,1-7.8-7.8V18.57H5a7.81,7.81,0,0,1,7.8,7.8V28.3L8.83,24.35a.9.9,0,0,0-1.26,1.27l3.94,3.94Zm24.7-.1a7.82,7.82,0,0,1-7.8,7.8H24.55l3.94-3.94a.9.9,0,0,0,0-1.27.92.92,0,0,0-1.22,0l-3.94,4V34.07a7.81,7.81,0,0,1,7.8-7.8h3.19Z"/><path id="Trazado_1139" data-name="Trazado 1139" class="cls-1" d="M24.13,4.31A.9.9,0,1,0,23.5,4,.9.9,0,0,0,24.13,4.31Z"/></g></g></svg>