<svg width="43" height="40" viewBox="0 0 43 40" fill="none" xmlns="http://www.w3.org/2000/svg">
<path d="M39.6701 0.0599976H3.21008C2.38169 0.0626442 1.58812 0.393583 1.0033 0.980286C0.418468 1.56699 0.0900837 2.3616 0.0900879 3.19V30.72C0.0900879 31.5474 0.418793 32.341 1.00391 32.9261C1.58902 33.5113 2.38261 33.84 3.21008 33.84H16.5701L15.8101 36.48C15.6258 37.0267 15.2811 37.5051 14.8209 37.853C14.3607 38.2008 13.8063 38.4019 13.2301 38.43H8.5101C8.35795 38.4493 8.21804 38.5234 8.11664 38.6385C8.01524 38.7536 7.95932 38.9016 7.95932 39.055C7.95932 39.2084 8.01524 39.3565 8.11664 39.4716C8.21804 39.5866 8.35795 39.6607 8.5101 39.68H34.3701C34.4588 39.6912 34.5489 39.6835 34.6344 39.6572C34.7198 39.631 34.7988 39.5868 34.8658 39.5276C34.9329 39.4685 34.9867 39.3958 35.0235 39.3143C35.0603 39.2328 35.0793 39.1444 35.0793 39.055C35.0793 38.9656 35.0603 38.8772 35.0235 38.7957C34.9867 38.7142 34.9329 38.6415 34.8658 38.5823C34.7988 38.5232 34.7198 38.4791 34.6344 38.4528C34.5489 38.4266 34.4588 38.4187 34.3701 38.43H29.6601C29.0829 38.4012 28.5276 38.2 28.0659 37.8524C27.6042 37.5048 27.2574 37.0267 27.0701 36.48L26.3201 33.84H39.6701C40.4985 33.84 41.2931 33.5116 41.8798 32.9268C42.4665 32.3419 42.7974 31.5484 42.8001 30.72V3.19C42.8001 2.77896 42.7191 2.37194 42.5618 1.99219C42.4045 1.61244 42.174 1.26739 41.8833 0.976746C41.5927 0.686098 41.2476 0.455576 40.8679 0.298279C40.4881 0.140982 40.0811 0.0599976 39.6701 0.0599976V0.0599976ZM3.21008 1.31H39.6701C40.1687 1.31 40.6469 1.50809 40.9995 1.86066C41.352 2.21323 41.5501 2.6914 41.5501 3.19V25.08H1.34009V3.19C1.34008 2.69312 1.53677 2.21642 1.88718 1.86414C2.23759 1.51185 2.71321 1.31264 3.21008 1.31ZM25.8701 36.82C26.0601 37.4334 26.4044 37.9878 26.8701 38.43H16.0601C16.5224 37.985 16.8661 37.4316 17.0601 36.82L17.9101 33.82H25.0001L25.8701 36.82ZM39.6701 32.59H3.21008C2.71413 32.59 2.23848 32.393 1.88779 32.0423C1.53709 31.6916 1.34009 31.2159 1.34009 30.72V26.34H41.5501V30.72C41.5474 31.2168 41.3482 31.6925 40.9959 32.0429C40.6437 32.3933 40.167 32.59 39.6701 32.59V32.59Z" fill="white"/>
<path d="M3.20996 23.83H39.67C39.8353 23.83 39.9941 23.765 40.1119 23.649C40.2298 23.5331 40.2973 23.3754 40.3 23.21V3.21002C40.3 3.04294 40.2336 2.88267 40.1154 2.76453C39.9973 2.64638 39.8371 2.58002 39.67 2.58002H3.20996C3.04461 2.58264 2.88692 2.65014 2.77093 2.76801C2.65494 2.88587 2.58994 3.04465 2.58996 3.21002V11.96C2.57872 12.0487 2.58649 12.1388 2.61276 12.2243C2.63902 12.3098 2.68318 12.3887 2.7423 12.4557C2.80143 12.5228 2.87416 12.5765 2.95565 12.6133C3.03715 12.6501 3.12554 12.6692 3.21496 12.6692C3.30438 12.6692 3.39277 12.6501 3.47427 12.6133C3.55576 12.5765 3.6285 12.5228 3.68762 12.4557C3.74674 12.3887 3.7909 12.3098 3.81716 12.2243C3.84343 12.1388 3.8512 12.0487 3.83996 11.96V3.83002H39.05V22.6H3.83996V14.47C3.8512 14.3813 3.84343 14.2912 3.81716 14.2057C3.7909 14.1203 3.74674 14.0413 3.68762 13.9742C3.6285 13.9072 3.55576 13.8535 3.47427 13.8167C3.39277 13.7798 3.30438 13.7608 3.21496 13.7608C3.12554 13.7608 3.03715 13.7798 2.95565 13.8167C2.87416 13.8535 2.80143 13.9072 2.7423 13.9742C2.68318 14.0413 2.63902 14.1203 2.61276 14.2057C2.58649 14.2912 2.57872 14.3813 2.58996 14.47V23.23C2.59515 23.3909 2.66275 23.5435 2.77847 23.6555C2.89418 23.7675 3.04893 23.8301 3.20996 23.83V23.83Z" fill="white"/>
<path d="M21.44 27.5901C21.0678 27.5901 20.7039 27.7005 20.3945 27.9076C20.0852 28.1146 19.8442 28.4088 19.7022 28.7529C19.5602 29.097 19.5236 29.4755 19.5969 29.8405C19.6703 30.2054 19.8503 30.5404 20.1143 30.8029C20.3782 31.0655 20.7141 31.2437 21.0794 31.3151C21.4448 31.3865 21.8231 31.3478 22.1664 31.204C22.5098 31.0602 22.8027 30.8177 23.0081 30.5072C23.2134 30.1968 23.322 29.8323 23.32 29.46C23.32 29.2136 23.2713 28.9696 23.1767 28.7421C23.0821 28.5146 22.9435 28.308 22.7688 28.1342C22.5941 27.9604 22.3868 27.8229 22.1587 27.7295C21.9307 27.6361 21.6864 27.5887 21.44 27.5901ZM21.44 30.0901C21.3154 30.0901 21.1936 30.0531 21.09 29.9839C20.9864 29.9146 20.9057 29.8163 20.858 29.7011C20.8103 29.586 20.7978 29.4593 20.8221 29.3371C20.8464 29.2149 20.9065 29.1027 20.9946 29.0146C21.0827 28.9264 21.1949 28.8664 21.3171 28.8421C21.4393 28.8178 21.566 28.8303 21.6811 28.878C21.7962 28.9256 21.8946 29.0064 21.9639 29.11C22.0331 29.2136 22.07 29.3354 22.07 29.46C22.07 29.6271 22.0036 29.7873 21.8855 29.9055C21.7673 30.0236 21.6071 30.0901 21.44 30.0901Z" fill="white"/>
</svg>
