<svg id="Capa_1" data-name="Capa 1" xmlns="http://www.w3.org/2000/svg" xmlns:xlink="http://www.w3.org/1999/xlink" viewBox="0 0 32.84 38.7"><defs><style>.cls-1{fill:none;}.cls-2{fill:#019ae2;}.cls-3{clip-path:url(#clip-path);}</style><clipPath id="clip-path"><rect class="cls-1" x="-200.94" y="117.1" width="298" height="344"/></clipPath></defs><g id="award"><g id="Grupo_256" data-name="Grupo 256"><g id="Grupo_255" data-name="Grupo 255"><path id="Trazado_949" data-name="Trazado 949" class="cls-2" d="M32.76,33.91,26.83,23.65a14.11,14.11,0,1,0-20.8,0L.1,33.91a.77.77,0,0,0-.06.63A.68.68,0,0,0,.92,35h0l4.74-1.89.73,5.07a.61.61,0,0,0,.33.49.7.7,0,0,0,1-.26l6-10.37a15.13,15.13,0,0,0,2.68.27A14.16,14.16,0,0,0,19,28l6,10.37a.74.74,0,0,0,1,.26.61.61,0,0,0,.33-.49l.73-5.07,4.74,1.89a.69.69,0,0,0,.89-.38v0A.5.5,0,0,0,32.76,33.91Zm-25.2,2L7,32a.72.72,0,0,0-.78-.6.66.66,0,0,0-.2.06L2.3,32.89l4.77-8.25a14.08,14.08,0,0,0,5.25,2.95Zm8.87-9.07a12.69,12.69,0,0,1-9-21.66,12.38,12.38,0,0,1,9-3.78,12.69,12.69,0,0,1,9,21.66,12.5,12.5,0,0,1-9,3.78Zm10.47,4.6a.47.47,0,0,0-.2-.06.7.7,0,0,0-.79.59l-.59,3.94-4.78-8.31a14.09,14.09,0,0,0,5.27-2.95l4.77,8.25Z"/></g></g><g id="Grupo_258" data-name="Grupo 258"><g id="Grupo_257" data-name="Grupo 257"><path id="Trazado_950" data-name="Trazado 950" class="cls-2" d="M22.93,11.66a1.46,1.46,0,0,0-.6-.5,1.43,1.43,0,0,0-.76-.13H18.82L18,8.31a1.76,1.76,0,0,0-.77-.93,1.68,1.68,0,0,0-1.45,0,1.58,1.58,0,0,0-.77.93L14.11,11H11.36a1.43,1.43,0,0,0-.76.13,1.46,1.46,0,0,0-.6.5,1.48,1.48,0,0,0-.26,1.15,1.52,1.52,0,0,0,.63,1l2.32,1.66-.9,2.71s0,.07,0,.07a1.48,1.48,0,0,0,0,.66,1.35,1.35,0,0,0,.29.67,1.61,1.61,0,0,0,1,.63,1.51,1.51,0,0,0,1.16-.3l2.32-1.69,2.32,1.69a1.7,1.7,0,0,0,1.16.3,1.56,1.56,0,0,0,1-.63,1.69,1.69,0,0,0,.3-.67,1.48,1.48,0,0,0,0-.66s0-.07,0-.07l-.89-2.71,2.32-1.66a1.56,1.56,0,0,0,.63-1A2.36,2.36,0,0,0,22.93,11.66Zm-1.16,1.05,0,0L19.06,14.7a.69.69,0,0,0-.27.76l1,3.15v.14s0,.06,0,.06a.21.21,0,0,1-.14.07.31.31,0,0,1-.13,0l-2.73-2a.65.65,0,0,0-.43-.14.76.76,0,0,0-.43.14l-2.71,2a.22.22,0,0,1-.13,0,.37.37,0,0,1-.14-.07.09.09,0,0,1,0-.07v-.13l1-3.15a.64.64,0,0,0-.27-.76l-2.55-2,0,0s-.07-.06-.07-.1a.22.22,0,0,1,0-.13,0,0,0,0,1,0,0s0,0,.06,0,.07,0,.1,0h3.35a.7.7,0,0,0,.66-.49l1-3.18a.09.09,0,0,1,.1-.1s.05,0,.06,0,.07,0,.07,0l.1.1,1,3.18a.75.75,0,0,0,.66.49h3.34a.15.15,0,0,1,.1,0s0,0,.07,0a0,0,0,0,0,0,0s0,.07,0,.13a.71.71,0,0,0-.14.1Z"/></g></g><g id="Grupo_260" data-name="Grupo 260"><g id="Grupo_259" data-name="Grupo 259"><path id="Trazado_951" data-name="Trazado 951" class="cls-2" d="M24.22,6.32a11,11,0,1,0,3.21,7.79A11,11,0,0,0,24.22,6.32Zm-1,14.58A9.62,9.62,0,0,1,9.54,7.42l.1-.1a9.49,9.49,0,0,1,6.79-2.85A9.65,9.65,0,0,1,23.26,20.9Z"/></g></g></g><g class="cls-3"><image width="3456" height="5184" transform="translate(-253.94 24.1) scale(0.12)" xlink:href="../../../PROPUESTA%20DISE%C3%91O/CARNET/fotos/Nueva%20carpeta/CRISTOPHER%20SOLANO.png"/></g></svg>