<svg id="Capa_1" data-name="Capa 1" xmlns="http://www.w3.org/2000/svg" xmlns:xlink="http://www.w3.org/1999/xlink" viewBox="0 0 37.8 37.8"><defs><style>.cls-1{fill:none;}.cls-2{fill:#019ae2;}.cls-3{clip-path:url(#clip-path);}</style><clipPath id="clip-path"><rect class="cls-1" x="-126.17" y="126.91" width="298" height="344"/></clipPath></defs><g id="mision"><path id="Trazado_943" data-name="Trazado 943" class="cls-2" d="M29.13,37.8H.79A.79.79,0,0,1,0,37a.75.75,0,0,1,.1-.38l14.17-26a.8.8,0,0,1,1.13-.25.75.75,0,0,1,.25.25l14.18,26a.8.8,0,0,1-.7,1.17Zm-27-1.58h25.7L15,12.67Z"/><path id="Trazado_944" data-name="Trazado 944" class="cls-2" d="M37,37.8H29.13a.79.79,0,0,1,0-1.58h6.55L28.39,23l-3,6.21A.79.79,0,0,1,24,28.5h0l3.67-7.58a.79.79,0,0,1,.69-.45.84.84,0,0,1,.71.41L37.7,36.63a.79.79,0,0,1-.31,1.07A.86.86,0,0,1,37,37.8Z"/><path id="Trazado_945" data-name="Trazado 945" class="cls-2" d="M15,11.81a.79.79,0,0,1-.79-.79V.79A.79.79,0,0,1,15,0h9.45a.79.79,0,0,1,.79.79.75.75,0,0,1-.23.55l-2.6,2.6L25,6.53a.8.8,0,0,1,0,1.11.79.79,0,0,1-.56.23H15.75V11A.79.79,0,0,1,15,11.81Zm.79-5.51h6.76L20.7,4.49a.8.8,0,0,1,0-1.11l1.81-1.81H15.75Z"/><path id="Trazado_946" data-name="Trazado 946" class="cls-2" d="M17.32,23.62h-.05a.79.79,0,0,1-.58-.31L15,21l-1.73,2.31a.78.78,0,0,1-.57.31.76.76,0,0,1-.62-.23L9.4,20.75a.79.79,0,0,1,1.11-1.12l2,2,1.82-2.43a.81.81,0,0,1,1.15-.11.57.57,0,0,1,.11.11l1.82,2.43,2-2a.79.79,0,0,1,1.12,1.12l-2.65,2.64A.79.79,0,0,1,17.32,23.62Z"/></g><g class="cls-3"><image width="3456" height="5184" transform="translate(-179.17 33.91) scale(0.12)" xlink:href="../../../PROPUESTA%20DISE%C3%91O/CARNET/fotos/Nueva%20carpeta/CRISTOPHER%20SOLANO.png"/></g></svg>