<svg width="33" height="46" viewBox="0 0 33 46" fill="none" xmlns="http://www.w3.org/2000/svg">
<path d="M29.47 0.440002H2.81C2.10187 0.440002 1.42275 0.721324 0.922028 1.22205C0.421305 1.72277 0.140015 2.40186 0.140015 3.10999C0.140015 3.81811 0.421305 4.49726 0.922028 4.99799C1.42275 5.49871 2.10187 5.78003 2.81 5.78003H3.25V33.06C3.24161 34.7772 3.58181 36.4782 4.25 38.06C4.57357 38.8255 4.96865 39.5587 5.42999 40.25C6.35953 41.6196 7.54041 42.8004 8.91 43.73C9.59874 44.1983 10.3324 44.5969 11.1 44.92C12.6843 45.5801 14.3837 45.92 16.1 45.92C17.8163 45.92 19.5157 45.5801 21.1 44.92C21.8677 44.5969 22.6013 44.1983 23.29 43.73C24.6596 42.8004 25.8404 41.6196 26.77 40.25C27.2308 39.5567 27.629 38.8238 27.96 38.06C28.6237 36.4768 28.9637 34.7767 28.96 33.06V19.19C28.96 18.954 28.8662 18.7276 28.6993 18.5607C28.5324 18.3938 28.3061 18.3 28.07 18.3C27.834 18.3 27.6076 18.3938 27.4407 18.5607C27.2738 18.7276 27.18 18.954 27.18 19.19V33.06C27.18 36.0066 26.0095 38.8324 23.926 40.916C21.8424 42.9995 19.0166 44.17 16.07 44.17C13.1235 44.17 10.2976 42.9995 8.21405 40.916C6.13052 38.8324 4.95999 36.0066 4.95999 33.06V5.78003H27.18V11.19C27.18 11.426 27.2738 11.6524 27.4407 11.8193C27.6076 11.9862 27.834 12.08 28.07 12.08C28.3061 12.08 28.5324 11.9862 28.6993 11.8193C28.8662 11.6524 28.96 11.426 28.96 11.19V5.78003H29.4C30.1081 5.78003 30.7872 5.49871 31.288 4.99799C31.7887 4.49726 32.07 3.81811 32.07 3.10999C32.07 2.40186 31.7887 1.72277 31.288 1.22205C30.7872 0.721324 30.1081 0.440002 29.4 0.440002H29.47ZM29.47 4H2.81C2.57395 4 2.34757 3.90623 2.18066 3.73932C2.01376 3.57241 1.92001 3.34603 1.92001 3.10999C1.92001 2.87394 2.01376 2.64756 2.18066 2.48065C2.34757 2.31374 2.57395 2.21997 2.81 2.21997H29.47C29.706 2.21997 29.9324 2.31374 30.0993 2.48065C30.2662 2.64756 30.36 2.87394 30.36 3.10999C30.36 3.34603 30.2662 3.57241 30.0993 3.73932C29.9324 3.90623 29.706 4 29.47 4V4Z" fill="white"/>
<path d="M28.14 16.08C28.6315 16.08 29.03 15.6815 29.03 15.19C29.03 14.6985 28.6315 14.3 28.14 14.3C27.6485 14.3 27.25 14.6985 27.25 15.19C27.25 15.6815 27.6485 16.08 28.14 16.08Z" fill="white"/>
<path d="M22.5901 18V9.73999C22.5901 9.50395 22.4963 9.27756 22.3294 9.11066C22.1625 8.94375 21.9361 8.84998 21.7001 8.84998C21.464 8.84998 21.2376 8.94375 21.0707 9.11066C20.9038 9.27756 20.8101 9.50395 20.8101 9.73999H16.1401C16.016 9.72678 15.8904 9.73981 15.7717 9.77826C15.6529 9.81671 15.5436 9.87973 15.4508 9.9632C15.358 10.0467 15.2837 10.1487 15.2329 10.2628C15.1821 10.3768 15.1559 10.5002 15.1559 10.625C15.1559 10.7498 15.1821 10.8732 15.2329 10.9872C15.2837 11.1013 15.358 11.2033 15.4508 11.2868C15.5436 11.3703 15.6529 11.4333 15.7717 11.4717C15.8904 11.5102 16.016 11.5232 16.1401 11.51H20.8101V17.11H16.1401C16.0232 17.11 15.9074 17.133 15.7995 17.1777C15.6915 17.2225 15.5934 17.288 15.5107 17.3707C15.4281 17.4533 15.3625 17.5514 15.3178 17.6594C15.2731 17.7674 15.2501 17.8831 15.2501 18C15.2501 18.1169 15.2731 18.2326 15.3178 18.3406C15.3625 18.4486 15.4281 18.5467 15.5107 18.6293C15.5934 18.712 15.6915 18.7775 15.7995 18.8223C15.9074 18.867 16.0232 18.89 16.1401 18.89H20.5901C19.8501 20.45 17.4201 21.89 16.1401 22.53C14.6201 21.79 11.4701 19.87 11.4701 18V15.34H16.1401C16.3761 15.34 16.6025 15.2463 16.7694 15.0793C16.9363 14.9124 17.0301 14.6861 17.0301 14.45C17.0301 14.214 16.9363 13.9876 16.7694 13.8207C16.6025 13.6538 16.3761 13.56 16.1401 13.56H11.4701V9.73999C11.4833 9.61587 11.4702 9.49033 11.4318 9.37158C11.3933 9.25283 11.3303 9.14354 11.2469 9.05072C11.1634 8.9579 11.0613 8.88369 10.9473 8.83289C10.8333 8.78208 10.7099 8.7558 10.5851 8.7558C10.4602 8.7558 10.3368 8.78208 10.2228 8.83289C10.1088 8.88369 10.0067 8.9579 9.92328 9.05072C9.83982 9.14354 9.77679 9.25283 9.73834 9.37158C9.69989 9.49033 9.68686 9.61587 9.70007 9.73999V18C9.70007 19.58 10.7601 21.14 12.8501 22.63C13.2894 22.9494 13.7468 23.2433 14.2201 23.51C13.7901 23.76 13.3201 24.06 12.8501 24.4C10.7601 25.89 9.70007 27.4 9.70007 29.03V37.29C9.68686 37.4141 9.69989 37.5396 9.73834 37.6584C9.77679 37.7771 9.83982 37.8865 9.92328 37.9793C10.0067 38.0721 10.1088 38.1463 10.2228 38.1971C10.3368 38.248 10.4602 38.2742 10.5851 38.2742C10.7099 38.2742 10.8333 38.248 10.9473 38.1971C11.0613 38.1463 11.1634 38.0721 11.2469 37.9793C11.3303 37.8865 11.3933 37.7771 11.4318 37.6584C11.4702 37.5396 11.4833 37.4141 11.4701 37.29H16.1401C16.3761 37.29 16.6025 37.1962 16.7694 37.0293C16.9363 36.8624 17.0301 36.6361 17.0301 36.4C17.0301 36.164 16.9363 35.9376 16.7694 35.7707C16.6025 35.6038 16.3761 35.51 16.1401 35.51H11.4701V29.91H16.1401C16.2642 29.9232 16.3897 29.9102 16.5085 29.8717C16.6272 29.8332 16.7365 29.7702 16.8293 29.6868C16.9222 29.6033 16.9964 29.5013 17.0472 29.3873C17.098 29.2733 17.1243 29.1498 17.1243 29.025C17.1243 28.9002 17.098 28.7767 17.0472 28.6627C16.9964 28.5487 16.9222 28.4467 16.8293 28.3632C16.7365 28.2798 16.6272 28.2167 16.5085 28.1783C16.3897 28.1398 16.2642 28.1268 16.1401 28.14H11.7001C12.4401 26.58 14.8601 25.14 16.1401 24.49C17.6601 25.24 20.8101 27.16 20.8101 29.03V31.69H16.1401C15.904 31.69 15.6776 31.7838 15.5107 31.9507C15.3438 32.1176 15.2501 32.344 15.2501 32.58C15.2501 32.8161 15.3438 33.0424 15.5107 33.2094C15.6776 33.3763 15.904 33.47 16.1401 33.47H20.8101V37.29C20.8101 37.526 20.9038 37.7524 21.0707 37.9193C21.2376 38.0862 21.464 38.18 21.7001 38.18C21.9361 38.18 22.1625 38.0862 22.3294 37.9193C22.4963 37.7524 22.5901 37.526 22.5901 37.29V29C22.5901 27.42 21.5301 25.86 19.4401 24.37C18.9601 24.03 18.4901 23.73 18.0701 23.48C18.4901 23.24 18.9601 22.94 19.4401 22.6C21.5301 21.09 22.5901 19.53 22.5901 18Z" fill="white"/>
</svg>
