<svg width="56" height="53" viewBox="0 0 56 53" fill="none" xmlns="http://www.w3.org/2000/svg">
<path d="M36.24 38.11C36.1532 38.0927 36.0638 38.0931 35.9771 38.1111C35.8904 38.129 35.8083 38.1643 35.7355 38.2147C35.6628 38.2651 35.6009 38.3295 35.5535 38.4043C35.5062 38.4791 35.4744 38.5627 35.46 38.65C35.4195 38.8449 35.3894 39.0418 35.37 39.24C35.3561 39.4162 35.4125 39.5907 35.5267 39.7256C35.641 39.8604 35.8039 39.9447 35.98 39.9599H36C36.1667 39.9604 36.3274 39.8978 36.4499 39.7846C36.5723 39.6715 36.6473 39.5162 36.66 39.35C36.66 39.2 36.66 39.04 36.73 38.88C36.7623 38.7064 36.7247 38.527 36.6255 38.381C36.5262 38.2349 36.3733 38.1339 36.2 38.1L36.24 38.11Z" fill="white"/>
<path d="M39.66 33.69C38.1706 34.2701 36.9368 35.3622 36.18 36.7701C36.098 36.9255 36.0803 37.107 36.1308 37.2753C36.1813 37.4437 36.296 37.5855 36.45 37.6701C36.607 37.7526 36.7899 37.7706 36.9599 37.7202C37.1299 37.6697 37.2735 37.5549 37.36 37.4001C37.9629 36.2719 38.9487 35.3961 40.14 34.9301C40.2214 34.8986 40.2959 34.8514 40.359 34.7911C40.4222 34.7308 40.4728 34.6587 40.5081 34.5788C40.5434 34.4989 40.5626 34.4129 40.5646 34.3256C40.5667 34.2383 40.5515 34.1514 40.52 34.07C40.4885 33.9886 40.4413 33.9142 40.381 33.851C40.3207 33.7879 40.2486 33.7373 40.1687 33.702C40.0888 33.6667 40.0028 33.6475 39.9155 33.6454C39.8282 33.6434 39.7414 33.6585 39.66 33.69Z" fill="white"/>
<path d="M37.1101 16.53C37.1001 16.3701 37.1001 16.2098 37.1101 16.05C37.1211 15.8783 37.0655 15.7089 36.955 15.577C36.8445 15.4451 36.6876 15.3607 36.5166 15.3414C36.3456 15.3221 36.1737 15.3693 36.0366 15.4733C35.8995 15.5773 35.8076 15.7301 35.7801 15.9C35.7801 16.1 35.7801 16.3 35.7801 16.5C35.7774 16.676 35.844 16.846 35.9657 16.9732C36.0873 17.1005 36.2541 17.1748 36.4301 17.18C36.6044 17.1801 36.7718 17.1122 36.8969 16.9908C37.022 16.8694 37.0949 16.7042 37.1001 16.53H37.1101Z" fill="white"/>
<path d="M36.74 14.85C36.8193 14.8867 36.9052 14.9074 36.9926 14.9107C37.08 14.9139 37.1671 14.8997 37.249 14.869C37.3309 14.8383 37.4058 14.7917 37.4695 14.7318C37.5332 14.6719 37.5843 14.5999 37.62 14.52C38.1398 13.3504 39.0625 12.4064 40.22 11.86C40.3804 11.7831 40.5038 11.6456 40.5628 11.4777C40.6219 11.3099 40.6119 11.1255 40.535 10.965C40.458 10.8046 40.3205 10.6812 40.1527 10.6221C39.9848 10.5631 39.8005 10.5731 39.64 10.65C38.2017 11.3392 37.0539 12.5153 36.4 13.97C36.3636 14.0499 36.3434 14.1364 36.3409 14.2243C36.3383 14.3121 36.3533 14.3995 36.3849 14.4815C36.4166 14.5634 36.4643 14.6383 36.5253 14.7016C36.5863 14.7648 36.6592 14.8153 36.74 14.85Z" fill="white"/>
<path d="M12 15.2901C11.8251 15.2672 11.6483 15.3142 11.5079 15.4209C11.3675 15.5276 11.2748 15.6854 11.25 15.86C11.25 16.06 11.25 16.26 11.25 16.46C11.2459 16.5475 11.2594 16.6349 11.2895 16.7172C11.3196 16.7994 11.3658 16.8749 11.4254 16.9391C11.4849 17.0033 11.5567 17.0551 11.6364 17.0913C11.7162 17.1275 11.8024 17.1475 11.89 17.15C12.0616 17.1501 12.2265 17.0834 12.3497 16.9639C12.4729 16.8444 12.5447 16.6816 12.55 16.51C12.55 16.35 12.55 16.1901 12.55 16.0301C12.5612 15.944 12.5554 15.8566 12.5328 15.7729C12.5102 15.6891 12.4713 15.6106 12.4184 15.5419C12.3654 15.4732 12.2995 15.4155 12.2243 15.3723C12.149 15.3291 12.066 15.3012 11.9799 15.2901H12Z" fill="white"/>
<path d="M15.1799 10.68C13.7274 11.3413 12.5601 12.5015 11.89 13.95C11.8529 14.0287 11.8318 14.114 11.8278 14.201C11.8239 14.2879 11.8372 14.3748 11.8669 14.4566C11.8966 14.5384 11.9422 14.6136 12.0011 14.6776C12.06 14.7417 12.131 14.7934 12.21 14.83C12.3705 14.9052 12.5543 14.9139 12.7211 14.8539C12.8879 14.7939 13.0241 14.6703 13.0999 14.51C13.6375 13.3486 14.5744 12.4188 15.7399 11.89C15.8284 11.8594 15.9095 11.8105 15.9779 11.7466C16.0464 11.6827 16.1007 11.6052 16.1373 11.5191C16.1739 11.4329 16.192 11.34 16.1906 11.2464C16.1891 11.1528 16.168 11.0605 16.1287 10.9756C16.0894 10.8906 16.0327 10.8148 15.9623 10.7531C15.8919 10.6914 15.8093 10.6451 15.7199 10.6172C15.6305 10.5894 15.5363 10.5806 15.4432 10.5914C15.3502 10.6022 15.2606 10.6324 15.1799 10.68Z" fill="white"/>
<path d="M52.4601 6.80999C53.1464 6.80681 53.8108 6.56842 54.3426 6.13458C54.8744 5.70074 55.2414 5.0977 55.3823 4.42602C55.5232 3.75434 55.4295 3.05465 55.117 2.44366C54.8044 1.83268 54.2917 1.34733 53.6646 1.0686C53.0374 0.789867 52.3337 0.734582 51.6707 0.911985C51.0078 1.08939 50.4256 1.48876 50.0215 2.04345C49.6174 2.59814 49.4156 3.27464 49.4499 3.96008C49.4842 4.64552 49.7526 5.29845 50.2101 5.80999L45.2801 10.72C44.0516 9.41607 42.3557 8.65319 40.5651 8.59881C38.7744 8.54444 37.0354 9.20304 35.7301 10.43C35.6351 10.5149 35.545 10.6051 35.4601 10.7L30.3501 5.52002C30.7191 5.00343 30.9183 4.38484 30.9201 3.75C30.9157 3.26641 30.7945 2.79106 30.5667 2.36444C30.339 1.93782 30.0115 1.5726 29.6121 1.29986C29.2128 1.02712 28.7534 0.854926 28.2732 0.798032C27.7929 0.741137 27.306 0.801206 26.854 0.973081C26.4019 1.14496 25.9982 1.42356 25.6771 1.78515C25.356 2.14675 25.127 2.58063 25.0097 3.0498C24.8925 3.51897 24.8904 4.00951 25.0036 4.47967C25.1169 4.94983 25.342 5.38566 25.6601 5.75L20.7301 10.66C19.5002 9.35745 17.8036 8.59638 16.013 8.54388C14.2224 8.49138 12.4841 9.15177 11.1801 10.38L10.9001 10.65L5.99007 5.75C6.47732 5.19801 6.74457 4.48609 6.74092 3.74981C6.73728 3.01354 6.46305 2.30434 5.97036 1.7572C5.47767 1.21005 4.80091 0.863177 4.06905 0.782651C3.33719 0.702125 2.60129 0.893561 2.00142 1.32049C1.40156 1.74742 0.979637 2.38003 0.815998 3.0979C0.652359 3.81576 0.758453 4.56877 1.11403 5.2135C1.46961 5.85823 2.04988 6.34969 2.74434 6.5943C3.4388 6.8389 4.19894 6.81954 4.88008 6.53998L10.0801 11.71C9.4107 12.7749 9.05556 14.0072 9.05556 15.265C9.05556 16.5228 9.4107 17.755 10.0801 18.8199L4.89009 23.99C4.20895 23.7104 3.44875 23.6911 2.75429 23.9357C2.05983 24.1803 1.47962 24.6718 1.12404 25.3165C0.768463 25.9613 0.662369 26.7143 0.826008 27.4321C0.989647 28.15 1.41157 28.7825 2.01143 29.2095C2.6113 29.6364 3.34719 29.8278 4.07906 29.7473C4.81092 29.6668 5.48761 29.32 5.9803 28.7728C6.47299 28.2257 6.74729 27.5164 6.75093 26.7801C6.75458 26.0439 6.48733 25.332 6.00008 24.78L10.9101 19.89C12.1413 21.1912 13.8386 21.9503 15.6292 22.001C17.4198 22.0516 19.1573 21.3895 20.4601 20.16C20.5585 20.0683 20.6519 19.9715 20.7401 19.87L25.6901 24.8C25.254 25.3167 25.0053 25.9653 24.9841 26.641C24.9629 27.3167 25.1706 27.9798 25.5734 28.5227C25.9762 29.0656 26.5506 29.4565 27.2034 29.6321C27.8563 29.8077 28.5492 29.7576 29.1701 29.49L34.3601 34.66C33.6909 35.7269 33.336 36.9606 33.336 38.22C33.336 39.4793 33.6909 40.7132 34.3601 41.78L29.1701 46.9499C28.4885 46.6697 27.7277 46.6501 27.0327 46.8949C26.3376 47.1397 25.757 47.6318 25.4014 48.2772C25.0459 48.9227 24.9404 49.6764 25.105 50.3946C25.2696 51.1129 25.6928 51.7455 26.2939 52.1717C26.895 52.598 27.632 52.7881 28.3643 52.7058C29.0966 52.6235 29.7729 52.2745 30.2644 51.7255C30.7559 51.1764 31.0282 50.4658 31.0292 49.7289C31.0302 48.992 30.76 48.2804 30.2701 47.73L35.1801 42.84C35.789 43.4854 36.5193 44.0045 37.329 44.3674C38.1387 44.7304 39.0121 44.9301 39.8991 44.9552C40.7861 44.9803 41.6694 44.8302 42.4983 44.5135C43.3273 44.1969 44.0856 43.72 44.7301 43.11C44.8316 43.0183 44.9285 42.9215 45.0201 42.8199L49.9401 47.73C49.548 48.1741 49.2962 48.7245 49.2165 49.3115C49.1368 49.8986 49.2326 50.4962 49.492 51.0288C49.7514 51.5615 50.1627 52.0053 50.6741 52.3046C51.1854 52.6038 51.7739 52.7449 52.3654 52.7101C52.9568 52.6753 53.5247 52.4662 53.9975 52.1091C54.4702 51.752 54.8266 51.2629 55.0217 50.7035C55.2169 50.1441 55.2421 49.5395 55.0941 48.9658C54.9461 48.3921 54.6315 47.8751 54.1901 47.48C53.7692 47.1058 53.2515 46.8578 52.6962 46.764C52.1409 46.6703 51.5704 46.7347 51.0501 46.9499L45.8401 41.76C46.5024 40.698 46.8534 39.4715 46.8534 38.22C46.8534 36.9684 46.5024 35.742 45.8401 34.68L51.0601 29.49C51.5088 29.6719 51.9949 29.7425 52.4769 29.6958C52.9589 29.649 53.4224 29.4863 53.8278 29.2216C54.2332 28.9568 54.5685 28.5978 54.805 28.1753C55.0415 27.7528 55.1723 27.2792 55.1861 26.7952C55.1998 26.3111 55.0962 25.831 54.8841 25.3958C54.672 24.9605 54.3577 24.583 53.968 24.2955C53.5783 24.0081 53.1248 23.8192 52.6463 23.7451C52.1678 23.671 51.6784 23.7139 51.2201 23.87L46.1301 18.87C46.7892 17.8087 47.1385 16.5843 47.1385 15.335C47.1385 14.0857 46.7892 12.8613 46.1301 11.8L51.3501 6.59997C51.7114 6.75027 52.0987 6.82844 52.4901 6.83001L52.4601 6.80999ZM3.73006 5.40997C3.4002 5.408 3.07832 5.30841 2.80501 5.12372C2.5317 4.93902 2.31922 4.67751 2.19435 4.37219C2.06949 4.06687 2.03785 3.73143 2.10341 3.40814C2.16897 3.08485 2.32882 2.78822 2.56276 2.55566C2.79671 2.32311 3.09425 2.16501 3.41793 2.10138C3.7416 2.03775 4.07686 2.07143 4.38143 2.19812C4.686 2.3248 4.94623 2.53882 5.12929 2.81323C5.31236 3.08764 5.41005 3.41012 5.41005 3.73999C5.4114 3.96052 5.36882 4.17912 5.28475 4.38299C5.20067 4.58687 5.07683 4.77195 4.92043 4.92743C4.76403 5.0829 4.57817 5.20565 4.3738 5.28851C4.16942 5.37137 3.95058 5.41263 3.73006 5.40997ZM3.73006 28.41C3.4002 28.4081 3.07832 28.3084 2.80501 28.1237C2.5317 27.939 2.31922 27.6775 2.19435 27.3722C2.06949 27.0669 2.03785 26.7314 2.10341 26.4081C2.16897 26.0848 2.32882 25.7882 2.56276 25.5557C2.79671 25.3231 3.09425 25.1651 3.41793 25.1014C3.7416 25.0378 4.07686 25.0714 4.38143 25.1981C4.686 25.3248 4.94623 25.5388 5.12929 25.8132C5.31236 26.0876 5.41005 26.4101 5.41005 26.74C5.41274 26.9614 5.37116 27.1811 5.28768 27.3861C5.2042 27.5911 5.08051 27.7774 4.92397 27.934C4.76743 28.0905 4.58122 28.2141 4.37618 28.2976C4.17114 28.3811 3.95143 28.4227 3.73006 28.42V28.41ZM28.0001 51.37C27.6702 51.368 27.3483 51.2684 27.075 51.0837C26.8017 50.899 26.5892 50.6375 26.4644 50.3321C26.3395 50.0268 26.3078 49.6914 26.3734 49.3682C26.4389 49.0449 26.5988 48.7482 26.8327 48.5156C27.0667 48.2831 27.3643 48.125 27.6879 48.0614C28.0116 47.9978 28.3469 48.0314 28.6514 48.1581C28.956 48.2848 29.2162 48.4988 29.3993 48.7732C29.5824 49.0476 29.6801 49.3701 29.6801 49.6999C29.6801 49.9201 29.6366 50.1382 29.552 50.3414C29.4675 50.5447 29.3435 50.7292 29.1874 50.8844C29.0313 51.0396 28.846 51.1624 28.6422 51.2457C28.4385 51.3291 28.2202 51.3713 28.0001 51.37ZM52.1801 48.03C52.5099 48.032 52.8318 48.1316 53.1051 48.3163C53.3784 48.501 53.591 48.7625 53.7158 49.0679C53.8407 49.3732 53.8723 49.7086 53.8068 50.0319C53.7412 50.3551 53.5814 50.6518 53.3474 50.8844C53.1135 51.117 52.8159 51.275 52.4922 51.3386C52.1685 51.4022 51.8333 51.3686 51.5287 51.2419C51.2241 51.1153 50.9639 50.9011 50.7808 50.6267C50.5978 50.3523 50.5001 50.0298 50.5001 49.6999C50.4987 49.4794 50.5414 49.2609 50.6254 49.057C50.7095 48.8531 50.8334 48.668 50.9898 48.5126C51.1462 48.3571 51.332 48.2343 51.5363 48.1515C51.7407 48.0686 51.9596 48.0274 52.1801 48.03ZM40.3501 9.91998C41.4172 9.92393 42.4593 10.244 43.3447 10.8398C44.2301 11.4355 44.9191 12.2803 45.3247 13.2673C45.7304 14.2544 45.8345 15.3396 45.6239 16.3857C45.4132 17.4319 44.8974 18.3922 44.1414 19.1454C43.3854 19.8986 42.4232 20.4109 41.3762 20.6177C40.3293 20.8244 39.2445 20.7163 38.259 20.307C37.2734 19.8977 36.4312 19.2056 35.8388 18.318C35.2463 17.4304 34.9301 16.3871 34.9301 15.3199C34.9287 14.6079 35.0685 13.9027 35.3413 13.245C35.614 12.5873 36.0145 11.9901 36.5194 11.488C37.0243 10.9859 37.6236 10.5888 38.2828 10.3197C38.942 10.0506 39.648 9.91469 40.3601 9.91998H40.3501ZM27.9001 2.07C28.23 2.07198 28.5518 2.17162 28.8252 2.35632C29.0985 2.54102 29.3109 2.80246 29.4358 3.10779C29.5607 3.41311 29.5923 3.74861 29.5268 4.0719C29.4612 4.39518 29.3013 4.69182 29.0674 4.92437C28.8335 5.15693 28.5359 5.31497 28.2122 5.3786C27.8886 5.44223 27.5533 5.40861 27.2487 5.28192C26.9442 5.15523 26.6839 4.94115 26.5009 4.66675C26.3178 4.39234 26.2201 4.06985 26.2201 3.73999C26.2214 3.51937 26.2661 3.30116 26.3518 3.09784C26.4374 2.89451 26.5623 2.71006 26.7192 2.55499C26.8761 2.39992 27.062 2.27724 27.2664 2.19403C27.4707 2.11081 27.6894 2.06869 27.9101 2.07H27.9001ZM15.8001 20.65C14.7329 20.6461 13.6909 20.326 12.8055 19.7302C11.9201 19.1345 11.231 18.2897 10.8254 17.3026C10.4197 16.3155 10.3157 15.2305 10.5263 14.1843C10.7369 13.1381 11.2528 12.1778 12.0087 11.4246C12.7647 10.6714 13.727 10.1591 14.7739 9.95233C15.8209 9.74558 16.9056 9.8537 17.8912 10.263C18.8767 10.6723 19.7189 11.3644 20.3114 12.252C20.9038 13.1395 21.22 14.1828 21.2201 15.25C21.2201 15.96 21.0801 16.663 20.8081 17.3188C20.5361 17.9747 20.1374 18.5703 19.6349 19.0719C19.1324 19.5735 18.536 19.971 17.8797 20.2418C17.2233 20.5126 16.5201 20.6513 15.8101 20.65H15.8001ZM21.5501 18.79C22.209 17.7268 22.5581 16.5008 22.5581 15.25C22.5581 13.9992 22.209 12.7732 21.5501 11.71L26.7601 6.52002C27.1734 6.69038 27.6196 6.76622 28.0659 6.742C28.5123 6.71778 28.9477 6.59409 29.3401 6.38L34.6301 11.75C33.961 12.8168 33.606 14.0507 33.606 15.3101C33.606 16.5694 33.961 17.8031 34.6301 18.87L29.4401 24.04C29.0302 23.8198 28.5746 23.6978 28.1095 23.684C27.6444 23.6701 27.1824 23.7645 26.7601 23.96L21.5501 18.79ZM28.0001 28.36C27.6702 28.358 27.3483 28.2584 27.075 28.0737C26.8017 27.889 26.5892 27.6275 26.4644 27.3221C26.3395 27.0168 26.3078 26.6814 26.3734 26.3582C26.4389 26.0349 26.5988 25.7382 26.8327 25.5056C27.0667 25.2731 27.3643 25.115 27.6879 25.0514C28.0116 24.9878 28.3469 25.0214 28.6514 25.1481C28.956 25.2748 29.2162 25.4889 29.3993 25.7633C29.5824 26.0377 29.6801 26.3601 29.6801 26.6899C29.6774 27.1338 29.4993 27.5586 29.1845 27.8715C28.8698 28.1844 28.4439 28.36 28.0001 28.36ZM40.0701 43.6C39.0029 43.596 37.9608 43.2759 37.0755 42.6802C36.1901 42.0844 35.5011 41.2397 35.0954 40.2527C34.6898 39.2656 34.5857 38.1805 34.7963 37.1343C35.0069 36.0881 35.5228 35.1278 36.2788 34.3746C37.0348 33.6214 37.997 33.1091 39.0439 32.9023C40.0909 32.6956 41.1756 32.8037 42.1612 33.213C43.1467 33.6223 43.9889 34.3144 44.5814 35.202C45.1739 36.0896 45.4901 37.1328 45.4901 38.1999C45.4914 38.9111 45.352 39.6156 45.0799 40.2727C44.8077 40.9298 44.4081 41.5265 43.9043 42.0284C43.4005 42.5304 42.8023 42.9277 42.1442 43.1974C41.4862 43.4671 40.7813 43.6039 40.0701 43.6ZM52.1901 25C52.5199 25.002 52.8418 25.1016 53.1151 25.2863C53.3884 25.471 53.6009 25.7325 53.7258 26.0378C53.8507 26.3432 53.8824 26.6785 53.8168 27.0018C53.7512 27.3251 53.5914 27.6218 53.3574 27.8544C53.1235 28.0869 52.8259 28.245 52.5022 28.3086C52.1785 28.3722 51.8433 28.3386 51.5387 28.2119C51.2341 28.0852 50.9739 27.8712 50.7909 27.5968C50.6078 27.3224 50.5101 26.9999 50.5101 26.67C50.5087 26.4495 50.5513 26.2309 50.6354 26.027C50.7195 25.8231 50.8434 25.638 50.9998 25.4825C51.1562 25.3271 51.342 25.2043 51.5463 25.1215C51.7507 25.0386 51.9696 24.9973 52.1901 25ZM50.0401 24.5699C49.5075 25.1112 49.2001 25.8344 49.1796 26.5934C49.1592 27.3524 49.4274 28.0909 49.9301 28.66L45.0001 33.6C44.3925 32.9532 43.6633 32.4326 42.8543 32.0679C42.0452 31.7032 41.1723 31.5015 40.2852 31.4746C39.3982 31.4477 38.5146 31.596 37.6849 31.9109C36.8552 32.2258 36.0958 32.7013 35.4501 33.3101L35.1801 33.58L30.2601 28.6801C30.7147 28.168 30.9805 27.5158 31.0132 26.8318C31.0459 26.1478 30.8437 25.4732 30.4401 24.92L35.4401 19.92C36.0484 20.5662 36.778 21.086 37.5874 21.4498C38.3968 21.8136 39.27 22.0143 40.157 22.0403C41.044 22.0663 41.9275 21.9171 42.7568 21.6013C43.5861 21.2855 44.345 20.8093 44.9901 20.1999L45.2801 19.9L50.0401 24.5699ZM50.7801 3.78998C50.7762 3.45731 50.871 3.13096 51.0528 2.85229C51.2345 2.57362 51.4949 2.35518 51.8009 2.22467C52.1069 2.09416 52.4448 2.05746 52.7717 2.1192C53.0987 2.18094 53.3999 2.33834 53.6372 2.57147C53.8746 2.8046 54.0374 3.10301 54.1049 3.42877C54.1725 3.75452 54.1419 4.09299 54.0169 4.4013C53.8919 4.70962 53.6781 4.97388 53.4027 5.16058C53.1274 5.34728 52.8027 5.44801 52.4701 5.45001C52.0296 5.45276 51.6057 5.28238 51.2896 4.97564C50.9735 4.66891 50.7906 4.25033 50.7801 3.80999V3.78998Z" fill="white"/>
</svg>
