<svg width="38" height="47" viewBox="0 0 38 47" fill="none" xmlns="http://www.w3.org/2000/svg">
<path d="M37.6201 2.47997C37.6122 1.8354 37.3505 1.21989 36.8919 0.766897C36.4333 0.313901 35.8147 0.0599089 35.1701 0.0599572H3.00006C2.68095 0.0586413 2.36469 0.120205 2.06937 0.24111C1.77404 0.362014 1.50545 0.53989 1.27887 0.764608C1.05229 0.989326 0.872172 1.25648 0.74884 1.5508C0.625509 1.84512 0.561369 2.16086 0.560059 2.47997C0.560059 3.58997 0.970062 6.42995 0.970062 6.42995C1.45418 8.65753 2.34582 10.7764 3.60007 12.68C3.58394 14.4313 4.07353 16.15 5.01007 17.63C5.61091 18.5718 6.36851 19.4038 7.25006 20.09C9.37977 21.6021 11.7904 22.6731 14.3401 23.24L14.5901 29.5499L14.7301 33.06L14.9601 38.85L12.2101 40.26C11.2801 40.77 9.87006 42 10.5001 43.34C10.5665 43.4788 10.6614 43.6022 10.7785 43.7021C10.8956 43.802 11.0324 43.8763 11.1801 43.92C11.3407 43.976 11.51 44.003 11.6801 44C12.9183 43.8586 14.1101 43.4454 15.1701 42.79C15.3412 43.6777 15.8081 44.4813 16.4946 45.0697C17.181 45.6581 18.0466 45.9966 18.9501 46.03H19.1001C19.9281 46.0283 20.7352 45.7698 21.4101 45.29C21.5559 45.1865 21.6547 45.0294 21.6848 44.8531C21.7148 44.6768 21.6735 44.4958 21.5701 44.35C21.5189 44.2777 21.4539 44.2163 21.3789 44.1692C21.304 44.122 21.2205 44.0901 21.1332 44.0753C20.9569 44.0453 20.7759 44.0865 20.6301 44.19C20.2447 44.4638 19.7931 44.6295 19.3221 44.67C18.8511 44.7104 18.3779 44.6242 17.9514 44.4202C17.525 44.2161 17.1609 43.9017 16.8969 43.5096C16.6329 43.1175 16.4787 42.6618 16.4501 42.19L16.11 33.43L16.8901 33.63C17.1101 33.68 19.1101 34.18 19.8901 34.41C20.6316 34.6291 21.346 34.931 22.0201 35.31L21.7501 42.19C21.7482 42.328 21.7314 42.4655 21.7001 42.6C21.6676 42.7748 21.7049 42.9554 21.8039 43.1031C21.903 43.2507 22.056 43.3537 22.2301 43.39H22.36C22.5176 43.3922 22.6708 43.3379 22.7918 43.237C22.9129 43.1362 22.9938 42.9953 23.0201 42.84C23.0636 42.6395 23.0871 42.4351 23.0901 42.23L23.2001 39.48C23.4301 39.38 23.6801 39.26 23.7801 39.2L23.9001 39.14C24.1881 38.9898 24.4567 38.8051 24.7001 38.59C24.9666 38.3346 25.1896 38.0374 25.36 37.7099C25.6857 37.0953 25.8411 36.4048 25.8101 35.7099C25.798 35.3461 25.7341 34.9858 25.6201 34.64C25.5073 34.286 25.3457 33.9494 25.1401 33.64C24.7055 33.0127 24.1432 32.4845 23.4901 32.09L23.5901 29.57C24.11 29.3322 24.5639 28.9711 24.9125 28.518C25.261 28.0648 25.4936 27.5334 25.5901 26.97C25.5901 26.79 25.6501 26.63 25.6601 26.49C25.6701 26.35 25.6601 26.37 25.6601 26.31V26.19C25.6648 26.1167 25.6648 26.0432 25.6601 25.97C25.6349 25.3385 25.4604 24.722 25.151 24.171C24.8416 23.62 24.4061 23.1502 23.8801 22.7999L23.9701 20.38C27.7773 19.3426 31.1564 17.1224 33.6201 14.04C35.3966 11.8196 36.6355 9.21852 37.2401 6.43996C37.2401 6.43996 37.6601 3.59995 37.6601 2.48995L37.6201 2.47997ZM2.36005 6.47997H6.12006C5.06597 7.6555 4.30521 9.06391 3.90005 10.59C3.20728 9.28351 2.68949 7.89157 2.36005 6.44997V6.47997ZM11.6801 42.7099C11.6801 42.3299 12.3801 41.71 12.8401 41.5L15.0201 40.38V41.38C13.9957 42.0437 12.8505 42.499 11.6501 42.72L11.6801 42.7099ZM24.0001 34.4C24.1362 34.5973 24.2439 34.8127 24.3201 35.04C24.5205 35.7039 24.4596 36.4194 24.1501 37.04C24.0388 37.2466 23.8972 37.4353 23.7301 37.6C23.5765 37.7258 23.4087 37.8332 23.2301 37.92V37.34C23.3978 37.2014 23.5371 37.0316 23.6401 36.84C23.7589 36.5352 23.8062 36.2073 23.7784 35.8814C23.7507 35.5555 23.6486 35.2402 23.4801 34.9599C22.6865 34.0221 21.5963 33.3835 20.3901 33.15L20.2301 33.1C19.4201 32.85 18.6001 32.64 17.8201 32.45L17.1601 32.29L16.0001 32L15.9501 30.56L17.4901 31.09L18.1601 31.31C18.9701 31.59 19.7601 31.86 20.5601 32.19C21.8957 32.5798 23.0903 33.3472 24.0001 34.4ZM21.1001 30.96C20.2601 30.62 19.4501 30.34 18.6201 30.06L17.9501 29.8299L16.2501 29.25L15.9201 29.15L15.7001 23.6099L16.05 23.7L16.4101 23.7999C17.5301 24.0799 18.6801 24.37 19.7901 24.73L20.1301 24.84C20.9199 24.9942 21.6528 25.3606 22.2501 25.9C22.3301 26 22.3401 26.0199 22.3501 26.0799L22.1401 31.4L21.1401 30.96H21.1001ZM24.2701 26.18V26.26C24.2745 26.2932 24.2745 26.3268 24.2701 26.3599V26.3599C24.2283 26.853 24.0557 27.3259 23.7701 27.73C23.8076 27.1225 23.7842 26.5128 23.7001 25.91C23.6607 25.5824 23.5209 25.275 23.3 25.03C22.5465 24.2709 21.5869 23.7494 20.5401 23.53L20.2101 23.43C19.0601 23.06 17.8901 22.76 16.7501 22.43L16.3901 22.34C13.4501 21.59 10.3901 20.81 8.10007 18.99C7.33192 18.4049 6.67486 17.6869 6.16006 16.87C5.23376 15.4245 4.82483 13.7078 5.00006 12C5.29427 9.71571 6.47623 7.63922 8.29007 6.21996C9.02616 5.635 9.81256 5.11632 10.6401 4.66997C11.0401 4.44997 11.4601 4.23995 11.8801 4.04995L13.0401 3.57995L13.2201 3.51995C13.444 3.4559 13.6783 3.43666 13.9097 3.46334C14.141 3.49002 14.3648 3.5621 14.5683 3.67544C14.7717 3.78877 14.9508 3.94113 15.0952 4.1238C15.2397 4.30647 15.3467 4.51586 15.4101 4.73995C15.6701 5.63995 14.7701 6.64996 13.1801 7.24996L12.9701 7.32995L12.1401 7.65996C11.4418 7.95003 10.7722 8.30491 10.1401 8.71996C9.30248 9.21035 8.61134 9.91591 8.13834 10.7634C7.66533 11.611 7.4277 12.5696 7.45007 13.54C7.52007 15.6 8.83005 17.44 11.2401 18.85C13.0835 19.855 15.0233 20.6725 17.0301 21.29C18.8218 21.8397 20.5619 22.5457 22.2301 23.4C23.5601 24.14 24.2301 24.97 24.2301 26.04V26.18H24.2701ZM32.5201 13.18C30.1328 16.1651 26.8237 18.2751 23.11 19.18L22.6201 19.2999L22.5101 21.99C20.8936 21.2041 19.2226 20.5357 17.5101 19.99C15.5858 19.4079 13.7261 18.6305 11.9601 17.67C9.45005 16.2 8.87005 14.57 8.83005 13.47C8.82084 12.7279 9.01081 11.9969 9.38016 11.3531C9.74951 10.7094 10.2847 10.1765 10.9301 9.80996C11.484 9.44472 12.0697 9.13011 12.6801 8.86996C12.9201 8.75996 13.1801 8.66997 13.4501 8.56997L13.6501 8.48995C14.77 8.12772 15.7376 7.40295 16.4001 6.42995H22.6701C22.7656 6.4416 22.8625 6.43285 22.9544 6.40426C23.0463 6.37566 23.1311 6.32786 23.2032 6.26406C23.2752 6.20025 23.3329 6.12187 23.3724 6.03411C23.4119 5.94635 23.4324 5.85121 23.4324 5.75496C23.4324 5.65872 23.4119 5.56355 23.3724 5.47579C23.3329 5.38803 23.2752 5.30968 23.2032 5.24587C23.1311 5.18207 23.0463 5.13427 22.9544 5.10567C22.8625 5.07707 22.7656 5.0683 22.6701 5.07995H16.8C16.8006 4.83316 16.767 4.58751 16.7001 4.34997C16.5872 3.95594 16.3978 3.58802 16.1428 3.2672C15.8877 2.94639 15.5719 2.67895 15.2134 2.48021C14.855 2.28148 14.4609 2.15534 14.0536 2.10897C13.6464 2.0626 13.234 2.0969 12.8401 2.20995L12.58 2.28997L11.36 2.78997C10.9 2.99997 10.4501 3.21995 10.0201 3.45995C9.15646 3.92156 8.33646 4.46045 7.57007 5.06997H2.10007C1.9685 4.20952 1.90163 3.34041 1.90005 2.46996V2.46996C1.90005 2.32597 1.92858 2.1834 1.98398 2.0505C2.03938 1.9176 2.12056 1.79702 2.22284 1.69567C2.32512 1.59432 2.44646 1.51423 2.57986 1.46004C2.71327 1.40586 2.85608 1.37864 3.00006 1.37996H35.1701C35.3132 1.37865 35.4552 1.40553 35.588 1.4591C35.7207 1.51266 35.8416 1.59184 35.9438 1.69213C36.0459 1.79242 36.1273 1.91185 36.1833 2.0436C36.2393 2.17534 36.2687 2.31681 36.2701 2.45995V2.45995C36.2718 3.33015 36.2083 4.19926 36.08 5.05996H25.36C25.1952 5.08006 25.0434 5.15982 24.9333 5.28417C24.8231 5.40852 24.7624 5.56885 24.7624 5.73494C24.7624 5.90104 24.8231 6.0614 24.9333 6.18575C25.0434 6.3101 25.1952 6.38986 25.36 6.40996H35.8201C35.2473 8.89468 34.1228 11.2187 32.5301 13.21L32.5201 13.18Z" fill="white"/>
</svg>
