<svg width="41" height="41" viewBox="0 0 41 41" fill="none" xmlns="http://www.w3.org/2000/svg">
<path d="M20.14 34.97C20.499 34.97 20.79 34.679 20.79 34.32C20.79 33.961 20.499 33.67 20.14 33.67C19.781 33.67 19.49 33.961 19.49 34.32C19.49 34.679 19.781 34.97 20.14 34.97Z" fill="white"/>
<path d="M31.7501 13.68C32.1342 13.682 32.5102 13.5699 32.8306 13.3579C33.1509 13.1459 33.4011 12.8437 33.5495 12.4894C33.6979 12.1351 33.7377 11.7446 33.664 11.3677C33.5903 10.9907 33.4063 10.6441 33.1354 10.3718C32.8645 10.0994 32.5188 9.91367 32.1422 9.838C31.7656 9.76233 31.3751 9.80017 31.02 9.94671C30.6649 10.0932 30.3613 10.3419 30.1477 10.6611C29.9341 10.9804 29.8201 11.3559 29.8201 11.74C29.8201 12.2528 30.0231 12.7447 30.3847 13.1083C30.7464 13.4718 31.2373 13.6773 31.7501 13.68V13.68ZM31.7501 11.1C31.8795 11.098 32.0065 11.1347 32.1149 11.2054C32.2233 11.276 32.3082 11.3774 32.3586 11.4966C32.409 11.6157 32.4227 11.7473 32.398 11.8743C32.3732 12.0013 32.3111 12.118 32.2196 12.2095C32.1281 12.301 32.0114 12.3632 31.8844 12.3879C31.7574 12.4127 31.6258 12.3989 31.5067 12.3485C31.3875 12.2981 31.2861 12.2133 31.2154 12.1048C31.1448 11.9964 31.1081 11.8694 31.1101 11.74C31.1126 11.571 31.1809 11.4097 31.3004 11.2903C31.4198 11.1708 31.5811 11.1025 31.7501 11.1Z" fill="white"/>
<path d="M23.3601 18.52L31.4901 16.25H31.7501C32.6042 16.2483 33.4405 16.0052 34.1624 15.5487C34.8843 15.0922 35.4624 14.4409 35.8301 13.67H38.2101C38.6992 13.6348 39.1569 13.4156 39.491 13.0566C39.8251 12.6976 40.0109 12.2254 40.0109 11.735C40.0109 11.2446 39.8251 10.7723 39.491 10.4133C39.1569 10.0543 38.6992 9.83518 38.2101 9.79999H35.8301C35.4624 9.02904 34.8843 8.37776 34.1624 7.92126C33.4405 7.46477 32.6042 7.22163 31.7501 7.21997H31.5001L7.29009 0.0999756L0.520088 0.950012L5.64009 5.21002L11.7501 7V16.49L7.16009 17.79C6.40672 17.9249 5.71127 18.2831 5.16387 18.8181C4.61648 19.353 4.24239 20.0399 4.09009 20.79H0.0900879V22.08H4.09009C4.20641 22.4514 4.43751 22.7764 4.75016 23.0082C5.06281 23.24 5.4409 23.3666 5.83009 23.37C5.93651 23.3803 6.04367 23.3803 6.15009 23.37L9.20009 22.52C6.05935 25.4061 4.18966 29.4188 4.00009 33.68H0.140087V40.13H40.1401V33.68H36.2601C36.1069 30.0768 34.7544 26.6281 32.4172 23.8815C30.0801 21.1349 26.8923 19.2479 23.3601 18.52V18.52ZM38.2101 11.1C38.3673 11.1196 38.512 11.196 38.6169 11.3148C38.7217 11.4335 38.7796 11.5865 38.7796 11.745C38.7796 11.9034 38.7217 12.0565 38.6169 12.1752C38.512 12.294 38.3673 12.3704 38.2101 12.39H36.2101C36.2253 12.1736 36.2253 11.9564 36.2101 11.74C36.2253 11.5269 36.2253 11.313 36.2101 11.1H38.2101ZM34.9801 11.74C34.9821 12.3792 34.7943 13.0047 34.4406 13.5372C34.0869 14.0697 33.5831 14.4853 32.9931 14.7313C32.4031 14.9773 31.7533 15.0426 31.1261 14.9191C30.4989 14.7956 29.9224 14.4888 29.4697 14.0375C29.017 13.5862 28.7083 13.0107 28.5829 12.3839C28.4575 11.757 28.5208 11.107 28.765 10.5162C29.0092 9.92545 29.4232 9.42042 29.9546 9.06506C30.4859 8.7097 31.1108 8.52002 31.7501 8.52002C32.1751 8.51739 32.5964 8.59864 32.99 8.75916C33.3835 8.91967 33.7415 9.15631 34.0434 9.45544C34.3454 9.75458 34.5853 10.1103 34.7494 10.5024C34.9136 10.8944 34.9988 11.315 35.0001 11.74H34.9801ZM27.5401 10.13L6.77009 4.21002L7.65009 1.57001L29.3201 8C28.5113 8.52029 27.8881 9.28347 27.5401 10.18V10.13ZM27.2601 11.39C27.2601 11.51 27.2601 11.62 27.2601 11.74C27.2601 11.86 27.2601 11.98 27.2601 12.09L15.6201 15.37V8.08002L27.2601 11.39ZM6.26009 1.53998L5.59009 3.53998L3.59009 1.87L6.26009 1.53998ZM13.0001 7.34003L14.2901 7.71002V15.71L13.0001 16.1V7.34003ZM5.87009 22.06C5.79464 22.0683 5.71829 22.0609 5.64584 22.0383C5.57338 22.0156 5.5064 21.9783 5.4491 21.9285C5.39181 21.8787 5.34543 21.8176 5.3129 21.749C5.28037 21.6804 5.26239 21.6059 5.26009 21.53C5.25526 20.9205 5.46978 20.3296 5.86449 19.8651C6.2592 19.4006 6.80778 19.0936 7.41009 19L27.5401 13.33C27.8766 14.2218 28.4899 14.9822 29.2901 15.5L19.7001 18.19C17.0551 18.2566 14.4678 18.9781 12.1701 20.29L5.87009 22.06ZM38.8101 38.84H37.5601V37.55H36.2701V38.84H35.0001V36.26H33.6901V38.84H32.4001V37.55H31.1101V38.84H29.8201V36.26H28.5301V38.84H27.2401V37.55H26.0001V38.84H24.6601V36.26H23.3701V38.84H22.0801V37.55H20.7901V38.84H19.5001V37.49C19.711 37.5307 19.9253 37.5508 20.1401 37.55C20.879 37.5505 21.5958 37.2977 22.1709 36.8336C22.746 36.3696 23.1445 35.7224 23.3001 35H31.1101V34.35C31.1101 31.4326 29.9512 28.6347 27.8883 26.5718C25.8254 24.5089 23.0275 23.35 20.1101 23.35C19.1817 23.3508 18.2574 23.4719 17.3601 23.71C17.0336 23.4758 16.6419 23.3498 16.2401 23.35C16.0325 23.3473 15.826 23.3812 15.6301 23.45C15.3847 23.5308 15.1586 23.6613 14.9659 23.8333C14.7732 24.0054 14.618 24.2153 14.5101 24.45C14.4144 24.634 14.3534 24.8339 14.3301 25.04C12.7483 26.0239 11.4423 27.3934 10.5345 29.02C9.62675 30.6467 9.14694 32.4772 9.14009 34.34V35H17.0001C17.163 35.7682 17.6003 36.4508 18.2301 36.92V38.92H16.9201V37.63H15.6201V38.92H14.3301V36.34H13.0001V38.92H11.7501V37.63H10.4601V38.92H9.17009V36.34H7.88009V38.92H6.59009V37.63H5.30009V38.92H4.00009V36.34H2.72009V38.92H1.43009V35H5.30009V34.35C5.29924 32.6202 5.60392 30.9039 6.20009 29.28L8.57009 30.28L9.06009 29.09L6.70009 28.09C7.33801 26.7148 8.18468 25.4465 9.21009 24.33L11.0001 26.11L11.9101 25.2L10.1001 23.39C11.2147 22.367 12.4794 21.5205 13.8501 20.88L14.8501 23.25L16.0501 22.75L15.0501 20.38C16.4767 19.8624 17.9739 19.5657 19.4901 19.5V22.07H20.7801V19.5C22.2931 19.5646 23.7872 19.8614 25.2101 20.38L24.2101 22.75L25.4001 23.25L26.4001 20.88C27.7722 21.518 29.0372 22.3647 30.1501 23.39L28.3401 25.2L29.2601 26.11L31.0601 24.3C32.0854 25.4186 32.9351 26.6864 33.5801 28.06L31.2101 29.06L31.7001 30.25L34.0801 29.25C34.6681 30.8757 34.9692 32.5912 34.9701 34.32V35H38.8401L38.8101 38.84ZM10.4501 33.68C10.5486 32.2295 10.9729 30.8199 11.6914 29.556C12.4099 28.2922 13.4041 27.2066 14.6001 26.38L17.3201 32.73C17.1425 33.0238 17.0141 33.3447 16.9401 33.68H10.4501ZM23.2601 33.68C23.1366 33.0815 22.8454 32.5305 22.4204 32.0913C21.9954 31.6522 21.4542 31.343 20.8601 31.2L18.1401 24.85C18.7983 24.7163 19.4684 24.6494 20.1401 24.65C22.5897 24.6514 24.9478 25.5804 26.7401 27.2502C28.5323 28.92 29.6257 31.2067 29.8001 33.65L23.2601 33.68ZM18.1701 34.32C18.1701 33.9359 18.2841 33.5604 18.4977 33.2411C18.7114 32.9219 19.0149 32.6733 19.37 32.5267C19.7251 32.3802 20.1157 32.3424 20.4923 32.418C20.8688 32.4937 21.2145 32.6795 21.4854 32.9518C21.7563 33.2241 21.9403 33.5707 22.014 33.9477C22.0877 34.3247 22.0479 34.715 21.8995 35.0693C21.7512 35.4236 21.501 35.726 21.1806 35.9379C20.8603 36.1499 20.4842 36.262 20.1001 36.26C19.8458 36.26 19.594 36.2097 19.3592 36.1121C19.1244 36.0145 18.9112 35.8714 18.7318 35.6912C18.5525 35.5109 18.4105 35.297 18.3141 35.0616C18.2177 34.8263 18.1688 34.5743 18.1701 34.32V34.32ZM19.4401 31.17C19.0187 31.2561 18.6201 31.4299 18.2701 31.68L15.6201 25.5C15.5556 25.3396 15.5556 25.1604 15.6201 25C15.6589 24.924 15.7125 24.8566 15.7778 24.8016C15.843 24.7467 15.9186 24.7053 16.0001 24.68C16.0848 24.6556 16.1735 24.6481 16.2611 24.658C16.3487 24.6679 16.4335 24.695 16.5106 24.7377C16.5877 24.7805 16.6556 24.838 16.7104 24.907C16.7652 24.9761 16.8059 25.0552 16.8301 25.14L19.4401 31.17Z" fill="white"/>
</svg>
