<svg width="57" height="57" viewBox="0 0 57 57" fill="none" xmlns="http://www.w3.org/2000/svg">
<path d="M55.68 6.92999C55.549 6.82704 55.3962 6.7555 55.2332 6.72083C55.0703 6.68615 54.9016 6.68926 54.74 6.72998L49.54 8.04999C48.7039 8.26576 47.8435 8.37331 46.98 8.37H39.34C38.1509 8.37484 37.0024 8.80331 36.1007 9.57855C35.199 10.3538 34.6031 11.425 34.42 12.6C34.3217 13.259 33.9901 13.8608 33.4853 14.2958C32.9806 14.7308 32.3363 14.9701 31.67 14.97H31.39V12.68C32.6038 11.9601 33.5476 10.8615 34.0762 9.55304C34.6048 8.24456 34.689 6.79866 34.3158 5.43768C33.9425 4.07671 33.1326 2.87602 32.0105 2.0202C30.8884 1.16438 29.5162 0.700806 28.105 0.700806C26.6938 0.700806 25.3216 1.16438 24.1995 2.0202C23.0774 2.87602 22.2675 4.07671 21.8943 5.43768C21.5211 6.79866 21.6053 8.24456 22.1339 9.55304C22.6625 10.8615 23.6062 11.9601 24.82 12.68V15H24.54C23.8737 15.0001 23.2295 14.7609 22.7247 14.3259C22.22 13.8909 21.8883 13.289 21.79 12.63C21.6069 11.455 21.011 10.3838 20.1093 9.60858C19.2076 8.83334 18.0591 8.40487 16.87 8.40002H9.23C8.36649 8.40334 7.50612 8.29579 6.67 8.08002L1.46999 6.76001C1.30844 6.71929 1.13972 6.71612 0.976763 6.75079C0.81381 6.78546 0.661026 6.85707 0.530047 6.96002C0.396247 7.05988 0.287635 7.18966 0.212969 7.33899C0.138303 7.48832 0.0996026 7.65305 0.099993 7.82001C0.0955713 10.0454 0.935426 12.1896 2.45003 13.82C2.465 15.0837 2.76291 16.328 3.32186 17.4615C3.88081 18.595 4.68657 19.5888 5.68001 20.37L6.68001 21.75C7.84862 23.2979 9.35929 24.5546 11.094 25.422C12.8287 26.2894 14.7405 26.7438 16.68 26.75C19.6562 26.7582 22.5356 25.6931 24.79 23.75V27.65H23.79C22.5614 27.6538 21.3548 27.9767 20.2886 28.5872C19.2224 29.1977 18.3331 30.0747 17.708 31.1324C17.0828 32.1901 16.7433 33.3921 16.7226 34.6206C16.7019 35.8491 17.0008 37.0619 17.59 38.14C17.6892 38.3162 17.8349 38.4618 18.0113 38.5605C18.1877 38.6593 18.388 38.7075 18.59 38.7C18.7747 38.701 18.9568 38.6563 19.12 38.5699C19.3739 38.4287 19.5617 38.1929 19.6422 37.9137C19.7228 37.6345 19.6896 37.3348 19.55 37.08C19.1423 36.3359 18.9352 35.4986 18.949 34.6503C18.9628 33.8019 19.1971 32.9719 19.6289 32.2416C20.0606 31.5112 20.675 30.9057 21.4116 30.4846C22.1482 30.0636 22.9816 29.8414 23.83 29.84H24.83V39.61H22.26C20.9112 39.669 19.6372 40.2463 18.7036 41.2216C17.77 42.1969 17.2489 43.4949 17.2489 44.845C17.2489 46.1951 17.77 47.4931 18.7036 48.4684C19.6372 49.4437 20.9112 50.021 22.26 50.08H25.26C25.6456 52.1405 26.2559 54.1525 27.08 56.08C27.1661 56.2741 27.306 56.4395 27.4833 56.5565C27.6605 56.6735 27.8677 56.7372 28.08 56.74C28.2938 56.7376 28.5022 56.6729 28.6798 56.554C28.8574 56.435 28.9965 56.2667 29.08 56.0699C29.8908 54.141 30.4876 52.129 30.86 50.0699H32.1C32.6941 50.0699 33.2638 50.306 33.6839 50.7261C34.104 51.1462 34.34 51.716 34.34 52.3101C34.34 52.9041 34.104 53.4738 33.6839 53.8939C33.2638 54.314 32.6941 54.55 32.1 54.55H32.03C31.8775 54.5355 31.7235 54.5528 31.578 54.6012C31.4326 54.6496 31.2988 54.7278 31.1854 54.8309C31.0719 54.934 30.9813 55.0598 30.9193 55.2C30.8573 55.3401 30.8253 55.4917 30.8253 55.645C30.8253 55.7983 30.8573 55.9499 30.9193 56.0901C30.9813 56.2303 31.0719 56.3559 31.1854 56.459C31.2988 56.5621 31.4326 56.6403 31.578 56.6887C31.7235 56.7371 31.8775 56.7546 32.03 56.74H32.1C33.2749 56.74 34.4017 56.2733 35.2325 55.4425C36.0633 54.6117 36.53 53.485 36.53 52.3101C36.53 51.1351 36.0633 50.0083 35.2325 49.1775C34.4017 48.3467 33.2749 47.88 32.1 47.88H31.17C31.2701 46.9166 31.3202 45.9486 31.32 44.98V41.79H32.05C33.8804 41.7212 35.6129 40.9456 36.8835 39.6263C38.1541 38.307 38.864 36.5466 38.864 34.715C38.864 32.8833 38.1541 31.1229 36.8835 29.8036C35.6129 28.4843 33.8804 27.7088 32.05 27.64H31.32V23.74C33.5744 25.6831 36.4538 26.7482 39.43 26.74C41.3695 26.7338 43.2813 26.2793 45.016 25.412C46.7507 24.5446 48.2614 23.2879 49.43 21.74L50.43 20.36C51.4235 19.5788 52.2293 18.585 52.7882 17.4515C53.3472 16.318 53.645 15.0737 53.66 13.81C55.1746 12.1796 56.0145 10.0354 56.01 7.81C56.0256 7.64787 56.004 7.48435 55.9468 7.33185C55.8896 7.17935 55.7984 7.04188 55.68 6.92999V6.92999ZM24 21.55C22.1751 23.3576 19.7402 24.4174 17.1737 24.521C14.6072 24.6246 12.0947 23.7646 10.13 22.11C10.4098 22.1252 10.6902 22.1252 10.97 22.11H12.8C13.0724 22.0839 13.3253 21.9573 13.5093 21.7548C13.6933 21.5524 13.7952 21.2886 13.7952 21.015C13.7952 20.7414 13.6933 20.4776 13.5093 20.2751C13.3253 20.0727 13.0724 19.946 12.8 19.92H10.97C9.6463 19.9246 8.35468 19.5129 7.27791 18.743C6.20114 17.9731 5.39373 16.884 4.96999 15.63C6.20463 16.2772 7.57603 16.6201 8.96999 16.63H11.24C11.5124 16.6039 11.7653 16.4773 11.9493 16.2748C12.1333 16.0724 12.2352 15.8086 12.2352 15.535C12.2352 15.2614 12.1333 14.9976 11.9493 14.7952C11.7653 14.5927 11.5124 14.4661 11.24 14.44H8.96999C7.45872 14.4382 5.99301 13.9224 4.81362 12.9775C3.63422 12.0325 2.8113 10.7145 2.48 9.23999L6.15999 10.17C7.17291 10.4293 8.21444 10.5604 9.26003 10.56H16.9C17.5664 10.5599 18.2105 10.7991 18.7153 11.2341C19.22 11.6691 19.5518 12.271 19.65 12.93C19.8332 14.1049 20.429 15.1762 21.3307 15.9514C22.2324 16.7267 23.3809 17.1551 24.57 17.16H24.85V20.69L24 21.55ZM22.29 47.86C21.4824 47.86 20.7079 47.5392 20.1369 46.9681C19.5658 46.3971 19.245 45.6225 19.245 44.8149C19.245 44.0074 19.5658 43.2329 20.1369 42.6619C20.7079 42.0908 21.4824 41.77 22.29 41.77H24.86V44.89C24.8619 45.8921 24.9153 46.8934 25.02 47.89L22.29 47.86ZM29.29 44.96C29.2896 47.4863 28.9225 49.9992 28.2 52.42C27.4687 49.977 27.0981 47.4402 27.1 44.89V41.77H29.29V45V44.96ZM29.29 39.58H27V13.49C27.7238 13.6243 28.4662 13.6243 29.19 13.49L29.29 39.58ZM32.21 29.8101C33.4674 29.867 34.6544 30.4064 35.524 31.3163C36.3936 32.2262 36.8789 33.4363 36.8789 34.6949C36.8789 35.9536 36.3936 37.1638 35.524 38.0737C34.6544 38.9836 33.4674 39.5231 32.21 39.58H31.48V29.8101H32.21ZM28.21 11.4C27.3695 11.4 26.5477 11.1507 25.8488 10.6837C25.1499 10.2167 24.6052 9.55301 24.2835 8.77643C23.9619 7.99984 23.8777 7.14528 24.0417 6.32086C24.2057 5.49644 24.6104 4.73915 25.2048 4.14478C25.7992 3.5504 26.5565 3.14568 27.3809 2.98169C28.2053 2.8177 29.0599 2.90184 29.8364 3.22351C30.613 3.54518 31.2768 4.08991 31.7438 4.78882C32.2108 5.48773 32.46 6.30945 32.46 7.15002C32.4602 7.71752 32.3467 8.27931 32.1263 8.80225C31.9059 9.32518 31.583 9.79864 31.1766 10.1948C30.7702 10.5909 30.2886 10.9016 29.7602 11.1086C29.2318 11.3156 28.6673 11.4147 28.1 11.4H28.21ZM47.38 14.4H45C44.7277 14.4261 44.4748 14.5527 44.2908 14.7551C44.1068 14.9576 44.0048 15.2214 44.0048 15.495C44.0048 15.7686 44.1068 16.0324 44.2908 16.2349C44.4748 16.4373 44.7277 16.564 45 16.59H47.27C48.664 16.5801 50.0354 16.2372 51.27 15.59C50.8463 16.8441 50.0389 17.933 48.9621 18.7029C47.8853 19.4728 46.5937 19.8846 45.27 19.88H43.44C43.1677 19.9061 42.9148 20.0327 42.7308 20.2352C42.5468 20.4376 42.4448 20.7014 42.4448 20.975C42.4448 21.2486 42.5468 21.5124 42.7308 21.7148C42.9148 21.9173 43.1677 22.044 43.44 22.07H45.27C45.5498 22.0852 45.8302 22.0852 46.11 22.07C44.1453 23.7246 41.6329 24.5846 39.0664 24.481C36.4999 24.3773 34.0649 23.3176 32.24 21.51L31.38 20.65V17.12H31.66C32.8491 17.1152 33.9976 16.6867 34.8993 15.9114C35.801 15.1362 36.3969 14.065 36.58 12.89C36.6783 12.231 37.01 11.6292 37.5147 11.1942C38.0195 10.7592 38.6637 10.5199 39.33 10.52H47C48.0456 10.5204 49.0871 10.3894 50.1 10.13L53.78 9.20001C53.4559 10.6853 52.6334 12.0149 51.4492 12.9681C50.2649 13.9213 48.7902 14.4407 47.27 14.44L47.38 14.4Z" fill="white"/>
</svg>
