<svg width="45" height="45" viewBox="0 0 45 45" fill="none" xmlns="http://www.w3.org/2000/svg">
<path d="M37.1199 20.64L40.3699 15.53C40.6542 15.6219 40.9511 15.6692 41.2499 15.67C41.8999 15.6677 42.5293 15.4416 43.0323 15.0298C43.5353 14.6181 43.8813 14.0457 44.0119 13.4089C44.1426 12.7721 44.05 12.1097 43.7498 11.5331C43.4497 10.9566 42.9601 10.5009 42.3635 10.2428C41.7669 9.98463 41.0996 9.93975 40.4738 10.1157C39.848 10.2916 39.3019 10.6776 38.9272 11.2087C38.5524 11.7399 38.372 12.3839 38.4162 13.0325C38.4604 13.681 38.7266 14.2946 39.1699 14.77L35.8899 19.93H26.7299L20.8199 10.73L24.5999 5.53003C24.9178 5.65869 25.257 5.72654 25.5999 5.73004C26.1624 5.73202 26.7129 5.56689 27.1815 5.25559C27.65 4.94429 28.0156 4.50083 28.2318 3.98148C28.4479 3.46213 28.505 2.89028 28.3958 2.33844C28.2865 1.78661 28.0158 1.27965 27.618 0.88187C27.2203 0.484087 26.7133 0.213392 26.1615 0.104129C25.6096 -0.00513392 25.0378 0.0519698 24.5184 0.268161C23.9991 0.484352 23.5556 0.849889 23.2443 1.31845C22.933 1.78702 22.7679 2.33748 22.7699 2.90003C22.7664 3.55636 22.9929 4.1932 23.4099 4.70005L19.5999 10H12.7599C12.6497 9.58515 12.4466 9.20075 12.166 8.87595C11.8853 8.55115 11.5345 8.29445 11.14 8.12528C10.7455 7.9561 10.3176 7.87888 9.88885 7.89948C9.46009 7.92007 9.04165 8.03794 8.66516 8.24414C8.28868 8.45035 7.96402 8.73949 7.71579 9.08969C7.46756 9.4399 7.30227 9.842 7.23239 10.2655C7.16251 10.6891 7.1899 11.1229 7.31247 11.5343C7.43504 11.9457 7.64959 12.3238 7.93988 12.64L4.93988 17.35C4.53313 17.1856 4.09861 17.1007 3.65988 17.1C2.71836 17.1 1.81541 17.4741 1.14966 18.1398C0.483904 18.8056 0.109863 19.7085 0.109863 20.65C0.109863 21.5915 0.483904 22.4945 1.14966 23.1603C1.81541 23.826 2.71836 24.2 3.65988 24.2C4.09861 24.1993 4.53313 24.1145 4.93988 23.95L9.18988 30.56L5.40988 35.76C5.09252 35.6284 4.75338 35.5572 4.40988 35.55C3.76383 35.5561 3.13915 35.7822 2.63895 36.1911C2.13874 36.6001 1.7929 37.1673 1.65854 37.7993C1.52417 38.4312 1.6093 39.0901 1.89987 39.6671C2.19044 40.2442 2.66909 40.7049 3.25681 40.9733C3.84452 41.2417 4.50616 41.3016 5.13254 41.1433C5.75891 40.9849 6.31256 40.6177 6.70212 40.1023C7.09168 39.5868 7.29386 38.954 7.27527 38.3082C7.25668 37.6624 7.01845 37.0422 6.59988 36.55L10.4499 31.26H19.6399L24.7399 39.2C24.4928 39.512 24.339 39.8874 24.2962 40.2831C24.2534 40.6787 24.3233 41.0784 24.4979 41.4359C24.6725 41.7935 24.9447 42.0944 25.283 42.3039C25.6213 42.5134 26.012 42.623 26.4099 42.62C26.8493 42.6198 27.2778 42.4831 27.6361 42.2287C27.9944 41.9743 28.2648 41.6148 28.4099 41.2H32.8699C32.9796 41.7456 33.216 42.2576 33.56 42.695C33.904 43.1323 34.346 43.4827 34.8503 43.7177C35.3546 43.9528 35.9072 44.0661 36.4633 44.0484C37.0195 44.0306 37.5636 43.8824 38.052 43.6157C38.5403 43.349 38.9591 42.9712 39.2745 42.5129C39.59 42.0545 39.7933 41.5283 39.868 40.977C39.9428 40.4256 39.8868 39.8643 39.7048 39.3385C39.5227 38.8127 39.2196 38.3371 38.8199 37.95L43.5799 30.55L37.1199 20.64ZM41.2499 11.41C41.6265 11.41 41.9877 11.5596 42.254 11.8259C42.5203 12.0922 42.6699 12.4534 42.6699 12.83C42.6699 13.2066 42.5203 13.5678 42.254 13.8341C41.9877 14.1004 41.6265 14.25 41.2499 14.25C40.9771 14.2544 40.7092 14.1779 40.4799 14.03C40.2191 13.865 40.0191 13.6196 39.9103 13.3308C39.8014 13.042 39.7896 12.7257 39.8766 12.4296C39.9637 12.1335 40.1448 11.8738 40.3925 11.6899C40.6403 11.5059 40.9413 11.4077 41.2499 11.41V11.41ZM25.6299 1.48004C25.8257 1.46357 26.0228 1.48792 26.2087 1.55155C26.3947 1.61518 26.5654 1.7167 26.71 1.8497C26.8547 1.98271 26.9702 2.14429 27.0492 2.32422C27.1282 2.50416 27.1689 2.69851 27.1689 2.89502C27.1689 3.09153 27.1282 3.28592 27.0492 3.46585C26.9702 3.64579 26.8547 3.80737 26.71 3.94037C26.5654 4.07337 26.3947 4.1749 26.2087 4.23853C26.0228 4.30216 25.8257 4.32651 25.6299 4.31003C25.2558 4.30745 24.8976 4.1584 24.6321 3.89481C24.3667 3.63122 24.2151 3.27409 24.2099 2.90003C24.2099 2.52342 24.3595 2.16224 24.6258 1.89594C24.8921 1.62964 25.2533 1.48004 25.6299 1.48004V1.48004ZM12.7599 11.41H19.5699L25.4999 20.64L19.5699 29.86H10.4099L6.10986 23.17C6.44823 22.8402 6.71715 22.446 6.90076 22.0107C7.08437 21.5753 7.17899 21.1076 7.17899 20.635C7.17899 20.1625 7.08437 19.6948 6.90076 19.2594C6.71715 18.8241 6.44823 18.4298 6.10986 18.1L9.10986 13.39C9.39246 13.49 9.69011 13.5408 9.98987 13.54C10.6178 13.5379 11.2273 13.3277 11.7231 12.9423C12.2188 12.5569 12.5729 12.018 12.7299 11.41H12.7599ZM9.99988 9.28003C10.3765 9.28003 10.7377 9.42965 11.004 9.69596C11.2703 9.96226 11.4199 10.3234 11.4199 10.7C11.4199 11.0767 11.2703 11.4378 11.004 11.7041C10.7377 11.9704 10.3765 12.12 9.99988 12.12C9.72659 12.118 9.45953 12.0382 9.22989 11.89C8.97372 11.7233 8.77818 11.4783 8.67239 11.1915C8.5666 10.9047 8.5562 10.5914 8.6427 10.2982C8.7292 10.005 8.90798 9.74759 9.1525 9.56415C9.39701 9.38071 9.6942 9.28106 9.99988 9.28003V9.28003ZM1.48987 20.64C1.48824 20.2582 1.58978 19.883 1.78375 19.5541C1.97773 19.2252 2.25697 18.9547 2.59192 18.7714C2.92687 18.588 3.30511 18.4986 3.68671 18.5124C4.06831 18.5262 4.4391 18.6429 4.75989 18.85C5.06566 19.0381 5.31813 19.3013 5.49319 19.6147C5.66826 19.9281 5.76008 20.2811 5.75989 20.64C5.77988 20.9314 5.73977 21.2237 5.64203 21.4988C5.54429 21.774 5.39102 22.0261 5.19174 22.2395C4.99246 22.453 4.7514 22.6231 4.48358 22.7395C4.21576 22.8558 3.92689 22.9159 3.63489 22.9159C3.34288 22.9159 3.05399 22.8558 2.78616 22.7395C2.51834 22.6231 2.27732 22.453 2.07803 22.2395C1.87875 22.0261 1.72548 21.774 1.62775 21.4988C1.53001 21.2237 1.48989 20.9314 1.50989 20.64H1.48987ZM4.31989 39.8C3.94328 39.8 3.5821 39.6504 3.3158 39.3841C3.04949 39.1178 2.89987 38.7566 2.89987 38.38C2.89987 38.0034 3.04949 37.6423 3.3158 37.3759C3.5821 37.1096 3.94328 36.9601 4.31989 36.9601C4.6234 36.9563 4.91932 37.0549 5.15988 37.24C5.34138 37.3691 5.48893 37.5403 5.58994 37.7388C5.69094 37.9373 5.74237 38.1573 5.73987 38.38C5.73991 38.7532 5.59305 39.1114 5.33105 39.3771C5.06906 39.6428 4.713 39.7948 4.33987 39.8H4.31989ZM26.3199 41.22C26.1316 41.22 25.951 41.1452 25.8178 41.0121C25.6847 40.8789 25.6099 40.6983 25.6099 40.51C25.6119 40.3882 25.6441 40.2688 25.7034 40.1624C25.7627 40.056 25.8474 39.9659 25.9499 39.9001C26.0606 39.8309 26.1894 39.796 26.3199 39.8C26.5082 39.8 26.6888 39.8748 26.8219 40.008C26.9551 40.1411 27.0299 40.3217 27.0299 40.51C27.0299 40.6983 26.9551 40.8789 26.8219 41.0121C26.6888 41.1452 26.5082 41.22 26.3199 41.22V41.22ZM32.7799 39.8H28.3199C28.1761 39.3844 27.906 39.0242 27.5474 38.7696C27.1888 38.515 26.7597 38.3788 26.3199 38.38C26.158 38.3796 25.9967 38.3998 25.8399 38.44L20.7799 30.57L26.7099 21.35H35.8699L41.7999 30.57L37.5399 37.2101C37.1326 37.0475 36.6984 36.9627 36.2599 36.9601C35.4418 36.9615 34.6492 37.2447 34.0154 37.7619C33.3817 38.2792 32.9453 38.9989 32.7799 39.8V39.8ZM36.2599 42.64C35.8386 42.64 35.4268 42.5151 35.0765 42.281C34.7262 42.047 34.4532 41.7144 34.292 41.3252C34.1308 40.936 34.0886 40.5077 34.1708 40.0945C34.253 39.6813 34.4559 39.3018 34.7538 39.0039C35.0516 38.706 35.4312 38.5031 35.8443 38.4209C36.2575 38.3387 36.6858 38.3809 37.075 38.5421C37.4642 38.7034 37.7969 38.9764 38.0309 39.3267C38.265 39.677 38.3899 40.0888 38.3899 40.51C38.3873 41.0707 38.1648 41.608 37.7702 42.0063C37.3756 42.4046 36.8405 42.6322 36.2799 42.64H36.2599Z" fill="white"/>
<path d="M10 17.09H15.68V18.51H10V17.09Z" fill="white"/>
<path d="M17.12 17.09H20V18.51H17.16L17.12 17.09Z" fill="white"/>
<path d="M10 19.93H20V21.35H10V19.93Z" fill="white"/>
<path d="M18.54 22.77H20V24.19H18.58L18.54 22.77Z" fill="white"/>
<path d="M15.7 22.77H17.1199V24.19H15.7V22.77Z" fill="white"/>
<path d="M10 22.77H14.26V24.19H10V22.77Z" fill="white"/>
<path d="M26.3401 27H32.0001V28.42H26.3201L26.3401 27Z" fill="white"/>
<path d="M33.4399 27H36.2799V28.42H33.4399V27Z" fill="white"/>
<path d="M26.34 29.86H36.28V31.28H26.34V29.86Z" fill="white"/>
<path d="M34.86 32.7H36.28V34.12H34.86V32.7Z" fill="white"/>
<path d="M32 32.7H33.42V34.12H32V32.7Z" fill="white"/>
<path d="M26.34 32.7H30.6V34.12H26.34V32.7Z" fill="white"/>
</svg>
