<svg width="54" height="47" viewBox="0 0 54 47" fill="none" xmlns="http://www.w3.org/2000/svg">
<path d="M39.86 32.4C41.3167 30.1302 42.1448 27.5145 42.26 24.82C43.8906 24.5231 45.569 24.6304 47.1485 25.1325C48.7279 25.6345 50.1602 26.5161 51.32 27.7C51.4628 27.8831 51.6648 28.0108 51.8914 28.0612C52.118 28.1116 52.355 28.0816 52.5619 27.9764C52.7688 27.8712 52.9327 27.6973 53.0254 27.4844C53.1181 27.2716 53.1339 27.0332 53.07 26.81C52.643 24.3768 51.6759 22.0703 50.24 20.06C50.0809 19.8386 49.8403 19.6894 49.5712 19.6453C49.3021 19.6012 49.0265 19.6659 48.805 19.825C48.5836 19.9842 48.4344 20.2247 48.3904 20.4938C48.3463 20.763 48.4109 21.0386 48.57 21.26C49.2356 22.1919 49.7894 23.1988 50.22 24.26H50.16C47.5384 22.7936 44.4679 22.3459 41.5367 23.0028C38.6054 23.6596 36.0196 25.3748 34.2744 27.8197C32.5292 30.2647 31.7474 33.2676 32.0788 36.2532C32.4101 39.2388 33.8313 41.9972 36.07 44C33.0738 43.8453 30.2034 42.7461 27.87 40.86C27.6876 40.6997 27.453 40.6113 27.21 40.6113C26.9671 40.6113 26.7325 40.6997 26.55 40.86C23.9519 43.1248 20.6267 44.3811 17.18 44.4C19.5388 42.5032 21.1002 39.7906 21.5558 36.7982C22.0114 33.8059 21.328 30.7515 19.6406 28.2387C17.9532 25.7258 15.3846 23.9373 12.4424 23.2265C9.50023 22.5158 6.39846 22.9345 3.75005 24.4C4.47074 22.5719 5.55745 20.9105 6.94347 19.5176C8.32949 18.1247 9.98557 17.0297 11.81 16.3C12.0319 16.2168 12.217 16.0576 12.3324 15.8506C12.4478 15.6437 12.4859 15.4025 12.44 15.17C11.8379 11.5776 12.609 7.89017 14.6 4.84001C14.6731 7.59713 15.673 10.2492 17.4383 12.3684C19.2037 14.4875 21.6315 15.95 24.33 16.52C26.0656 16.882 27.8592 16.861 29.5859 16.4586C31.3125 16.0562 32.9306 15.2819 34.3272 14.1899C35.7239 13.0979 36.8656 11.7144 37.6726 10.1358C38.4797 8.55725 38.9327 6.82162 39 5.05C40.9355 8.0005 41.7185 11.5596 41.2 15.05C41.1611 15.2832 41.206 15.5226 41.3268 15.7258C41.4477 15.929 41.6366 16.0829 41.86 16.16C43.1408 16.6303 44.3467 17.2838 45.44 18.1C45.5475 18.1841 45.671 18.2454 45.803 18.28C45.935 18.3146 46.0727 18.3218 46.2076 18.3012C46.3425 18.2806 46.4717 18.2326 46.5874 18.1602C46.703 18.0877 46.8026 17.9924 46.88 17.88C46.9625 17.7728 47.0225 17.65 47.0561 17.5191C47.0898 17.3881 47.0966 17.2516 47.076 17.1179C47.0555 16.9843 47.008 16.8561 46.9365 16.7413C46.865 16.6265 46.771 16.5274 46.66 16.45C45.6307 15.682 44.5127 15.0407 43.33 14.54C43.5696 12.0704 43.2438 9.57857 42.3775 7.25346C41.5113 4.92834 40.1271 2.83088 38.33 1.12001C38.178 0.938891 37.9667 0.817508 37.7337 0.777415C37.5006 0.737322 37.2609 0.781118 37.0571 0.901011C36.8533 1.0209 36.6986 1.20915 36.6204 1.43232C36.5422 1.65549 36.5456 1.89913 36.63 2.12001C37.0089 3.63143 37.0364 5.20954 36.7105 6.73326C36.3846 8.25697 35.714 9.68579 34.75 10.91C32.35 9.47937 29.6058 8.72909 26.8117 8.73966C24.0177 8.75023 21.2792 9.52125 18.89 10.97C17.8618 9.70167 17.1534 8.2048 16.8244 6.60548C16.4955 5.00615 16.5558 3.3512 17 1.78001C17.0783 1.56127 17.0779 1.32211 16.999 1.10362C16.9201 0.88512 16.7676 0.70092 16.5677 0.582621C16.3678 0.464322 16.1329 0.419313 15.9034 0.455332C15.6739 0.491351 15.4641 0.60615 15.31 0.780009C13.4536 2.55351 12.0347 4.73415 11.1653 7.14985C10.2959 9.56556 9.99965 12.1503 10.3 14.7C7.86176 15.8153 5.73326 17.51 4.10008 19.6365C2.4669 21.7629 1.3786 24.2565 0.930047 26.9C0.871597 27.1207 0.890448 27.3548 0.983464 27.5634C1.07648 27.7719 1.23806 27.9423 1.44135 28.0463C1.64463 28.1503 1.87738 28.1816 2.10091 28.1349C2.32444 28.0883 2.52528 27.9666 2.67005 27.79C3.80917 26.6555 5.20339 25.8101 6.7361 25.3247C8.26882 24.8394 9.89548 24.728 11.48 25C11.6263 27.6078 12.4314 30.136 13.8199 32.3482C15.2085 34.5604 17.1352 36.3845 19.42 37.65C19.0028 39.1229 18.2529 40.4803 17.2283 41.6176C16.2036 42.755 14.9315 43.6419 13.51 44.21C13.2448 44.2312 12.9989 44.3569 12.8264 44.5595C12.6538 44.762 12.5688 45.0248 12.59 45.29C12.6113 45.5552 12.737 45.8011 12.9395 45.9737C13.142 46.1462 13.4048 46.2312 13.67 46.21C16.0306 46.7009 18.4702 46.6679 20.8166 46.1133C23.163 45.5586 25.3591 44.4959 27.25 43C30.7737 45.5159 35.1405 46.5564 39.42 45.9C39.6552 45.8928 39.8803 45.8028 40.0557 45.646C40.2311 45.4892 40.3456 45.2755 40.3791 45.0426C40.4125 44.8097 40.3628 44.5725 40.2386 44.3726C40.1144 44.1728 39.9237 44.0232 39.7 43.95C38.4054 43.3372 37.256 42.4558 36.3284 41.3644C35.4007 40.273 34.7161 38.9965 34.32 37.62C36.5715 36.3759 38.476 34.5883 39.86 32.42V32.4ZM33.27 12.4C32.1006 13.3711 30.7273 14.0661 29.2522 14.4331C27.7771 14.8002 26.2382 14.8299 24.75 14.52C23.1497 14.1899 21.6535 13.4762 20.39 12.44C22.3638 11.3572 24.5788 10.7896 26.83 10.7896C29.0813 10.7896 31.2962 11.3572 33.27 12.44V12.4ZM13.59 25.55C15.5363 26.3373 17.1853 27.7172 18.3035 29.4941C19.4217 31.271 19.9523 33.3548 19.82 35.45C18.1057 34.3727 16.6556 32.9235 15.5771 31.2098C14.4987 29.4961 13.8196 27.5617 13.59 25.55V25.55ZM34 35.43C33.9098 34.095 34.0851 32.7554 34.516 31.4886C34.9468 30.2219 35.6246 29.0531 36.51 28.05V28.05C37.5165 26.9051 38.7767 26.0113 40.19 25.44C39.9787 27.4643 39.3121 29.4144 38.2401 31.1445C37.1681 32.8746 35.7186 34.3396 34 35.43Z" fill="white"/>
<path d="M26.8701 27.19C26.7036 27.2004 26.5366 27.2004 26.3701 27.19C26.2388 27.1683 26.1045 27.1727 25.9749 27.203C25.8453 27.2332 25.7229 27.2887 25.6147 27.3662C25.5065 27.4438 25.4147 27.5419 25.3444 27.6549C25.2741 27.7679 25.2268 27.8937 25.2051 28.025C25.1835 28.1563 25.1879 28.2907 25.2181 28.4203C25.2483 28.5499 25.3038 28.6723 25.3813 28.7804C25.4589 28.8886 25.557 28.9805 25.67 29.0508C25.783 29.121 25.9088 29.1683 26.0401 29.19C27.1158 29.3668 28.2198 29.1971 29.1927 28.7053C30.1656 28.2135 30.9569 27.4251 31.4524 26.4541C31.9478 25.4831 32.1217 24.3797 31.9489 23.3034C31.7761 22.227 31.2656 21.2335 30.4911 20.4663C29.7166 19.6992 28.7183 19.1981 27.6404 19.0356C26.5624 18.873 25.4607 19.0574 24.4945 19.562C23.5282 20.0666 22.7474 20.8654 22.2648 21.8429C21.7823 22.8204 21.6231 23.9261 21.8101 25C21.8552 25.2652 22.0038 25.5017 22.2232 25.6573C22.4426 25.813 22.7149 25.8751 22.9801 25.83C23.2453 25.7849 23.4818 25.6363 23.6374 25.4169C23.7931 25.1975 23.8552 24.9252 23.8101 24.66C23.7033 24.0361 23.7913 23.3945 24.0621 22.8224C24.3329 22.2503 24.7734 21.7756 25.3236 21.4627C25.8739 21.1499 26.5071 21.0142 27.1373 21.074C27.7674 21.1339 28.3637 21.3865 28.8452 21.7973C29.3267 22.2082 29.6699 22.7574 29.8281 23.3703C29.9864 23.9831 29.952 24.6298 29.7296 25.2224C29.5072 25.815 29.1076 26.3247 28.5852 26.6821C28.0628 27.0396 27.443 27.2274 26.8101 27.22L26.8701 27.19Z" fill="white"/>
</svg>
