<svg width="45" height="48" viewBox="0 0 45 48" fill="none" xmlns="http://www.w3.org/2000/svg">
<g clip-path="url(#clip0)">
<path d="M32.36 26.47H25.56C25.39 26.4904 25.2334 26.5724 25.1198 26.7005C25.0062 26.8286 24.9435 26.9938 24.9435 27.165C24.9435 27.3362 25.0062 27.5014 25.1198 27.6295C25.2334 27.7576 25.39 27.8396 25.56 27.86H32.36C32.4514 27.86 32.542 27.8418 32.6263 27.8065C32.7107 27.7712 32.7872 27.7195 32.8514 27.6544C32.9156 27.5892 32.9663 27.512 33.0003 27.4271C33.0344 27.3423 33.0513 27.2515 33.05 27.16V27.16C33.05 26.977 32.9773 26.8015 32.8479 26.6721C32.7185 26.5427 32.543 26.47 32.36 26.47V26.47Z" fill="white"/>
<path d="M27.85 29.51H25.56C25.3761 29.5126 25.2006 29.5875 25.0715 29.7185C24.9424 29.8495 24.87 30.0261 24.87 30.21C24.87 30.3006 24.8878 30.3903 24.9225 30.4741C24.9572 30.5578 25.008 30.6338 25.0721 30.6979C25.1362 30.762 25.2122 30.8128 25.2959 30.8475C25.3797 30.8822 25.4694 30.9 25.56 30.9H27.84C27.9314 30.9013 28.0222 30.8845 28.1071 30.8504C28.192 30.8163 28.2692 30.7657 28.3344 30.7015C28.3995 30.6373 28.4512 30.5608 28.4865 30.4764C28.5218 30.392 28.54 30.3015 28.54 30.21V30.21C28.5375 30.0269 28.4643 29.8518 28.3357 29.7213C28.2071 29.5909 28.0331 29.5152 27.85 29.51V29.51Z" fill="white"/>
<path d="M42.05 36.12H39.05V17.3C39.05 17.1144 38.9762 16.9363 38.8449 16.805C38.7137 16.6738 38.5356 16.6 38.35 16.6C38.2585 16.6 38.168 16.6182 38.0836 16.6535C37.9992 16.6888 37.9227 16.7405 37.8585 16.8056C37.7943 16.8708 37.7437 16.948 37.7096 17.0329C37.6755 17.1178 37.6586 17.2086 37.66 17.3V17.3V36.13H35.06V33.59C35.5158 33.443 35.9137 33.1562 36.1973 32.7703C36.4809 32.3843 36.6358 31.9189 36.64 31.44V25.93C36.6388 25.4503 36.4851 24.9835 36.2011 24.597C35.9171 24.2104 35.5174 23.9243 35.06 23.78V4.44001H36.42C36.7515 4.44001 37.0694 4.5717 37.3038 4.80612C37.5383 5.04054 37.67 5.35849 37.67 5.69001V14.05C37.67 14.233 37.7427 14.4085 37.8721 14.5379C38.0015 14.6673 38.177 14.74 38.36 14.74V14.74C38.4514 14.7413 38.5422 14.7245 38.6271 14.6904C38.712 14.6563 38.7892 14.6057 38.8543 14.5415C38.9195 14.4773 38.9712 14.4008 39.0065 14.3164C39.0418 14.232 39.06 14.1415 39.06 14.05V5.69001C39.0573 4.99065 38.7783 4.32068 38.2838 3.82615C37.7893 3.33163 37.1193 3.05264 36.42 3.05001H30.29C30.1779 2.80041 29.9971 2.58791 29.7686 2.43737C29.5401 2.28684 29.2735 2.2045 29 2.20001H25.05C24.8874 1.55133 24.5127 0.975562 23.9855 0.564163C23.4583 0.152765 22.8087 -0.0706787 22.14 -0.0706787C21.4712 -0.0706787 20.8216 0.152765 20.2944 0.564163C19.7672 0.975562 19.3925 1.55133 19.23 2.20001H15.29C15.0167 2.2057 14.7506 2.28851 14.5223 2.43891C14.2941 2.5893 14.113 2.80114 14 3.05001H7.84996C7.15152 3.05265 6.4826 3.33196 5.98966 3.82677C5.49673 4.32158 5.21996 4.99156 5.21996 5.69001V9.92001C3.75738 10.1891 2.43534 10.9622 1.48367 12.105C0.531996 13.2478 0.0108643 14.6879 0.0108643 16.175C0.0108643 17.6621 0.531996 19.1023 1.48367 20.245C2.43534 21.3878 3.75738 22.1609 5.21996 22.43V41.56C5.21996 42.2585 5.49673 42.9284 5.98966 43.4232C6.4826 43.9181 7.15152 44.1974 7.84996 44.2H15.85C16.1901 44.8924 16.6506 45.5188 17.21 46.05C17.2744 46.1178 17.352 46.1717 17.4379 46.2086C17.5239 46.2455 17.6164 46.2645 17.71 46.2645C17.8035 46.2645 17.896 46.2455 17.982 46.2086C18.0679 46.1717 18.1455 46.1178 18.21 46.05V46.05C18.2777 45.9856 18.3317 45.908 18.3686 45.822C18.4054 45.7361 18.4245 45.6435 18.4245 45.55C18.4245 45.4565 18.4054 45.3639 18.3686 45.278C18.3317 45.192 18.2777 45.1145 18.21 45.05V45.05C17.7144 44.5868 17.32 44.026 17.0516 43.4031C16.7831 42.7801 16.6464 42.1083 16.65 41.43C16.65 40.4411 16.9432 39.4744 17.4926 38.6522C18.042 37.8299 18.8229 37.189 19.7365 36.8106C20.6502 36.4322 21.6555 36.3332 22.6254 36.5261C23.5953 36.719 24.4862 37.1952 25.1855 37.8945C25.8848 38.5937 26.361 39.4847 26.5539 40.4546C26.7468 41.4245 26.6478 42.4298 26.2694 43.3434C25.8909 44.2571 25.2501 45.0379 24.4278 45.5874C23.6056 46.1368 22.6389 46.43 21.65 46.43C21.3481 46.4332 21.0466 46.4064 20.75 46.35C20.5773 46.3365 20.4057 46.3876 20.2685 46.4933C20.1312 46.599 20.038 46.7518 20.0069 46.9222C19.9758 47.0926 20.009 47.2685 20.1001 47.4159C20.1912 47.5632 20.3336 47.6716 20.5 47.72C20.8801 47.7835 21.2646 47.8169 21.65 47.82C22.8433 47.8144 24.0113 47.4752 25.022 46.8409C26.0328 46.2065 26.846 45.3022 27.37 44.23H29C29.0655 44.7773 29.3279 45.282 29.7382 45.65C30.1486 46.0181 30.6788 46.2242 31.23 46.23H42.06C42.6576 46.2274 43.2299 45.9881 43.6516 45.5645C44.0732 45.141 44.31 44.5677 44.31 43.97V38.38C44.31 38.0832 44.2515 37.7893 44.1379 37.5151C44.0244 37.2409 43.8579 36.9918 43.648 36.7819C43.4382 36.5721 43.189 36.4056 42.9148 36.292C42.6406 36.1785 42.3467 36.12 42.05 36.12V36.12ZM35.25 31.44C35.25 31.6707 35.1583 31.892 34.9951 32.0552C34.832 32.2183 34.6107 32.31 34.38 32.31H23.54C23.3092 32.31 23.0879 32.2183 22.9248 32.0552C22.7616 31.892 22.67 31.6707 22.67 31.44V25.92C22.67 25.6893 22.7616 25.468 22.9248 25.3048C23.0879 25.1417 23.3092 25.05 23.54 25.05H34.38C34.6099 25.0526 34.8297 25.1451 34.9923 25.3077C35.1549 25.4703 35.2474 25.6901 35.25 25.92V31.44V31.44ZM22.14 1.38001C22.4257 1.38377 22.7056 1.46123 22.9526 1.60488C23.1996 1.74854 23.4054 1.95353 23.55 2.20001H20.72C20.8615 1.95084 21.0665 1.74366 21.3142 1.5996C21.5619 1.45555 21.8434 1.37977 22.13 1.38001H22.14ZM15.25 3.63001H29V5.46001H15.29L15.25 3.63001ZM17.34 6.89001H26.94V7.05001C26.9454 7.41528 26.8068 7.76799 26.5541 8.03186C26.3015 8.29573 25.9551 8.44953 25.59 8.46001C25.3845 8.45523 25.1828 8.40395 25 8.31001C24.6639 8.13309 24.2898 8.04063 23.91 8.04063C23.5302 8.04063 23.156 8.13309 22.82 8.31001C22.6223 8.4132 22.4029 8.46803 22.18 8.47001C21.9571 8.46692 21.738 8.41215 21.54 8.31001C21.2039 8.13309 20.8298 8.04063 20.45 8.04063C20.0702 8.04063 19.6961 8.13309 19.36 8.31001C19.1682 8.40882 18.9556 8.46025 18.74 8.46001C18.3739 8.44955 18.0265 8.29608 17.7723 8.0325C17.518 7.76892 17.3772 7.41621 17.38 7.05001L17.34 6.89001ZM1.38996 16.17C1.38996 15.1811 1.68321 14.2144 2.23261 13.3922C2.78202 12.5699 3.56291 11.929 4.47655 11.5506C5.39018 11.1722 6.39551 11.0732 7.36541 11.2661C8.33532 11.459 9.22623 11.9352 9.9255 12.6345C10.6248 13.3337 11.101 14.2247 11.2939 15.1946C11.4868 16.1645 11.3878 17.1698 11.0094 18.0834C10.6309 18.9971 9.99006 19.7779 9.16781 20.3274C8.34557 20.8768 7.37887 21.17 6.38996 21.17C5.06388 21.17 3.79211 20.6432 2.85443 19.7055C1.91675 18.7679 1.38996 17.4961 1.38996 16.17V16.17ZM8.92996 28.78C8.92996 27.7911 9.22321 26.8244 9.77261 26.0022C10.322 25.1799 11.1029 24.539 12.0165 24.1606C12.9302 23.7822 13.9355 23.6832 14.9054 23.8761C15.8753 24.069 16.7662 24.5452 17.4655 25.2445C18.1648 25.9437 18.641 26.8346 18.8339 27.8046C19.0268 28.7745 18.9278 29.7798 18.5494 30.6934C18.1709 31.6071 17.5301 32.3879 16.7078 32.9374C15.8856 33.4868 14.9189 33.78 13.93 33.78C12.6039 33.78 11.3321 33.2532 10.3944 32.3155C9.45675 31.3779 8.92996 30.1061 8.92996 28.78ZM7.84996 42.78C7.52018 42.7774 7.2048 42.6445 6.97254 42.4104C6.74027 42.1762 6.60995 41.8598 6.60996 41.53V22.53C7.51839 22.4913 8.40814 22.2595 9.21996 21.85V24.48C8.13908 25.6511 7.53889 27.1863 7.53889 28.78C7.53889 30.3737 8.13908 31.9089 9.21996 33.08V36.69C9.21996 36.9977 9.34218 37.2927 9.55972 37.5103C9.77726 37.7278 10.0723 37.85 10.38 37.85H16.31C15.5908 38.9014 15.2073 40.1462 15.21 41.42C15.2089 41.888 15.2626 42.3545 15.37 42.81L7.84996 42.78ZM17.59 36.43H10.59V34.22C11.5546 34.8042 12.6572 35.1215 13.7847 35.1392C14.9123 35.157 16.0244 34.8746 17.0069 34.321C17.9894 33.7674 18.807 32.9625 19.376 31.9888C19.945 31.0152 20.2448 29.9077 20.2448 28.78C20.2448 27.6523 19.945 26.5448 19.376 25.5712C18.807 24.5975 17.9894 23.7926 17.0069 23.239C16.0244 22.6854 14.9123 22.4031 13.7847 22.4208C12.6572 22.4385 11.5546 22.7558 10.59 23.34V20.9C11.5292 20.0538 12.195 18.9469 12.5022 17.7206C12.8095 16.4943 12.7443 15.2043 12.3151 14.0152C11.8858 12.8261 11.1119 11.7919 10.0922 11.0447C9.07242 10.2975 7.85313 9.87109 6.58996 9.82001V5.69001C6.58994 5.52416 6.62292 5.35996 6.68699 5.20699C6.75105 5.05401 6.84492 4.91531 6.96312 4.79898C7.08132 4.68264 7.22149 4.59098 7.37546 4.52936C7.52944 4.46773 7.69413 4.43735 7.85996 4.44001H9.21996V8.00001C9.21864 8.09146 9.23551 8.18226 9.26959 8.26713C9.30367 8.352 9.35428 8.42925 9.41849 8.49439C9.48269 8.55952 9.55921 8.61124 9.64358 8.64654C9.72795 8.68184 9.8185 8.70002 9.90996 8.70001C10.0956 8.70001 10.2737 8.62626 10.4049 8.49498C10.5362 8.36371 10.61 8.18566 10.61 8.00001V8.00001V4.44001H13.86V5.44001C13.8586 5.62995 13.8949 5.81828 13.9667 5.99414C14.0385 6.17001 14.1443 6.32993 14.2782 6.46471C14.412 6.59949 14.5712 6.70645 14.7466 6.77944C14.9219 6.85244 15.11 6.89001 15.3 6.89001H16V7.05001C15.9946 7.78123 16.2786 8.48492 16.79 9.00758C17.3014 9.53024 17.9988 9.82947 18.73 9.84001C19.1718 9.84829 19.6086 9.74511 20 9.54001C20.1395 9.46967 20.2937 9.43303 20.45 9.43303C20.6063 9.43303 20.7604 9.46967 20.9 9.54001C21.2976 9.74978 21.7404 9.85961 22.19 9.86001C22.6397 9.86083 23.0827 9.75093 23.48 9.54001C23.6195 9.46967 23.7737 9.43303 23.93 9.43303C24.0863 9.43303 24.2404 9.46967 24.38 9.54001C24.7724 9.74234 25.2085 9.84535 25.65 9.84001C26.3811 9.82947 27.0785 9.53024 27.5899 9.00758C28.1013 8.48492 28.3853 7.78123 28.38 7.05001V6.89001H29C29.3792 6.89001 29.7429 6.73935 30.0111 6.47117C30.2793 6.20299 30.43 5.83927 30.43 5.46001V4.46001H33.69V23.67H23.54C22.9423 23.67 22.369 23.9067 21.9454 24.3284C21.5219 24.7501 21.2826 25.3224 21.28 25.92V31.44C21.2826 32.0377 21.5219 32.6099 21.9454 33.0316C22.369 33.4533 22.9423 33.69 23.54 33.69H33.67V36.12H31.21C30.7895 36.1215 30.3777 36.2391 30.02 36.46H25.55C24.4179 35.5443 23.006 35.0447 21.55 35.0447C20.0939 35.0447 18.682 35.5443 17.55 36.46L17.59 36.43ZM26.84 37.82H29C28.9597 37.9938 28.9396 38.1716 28.94 38.35V42.78H27.78C27.8798 42.3234 27.9301 41.8574 27.93 41.39C27.9365 40.1156 27.5526 38.8698 26.83 37.82H26.84ZM42.92 43.82C42.92 44.0507 42.8283 44.272 42.6651 44.4352C42.502 44.5983 42.2807 44.69 42.05 44.69H31.21C31.0957 44.69 30.9826 44.6675 30.877 44.6238C30.7715 44.5801 30.6756 44.516 30.5948 44.4352C30.514 44.3544 30.4499 44.2585 30.4062 44.1529C30.3625 44.0474 30.34 43.9343 30.34 43.82V38.38C30.34 38.2658 30.3625 38.1526 30.4062 38.0471C30.4499 37.9415 30.514 37.8456 30.5948 37.7648C30.6756 37.684 30.7715 37.62 30.877 37.5762C30.9826 37.5325 31.0957 37.51 31.21 37.51H42.05C42.2807 37.51 42.502 37.6017 42.6651 37.7648C42.8283 37.928 42.92 38.1493 42.92 38.38V43.82Z" fill="white"/>
<path d="M40 38.93H33.2C33.1086 38.9287 33.0177 38.9455 32.9329 38.9796C32.848 39.0137 32.7708 39.0643 32.7056 39.1285C32.6405 39.1927 32.5888 39.2692 32.5535 39.3536C32.5182 39.438 32.5 39.5285 32.5 39.62V39.62C32.5 39.7115 32.5182 39.802 32.5535 39.8864C32.5888 39.9708 32.6405 40.0473 32.7056 40.1115C32.7708 40.1757 32.848 40.2263 32.9329 40.2604C33.0177 40.2945 33.1086 40.3113 33.2 40.31H40C40.183 40.31 40.3585 40.2373 40.4879 40.1079C40.6173 39.9785 40.69 39.803 40.69 39.62C40.69 39.437 40.6173 39.2615 40.4879 39.1321C40.3585 39.0027 40.183 38.93 40 38.93Z" fill="white"/>
<path d="M38.46 42H33.23C33.06 42.0204 32.9035 42.1024 32.7899 42.2305C32.6763 42.3586 32.6135 42.5238 32.6135 42.695C32.6135 42.8662 32.6763 43.0314 32.7899 43.1595C32.9035 43.2876 33.06 43.3696 33.23 43.39H38.46C38.6439 43.39 38.8205 43.3176 38.9515 43.1885C39.0825 43.0594 39.1574 42.8839 39.16 42.7V42.7C39.16 42.6081 39.1419 42.517 39.1067 42.4321C39.0715 42.3472 39.02 42.27 38.955 42.205C38.89 42.14 38.8128 42.0885 38.7279 42.0533C38.643 42.0181 38.5519 42 38.46 42V42Z" fill="white"/>
<path d="M29.09 18.93V13.41C29.09 12.8133 28.8529 12.241 28.431 11.819C28.009 11.3971 27.4367 11.16 26.84 11.16H16C15.4023 11.16 14.829 11.3967 14.4055 11.8184C13.9819 12.2401 13.7426 12.8123 13.74 13.41V18.93C13.7426 19.5277 13.9819 20.0999 14.4055 20.5216C14.829 20.9433 15.4023 21.18 16 21.18H26.84C27.4367 21.18 28.009 20.943 28.431 20.521C28.8529 20.099 29.09 19.5267 29.09 18.93V18.93ZM15.09 18.93V13.41C15.09 13.1793 15.1817 12.958 15.3448 12.7948C15.508 12.6317 15.7293 12.54 15.96 12.54H26.84C27.0707 12.54 27.292 12.6317 27.4552 12.7948C27.6183 12.958 27.71 13.1793 27.71 13.41V18.93C27.71 19.1607 27.6183 19.382 27.4552 19.5452C27.292 19.7083 27.0707 19.8 26.84 19.8H16C15.7693 19.8 15.548 19.7083 15.3848 19.5452C15.2217 19.382 15.13 19.1607 15.13 18.93H15.09Z" fill="white"/>
<path d="M24.8199 14H17.9999C17.8143 14 17.6362 14.0738 17.505 14.205C17.3737 14.3363 17.2999 14.5143 17.2999 14.7C17.2999 14.7915 17.3181 14.882 17.3534 14.9664C17.3887 15.0508 17.4404 15.1273 17.5055 15.1915C17.5707 15.2557 17.6479 15.3063 17.7328 15.3404C17.8177 15.3745 17.9085 15.3913 17.9999 15.39H24.7999C24.9699 15.3696 25.1265 15.2876 25.2401 15.1595C25.3537 15.0314 25.4164 14.8662 25.4164 14.695C25.4164 14.5238 25.3537 14.3586 25.2401 14.2305C25.1265 14.1024 24.9699 14.0204 24.7999 14H24.8199Z" fill="white"/>
<path d="M24.8199 17H17.9999C17.8143 17 17.6362 17.0737 17.505 17.205C17.3737 17.3363 17.2999 17.5143 17.2999 17.7C17.2999 17.7915 17.3181 17.882 17.3534 17.9664C17.3887 18.0508 17.4404 18.1273 17.5055 18.1915C17.5707 18.2557 17.6479 18.3063 17.7328 18.3404C17.8177 18.3745 17.9085 18.3913 17.9999 18.39H24.7999C24.8905 18.39 24.9803 18.3722 25.064 18.3375C25.1477 18.3028 25.2238 18.252 25.2878 18.1879C25.3519 18.1238 25.4027 18.0478 25.4374 17.9641C25.4721 17.8803 25.4899 17.7906 25.4899 17.7C25.4874 17.5168 25.4142 17.3417 25.2856 17.2113C25.1571 17.0809 24.983 17.0051 24.7999 17H24.8199Z" fill="white"/>
<path d="M16.0699 31.56C16.0647 31.3778 15.9887 31.2049 15.858 31.0779C15.7272 30.9509 15.5522 30.8799 15.3699 30.88H13.8699C14.1699 30.48 14.5699 29.93 15.0999 29.17C15.4186 28.7378 15.6527 28.2492 15.7899 27.73C15.7954 27.707 15.7954 27.683 15.7899 27.66V27.45C15.7899 27.45 15.7899 27.39 15.7899 27.36C15.8025 26.8293 15.6136 26.3136 15.2613 25.9165C14.909 25.5194 14.4194 25.2705 13.891 25.2198C13.3626 25.1691 12.8346 25.3204 12.4133 25.6433C11.9919 25.9662 11.7084 26.4366 11.6199 26.96C11.5846 27.1416 11.6227 27.3298 11.7257 27.4835C11.8288 27.6371 11.9885 27.7438 12.1699 27.78V27.78C12.2592 27.7974 12.3511 27.7969 12.4403 27.7787C12.5294 27.7604 12.6141 27.7247 12.6894 27.6736C12.7647 27.6224 12.8291 27.5569 12.879 27.4808C12.9288 27.4047 12.9631 27.3194 12.9799 27.23V27.23C13.0093 27.0533 13.1035 26.8939 13.2442 26.783C13.3848 26.672 13.5617 26.6175 13.7404 26.63C13.9191 26.6425 14.0867 26.7211 14.2105 26.8506C14.3343 26.98 14.4054 27.1509 14.4099 27.33V27.46C14.3104 27.7927 14.1511 28.1044 13.9399 28.38C13.0599 29.63 12.5399 30.31 12.2599 30.68C11.9799 31.05 11.7399 31.37 11.8599 31.75C11.8922 31.86 11.9511 31.9604 12.0313 32.0424C12.1115 32.1243 12.2106 32.1853 12.3199 32.22C12.4199 32.22 14.5799 32.28 15.3199 32.27C15.5038 32.2674 15.6793 32.1925 15.8084 32.0615C15.9376 31.9305 16.0099 31.7539 16.0099 31.57V31.57L16.0699 31.56Z" fill="white"/>
<path d="M6.99997 19.21V13.69C7.00014 13.5121 6.93158 13.341 6.80859 13.2124C6.68561 13.0838 6.51772 13.0077 6.33997 13H5.15997C4.97697 13 4.80147 13.0727 4.67207 13.2021C4.54267 13.3315 4.46997 13.507 4.46997 13.69C4.46997 13.873 4.54267 14.0485 4.67207 14.1779C4.80147 14.3073 4.97697 14.38 5.15997 14.38H5.64997V19.21C5.64997 19.3006 5.66782 19.3903 5.70249 19.4741C5.73717 19.5578 5.788 19.6338 5.85207 19.6979C5.91614 19.762 5.9922 19.8128 6.07592 19.8475C6.15963 19.8822 6.24936 19.9 6.33997 19.9V19.9C6.51772 19.8923 6.68561 19.8162 6.80859 19.6876C6.93158 19.559 7.00014 19.3879 6.99997 19.21V19.21Z" fill="white"/>
<path d="M21.53 45C22.0861 44.9974 22.6187 44.7753 23.012 44.382C23.4052 43.9888 23.6273 43.4561 23.63 42.9C23.6312 42.3774 23.4347 41.8737 23.08 41.49C23.4347 41.1063 23.6312 40.6026 23.63 40.08C23.6426 39.5493 23.4537 39.0336 23.1014 38.6365C22.7491 38.2394 22.2595 37.9905 21.7311 37.9398C21.2027 37.8891 20.6747 38.0404 20.2533 38.3633C19.832 38.6862 19.5485 39.1566 19.46 39.68C19.4426 39.7693 19.443 39.8612 19.4613 39.9504C19.4796 40.0395 19.5153 40.1242 19.5664 40.1995C19.6175 40.2747 19.683 40.3392 19.7592 40.389C19.8353 40.4389 19.9205 40.4732 20.01 40.49V40.49C20.1889 40.5254 20.3746 40.4884 20.5264 40.3872C20.6782 40.286 20.7838 40.1288 20.82 39.95C20.8447 39.8155 20.9072 39.6908 21.0001 39.5905C21.0931 39.4902 21.2127 39.4185 21.345 39.3837C21.4773 39.3489 21.6167 39.3525 21.747 39.3941C21.8773 39.4356 21.993 39.5135 22.0807 39.6184C22.1684 39.7234 22.2244 39.8512 22.2421 39.9868C22.2598 40.1224 22.2385 40.2602 22.1807 40.3842C22.1229 40.5081 22.0311 40.6131 21.9158 40.6867C21.8006 40.7604 21.6667 40.7997 21.53 40.8C21.3443 40.8 21.1663 40.8738 21.035 41.005C20.9037 41.1363 20.83 41.3144 20.83 41.5C20.83 41.5915 20.8481 41.682 20.8834 41.7664C20.9187 41.8508 20.9705 41.9273 21.0356 41.9915C21.1007 42.0557 21.178 42.1063 21.2628 42.1404C21.3477 42.1745 21.4385 42.1913 21.53 42.19V42.19C21.6682 42.1894 21.8037 42.2287 21.9203 42.303C22.0368 42.3774 22.1295 42.4838 22.1872 42.6094C22.245 42.735 22.2653 42.8746 22.2458 43.0115C22.2263 43.1484 22.1678 43.2768 22.0773 43.3813C21.9868 43.4858 21.8681 43.5621 21.7354 43.601C21.6028 43.6398 21.4617 43.6397 21.3291 43.6005C21.1965 43.5614 21.078 43.4849 20.9877 43.3801C20.8974 43.2754 20.8392 43.1469 20.82 43.01C20.815 42.9768 20.815 42.9432 20.82 42.91C20.82 42.727 20.7473 42.5515 20.6179 42.4221C20.4885 42.2927 20.313 42.22 20.13 42.22V42.22C20.0319 42.2238 19.9355 42.2471 19.8465 42.2886C19.7576 42.33 19.6777 42.3887 19.6116 42.4613C19.5455 42.5339 19.4946 42.6189 19.4617 42.7114C19.4288 42.8039 19.4146 42.902 19.42 43C19.4095 43.0663 19.4095 43.1337 19.42 43.2C19.4988 43.7026 19.7549 44.1603 20.1419 44.4905C20.5289 44.8206 21.0213 45.0014 21.53 45V45Z" fill="white"/>
</g>
<defs>
<clipPath id="clip0">
<rect width="44.31" height="47.78" fill="white"/>
</clipPath>
</defs>
</svg>
