<svg width="41" height="45" viewBox="0 0 41 45" fill="none" xmlns="http://www.w3.org/2000/svg">
<path d="M18.8099 0.47998C17.9063 0.547464 17.0287 0.813813 16.2399 1.25998C15.6269 1.61598 14.9451 1.83754 14.2399 1.90997C13.5347 1.83754 12.853 1.61598 12.2399 1.25998C11.4512 0.813813 10.5736 0.547464 9.66992 0.47998C6.21992 0.47998 3.66992 4.18996 3.66992 9.29996C3.66992 12.16 5.30992 28.59 9.66992 28.59C11.1099 28.59 11.57 26.29 12.27 22.8C12.6 21.18 13.46 16.87 14.2 16.87C15.25 16.87 15.9699 20.97 16.3599 23.17C16.9299 26.43 17.3099 28.59 18.7299 28.59C23.0399 28.59 24.7299 12.16 24.7299 9.29996C24.7599 4.18996 22.2599 0.47998 18.8099 0.47998ZM18.9 27.15C18.51 26.68 18.11 24.43 17.9 22.92C17.25 19.24 16.58 15.44 14.33 15.43C12.41 15.43 11.7599 18.72 10.9999 22.52C10.6599 24.19 10.1699 26.68 9.71991 27.15C7.71991 26.83 5.27997 15.15 5.27997 9.29996C5.27997 5.08996 7.21993 1.90997 9.79993 1.90997C10.5047 1.98448 11.186 2.2059 11.7999 2.55997C12.5604 3.06901 13.4548 3.34076 14.3699 3.34076C15.285 3.34076 16.1795 3.06901 16.9399 2.55997C17.5539 2.2059 18.2352 1.98448 18.9399 1.90997C21.5199 1.90997 23.46 5.08996 23.46 9.29996C23.33 15.11 20.92 26.79 18.9 27.15Z" fill="white"/>
<path d="M10.57 2.68002C9.98611 2.68002 9.40794 2.7952 8.8686 3.01895C8.32926 3.24271 7.83931 3.57066 7.42689 3.98401C7.01447 4.39736 6.68764 4.88802 6.4651 5.42786C6.24256 5.9677 6.1287 6.54613 6.13002 7.13004C6.13002 7.3263 6.20798 7.51451 6.34675 7.65329C6.48553 7.79207 6.67375 7.87003 6.87001 7.87003C7.06627 7.87003 7.25448 7.79207 7.39326 7.65329C7.53204 7.51451 7.61 7.3263 7.61 7.13004C7.61 6.33439 7.92611 5.57131 8.48872 5.0087C9.05133 4.44609 9.81435 4.13004 10.61 4.13004C10.8063 4.13004 10.9945 4.05208 11.1333 3.9133C11.272 3.77452 11.35 3.58631 11.35 3.39005C11.35 3.19378 11.272 3.00554 11.1333 2.86676C10.9945 2.72798 10.8063 2.65002 10.61 2.65002L10.57 2.68002Z" fill="white"/>
<path d="M13.6 35.26L11.51 31.79C11.3273 31.4772 11.0805 31.2067 10.7859 30.996C10.4912 30.7853 10.1554 30.6394 9.80033 30.5676C9.4453 30.4958 9.07908 30.4999 8.72575 30.5796C8.37241 30.6593 8.0399 30.8128 7.75004 31.03C7.22925 31.4331 6.8758 32.0145 6.75767 32.6624C6.63953 33.3103 6.76503 33.979 7.11002 34.54L8.11002 36.15C8.17539 36.2612 8.26909 36.3531 8.38151 36.4163C8.49393 36.4795 8.62107 36.5119 8.75004 36.51C8.88134 36.5109 9.01051 36.4768 9.12431 36.4113C9.2381 36.3458 9.33241 36.2511 9.39756 36.1371C9.46271 36.0231 9.49636 35.8939 9.49503 35.7626C9.49371 35.6312 9.45748 35.5027 9.39005 35.39L8.39005 33.77C8.23535 33.5264 8.17439 33.235 8.21854 32.9499C8.26269 32.6647 8.40893 32.4053 8.63004 32.2199C8.7563 32.1299 8.89973 32.0668 9.05143 32.0346C9.20313 32.0024 9.35985 32.0017 9.51182 32.0326C9.66378 32.0636 9.80773 32.1255 9.93473 32.2145C10.0617 32.3035 10.1691 32.4177 10.25 32.55L12.3401 36.02C12.39 36.1034 12.4558 36.1761 12.5338 36.234C12.6118 36.292 12.7005 36.334 12.7947 36.3577C12.889 36.3814 12.987 36.3862 13.0831 36.372C13.1792 36.3579 13.2716 36.3249 13.355 36.275C13.4384 36.2251 13.5112 36.1592 13.5691 36.0812C13.6271 36.0032 13.669 35.9145 13.6927 35.8203C13.7164 35.726 13.7213 35.628 13.7071 35.5319C13.6929 35.4358 13.6599 35.3434 13.61 35.26H13.6Z" fill="white"/>
<path d="M34.14 40.3401C34.1245 40.2438 34.0896 40.1516 34.0374 40.0692C33.9852 39.9868 33.9169 39.9159 33.8365 39.8607C33.7561 39.8055 33.6652 39.7673 33.5696 39.7483C33.4739 39.7292 33.3754 39.7298 33.28 39.75C19.56 42.36 16.43 40.5901 16.42 40.5901C16.3234 40.5183 16.2096 40.4734 16.09 40.46L7.58002 39.36L2.51001 36.69C2.42301 36.6458 2.34575 36.5845 2.28284 36.5099C2.21993 36.4352 2.17264 36.3488 2.14374 36.2555C2.11484 36.1623 2.1049 36.0642 2.11457 35.9671C2.12423 35.8699 2.1533 35.7757 2.20002 35.69L2.58002 35C2.68014 34.8352 2.8371 34.7127 3.0213 34.6556C3.20551 34.5985 3.40422 34.6107 3.58002 34.69L7.39002 36.69C7.49966 36.7413 7.61896 36.7686 7.73999 36.77L15.41 36.63C15.5446 36.6307 15.6765 36.5925 15.79 36.52L18.12 35.0901C18.2339 35.021 18.3268 34.922 18.3885 34.8039C18.4502 34.6858 18.4783 34.553 18.47 34.42C18.4665 34.2861 18.4253 34.1558 18.351 34.0443C18.2767 33.9329 18.1723 33.8447 18.05 33.79C16.48 33.05 14.17 31.5701 13.95 30.5901C13.9341 30.5281 13.9349 30.463 13.9525 30.4015C13.9701 30.3399 14.0037 30.2842 14.05 30.24C14.48 29.71 18.64 30.61 25.41 34.24C25.5173 34.2989 25.6376 34.3298 25.76 34.33H33.37C33.5663 34.33 33.7545 34.2521 33.8933 34.1133C34.032 33.9745 34.11 33.7863 34.11 33.5901C34.11 33.3938 34.032 33.2055 33.8933 33.0667C33.7545 32.928 33.5663 32.85 33.37 32.85H25.94C22.47 30.99 14.65 27.14 12.94 29.27C12.752 29.4923 12.6188 29.7555 12.551 30.0386C12.4833 30.3217 12.4829 30.6168 12.55 30.9C12.87 32.35 14.89 33.71 16.27 34.49L15.27 35.14L7.97998 35.26L4.34003 33.38C3.81684 33.1226 3.21512 33.0745 2.65766 33.2454C2.10019 33.4164 1.62897 33.7935 1.34003 34.3L0.969974 34.99C0.827708 35.2456 0.738368 35.5272 0.707218 35.8181C0.676067 36.1089 0.703788 36.4031 0.7887 36.6831C0.873611 36.963 1.01399 37.2229 1.20148 37.4475C1.38897 37.672 1.61972 37.8565 1.88001 37.99L7.07001 40.72C7.14783 40.7615 7.23253 40.7887 7.32001 40.8L15.81 41.9C16.3 42.15 17.7 42.66 21 42.66C25.2395 42.5576 29.4606 42.0656 33.61 41.19C33.7914 41.1449 33.9482 41.0309 34.0471 40.8723C34.146 40.7136 34.1793 40.5228 34.14 40.3401Z" fill="white"/>
<path d="M39.34 30.1H33.4199C33.2227 30.1 33.0335 30.1776 32.8931 30.3161C32.7528 30.4546 32.6726 30.6429 32.6699 30.84V43.44C32.6726 43.6372 32.7528 43.8254 32.8931 43.9639C33.0335 44.1024 33.2227 44.18 33.4199 44.18H39.34C39.5372 44.18 39.7264 44.1024 39.8668 43.9639C40.0071 43.8254 40.0873 43.6372 40.09 43.44V30.84C40.0873 30.6429 40.0071 30.4546 39.8668 30.3161C39.7264 30.1776 39.5372 30.1 39.34 30.1ZM38.5999 42.7H34.1599V31.58H38.5999V42.7Z" fill="white"/>
</svg>
