<?xml version="1.0" encoding="utf-8"?>
<!-- Generator: Adobe Illustrator 24.2.3, SVG Export Plug-In . SVG Version: 6.00 Build 0)  -->
<svg version="1.1" id="Capa_1" xmlns="http://www.w3.org/2000/svg" xmlns:xlink="http://www.w3.org/1999/xlink" x="0px" y="0px"
	 viewBox="0 0 142.6 56.39" style="enable-background:new 0 0 142.6 56.39;" xml:space="preserve">
<style type="text/css">
	.st0{fill:#9ABA4F;}
	.st1{fill:#386195;}
</style>
<g>
	<path class="st0" d="M16.69,15.26v3.95h-0.99v-1.85h-1.78v1.85h-0.99v-4.34c0.16-0.09,0.31-0.13,0.46-0.13
		c0.32,0,0.53,0.21,0.53,0.52v1.34h1.78v-1.73c0.16-0.09,0.31-0.13,0.46-0.13C16.48,14.74,16.69,14.96,16.69,15.26"/>
	<path class="st0" d="M17.69,17.01c0-1.43,0.8-2.27,2.16-2.27c1.35,0,2.16,0.84,2.16,2.27c0,1.43-0.8,2.27-2.16,2.27
		C18.49,19.27,17.69,18.43,17.69,17.01 M20.97,17.01c0-0.93-0.42-1.48-1.13-1.48s-1.13,0.55-1.13,1.48c0,0.93,0.42,1.48,1.13,1.48
		S20.97,17.94,20.97,17.01"/>
	<path class="st0" d="M25.8,15.17l-0.42,0.67c-0.26-0.18-0.62-0.32-0.99-0.32c-0.34,0-0.54,0.15-0.54,0.38
		c0,0.31,0.35,0.44,0.78,0.59c0.58,0.21,1.27,0.47,1.27,1.35c0,0.91-0.62,1.43-1.68,1.43c-0.58,0-1.12-0.17-1.51-0.46l0.31-0.7
		c0.3,0.23,0.74,0.37,1.25,0.37c0.4,0,0.63-0.17,0.63-0.44c0-0.35-0.36-0.48-0.77-0.62c-0.58-0.2-1.29-0.45-1.29-1.38
		c0-0.85,0.57-1.3,1.52-1.3C24.87,14.74,25.38,14.88,25.8,15.17"/>
	<path class="st0" d="M30.24,16.15c0,0.91-0.67,1.44-1.81,1.44c-0.16,0-0.34-0.01-0.53-0.01v1.64h-0.99V14.8
		c0.43-0.04,1.18-0.06,1.52-0.06C29.57,14.74,30.24,15.26,30.24,16.15 M29.21,16.15c0-0.4-0.29-0.65-0.78-0.65
		c-0.15,0-0.33,0.01-0.53,0.01v1.31c0.18,0,0.36,0.01,0.53,0.01C28.94,16.83,29.21,16.57,29.21,16.15"/>
	<path class="st0" d="M31.14,19.21v-4.34c0.16-0.09,0.31-0.13,0.46-0.13c0.33,0,0.53,0.21,0.53,0.52v3.95H31.14z"/>
	<polygon class="st0" points="36.23,15.56 35.11,15.56 35.11,19.21 34.12,19.21 34.12,15.56 33.01,15.56 33.01,14.8 36.23,14.8 	"/>
	<path class="st0" d="M39.12,18.28h-1.61l-0.31,0.94h-0.95l1.59-4.34c0.17-0.09,0.35-0.13,0.52-0.13c0.32,0,0.56,0.17,0.69,0.54
		l1.43,3.93h-1.05L39.12,18.28z M38.87,17.52l-0.55-1.78l-0.56,1.78H38.87z"/>
	<path class="st0" d="M43.95,18.42v0.79h-2.72v-4.34c0.16-0.09,0.31-0.13,0.46-0.13c0.32,0,0.53,0.21,0.53,0.52v3.16H43.95z"/>
	<path class="st0" d="M49.61,16.15c0,0.91-0.67,1.44-1.81,1.44c-0.16,0-0.34-0.01-0.53-0.01v1.64h-0.99V14.8
		c0.43-0.04,1.18-0.06,1.52-0.06C48.93,14.74,49.61,15.26,49.61,16.15 M48.58,16.15c0-0.4-0.29-0.65-0.78-0.65
		c-0.15,0-0.33,0.01-0.53,0.01v1.31c0.18,0,0.36,0.01,0.53,0.01C48.3,16.83,48.58,16.57,48.58,16.15"/>
	<path class="st0" d="M53.31,15.17l-0.42,0.67c-0.26-0.18-0.62-0.32-0.99-0.32c-0.34,0-0.54,0.15-0.54,0.38
		c0,0.31,0.35,0.44,0.78,0.59c0.58,0.21,1.27,0.47,1.27,1.35c0,0.91-0.62,1.43-1.68,1.43c-0.58,0-1.12-0.17-1.51-0.46l0.31-0.7
		c0.3,0.23,0.74,0.37,1.25,0.37c0.4,0,0.63-0.17,0.63-0.44c0-0.35-0.36-0.48-0.77-0.62c-0.58-0.2-1.29-0.45-1.29-1.38
		c0-0.85,0.57-1.3,1.52-1.3C52.37,14.74,52.89,14.88,53.31,15.17"/>
	<path class="st0" d="M54.42,19.21v-4.34c0.16-0.09,0.31-0.13,0.46-0.13c0.33,0,0.53,0.21,0.53,0.52v3.95H54.42z"/>
	<path class="st0" d="M60.14,19.87l-0.43,0.66c-0.7-0.07-1.24-0.43-1.49-1.01l-0.12-0.29c-1.07-0.18-1.69-0.98-1.69-2.23
		c0-1.43,0.8-2.27,2.16-2.27c1.35,0,2.16,0.84,2.16,2.27c0,1.21-0.58,2-1.59,2.21l0.03,0.08C59.31,19.67,59.7,19.85,60.14,19.87
		 M58.57,18.49c0.71,0,1.13-0.55,1.13-1.48s-0.42-1.48-1.13-1.48c-0.71,0-1.13,0.55-1.13,1.48S57.86,18.49,58.57,18.49"/>
	<path class="st0" d="M64.39,14.87c0.15-0.09,0.29-0.13,0.45-0.13c0.31,0,0.5,0.22,0.5,0.52v2.31c0,1.07-0.68,1.7-1.83,1.7
		c-1.14,0-1.81-0.62-1.81-1.7v-2.71c0.16-0.09,0.31-0.13,0.46-0.13c0.33,0,0.53,0.22,0.53,0.52v2.24c0,0.62,0.31,0.99,0.82,0.99
		c0.56,0,0.88-0.36,0.88-0.99V14.87z"/>
	<path class="st0" d="M66.51,19.21v-4.34c0.16-0.09,0.31-0.13,0.46-0.13c0.33,0,0.53,0.21,0.53,0.52v3.95H66.51z"/>
	<path class="st0" d="M71.11,18.28h-1.61l-0.31,0.94h-0.95l1.59-4.34c0.17-0.09,0.35-0.13,0.52-0.13c0.32,0,0.56,0.17,0.69,0.54
		l1.43,3.93h-1.05L71.11,18.28z M70,14.39l-0.26-0.45l1.15-0.9l0.46,0.76L70,14.39z M70.85,17.52L70.3,15.8l-0.56,1.71H70.85z"/>
	<polygon class="st0" points="75.72,15.56 74.6,15.56 74.6,19.21 73.61,19.21 73.61,15.56 72.5,15.56 72.5,14.8 75.72,14.8 	"/>
	<path class="st0" d="M80.1,19.15c-0.2,0.09-0.38,0.13-0.57,0.13c-0.33,0-0.5-0.21-0.53-0.54l-0.06-0.51
		c-0.05-0.45-0.28-0.72-0.72-0.72H77.6v1.7H76.6V14.8c0.42-0.04,1.16-0.06,1.46-0.06c1.17,0,1.87,0.48,1.87,1.31
		c0,0.48-0.24,0.85-0.69,1.07c0.4,0.21,0.62,0.59,0.68,1.07l0.05,0.5C80,18.86,80.05,19.02,80.1,19.15 M77.6,15.51v1.23h0.47
		c0.57,0,0.85-0.23,0.85-0.62c0-0.38-0.28-0.62-0.84-0.62C77.93,15.5,77.77,15.51,77.6,15.51"/>
	<path class="st0" d="M81.05,19.21v-4.34c0.16-0.09,0.31-0.13,0.46-0.13c0.33,0,0.53,0.21,0.53,0.52v3.95H81.05z"/>
	<path class="st0" d="M85.07,19.27c-1.29,0-2.03-0.9-2.03-2.27s0.71-2.27,1.93-2.27c0.58,0,1.17,0.18,1.57,0.88l-0.91,0.36
		c-0.15-0.29-0.36-0.46-0.65-0.46c-0.52,0-0.91,0.47-0.91,1.48c0,1.01,0.47,1.48,1.11,1.48c0.37,0,0.77-0.14,1.1-0.4l0.39,0.68
		C86.3,19.08,85.7,19.27,85.07,19.27"/>
	<path class="st0" d="M87.23,17.01c0-1.43,0.8-2.27,2.16-2.27c1.35,0,2.16,0.84,2.16,2.27c0,1.43-0.8,2.27-2.16,2.27
		C88.03,19.27,87.23,18.43,87.23,17.01 M90.51,17.01c0-0.93-0.42-1.48-1.13-1.48s-1.13,0.55-1.13,1.48c0,0.93,0.42,1.48,1.13,1.48
		S90.51,17.94,90.51,17.01"/>
	<path class="st1" d="M24.81,46.16c0.06-0.04,0.12-0.05,0.19-0.05c0.15,0,0.25,0.11,0.25,0.31v2.22c0,0.93-0.53,1.48-1.43,1.48
		c-0.89,0-1.42-0.55-1.42-1.48v-2.48c0.07-0.04,0.13-0.05,0.2-0.05c0.15,0,0.26,0.11,0.26,0.31v2.19c0,0.71,0.35,1.12,0.96,1.12
		c0.62,0,0.99-0.41,0.99-1.12V46.16z"/>
	<path class="st1" d="M29.44,46.16v3.91h-0.36l-2.17-3.08l0.02,3.08h-0.44v-3.91c0.04-0.03,0.11-0.05,0.18-0.05
		c0.12,0,0.21,0.07,0.31,0.21l2.04,2.92l-0.02-3.08H29.44z"/>
	<path class="st1" d="M35.24,46.16v3.91h-0.36l-2.17-3.08l0.02,3.08h-0.45v-3.91c0.04-0.03,0.11-0.05,0.18-0.05
		c0.12,0,0.21,0.07,0.31,0.21l2.05,2.92l-0.02-3.08H35.24z"/>
	<path class="st1" d="M38.88,46.16c0.06-0.04,0.12-0.05,0.19-0.05c0.15,0,0.25,0.11,0.25,0.31v2.22c0,0.93-0.53,1.48-1.43,1.48
		c-0.89,0-1.42-0.55-1.42-1.48v-2.48c0.07-0.04,0.13-0.05,0.2-0.05c0.15,0,0.26,0.11,0.26,0.31v2.19c0,0.71,0.35,1.12,0.96,1.12
		c0.62,0,0.99-0.41,0.99-1.12V46.16z"/>
	<polygon class="st1" points="42.77,49.7 42.77,50.07 40.55,50.07 40.55,46.16 42.71,46.16 42.71,46.54 41.01,46.54 41.01,47.86 
		42.52,47.86 42.52,48.24 41.01,48.24 41.01,49.7 	"/>
	<path class="st1" d="M46.69,46.19l-1.38,3.88H44.8l-1.38-3.88c0.05-0.05,0.15-0.08,0.24-0.08c0.13,0,0.24,0.04,0.32,0.24l0.93,2.74
		l0.18,0.56l0.17-0.57l0.99-2.97L46.69,46.19z"/>
	<path class="st1" d="M47.29,48.12c0-1.26,0.65-2.01,1.74-2.01s1.74,0.74,1.74,2.01c0,1.26-0.65,2.01-1.74,2.01
		S47.29,49.38,47.29,48.12 M50.29,48.12c0-1.02-0.47-1.62-1.26-1.62c-0.8,0-1.26,0.6-1.26,1.62c0,1.02,0.47,1.62,1.26,1.62
		C49.82,49.73,50.29,49.14,50.29,48.12"/>
	<path class="st1" d="M54.82,50.12c-1.01,0-1.62-0.7-1.62-2.01c0-1.31,0.6-2.01,1.6-2.01c0.45,0,0.87,0.15,1.17,0.62l-0.42,0.18
		c-0.17-0.27-0.43-0.41-0.75-0.41c-0.73,0-1.12,0.66-1.12,1.62c0,0.96,0.41,1.62,1.18,1.62c0.41,0,0.78-0.11,1.03-0.32l0.2,0.34
		C55.77,49.99,55.32,50.12,54.82,50.12"/>
	<path class="st1" d="M56.72,48.12c0-1.26,0.65-2.01,1.74-2.01s1.74,0.74,1.74,2.01c0,1.26-0.65,2.01-1.74,2.01
		S56.72,49.38,56.72,48.12 M59.72,48.12c0-1.02-0.47-1.62-1.26-1.62c-0.8,0-1.26,0.6-1.26,1.62c0,1.02,0.47,1.62,1.26,1.62
		C59.24,49.73,59.72,49.14,59.72,48.12"/>
	<path class="st1" d="M64.84,50.07l-0.34-3.22l-1.11,3.22h-0.46l-1.13-3.22l-0.32,3.22h-0.43l0.43-3.9
		c0.07-0.03,0.16-0.05,0.23-0.05c0.17,0,0.31,0.08,0.37,0.24l1.12,3.25l1.15-3.43c0.07-0.04,0.14-0.06,0.22-0.06
		c0.18,0,0.27,0.09,0.3,0.29l0.43,3.67H64.84z"/>
	<path class="st1" d="M66.37,50.07v-3.9c0.06-0.04,0.13-0.05,0.2-0.05c0.15,0,0.26,0.11,0.26,0.32v3.64H66.37z"/>
	<polygon class="st1" points="70.31,49.7 70.31,50.07 68.09,50.07 68.09,46.16 70.25,46.16 70.25,46.54 68.55,46.54 68.55,47.86 
		70.06,47.86 70.06,48.24 68.55,48.24 68.55,49.7 	"/>
	<path class="st1" d="M74.31,46.16v3.91h-0.36l-2.17-3.08l0.02,3.08h-0.45v-3.91c0.04-0.03,0.11-0.05,0.18-0.05
		c0.12,0,0.21,0.07,0.31,0.21l2.04,2.92l-0.02-3.08H74.31z"/>
	<path class="st1" d="M75.78,49.7h2.1v0.37h-2.65v-0.3l1.8-2.85l0.25-0.38h-1.92v-0.38h2.47c0.04,0.05,0.05,0.11,0.05,0.16
		c0,0.08-0.05,0.17-0.14,0.32l-1.67,2.63L75.78,49.7z"/>
	<path class="st1" d="M78.58,48.12c0-1.26,0.65-2.01,1.74-2.01c1.09,0,1.73,0.74,1.73,2.01c0,1.26-0.65,2.01-1.73,2.01
		C79.23,50.12,78.58,49.38,78.58,48.12 M81.58,48.12c0-1.02-0.47-1.62-1.26-1.62c-0.8,0-1.26,0.6-1.26,1.62
		c0,1.02,0.47,1.62,1.26,1.62C81.11,49.73,81.58,49.14,81.58,48.12"/>
	<path class="st1" d="M15.43,24.93c-0.12-0.26-0.3-0.48-0.52-0.66c-0.27-0.66-0.72-1.15-1.36-1.49c-0.64-0.34-1.38-0.51-2.25-0.51
		c-1.09,0-2.13,0.25-3.12,0.75s-1.87,1.16-2.62,1.97c-0.75,0.81-1.32,1.71-1.71,2.7c-0.39,0.99-0.52,1.98-0.4,2.97
		c0.12,0.86,0.4,1.56,0.82,2.09c0.42,0.53,0.92,0.98,1.51,1.34c0.59,0.36,1.22,0.69,1.89,0.98c0.68,0.3,1.32,0.64,1.94,1.03
		c0.8,0.53,1.2,1.17,1.2,1.91c0,0.57-0.18,1.07-0.54,1.49c-0.36,0.42-0.8,0.77-1.32,1.06c-0.52,0.29-1.08,0.5-1.66,0.65
		c-0.59,0.14-1.1,0.21-1.55,0.21c-0.23,0-0.47-0.03-0.72-0.08c-0.26-0.05-0.49-0.13-0.71-0.23c-0.22-0.1-0.4-0.24-0.54-0.43
		c-0.14-0.18-0.22-0.42-0.22-0.7c0-0.33,0.09-0.64,0.26-0.95c0.17-0.3,0.4-0.58,0.66-0.82c0.27-0.24,0.56-0.44,0.89-0.6
		c0.33-0.15,0.65-0.23,0.95-0.23c0.12,0,0.18-0.05,0.18-0.15c0-0.1-0.01-0.21-0.03-0.31c-0.06-0.19-0.17-0.38-0.32-0.59
		c-0.15-0.21-0.33-0.4-0.54-0.57c-0.21-0.18-0.43-0.32-0.66-0.43c-0.24-0.11-0.46-0.17-0.66-0.17c-0.16,0-0.34,0.05-0.52,0.14
		c-0.18,0.09-0.36,0.21-0.52,0.35s-0.31,0.29-0.45,0.43c-0.13,0.14-0.24,0.28-0.32,0.4c-0.43,0.57-0.73,1.22-0.89,1.94
		c-0.17,0.74-0.14,1.41,0.06,2c0.2,0.6,0.53,1.09,0.97,1.49c0.44,0.4,0.97,0.71,1.58,0.92c0.61,0.22,1.26,0.32,1.94,0.32
		c0.82,0,1.65-0.11,2.49-0.32c0.84-0.21,1.62-0.55,2.34-1c0.72-0.45,1.34-1,1.88-1.66c0.53-0.66,0.89-1.41,1.08-2.28
		c0.18-0.92,0.05-1.71-0.42-2.37c-0.46-0.66-1.08-1.18-1.86-1.57c-0.45-0.23-0.96-0.44-1.54-0.63c-0.58-0.19-1.12-0.43-1.63-0.71
		S7.53,32,7.18,31.6c-0.35-0.4-0.52-0.93-0.52-1.58c0-0.68,0.18-1.37,0.54-2.08c0.36-0.71,0.82-1.35,1.37-1.94
		c0.55-0.59,1.16-1.06,1.82-1.43c0.66-0.37,1.27-0.55,1.85-0.55c0.45,0,0.76,0.15,0.94,0.45c0.17,0.3,0.26,0.62,0.26,0.97
		c0,0.47-0.17,0.93-0.49,1.37c-0.33,0.44-0.68,0.89-1.06,1.34c-0.38,0.45-0.73,0.92-1.06,1.42c-0.33,0.49-0.49,1.02-0.49,1.57
		c0,0.23,0.07,0.45,0.22,0.66c0.14,0.21,0.32,0.41,0.52,0.57c0.2,0.16,0.43,0.29,0.66,0.38c0.24,0.09,0.45,0.14,0.63,0.14
		c0.1,0,0.15-0.07,0.15-0.21c0-0.55,0.16-1.13,0.49-1.72c0.33-0.6,0.68-1.19,1.06-1.79c0.38-0.6,0.73-1.19,1.06-1.79
		s0.49-1.17,0.49-1.72C15.62,25.42,15.56,25.18,15.43,24.93"/>
	<path class="st1" d="M38.55,32.61c-0.1-0.04-0.21-0.04-0.31,0s-0.18,0.12-0.25,0.25c-0.2,0.53-0.45,1.14-0.72,1.82
		c-0.28,0.68-0.58,1.37-0.92,2.06c-0.34,0.7-0.71,1.37-1.12,2.02c-0.41,0.65-0.85,1.21-1.32,1.68c-0.16,0.17-0.29,0.23-0.37,0.19
		c-0.08-0.04-0.1-0.17-0.06-0.4c0.08-0.53,0.2-1.13,0.35-1.8c0.15-0.67,0.32-1.36,0.51-2.08c0.18-0.72,0.39-1.44,0.6-2.17
		c0.22-0.73,0.45-1.42,0.69-2.08c0.06-0.14,0.12-0.28,0.17-0.4s0.11-0.25,0.17-0.37c0.06-0.12,0.09-0.24,0.09-0.34
		c0-0.14-0.09-0.28-0.26-0.42c-0.17-0.13-0.38-0.26-0.62-0.37c-0.24-0.11-0.47-0.2-0.69-0.26c-0.23-0.06-0.39-0.09-0.49-0.09
		c-0.25,0-0.44,0.07-0.58,0.21c-0.37,0.31-0.74,0.71-1.12,1.2c-0.38,0.49-0.75,1.04-1.12,1.63c-0.37,0.6-0.72,1.21-1.06,1.85
		c-0.34,0.64-0.64,1.25-0.91,1.85c0.21-0.84,0.43-1.68,0.69-2.52c0.26-0.84,0.53-1.63,0.82-2.37c0.06-0.16,0.14-0.33,0.25-0.51
		c0.1-0.17,0.07-0.32-0.09-0.45c-0.1-0.08-0.23-0.17-0.39-0.28c-0.15-0.1-0.33-0.2-0.52-0.29c-0.2-0.09-0.39-0.17-0.58-0.23
		c-0.2-0.06-0.36-0.09-0.51-0.09c-0.18,0-0.33,0.13-0.43,0.4c-0.33,0.74-0.63,1.54-0.91,2.42c-0.02,0.05-0.03,0.11-0.05,0.16
		c-0.01,0.01-0.02,0.03-0.03,0.04c-0.21,0.53-0.44,1.14-0.69,1.82c-0.26,0.68-0.55,1.37-0.88,2.06c-0.33,0.7-0.69,1.37-1.09,2.02
		c-0.4,0.65-0.84,1.21-1.31,1.68c-0.12,0.12-0.24,0.17-0.34,0.15s-0.13-0.14-0.09-0.37c0.1-0.55,0.23-1.18,0.37-1.89
		c0.14-0.71,0.31-1.44,0.49-2.2c0.18-0.76,0.39-1.52,0.61-2.28c0.23-0.76,0.46-1.48,0.71-2.16c0.06-0.16,0.14-0.33,0.25-0.51
		c0.1-0.17,0.07-0.32-0.09-0.45c-0.1-0.08-0.23-0.17-0.39-0.28c-0.15-0.1-0.32-0.2-0.51-0.29c-0.18-0.09-0.38-0.17-0.57-0.23
		c-0.2-0.06-0.36-0.09-0.51-0.09c-0.18,0-0.34,0.13-0.46,0.4c-0.02,0.06-0.04,0.13-0.06,0.22c-0.02,0.08-0.05,0.14-0.09,0.18
		c-0.29-0.14-0.57-0.29-0.83-0.43c-0.27-0.14-0.53-0.26-0.8-0.35c-0.27-0.09-0.53-0.14-0.79-0.15c-0.26-0.01-0.51,0.06-0.75,0.2
		c-0.76,0.41-1.43,1.02-2.02,1.83c-0.58,0.81-1.07,1.7-1.46,2.68c-0.39,0.97-0.66,1.98-0.82,3c-0.15,1.03-0.18,1.96-0.08,2.8
		c0.06,0.55,0.26,1.01,0.6,1.37c0.34,0.36,0.82,0.54,1.43,0.54c0.7,0,1.33-0.34,1.91-1.03c0.57-0.69,1.09-1.5,1.54-2.45
		c0,0.1-0.01,0.17-0.03,0.21c-0.04,0.21-0.07,0.4-0.08,0.58c-0.01,0.19-0.04,0.38-0.08,0.59c-0.02,0.25,0.01,0.49,0.08,0.74
		c0.07,0.25,0.18,0.47,0.34,0.68c0.15,0.21,0.34,0.37,0.55,0.49s0.46,0.18,0.72,0.18c0.43,0,0.86-0.17,1.29-0.52
		c0.43-0.35,0.85-0.79,1.25-1.34c0.4-0.54,0.78-1.15,1.14-1.83c0.11-0.2,0.21-0.4,0.31-0.6c-0.02,0.08-0.04,0.17-0.05,0.25
		c-0.16,0.91-0.28,1.77-0.34,2.57c0,0.16,0.07,0.33,0.2,0.51c0.13,0.18,0.3,0.33,0.49,0.48c0.2,0.14,0.4,0.26,0.63,0.35
		c0.23,0.09,0.43,0.14,0.62,0.14c0.1,0,0.19-0.02,0.26-0.05c0.07-0.03,0.11-0.13,0.11-0.29c0.02-0.35,0.11-0.79,0.26-1.32
		c0.15-0.53,0.35-1.11,0.6-1.74c0.25-0.63,0.52-1.28,0.83-1.96c0.31-0.68,0.64-1.33,0.98-1.97s0.7-1.23,1.06-1.77
		c0.36-0.54,0.71-1,1.06-1.37c-0.23,0.66-0.45,1.36-0.66,2.11c-0.22,0.75-0.42,1.51-0.6,2.29c-0.18,0.78-0.34,1.55-0.48,2.31
		c-0.13,0.76-0.24,1.47-0.32,2.12c-0.04,0.41,0.11,0.79,0.46,1.12c0.35,0.34,0.79,0.51,1.32,0.51c0.43,0,0.87-0.17,1.31-0.52
		c0.44-0.35,0.87-0.79,1.28-1.34c0.41-0.54,0.8-1.15,1.17-1.83c0.37-0.68,0.71-1.35,1.02-2.02c0.31-0.67,0.57-1.29,0.8-1.86
		s0.41-1.04,0.55-1.38c0.04-0.12,0.04-0.24-0.02-0.34C38.73,32.72,38.65,32.65,38.55,32.61 M22.28,31.91
		c-0.05,0.13-0.1,0.27-0.14,0.42c-0.08,0.25-0.2,0.62-0.35,1.11c-0.15,0.49-0.34,1.04-0.55,1.65c-0.21,0.6-0.45,1.23-0.69,1.88
		c-0.25,0.65-0.51,1.23-0.78,1.76c-0.28,0.52-0.55,0.95-0.82,1.29c-0.27,0.34-0.52,0.51-0.77,0.51c-0.12,0-0.21-0.06-0.28-0.18
		c-0.06-0.12-0.1-0.26-0.12-0.42c-0.02-0.15-0.03-0.31-0.02-0.48c0.01-0.16,0.02-0.29,0.02-0.37c0.04-0.66,0.17-1.44,0.39-2.35
		c0.22-0.91,0.5-1.79,0.85-2.62c0.35-0.83,0.75-1.53,1.21-2.11c0.46-0.57,0.96-0.86,1.49-0.86c0.33,0,0.57,0.13,0.74,0.4
		C22.39,31.65,22.33,31.78,22.28,31.91"/>
	<path class="st1" d="M54.26,29.1c0.38-0.59,0.74-1.19,1.07-1.78c0.33-0.6,0.49-1.17,0.49-1.73c0-0.22-0.07-0.47-0.2-0.72
		c-0.13-0.26-0.31-0.48-0.54-0.66c-0.25-0.66-0.69-1.17-1.34-1.51c-0.65-0.35-1.4-0.52-2.26-0.52c-1.15,0-2.23,0.29-3.25,0.86
		c-1.02,0.58-1.93,1.33-2.76,2.27c-0.82,0.93-1.52,2-2.09,3.21c-0.58,1.2-1.01,2.43-1.31,3.67c-0.3,1.24-0.43,2.47-0.38,3.67
		c0.04,1.2,0.27,2.27,0.68,3.21c0.41,0.93,1.03,1.69,1.86,2.27c0.83,0.58,1.9,0.86,3.22,0.86c0.64,0,1.25-0.13,1.85-0.38
		c0.6-0.25,1.01-0.7,1.23-1.35c0.08-0.23,0.09-0.38,0.03-0.46c-0.06-0.14-0.14-0.17-0.25-0.09c-0.33,0.23-0.71,0.4-1.15,0.51
		c-0.44,0.11-0.86,0.17-1.25,0.17c-1.11,0-1.91-0.41-2.4-1.23c-0.49-0.82-0.73-1.85-0.72-3.08c0.01-1.23,0.23-2.57,0.65-4.01
		c0.42-1.44,0.98-2.77,1.69-4.01c0.71-1.23,1.52-2.26,2.43-3.08c0.91-0.82,1.87-1.23,2.88-1.23c0.45,0,0.76,0.15,0.94,0.46
		c0.17,0.31,0.26,0.64,0.26,0.99c0,0.47-0.16,0.93-0.49,1.37c-0.33,0.44-0.68,0.89-1.06,1.34c-0.38,0.45-0.73,0.92-1.06,1.4
		c-0.33,0.48-0.49,1-0.49,1.56c0,0.25,0.07,0.48,0.22,0.69c0.15,0.21,0.32,0.41,0.52,0.57s0.42,0.29,0.66,0.39
		c0.24,0.09,0.45,0.14,0.64,0.14c0.1,0,0.15-0.07,0.15-0.22c0-0.55,0.16-1.13,0.49-1.72S53.88,29.69,54.26,29.1"/>
	<path class="st1" d="M83.98,28.97c0.18,0,0.41-0.14,0.69-0.42c0.28-0.28,0.56-0.6,0.85-0.97c0.29-0.37,0.56-0.75,0.82-1.14
		c0.26-0.39,0.46-0.7,0.6-0.92c0.35-0.55,0.31-0.97-0.12-1.26c-0.29-0.21-0.62-0.39-1-0.55c-0.38-0.16-0.65-0.26-0.82-0.28
		c-0.2,0-0.45,0.29-0.74,0.86c-0.1,0.18-0.26,0.53-0.46,1.05c-0.21,0.51-0.37,1.04-0.49,1.59c-0.12,0.54-0.15,1.03-0.08,1.45
		C83.3,28.79,83.55,28.99,83.98,28.97"/>
	<path class="st1" d="M103.05,32.82c-0.05-0.1-0.13-0.17-0.23-0.22c-0.1-0.04-0.21-0.05-0.31-0.01c-0.1,0.03-0.18,0.11-0.25,0.23
		c-0.35,0.86-0.8,1.67-1.34,2.42c-0.54,0.75-1.15,1.42-1.83,2.02c0.29-0.7,0.51-1.42,0.66-2.15c0.15-0.74,0.23-1.46,0.23-2.15
		c0-0.35-0.09-0.69-0.28-1.02c-0.18-0.33-0.44-0.62-0.75-0.86s-0.69-0.45-1.12-0.6c-0.43-0.15-0.88-0.23-1.35-0.23
		c-0.31-0.22-0.66-0.38-1.06-0.46c-0.4-0.08-0.77-0.04-1.12,0.12c-0.66,0.35-1.24,0.84-1.76,1.46c-0.51,0.63-0.94,1.33-1.29,2.11
		s-0.62,1.59-0.82,2.43c-0.01,0.05-0.02,0.1-0.03,0.14c-0.09,0.19-0.17,0.38-0.26,0.57c-0.33,0.68-0.69,1.34-1.08,1.99
		c-0.39,0.65-0.81,1.21-1.26,1.68c-0.23,0.23-0.38,0.31-0.46,0.26c-0.08-0.05-0.1-0.25-0.06-0.6c0.14-1.09,0.36-2.39,0.66-3.89
		c0.3-1.51,0.64-3.03,1.02-4.55c0.38-1.53,0.78-2.95,1.2-4.26c0.42-1.31,0.83-2.32,1.22-3.02c0.06-0.1,0.12-0.19,0.18-0.26
		c0.06-0.07,0.13-0.16,0.22-0.26c0.04-0.04,0.06-0.09,0.06-0.15c0-0.12-0.11-0.26-0.34-0.4c-0.23-0.14-0.49-0.28-0.79-0.4
		s-0.59-0.23-0.89-0.32c-0.3-0.09-0.52-0.14-0.66-0.14c-0.21,0-0.44,0.28-0.71,0.83c-0.27,0.55-0.55,1.29-0.85,2.22
		c-0.3,0.92-0.59,1.98-0.89,3.16c-0.3,1.18-0.57,2.39-0.82,3.63c-0.22,1.1-0.41,2.18-0.59,3.26c-0.2,0.45-0.4,0.91-0.63,1.37
		c-0.34,0.7-0.71,1.37-1.12,2.02c-0.41,0.65-0.85,1.21-1.32,1.68c-0.12,0.12-0.24,0.18-0.34,0.15c-0.1-0.02-0.13-0.14-0.09-0.37
		c0.1-0.55,0.23-1.18,0.39-1.89c0.15-0.71,0.33-1.44,0.54-2.2c0.2-0.76,0.42-1.52,0.66-2.28c0.24-0.76,0.49-1.48,0.75-2.15
		c0.04-0.16,0.11-0.33,0.22-0.51c0.1-0.17,0.07-0.32-0.09-0.45c-0.1-0.08-0.23-0.18-0.39-0.28c-0.15-0.1-0.32-0.2-0.51-0.29
		c-0.18-0.09-0.38-0.17-0.57-0.23c-0.2-0.06-0.36-0.09-0.51-0.09c-0.18,0-0.34,0.13-0.46,0.4c-0.34,0.79-0.66,1.65-0.95,2.57
		c-0.01,0.02-0.02,0.03-0.03,0.05c-0.21,0.53-0.45,1.14-0.72,1.82c-0.28,0.68-0.58,1.36-0.92,2.06c-0.34,0.7-0.71,1.37-1.12,2.02
		c-0.41,0.65-0.84,1.21-1.29,1.68c-0.16,0.16-0.29,0.23-0.39,0.18c-0.09-0.04-0.12-0.17-0.08-0.4c0.08-0.53,0.2-1.13,0.35-1.8
		c0.15-0.67,0.32-1.36,0.51-2.08c0.18-0.72,0.39-1.44,0.61-2.17c0.23-0.73,0.46-1.42,0.71-2.08c0.04-0.14,0.09-0.28,0.14-0.4
		c0.05-0.12,0.12-0.25,0.2-0.37c0.02-0.06,0.04-0.12,0.06-0.17c0.02-0.05,0.03-0.11,0.03-0.17c0-0.14-0.09-0.28-0.26-0.42
		c-0.17-0.13-0.38-0.26-0.61-0.37c-0.24-0.11-0.47-0.2-0.69-0.26c-0.23-0.06-0.4-0.09-0.52-0.09c-0.23,0-0.42,0.07-0.59,0.21
		c-0.37,0.31-0.74,0.71-1.12,1.2c-0.38,0.49-0.75,1.04-1.12,1.63s-0.72,1.21-1.06,1.85s-0.64,1.25-0.91,1.85
		c0.23-0.88,0.47-1.76,0.74-2.65c0.27-0.88,0.57-1.75,0.92-2.62c0.04-0.12,0.07-0.23,0.09-0.32c0.02-0.09-0.02-0.2-0.12-0.32
		c-0.1-0.12-0.24-0.23-0.42-0.32c-0.18-0.09-0.36-0.18-0.55-0.26c-0.2-0.08-0.39-0.14-0.57-0.18c-0.18-0.04-0.32-0.06-0.4-0.06
		c-0.25,0-0.44,0.07-0.58,0.21c-0.37,0.31-0.74,0.71-1.12,1.2c-0.38,0.49-0.75,1.04-1.12,1.63c-0.37,0.6-0.72,1.21-1.06,1.85
		c-0.34,0.64-0.64,1.25-0.91,1.85c0.21-0.84,0.44-1.68,0.69-2.52c0.26-0.84,0.53-1.63,0.82-2.37c0.06-0.16,0.14-0.33,0.25-0.51
		c0.1-0.17,0.07-0.32-0.09-0.45c-0.21-0.17-0.51-0.36-0.92-0.57c-0.41-0.21-0.77-0.32-1.08-0.32c-0.18,0-0.33,0.13-0.43,0.4
		c-0.33,0.74-0.63,1.54-0.91,2.42c-0.02,0.05-0.03,0.11-0.05,0.16c-0.01,0.01-0.02,0.03-0.03,0.04c-0.21,0.53-0.44,1.14-0.69,1.82
		c-0.26,0.68-0.55,1.36-0.88,2.06c-0.33,0.7-0.69,1.37-1.09,2.02c-0.4,0.65-0.84,1.21-1.31,1.68c-0.12,0.12-0.24,0.18-0.34,0.15
		c-0.1-0.02-0.13-0.14-0.09-0.37c0.1-0.55,0.22-1.18,0.37-1.89c0.14-0.71,0.31-1.44,0.49-2.2c0.18-0.76,0.39-1.52,0.61-2.28
		c0.23-0.76,0.46-1.48,0.71-2.15c0.06-0.16,0.14-0.33,0.25-0.51c0.1-0.17,0.07-0.32-0.09-0.45c-0.1-0.08-0.23-0.18-0.39-0.28
		c-0.15-0.1-0.32-0.2-0.51-0.29c-0.18-0.09-0.37-0.17-0.57-0.23c-0.2-0.06-0.37-0.09-0.51-0.09c-0.18,0-0.34,0.13-0.46,0.4
		c-0.02,0.06-0.04,0.13-0.06,0.22c-0.02,0.08-0.05,0.14-0.09,0.18c-0.29-0.14-0.57-0.29-0.83-0.43c-0.27-0.14-0.53-0.26-0.8-0.35
		c-0.27-0.09-0.53-0.14-0.79-0.15c-0.26-0.01-0.51,0.06-0.75,0.2c-0.76,0.41-1.43,1.02-2.02,1.83c-0.59,0.81-1.07,1.7-1.46,2.68
		c-0.39,0.98-0.66,1.98-0.82,3c-0.15,1.03-0.18,1.96-0.08,2.8c0.06,0.55,0.26,1.01,0.6,1.37c0.34,0.36,0.82,0.54,1.43,0.54
		c0.7,0,1.33-0.34,1.91-1.03c0.57-0.69,1.09-1.5,1.54-2.45c0,0.1-0.01,0.18-0.03,0.22c-0.04,0.21-0.07,0.4-0.08,0.58
		c-0.01,0.18-0.04,0.38-0.08,0.59c-0.02,0.25,0.01,0.49,0.08,0.74s0.18,0.47,0.34,0.68c0.15,0.2,0.34,0.37,0.55,0.49
		c0.21,0.12,0.46,0.18,0.72,0.18c0.43,0,0.86-0.17,1.29-0.52c0.43-0.35,0.85-0.79,1.25-1.34c0.4-0.54,0.78-1.15,1.14-1.83
		c0.11-0.2,0.21-0.4,0.31-0.6c-0.02,0.08-0.03,0.17-0.05,0.25c-0.16,0.91-0.28,1.77-0.34,2.57c0,0.16,0.07,0.33,0.2,0.51
		c0.13,0.17,0.3,0.33,0.49,0.48c0.2,0.14,0.41,0.26,0.63,0.35c0.23,0.09,0.43,0.14,0.62,0.14c0.1,0,0.19-0.01,0.26-0.05
		c0.07-0.03,0.11-0.13,0.11-0.29c0.04-0.51,0.22-1.23,0.54-2.14c0.32-0.91,0.71-1.86,1.17-2.85c0.46-0.99,0.97-1.94,1.52-2.88
		c0.55-0.93,1.09-1.68,1.6-2.23c-0.51,1.4-0.95,2.89-1.31,4.49c-0.36,1.6-0.6,3.09-0.72,4.46c0,0.16,0.07,0.33,0.2,0.51
		c0.13,0.17,0.3,0.33,0.49,0.48c0.19,0.14,0.4,0.26,0.63,0.35c0.22,0.09,0.43,0.14,0.61,0.14c0.1,0,0.19-0.01,0.26-0.05
		c0.07-0.03,0.12-0.13,0.14-0.29c0.02-0.35,0.11-0.79,0.26-1.32c0.15-0.53,0.35-1.11,0.59-1.74c0.24-0.63,0.51-1.28,0.82-1.95
		c0.31-0.68,0.64-1.33,0.98-1.97c0.35-0.64,0.71-1.23,1.08-1.77c0.37-0.54,0.72-1,1.05-1.37c-0.23,0.66-0.45,1.36-0.66,2.11
		c-0.21,0.75-0.41,1.51-0.6,2.29c-0.18,0.78-0.34,1.55-0.48,2.31c-0.13,0.76-0.24,1.47-0.32,2.12c-0.04,0.41,0.11,0.79,0.46,1.12
		c0.35,0.34,0.79,0.51,1.32,0.51c0.43,0,0.87-0.17,1.31-0.52c0.44-0.35,0.87-0.79,1.28-1.34c0.41-0.54,0.8-1.15,1.17-1.83
		c0.13-0.24,0.26-0.49,0.38-0.73c-0.07,0.39-0.14,0.78-0.2,1.16c-0.04,0.21-0.07,0.4-0.08,0.58c-0.01,0.18-0.04,0.38-0.08,0.59
		c-0.02,0.25,0.01,0.49,0.08,0.74c0.07,0.25,0.18,0.47,0.34,0.68c0.15,0.2,0.34,0.37,0.55,0.49c0.22,0.12,0.46,0.18,0.72,0.18
		c0.43,0,0.87-0.17,1.31-0.52c0.44-0.35,0.87-0.79,1.28-1.34c0.41-0.54,0.8-1.15,1.17-1.83c0.05-0.1,0.1-0.2,0.16-0.3
		c-0.04,0.34-0.07,0.67-0.1,0.98c-0.02,0.31-0.03,0.64-0.03,0.99s0.05,0.67,0.14,0.97c0.09,0.3,0.25,0.55,0.48,0.75
		c0.23,0.21,0.55,0.31,0.98,0.31c0.45,0,0.89-0.17,1.32-0.52c0.43-0.35,0.85-0.79,1.26-1.34c0.41-0.54,0.8-1.15,1.17-1.83
		c0,0,0-0.01,0.01-0.01c0.01,0.38,0.09,0.76,0.24,1.17c0.16,0.44,0.4,0.85,0.69,1.23c0.3,0.38,0.67,0.69,1.11,0.94
		c0.44,0.25,0.94,0.37,1.49,0.37c0.92,0,1.77-0.3,2.55-0.91c0.78-0.61,1.46-1.38,2.03-2.32c2.2-1.37,3.8-3.28,4.8-5.72
		C103.1,33.04,103.1,32.92,103.05,32.82 M60.02,31.91c-0.05,0.13-0.1,0.27-0.14,0.42c-0.08,0.25-0.2,0.62-0.35,1.11
		c-0.15,0.49-0.34,1.04-0.55,1.65c-0.21,0.6-0.45,1.23-0.69,1.88c-0.25,0.65-0.51,1.23-0.78,1.76c-0.28,0.52-0.55,0.95-0.82,1.29
		c-0.27,0.34-0.52,0.51-0.77,0.51c-0.12,0-0.21-0.06-0.28-0.18c-0.06-0.12-0.1-0.26-0.12-0.42c-0.02-0.15-0.03-0.31-0.02-0.48
		c0.01-0.16,0.02-0.29,0.02-0.37c0.04-0.66,0.17-1.44,0.38-2.35c0.22-0.91,0.5-1.79,0.85-2.62c0.35-0.83,0.75-1.53,1.21-2.11
		c0.46-0.57,0.96-0.86,1.49-0.86c0.33,0,0.57,0.13,0.74,0.4C60.13,31.65,60.07,31.78,60.02,31.91 M96.97,34.57
		c-0.1,0.6-0.24,1.19-0.42,1.79c-0.17,0.6-0.39,1.17-0.63,1.72c-0.25,0.55-0.5,1.03-0.77,1.42c-0.35,0.1-0.65,0.18-0.89,0.25
		c-0.25,0.06-0.54,0.11-0.89,0.15c-0.08,0-0.18,0.02-0.31,0.06c-0.18-0.41-0.28-0.97-0.28-1.68c0-0.71,0.08-1.45,0.25-2.22
		c0.16-0.77,0.41-1.52,0.74-2.25c0.33-0.73,0.71-1.34,1.14-1.83c0.27-0.31,0.53-0.52,0.8-0.65c0.27-0.12,0.51-0.15,0.72-0.09
		c0.21,0.06,0.38,0.23,0.51,0.51c0.12,0.28,0.18,0.67,0.18,1.19C97.12,33.44,97.07,33.98,96.97,34.57"/>
	<path class="st1" d="M138.54,49.49c-0.56-0.65-1.22-1.02-2.08-0.96c-1.17,0.08-2.31-0.11-3.44-0.44c-0.67-0.2-1.37-0.31-2.07-0.36
		c-1.42-0.11-2.84-0.17-4.26-0.21c-1.84-0.06-3.17-0.92-3.97-2.54c-0.65-1.32-0.39-5.75-0.65-7.13c0-0.32,0.02-0.67,0.07-1.02
		c0.42,0.21,0.68,0.3,0.71,0.32l0.03,0.01c0.53,0.13,1.01,0.19,1.46,0.19c2.4,0,3.58-1.65,3.91-2.22c2.46,0.38,4.38,0,5.71-1.14
		c1.64-1.4,1.83-3.49,1.85-4.03c2.17-1.88,3.27-3.87,3.27-5.93c0-2.58-1.72-4.41-2.24-4.9c0.76-2.31-0.86-3.6-1.35-3.94
		c-0.14-4.57-4.11-5.2-5.04-5.28c-0.77-2.03-1.84-3.35-3.17-3.93c-1.09-0.48-2.05-0.31-2.46-0.19c-0.81-1.23-1.85-1.98-3.07-2.24
		c-1.97-0.42-3.79,0.56-4.28,0.85c-1.93-0.74-3.21,0.67-3.66,1.3c-0.85-0.71-1.76-1.03-2.71-0.97c-1.6,0.11-2.79,1.28-3.11,1.64
		c-3.66,0.1-4.36,2.39-4.49,3.27c-0.63-0.11-1.21-0.01-1.73,0.31c-1.15,0.69-1.62,2.2-1.73,2.6c-2.67,2.11-2.9,4.88-2.91,5
		c-0.13,2.76,0.62,4.99,2.22,6.65c3.01,3.1,7.91,3.05,8.12,3.05h0c0.02,0,0.77-0.02,1.88,0.23c1.07,2.03,4.04,3.41,4.04,3.41
		c1.84,1.88,2.65,4.74,2.65,4.74s0.25,1.46,0.43,3.03c-0.06,0.73-0.07,1.7-0.18,2.32c-0.43,2.58-1.52,4.71-3.98,6.41
		c-0.57,0.4-0.99,0.21-1.69,0.25c-1.08,0.07-2.17,0.03-3.22,0.24c-1.71,0.34-3.39,0.8-5.17,0.72c-0.62-0.03-1.07,0.45-1.49,0.85
		c0.62-0.2,1.21-0.5,1.83-0.56c0.61-0.06,1.25,0.12,1.88,0.19c0.02,0.08,0.04,0.15,0.06,0.23c-0.44,0.36-0.88,0.71-1.32,1.07
		c0.55-0.17,1.11-0.36,1.51-0.72c0.67-0.61,1.43-0.95,2.29-1.04c0.9-0.1,1.81-0.12,2.71-0.15c1.09-0.03,2.19-0.02,3.29-0.06
		c0.54-0.02,1.07-0.1,1.61-0.16c-0.33,0.27-0.69,0.44-1.05,0.63c-1.02,0.52-2.07,0.83-3.23,0.9c-0.77,0.04-1.52,0.35-2.28,0.53
		c-0.33,0.08-0.66,0.14-0.99,0.23c-0.32,0.09-0.68,0.13-0.94,0.32c-0.79,0.54-1.61,0.94-2.58,1.06c-0.48,0.06-0.92,0.35-1.38,0.54
		c0.57-0.05,1.1-0.23,1.62-0.24c0.77-0.01,1.42-0.27,2.11-0.55c1.03-0.42,2.1-0.71,3.29-1.1c-0.26,0.34-0.44,0.55-0.59,0.78
		c-0.17,0.24-0.29,0.51-0.48,0.73c-0.13,0.16-0.31,0.34-0.5,0.4c-0.61,0.2-1.09,0.6-1.45,1.38c0.28-0.24,0.46-0.41,0.66-0.56
		c0.18-0.13,0.38-0.34,0.56-0.32c0.69,0.06,1.02-0.39,1.35-0.85c0.45-0.62,0.93-1.21,1.72-1.38c0.99-0.22,1.99-0.41,3.02-0.62
		c-0.45,1.45-1.58,2.13-2.74,2.8c1.05-0.32,2.23-0.49,2.79-1.54c0.64-1.21,1.7-1.85,2.8-2.47c0.34-0.19,0.72-0.3,1.09-0.44
		c0.04,0.06,0.08,0.11,0.12,0.17c-0.59,0.77-1.18,1.54-1.75,2.33c-0.28,0.38-0.61,0.77-0.74,1.21c-0.16,0.55-0.43,0.9-0.92,1.14
		c-0.41,0.2-0.81,0.44-1.21,0.68c-0.18,0.11-0.32,0.27-0.48,0.4c0.65-0.23,1.26-0.54,1.88-0.79c0.58-0.23,0.94-0.62,1.18-1.2
		c0.41-0.97,1.32-1.41,2.15-1.97c0.13,0.84-0.08,1.45-0.69,1.95c-0.23,0.19-0.37,0.48-0.56,0.73c0.47-0.28,0.87-0.59,1.29-0.87
		c0.41-0.28,0.66-0.63,0.69-1.14c0.03-0.37,0.05-0.76,0.17-1.12c0.17-0.53,0.3-1.11,0.95-1.37c-0.06,0.82-0.21,1.62-0.33,2.43
		c-0.04,0.24-0.1,0.55,0.01,0.74c0.43,0.78,0.37,1.58,0.22,2.4c-0.02,0.13-0.04,0.26-0.06,0.38c0.37-0.82,0.67-1.68,0.49-2.57
		c-0.15-0.73,0.15-1.28,0.45-2.03c0.34,0.58,0.7,1.03,0.87,1.54c0.13,0.4,0.29,0.68,0.66,0.83c0.36,0.15,0.5,0.43,0.53,0.81
		c0.02,0.23,0.12,0.45,0.19,0.68c0.09-0.24,0.11-0.45,0.06-0.64c-0.08-0.34-0.1-0.78-0.33-0.98c-0.81-0.7-0.72-1.81-1.34-2.59
		c1.39,0.71,2.69,1.46,3.14,3.1c0.07,0.26,0.33,0.53,0.57,0.66c0.75,0.41,1.53,0.75,2.3,1.12c-0.18-0.23-0.38-0.43-0.62-0.58
		c-0.44-0.27-0.88-0.52-1.34-0.76c-0.33-0.17-0.47-0.43-0.6-0.78c-0.2-0.57-0.44-1.15-0.78-1.65c-0.51-0.76-1.12-1.46-1.7-2.18
		c0.04-0.01,0.07-0.04,0.1-0.03c0.07,0.01,0.14,0.01,0.2,0.04c1.34,0.62,2.68,1.21,3.44,2.61c0.62,1.16,1.8,1.44,2.96,1.72
		c-1.21-0.61-2.29-1.34-2.75-2.74c0.42,0.08,0.8,0.18,1.19,0.21c1.6,0.12,2.97,0.62,3.83,2.1c0.13,0.22,0.45,0.46,0.69,0.46
		c0.49,0,0.8,0.23,1.12,0.52c0.17,0.15,0.35,0.3,0.53,0.45c0.03-0.03,0.06-0.07,0.08-0.1c-0.53-0.46-0.79-1.22-1.64-1.31
		c-0.12-0.01-0.25-0.12-0.33-0.23c-0.36-0.51-0.69-1.03-1.06-1.58c0.52,0.15,0.99,0.28,1.46,0.43c0.61,0.2,1.22,0.41,1.82,0.62
		c0.47,0.16,0.92,0.43,1.39,0.48c0.78,0.08,1.59-0.04,2.31,0.43c-0.49-0.32-1-0.6-1.55-0.7c-0.81-0.15-1.56-0.38-2.21-0.89
		c-0.42-0.32-0.86-0.54-1.41-0.5c-0.21,0.02-0.45-0.06-0.64-0.16c-0.98-0.48-2.02-0.6-3.09-0.65c-1.36-0.07-2.47-0.82-3.7-1.38
		c1.49,0.05,2.91,0.12,4.33,0.16c0.91,0.03,1.82-0.02,2.72,0.04c0.98,0.07,1.91,0.31,2.72,0.94c0.52,0.41,1.12,0.72,1.69,1.07
		c0.03-0.05,0.06-0.09,0.09-0.14c-0.4-0.44-1.18-0.51-1.3-1.24C136.15,48.72,137.38,48.63,138.54,49.49 M114.36,28.29
		c0,0-3.44-1.6-3.15-4.21c0.29-2.62,2.13-2.74,2.13-2.74s2.33,0.29,4.01-2.25c1.68-2.54,3.23-1.68,3.23-1.68
		c-1.8-1.19-3.23,0.98-3.23,0.98c0-0.98-0.53-1.6-0.53-1.6c0.41,2.3-1.27,2.99-1.27,2.99c-1.35-4.54,1.68-5,1.68-5
		c5.52-1.52,5.11-2.67,7.16-3.88c2.05-1.21,3.56-0.37,3.56-0.37c-0.82-1.43-3.31-0.33-3.31-0.33c0.78-2.62-0.82-3.56-0.82-3.56
		c1.23,2.9-0.08,4.05-1.27,5.28c-1.19,1.23-5.73,2.41-5.73,2.41c-2.17,0.61-2.29,3.31-2.29,3.31c-3.23-0.82-1.81-4.09,0.04-5.73
		c1.85-1.64,3.85,0.04,3.85,0.04c-1.19-1.76-3.6-0.9-3.6-0.9c0.08-0.39,0.04-0.94-0.1-1.51l0.01,0c1.54-1.75,2.92-1.74,2.92-1.74
		c-1.77-0.25-3.03,1.35-3.03,1.35l0,0.01c-0.38-1.1-1.2-2.15-2.57-2.15c-2.62,0-2.78,1.23-2.78,1.23c0.16-0.57,2.66-1.88,4.34,0
		c0.42,0.48,0.62,0.98,0.68,1.49c0.16,1.51-0.99,3.03-1.55,3.83c-0.74,1.06-1.14,3.31,0.46,3.97c1.6,0.65,1.72,2.41,1.72,2.41
		c-3.52,1.35-5.69-1.23-6.34-3.35c-0.32-1.04-1.08-1.49-1.77-1.68l0,0c0.33-2.35,1.97-2.6,1.97-2.6c2.04-0.09,2.38,1.72,2.38,1.72
		c0-1.72-1.32-1.88-1.32-1.88c1.41-1.24,1.34-2.75,1.31-3.12c0.07,0.88-1.12,3.06-1.99,2.93c-0.9-0.13-1.74,0.58-1.74,0.58
		c-0.55-0.61-1.24-0.94-1.68-1.09c-0.39-1.8,1.51-3.08,1.51-3.08c-1.86,0.52-2.22,2.92-2.22,2.92l0.02,0.02
		c-1.8-0.15-2.2,1.13-2.2,1.13c1.53-1.88,4.57,0.05,4.25,0.53c-0.32,0.48-0.95,1.81-0.95,1.81l0.01,0c-0.41-0.04-0.71,0-0.71,0
		s0.61,0.06,1.24,0.34l0.01,0l0,0c0.63,0.28,1.29,0.79,1.37,1.67c0.16,1.76,1.88,2.9,1.88,2.9c-2.45-0.08-2.45,1.76-2.45,1.76
		c1.39-2.54,4.21-0.25,4.21-0.25c-1.47,0.53-2,1.96-2,1.96s-0.29,1.06-3.11,1.23c-2.82,0.16-4.25-1.19-4.25-1.19
		c-1.19-2,0.74-4.62,0.74-4.62c-1.96,1.72-1.47,4.25-1.47,4.25c-1.96-1.06-1.72-3.76-1.72-3.76c0.37-3.4,3.4-3.44,3.4-3.44
		c-2.54-0.53-3.52,2.21-3.52,2.21c-0.53-2.78,2.29-3.97,2.29-3.97c-4.25,0.98-2.45,6.75-2.45,6.75c1.39,5.24,9.45,5.03,9.45,5.03
		c-0.05,0.4-0.01,0.79,0.1,1.16c-0.93-0.17-1.56-0.15-1.64-0.15c-0.12,0-4.89,0.03-7.71-2.88c-1.49-1.54-2.19-3.64-2.06-6.23
		c0-0.03,0.22-2.69,2.77-4.66l0.08-0.06l0.02-0.1c0-0.02,0.4-1.69,1.5-2.35c0.47-0.28,1.02-0.34,1.62-0.18l0.35,0.1l0-0.36
		c0-0.12,0.02-3,4.1-3.06l0.13,0l0.08-0.1c0.01-0.01,1.2-1.43,2.81-1.54c0.88-0.06,1.74,0.29,2.54,1.04l0.26,0.24l0.17-0.31
		c0.05-0.09,1.23-2.17,3.28-1.29l0.14,0.06l0.12-0.08c0.02-0.01,1.96-1.29,3.99-0.85c1.13,0.24,2.08,0.98,2.83,2.18l0.12,0.2
		l0.21-0.09c0.01,0,1.03-0.42,2.25,0.12c1.22,0.53,2.21,1.81,2.93,3.78l0.06,0.18l0.19,0c0.19,0,4.63,0.13,4.69,4.9l0,0.16
		l0.14,0.08c0.08,0.05,2.07,1.15,1.18,3.53l-0.07,0.18l0.15,0.12c0.02,0.02,2.18,1.9,2.18,4.61c0,1.92-1.07,3.8-3.17,5.6l-0.1,0.08
		l0,0.13c0,0.02,0,2.32-1.67,3.74c-1.23,1.05-3.07,1.38-5.45,0.98l-0.21-0.04l-0.09,0.19c-0.01,0.03-1.31,2.77-4.83,1.92
		c-0.06-0.02-0.34-0.13-0.77-0.35c0.37-1.35,1.41-2.72,4.19-3.5c0.26-0.07,0.5-0.16,0.74-0.25l0,0c0,0,3.34,2.63,6.18-0.21
		c0,0,1.66-1.78,1.19-3.48c0,0-0.5,6.09-6.59,3.34l-0.01,0c2.77-1.47,3.77-4.2,3.77-4.2c-0.63,1.62-4.6,4.6-6.28,4.35
		c-1.67-0.25-2.88,1.18-2.88,1.18c-1.36-2.42,0.22-2.37,0.22-2.37c4.93,0.64,5.69-1.85,5.69-1.85c-1.52,2.25-6.52,0.92-6.52,0.92
		s0.56-1.5,2.86-1.13c3.74,0.59,5.07-1.41,5.33-5.18c0.12-1.77,0.49-2.89,0.84-3.61l0.14-0.27c0.34-0.61,0.65-0.83,0.65-0.83
		c0.21-0.99,2.46-0.58,2.46-0.58c-0.33-0.17-0.65-0.28-0.97-0.33l0,0c0.24-0.42,0.41-0.81,0.53-1.17l0.01,0.01
		c0,0,1.46,0.42,1.8,2.39c0,0,0.54-1.93-1.57-3.22l-0.04,0.03c0.36-2.55-2.01-3.65-2.01-3.65c3.38,2.68,0.54,5.6,0.54,5.6l0,0
		c-0.79,0.09-1.49,0.59-2.03,1.47c-0.88-0.32-2.28-1.08-1.98-2.69c0.43-2.32,2.99-1.43,2.99-1.43s-1.65-1.22-3.29,0.7
		c0,0-0.79-1.4,0.34-3.5c0,0-1.99,1.59-0.15,5.94c0,0-1.25,0.39-2.25-0.17c-1.01-0.56-4.54-1.16-5.58,1.35c0,0,1.37-2.13,4.57-1.35
		c0,0,1.01,0.41,1.37,0.54c0,0-1.58,0.55-3.14,1.86c-1.55,1.31-3.81,0.97-4.63,0.18c0,0,1.49,2.53,4.85,0.21c0,0,4.14-3.65,6.6-1.03
		l0,0c-0.42,0.94-0.69,2.2-0.76,3.77c-0.21,4.87-4.6,4.03-4.6,4.03c-0.73-0.31-0.27-1.67-0.27-1.67c-0.9,0.29-0.44,1.71-0.44,1.71
		c-1.77-0.17-4.04,1.98-4.04,1.98c-0.12-2.58,1.02-3.08,1.02-3.08c3.19-1.81,2.99-3.55,2.99-3.55c-0.65,2.41-4.21,3.19-4.21,3.19
		c0-1.15-1.72-3.27-3.72-2.86c-2.26,0.46-2,2.25-2,2.25c0.92-1.53,2.17-1.43,2.17-1.43c3.48,0.57,2.5,5.89,2.5,5.89
		C117.92,29.43,114.36,28.29,114.36,28.29"/>
</g>
</svg>
