<svg width="498" height="114" viewBox="0 0 498 114" fill="none" xmlns="http://www.w3.org/2000/svg">
<g clip-path="url(#clip0)">
<path d="M104.5 51.8C106.985 51.8 109 49.7853 109 47.3C109 44.8147 106.985 42.8 104.5 42.8C102.015 42.8 100 44.8147 100 47.3C100 49.7853 102.015 51.8 104.5 51.8Z" fill="url(#paint0_radial)"/>
<path d="M19.7 14.2C19.7 14.2 32.4 4.10001 37.1 3.60001C48.4 2.40001 82 11.6 109.6 37.7C110 38.1 109.4 38.6 108.9 38.3C82.3999 20.1 67.2 15.9 53 14C30.9 10.9 20.8 16 19.7 14.2Z" fill="url(#paint1_radial)"/>
<path d="M64 -1.49105e-05C63.3 -0.200015 62.5 0.999985 63.6 1.49999C65.4 2.09999 79 8.39998 90.2 17.5C101.2 26.6 108.6 37.2 108.6 37.2C108.6 37.2 110.5 38.6 110.3 37.8C110.1 36.9 104.6 23.3 93.7 14.1C88.3 9.69999 80.7 5.09998 64 -1.49105e-05Z" fill="url(#paint2_radial)"/>
<path d="M76.9 101.8C76.9 101.8 45.7 105.7 7.29998 81.7C4.09998 80 3.79998 77.7 3.79998 77.7C3.79998 77.7 0.499984 67.8 -1.64732e-05 56.5C-0.100016 55.5 0.699984 55.8 0.699984 55.8C0.699984 55.8 23.4 77.1 48.7 83.6C74 90.1 104.3 84.6 104.3 84.6C104.3 84.6 106.3 84.2 106.1 84.8C105.3 87.4 76.9 101.8 76.9 101.8Z" fill="url(#paint3_radial)"/>
<path d="M23.7999 101.6C23.7999 101.6 48.7999 105.6 70.6999 100.5C92.4999 95.3 104.5 86.1 104.5 86.1C104.5 86.1 105.6 86.1 105.2 86.8C104.8 87.5 89.6999 109.1 70.5999 112.6C53.1999 116.2 37.4999 111.9 23.3999 102.9C22.0999 102 23.0999 101.3 23.7999 101.6Z" fill="url(#paint4_radial)"/>
<path d="M32.5 72C32.5 72 31.1 71.1 32.5 70.5C33.9 69.9 42.9 66 44.5 60.4C46.1 54.8 46 45.3 40.6 34.7C35.5 24.4 34.1 21.8 36.5 20.6C38.8 19.4 40.3 22.2 40.3 22.2C40.3 22.2 49.1 37 55.3 40.6C61.5 44.2 66.1 43.6 71.4 42.3C76.6 41 87.4 35.2 87.4 35.2C87.4 35.2 90.8 33.5 92 35.4C93.2 37.4 91.6 38.9 90.4 39.8C89.1 40.7 78 47.9 73.5 52.1C69 56.4 67.7 58.3 66.7 61.6C65.7 64.8 65.2 70.5 67.5 74.8C68.8 77.3 70.9 80.4 69.9 80.9C68 81.8 42.4 78.8 32.5 72Z" fill="url(#paint5_radial)"/>
<path d="M30.1 67.1C30 67.7 29.9 68.6 31.1 68.2C32.4 67.7 37.9 65.4 40.5 60.9C43 56.4 43.8 51.9 41.9 45.3C41.3 43.2 40.4 44.5 40.4 44.5C40.4 44.5 36.9 49.2 31.5 49.5C27 49.8 20.6 47.3 17.3 44.7C14.8 42.7 13.5 44.5 13.5 44.5C13.5 44.5 12.4 46.5 14.8 47.8C17.2 49.1 23.3 52.8 26 56.2C27.6 57.6 31.4 60.6 30.1 67.1Z" fill="url(#paint6_radial)"/>
<path d="M31.7 47.1C34.7928 47.1 37.3 44.5928 37.3 41.5C37.3 38.4072 34.7928 35.9 31.7 35.9C28.6072 35.9 26.1 38.4072 26.1 41.5C26.1 44.5928 28.6072 47.1 31.7 47.1Z" fill="url(#paint7_radial)"/>
<path d="M75.1 79.1C74.9 79.7 74.5 80.5 73.7 79.5C72.8 78.4 69.2 73.7 69.2 68.5C69.2 63.3 70.7 59 75.7 54.2C77.2 52.6 77.3999 54.2 77.3999 54.2C77.3999 54.2 78.1 60 82.6 63C86.5 65.5 93.1999 66.4 97.2999 65.8C100.4 65.3 100.7 67.5 100.7 67.5C100.7 67.5 100.6 69.7 98 69.7C95.3 69.7 88.2 69.9 84.2 71.3C82 72.2 77.2 72.9 75.1 79.1Z" fill="url(#paint8_radial)"/>
<path d="M86.3999 61.6C89.4927 61.6 91.9999 59.0928 91.9999 56C91.9999 52.9072 89.4927 50.4 86.3999 50.4C83.3071 50.4 80.7999 52.9072 80.7999 56C80.7999 59.0928 83.3071 61.6 86.3999 61.6Z" fill="url(#paint9_radial)"/>
<path d="M32.1999 16.3C32.1999 16.3 30.5999 15.9 30.2999 17.9C29.9999 19.9 27.9999 26.8 25.2999 28.9C22.6999 31 19.7999 31.5 17.1999 31.4C14.5999 31.3 9.89994 29.9 9.89994 29.9C9.89994 29.9 8.09994 29.4 7.59994 31C7.09994 32.7 8.99994 33.2 8.99994 33.2C8.99994 33.2 13.5999 33.7 17.6999 36.2C21.7999 38.7 21.9999 39.7 21.9999 39.7C21.9999 39.7 22.3999 40.5 23.0999 40.3C23.7999 40.1 24.0999 39.6 23.9999 39.1C23.9999 38.6 23.8999 35.9 26.2999 34.5C28.6999 33.1 30.1999 33.3 30.1999 33.3C30.1999 33.3 31.0999 33.5 31.5999 33.1C32.1999 32.7 32.0999 31.5 31.8999 31C31.6999 30.3 31.6999 27.5 31.9999 25.5C32.3999 23.8 34.7999 16.6 32.1999 16.3Z" fill="url(#paint10_radial)"/>
<path d="M20.6 29.5C23.0853 29.5 25.1 27.4853 25.1 25C25.1 22.5147 23.0853 20.5 20.6 20.5C18.1147 20.5 16.1 22.5147 16.1 25C16.1 27.4853 18.1147 29.5 20.6 29.5Z" fill="url(#paint11_radial)"/>
<path d="M98.4 34.3C98.4 34.3 100 34.8 99.4 36.6C98.7 38.4 97.3 45.6 98.6 48.6C99.9 51.7 102.2 53.5 104.5 54.6C106.7 55.7 111.6 56.8 111.6 56.8C111.6 56.8 113.4 57.2 113 58.9C112.6 60.6 110.7 60.2 110.7 60.2C110.7 60.2 106.4 58.5 101.6 58.7C96.9 58.9 96.2 59.7 96.2 59.7C96.2 59.7 95.5 60.2 94.9 59.7C94.3 59.2 94.4 58.6 94.6 58.2C94.9 57.8 96.2 55.4 94.7 53C93.2 50.6 91.8 50.1 91.8 50.1C91.8 50.1 91 49.8 90.6 49.2C90.3 48.6 90.9 47.6 91.3 47.2C91.8 46.7 93.1 44.2 93.8 42.4C94.7 40.7 96 33.3 98.4 34.3Z" fill="url(#paint12_radial)"/>
<path d="M63.9 40.5C69.0362 40.5 73.2 36.3362 73.2 31.2C73.2 26.0637 69.0362 21.9 63.9 21.9C58.7637 21.9 54.6 26.0637 54.6 31.2C54.6 36.3362 58.7637 40.5 63.9 40.5Z" fill="url(#paint13_radial)"/>
<path d="M170.819 33.2039C170.819 33.2039 177.419 37.3039 179.219 31.6039C180.819 25.9039 168.019 26.0039 168.019 26.0039C168.019 26.0039 154.119 25.6039 145.619 32.9039C136.919 40.2039 134.819 48.2039 134.819 48.2039C134.819 48.2039 131.319 57.3039 132.119 66.6039C132.919 75.9039 138.519 81.1039 138.519 81.1039C138.519 81.1039 146.319 88.6039 155.719 88.3039C165.319 87.9039 168.719 84.8039 168.719 84.8039C168.719 84.8039 172.119 82.0039 171.419 80.6039C170.719 79.2039 168.019 79.5039 168.019 79.5039C168.019 79.5039 161.519 83.1039 155.619 81.6039C149.719 80.1039 146.419 77.1039 144.719 71.2039C142.919 65.3039 145.119 52.0039 145.119 52.0039C145.119 52.0039 147.019 43.7039 153.019 37.8039C159.219 31.0039 170.819 33.2039 170.819 33.2039Z" fill="#575756"/>
<path d="M203.719 40.0039C192.019 38.5039 180.419 45.1039 176.319 57.8039C172.219 70.5039 173.119 83.3039 185.619 86.8039C196.619 90.0039 209.319 83.1039 214.319 70.2039C219.119 57.6039 219.319 41.9039 203.719 40.0039ZM204.819 66.6039C202.619 77.0039 195.919 82.5039 190.819 81.7039C184.719 80.8039 183.819 69.7039 186.519 60.2039C189.219 50.6039 193.719 44.4039 200.819 45.4039C206.619 46.3039 207.219 55.4039 204.819 66.6039Z" fill="#575756"/>
<path d="M292.619 40.0039C280.919 38.5039 269.319 45.1039 265.219 57.8039C261.119 70.5039 262.019 83.3039 274.519 86.8039C285.519 90.0039 298.219 83.1039 303.219 70.2039C308.219 57.7039 308.419 41.9039 292.619 40.0039ZM293.719 66.6039C291.519 77.0039 284.819 82.5039 279.719 81.7039C273.619 80.8039 272.719 69.7039 275.419 60.2039C278.119 50.7039 282.619 44.4039 289.719 45.4039C295.619 46.3039 296.119 55.4039 293.719 66.6039Z" fill="#575756"/>
<path d="M233.019 26.9039C233.019 26.9039 227.519 26.5039 226.719 30.8039C226.619 33.1039 226.719 34.8039 226.119 37.9039C225.819 41.0039 218.319 81.9039 218.319 81.9039C218.319 81.9039 217.319 85.8039 222.019 86.2039C226.719 86.5039 228.819 82.2039 228.819 82.2039C228.819 82.2039 230.919 67.9039 232.219 62.0039C233.519 56.1039 236.319 50.6039 239.519 48.3039C242.519 46.2039 246.219 46.5039 246.219 46.5039C246.219 46.5039 249.719 46.7039 249.419 51.7039C249.219 56.1039 244.719 80.4039 244.719 80.4039C244.719 80.4039 243.019 85.5039 248.619 86.2039C254.219 86.0039 255.019 82.4039 255.019 82.4039C255.019 82.4039 255.319 78.7039 255.619 76.6039C255.919 74.5039 259.819 51.1039 259.819 51.1039C259.819 51.1039 261.919 41.6039 251.619 39.7039C241.619 37.9039 235.419 45.4039 235.419 45.4039L238.019 30.2039C238.119 30.4039 239.319 27.2039 233.019 26.9039Z" fill="#575756"/>
<path d="M319.419 41.3039C319.419 41.3039 314.119 40.9039 313.119 45.3039C313.019 47.3039 312.919 49.0039 312.719 51.0039C312.519 53.0039 307.919 79.8039 307.919 79.8039C307.919 79.8039 307.019 82.4039 307.219 83.3039C307.919 85.9039 312.119 86.4039 312.119 86.4039C312.119 86.4039 316.819 86.6039 318.019 82.7039C318.019 82.7039 318.719 77.3039 319.119 73.6039C319.519 70.0039 321.719 60.7039 321.719 60.7039C321.719 60.7039 322.719 55.8039 325.619 52.2039C326.519 51.0039 329.719 48.4039 332.019 47.7039C334.819 46.9039 337.819 45.7039 337.619 43.1039C337.319 39.5039 333.719 39.9039 333.719 39.9039C333.719 39.9039 330.819 40.4039 328.119 42.6039C325.619 44.6039 325.019 45.4039 325.019 45.4039C325.019 45.4039 325.319 41.1039 319.419 41.3039Z" fill="#575756"/>
<path d="M337.719 86.2039C337.719 86.2039 343.319 86.6039 344.319 82.8039C345.119 79.7039 345.519 73.0039 345.519 73.0039C345.519 73.0039 348.519 52.1039 349.619 48.5039C350.619 44.9039 352.319 40.7039 345.619 40.7039C338.919 40.7039 339.019 46.0039 339.019 46.0039C339.119 45.8039 337.819 58.9039 336.919 64.1039C336.019 69.0039 334.219 79.6039 334.219 79.6039C334.219 79.6039 331.919 85.2039 337.719 86.2039Z" fill="#575756"/>
<path d="M389.719 44.8039C387.719 41.2039 383.119 39.2039 376.919 39.5039C370.719 39.8039 365.219 42.0039 361.819 45.8039C358.419 49.5039 352.719 55.6039 352.219 68.0039C351.719 80.8039 359.119 87.1039 367.019 87.4039C372.019 87.6039 383.019 86.7039 381.919 80.7039C381.319 77.7039 375.319 82.2039 370.019 81.5039C367.119 81.1039 362.419 79.9039 363.319 68.0039C363.319 68.0039 376.719 68.2039 383.319 62.3039C390.019 56.5039 391.519 48.5039 389.719 44.8039ZM378.819 54.8039C374.819 64.3039 363.519 65.9039 363.519 65.9039C363.519 65.9039 363.919 55.6039 368.319 49.9039C372.619 44.3039 377.419 44.8039 377.419 44.8039C377.419 44.8039 382.919 45.3039 378.819 54.8039Z" fill="#575756"/>
<path d="M495.519 44.8039C493.519 41.2039 488.919 39.2039 482.719 39.5039C476.519 39.8039 471.019 42.0039 467.619 45.8039C464.219 49.5039 458.519 55.6039 458.019 68.0039C457.519 80.8039 464.919 87.1039 472.819 87.4039C477.819 87.6039 488.819 86.7039 487.719 80.7039C487.119 77.7039 481.119 82.2039 475.819 81.5039C472.919 81.1039 468.219 79.9039 469.119 68.0039C469.119 68.0039 482.519 68.2039 489.119 62.3039C495.719 56.4039 497.519 48.5039 495.519 44.8039ZM484.719 54.8039C480.719 64.3039 469.419 65.9039 469.419 65.9039C469.419 65.9039 469.819 55.6039 474.219 49.9039C478.619 44.2039 483.319 44.8039 483.319 44.8039C483.319 44.8039 488.819 45.4039 484.719 54.8039Z" fill="#575756"/>
<path d="M421.019 39.6039C414.319 39.0039 408.919 42.8039 406.919 44.5039C407.119 42.4039 406.219 40.7039 401.919 40.7039C395.219 40.7039 395.319 46.0039 395.319 46.0039C395.419 45.8039 394.119 59.0039 393.219 64.2039C392.319 69.1039 390.419 79.8039 390.419 79.8039C390.419 79.8039 388.319 85.2039 394.019 86.2039C394.019 86.2039 399.619 86.6039 400.619 82.7039C401.419 79.5039 401.819 72.9039 401.819 72.9039C401.819 72.9039 402.219 70.0039 402.819 66.1039C405.019 52.2039 409.219 49.5039 409.219 49.5039C409.219 49.5039 413.219 45.7039 417.619 46.3039C420.619 46.7039 420.919 49.7039 420.919 51.6039C420.919 52.1039 420.819 52.5039 420.819 53.0039C420.419 56.9039 419.819 61.6039 419.319 64.1039C418.419 69.0039 416.519 79.7039 416.519 79.7039C416.519 79.7039 414.419 85.1039 420.119 86.1039C420.119 86.1039 425.719 86.5039 426.719 82.6039C427.519 79.4039 427.919 72.8039 427.919 72.8039C427.919 72.8039 430.219 57.1039 431.519 50.6039C432.819 43.8039 429.719 40.4039 421.019 39.6039Z" fill="#575756"/>
<path d="M442.319 39.6039C442.319 39.6039 439.019 39.4039 438.719 42.6039C438.719 45.0039 441.219 45.3039 441.219 45.3039L436.019 74.6039C436.019 74.6039 434.019 83.9039 439.819 85.8039C445.619 87.8039 450.619 86.9039 450.619 86.9039C450.619 86.9039 455.219 85.0039 454.419 82.5039C453.619 80.0039 451.219 80.5039 451.219 80.5039C451.219 80.5039 447.519 81.4039 446.619 79.5039C445.719 77.6039 446.019 75.2039 446.019 75.2039L451.319 45.5039H456.919C456.919 45.5039 460.219 45.8039 460.519 42.6039C460.819 39.4039 457.819 39.5039 457.819 39.5039H452.619C452.619 39.5039 453.219 34.0039 453.819 32.4039C454.419 30.8039 455.019 28.4039 450.319 28.1039C445.619 27.7039 443.619 32.3039 443.619 32.3039L442.319 39.6039Z" fill="#575756"/>
<path d="M346.819 37.4039C349.636 37.4039 351.919 35.1206 351.919 32.3039C351.919 29.4873 349.636 27.2039 346.819 27.2039C344.002 27.2039 341.719 29.4873 341.719 32.3039C341.719 35.1206 344.002 37.4039 346.819 37.4039Z" fill="#575756"/>
</g>
<defs>
<radialGradient id="paint0_radial" cx="0" cy="0" r="1" gradientUnits="userSpaceOnUse" gradientTransform="translate(104.526 47.338) scale(4.54496)">
<stop stop-color="#28B4E5"/>
<stop offset="0.5353" stop-color="#00A6E0"/>
<stop offset="0.9984" stop-color="#0979EC"/>
</radialGradient>
<radialGradient id="paint1_radial" cx="0" cy="0" r="1" gradientUnits="userSpaceOnUse" gradientTransform="translate(64.7153 20.8568) scale(34.2235)">
<stop stop-color="#BDDF29"/>
<stop offset="1" stop-color="#9DBE11"/>
</radialGradient>
<radialGradient id="paint2_radial" cx="0" cy="0" r="1" gradientUnits="userSpaceOnUse" gradientTransform="translate(86.6861 19.0123) scale(21.455)">
<stop stop-color="#28B4E5"/>
<stop offset="0.5353" stop-color="#00A6E0"/>
<stop offset="0.9984" stop-color="#0979EC"/>
</radialGradient>
<radialGradient id="paint3_radial" cx="0" cy="0" r="1" gradientUnits="userSpaceOnUse" gradientTransform="translate(53.0527 78.8962) scale(41.0001)">
<stop stop-color="#BDDF29"/>
<stop offset="1" stop-color="#9DBE11"/>
</radialGradient>
<radialGradient id="paint4_radial" cx="0" cy="0" r="1" gradientUnits="userSpaceOnUse" gradientTransform="translate(64.0281 99.9382) scale(30.7721)">
<stop stop-color="#28B4E5"/>
<stop offset="0.5353" stop-color="#00A6E0"/>
<stop offset="0.9984" stop-color="#0979EC"/>
</radialGradient>
<radialGradient id="paint5_radial" cx="0" cy="0" r="1" gradientUnits="userSpaceOnUse" gradientTransform="translate(62.1514 50.6785) scale(30.2093)">
<stop stop-color="#28B4E5"/>
<stop offset="0.5353" stop-color="#00A6E0"/>
<stop offset="0.9984" stop-color="#0979EC"/>
</radialGradient>
<radialGradient id="paint6_radial" cx="0" cy="0" r="1" gradientUnits="userSpaceOnUse" gradientTransform="translate(28.1401 55.9832) scale(13.6258)">
<stop stop-color="#BDDF29"/>
<stop offset="1" stop-color="#9DBE11"/>
</radialGradient>
<radialGradient id="paint7_radial" cx="0" cy="0" r="1" gradientUnits="userSpaceOnUse" gradientTransform="translate(31.6999 41.4706) scale(5.64633)">
<stop stop-color="#BDDF29"/>
<stop offset="1" stop-color="#9DBE11"/>
</radialGradient>
<radialGradient id="paint8_radial" cx="0" cy="0" r="1" gradientUnits="userSpaceOnUse" gradientTransform="translate(84.9148 66.7672) scale(14.5857)">
<stop stop-color="#BDDF29"/>
<stop offset="1" stop-color="#9DBE11"/>
</radialGradient>
<radialGradient id="paint9_radial" cx="0" cy="0" r="1" gradientUnits="userSpaceOnUse" gradientTransform="translate(86.4247 56.0488) scale(5.63717)">
<stop stop-color="#BDDF29"/>
<stop offset="1" stop-color="#9DBE11"/>
</radialGradient>
<radialGradient id="paint10_radial" cx="0" cy="0" r="1" gradientUnits="userSpaceOnUse" gradientTransform="translate(20.499 28.3347) scale(12.4553)">
<stop stop-color="#28B4E5"/>
<stop offset="0.5353" stop-color="#00A6E0"/>
<stop offset="0.9984" stop-color="#0979EC"/>
</radialGradient>
<radialGradient id="paint11_radial" cx="0" cy="0" r="1" gradientUnits="userSpaceOnUse" gradientTransform="translate(20.6132 24.9485) scale(4.54407)">
<stop stop-color="#28B4E5"/>
<stop offset="0.5353" stop-color="#00A6E0"/>
<stop offset="0.9984" stop-color="#0979EC"/>
</radialGradient>
<radialGradient id="paint12_radial" cx="0" cy="0" r="1" gradientUnits="userSpaceOnUse" gradientTransform="translate(101.912 47.174) scale(12.0904)">
<stop stop-color="#28B4E5"/>
<stop offset="0.5353" stop-color="#00A6E0"/>
<stop offset="0.9984" stop-color="#0979EC"/>
</radialGradient>
<radialGradient id="paint13_radial" cx="0" cy="0" r="1" gradientUnits="userSpaceOnUse" gradientTransform="translate(63.8776 31.1746) scale(9.24584)">
<stop stop-color="#28B4E5"/>
<stop offset="0.5353" stop-color="#00A6E0"/>
<stop offset="0.9984" stop-color="#0979EC"/>
</radialGradient>
<clipPath id="clip0">
<rect width="497.6" height="113.9" fill="white"/>
</clipPath>
</defs>
</svg>
