<svg width="434" height="100" viewBox="0 0 434 100" fill="none" xmlns="http://www.w3.org/2000/svg">
<g clip-path="url(#clip0)">
<path d="M91.13 45.18C93.2949 45.18 95.05 43.425 95.05 41.26C95.05 39.0951 93.2949 37.34 91.13 37.34C88.965 37.34 87.21 39.0951 87.21 41.26C87.21 43.425 88.965 45.18 91.13 45.18Z" fill="url(#paint0_radial)"/>
<path d="M17.1899 12.4C17.1899 12.4 28.2599 3.59001 32.3599 3.16001C42.2099 2.11001 71.5099 10.16 95.5699 32.89C95.9199 33.24 95.3999 33.68 94.9599 33.42C71.8599 17.55 58.5999 13.88 46.2199 12.23C26.9999 9.52001 18.1399 14 17.1899 12.4Z" fill="url(#paint1_radial)"/>
<path d="M55.81 -8.57282e-06C55.6416 -0.0313248 55.4676 0.00205145 55.3227 0.0934505C55.1779 0.18485 55.0729 0.327539 55.0287 0.493005C54.9845 0.65847 55.0043 0.834524 55.0843 0.985984C55.1642 1.13744 55.2984 1.25315 55.46 1.30999C63.7674 4.95132 71.5662 9.65744 78.66 15.31C84.664 20.3732 90.036 26.1415 94.66 32.49C94.66 32.49 96.32 33.71 96.14 33.01C95.96 32.31 91.14 20.37 81.67 12.34C77 8.47999 70.37 4.46999 55.81 -8.57282e-06Z" fill="url(#paint2_radial)"/>
<path d="M67.0601 88.78C67.0601 88.78 39.8601 92.19 6.37006 71.26C3.58006 69.78 3.32006 67.77 3.32006 67.77C1.45479 61.7672 0.339646 55.5567 5.56111e-05 49.28C-0.0899444 48.41 0.610056 48.67 0.610056 48.67C0.610056 48.67 20.4101 67.25 42.4701 72.91C64.5301 78.57 91.0001 73.79 91.0001 73.79C91.0001 73.79 92.7501 73.44 92.5701 73.96C91.8201 76.23 67.0601 88.78 67.0601 88.78Z" fill="url(#paint3_radial)"/>
<path d="M20.76 88.61C20.76 88.61 42.56 92.1 61.65 87.61C80.74 83.12 91.13 75.09 91.13 75.09C91.13 75.09 92.13 75.09 91.74 75.71C91.35 76.33 78.22 95.15 61.57 98.2C46.4 101.34 32.71 97.59 20.41 89.74C19.28 89 20.15 88.35 20.76 88.61Z" fill="url(#paint4_radial)"/>
<path d="M28.35 63.31C28.35 63.31 27.13 62.53 28.35 62.01C29.57 61.49 37.41 58.08 38.81 53.2C40.21 48.32 40.12 40 35.41 30.79C30.96 21.79 29.74 19.54 31.83 18.5C33.92 17.46 35.15 19.89 35.15 19.89C35.15 19.89 42.82 32.8 48.23 35.89C53.64 38.98 57.64 38.51 62.23 37.38C66.82 36.25 76.18 31.19 76.18 31.19C76.18 31.19 79.18 29.7 80.18 31.36C81.18 33.02 79.83 34.41 78.78 35.2C77.73 35.99 68 42.3 64.1 46C60.2 49.7 59 51.37 58.17 54.25C57.34 57.13 56.86 62.01 58.86 65.76C60 67.94 61.86 70.64 60.96 71.07C59.3 71.86 37 69.24 28.35 63.31Z" fill="url(#paint5_radial)"/>
<path d="M26.25 58.53C26.17 59.05 26.08 59.84 27.13 59.53C28.18 59.22 33.05 57.09 35.32 53.16C37.59 49.23 38.2 45.31 36.54 39.56C36.02 37.73 35.23 38.86 35.23 38.86C35.23 38.86 32.23 42.96 27.47 43.22C23.55 43.48 17.97 41.3 15.09 39.04C12.91 37.29 11.78 38.86 11.78 38.86C11.6492 39.1208 11.5748 39.4063 11.5616 39.6977C11.5484 39.9892 11.5966 40.2802 11.7032 40.5518C11.8097 40.8234 11.9723 41.0696 12.1802 41.2743C12.3881 41.479 12.6367 41.6377 12.91 41.74C15.01 42.87 20.32 46.1 22.68 49.06C24.07 50.24 27.39 52.86 26.25 58.53Z" fill="url(#paint6_radial)"/>
<path d="M32.4009 37.3367C33.0228 34.7143 31.401 32.0843 28.7786 31.4624C26.1561 30.8406 23.5261 32.4624 22.9043 35.0848C22.2824 37.7072 23.9042 40.3372 26.5266 40.9591C29.1491 41.5809 31.7791 39.9591 32.4009 37.3367Z" fill="url(#paint7_radial)"/>
<path d="M65.49 69C65.32 69.52 64.97 70.22 64.27 69.35C63.57 68.48 60.35 64.29 60.35 59.76C60.35 55.23 61.65 51.47 66.01 47.29C67.32 45.89 67.5 47.29 67.5 47.29C67.5 47.29 68.11 52.34 72 55C75.4 57.18 81.24 58 84.82 57.44C87.52 57.01 87.82 58.93 87.82 58.93C87.7965 59.2118 87.7164 59.486 87.5844 59.7361C87.4524 59.9862 87.2712 60.2071 87.0517 60.3854C86.8323 60.5638 86.579 60.696 86.3072 60.7741C86.0354 60.8522 85.7507 60.8746 85.47 60.84C83.11 60.84 76.92 61.02 73.47 62.24C71.51 63 67.32 63.58 65.49 69Z" fill="url(#paint8_radial)"/>
<path d="M77.1955 53.3689C79.688 52.3436 80.8774 49.4919 79.8521 46.9994C78.8268 44.5068 75.9751 43.3174 73.4826 44.3427C70.9901 45.368 69.8007 48.2198 70.826 50.7123C71.8513 53.2048 74.703 54.3942 77.1955 53.3689Z" fill="url(#paint9_radial)"/>
<path d="M28.08 14.23C28.08 14.23 26.69 13.88 26.43 15.63C26.17 17.38 24.43 23.39 22.07 25.22C20.0669 26.8015 17.5459 27.5788 15 27.4C12.8412 27.1579 10.7091 26.7194 8.62997 26.09C8.62997 26.09 7.05997 25.65 6.62997 27.09C6.19997 28.53 7.85997 29 7.85997 29C10.5333 29.3647 13.1088 30.2515 15.44 31.61C19.02 33.79 19.19 34.67 19.19 34.67C19.19 34.67 19.54 35.36 20.19 35.19C20.84 35.02 21.06 34.58 20.97 34.19C20.9175 33.4056 21.0752 32.6215 21.4268 31.9184C21.7783 31.2153 22.311 30.6186 22.97 30.19C23.9738 29.5155 25.1609 29.1664 26.37 29.19C26.7848 29.2848 27.2202 29.2206 27.59 29.01C28.11 28.66 28.03 27.62 27.85 27.18C27.6688 25.583 27.6991 23.9691 27.94 22.38C28.26 20.77 30.35 14.49 28.08 14.23Z" fill="url(#paint10_radial)"/>
<path d="M17.97 25.74C20.135 25.74 21.89 23.985 21.89 21.82C21.89 19.6551 20.135 17.9 17.97 17.9C15.8051 17.9 14.05 19.6551 14.05 21.82C14.05 23.985 15.8051 25.74 17.97 25.74Z" fill="url(#paint11_radial)"/>
<path d="M85.81 29.93C86.0057 29.9942 86.1856 30.0992 86.3379 30.2379C86.4902 30.3766 86.6114 30.546 86.6936 30.7349C86.7758 30.9238 86.8171 31.1279 86.8147 31.3339C86.8124 31.5399 86.7664 31.743 86.68 31.93C86.07 33.5 84.85 39.78 85.98 42.4C86.9767 44.7297 88.8159 46.5975 91.13 47.63C93.1347 48.4457 95.2056 49.088 97.32 49.55C97.5218 49.5869 97.7142 49.664 97.8856 49.7768C98.0571 49.8896 98.2041 50.0357 98.3179 50.2064C98.4317 50.3771 98.5101 50.569 98.5482 50.7706C98.5864 50.9723 98.5836 51.1795 98.54 51.38C98.19 52.86 96.54 52.51 96.54 52.51C93.9971 51.586 91.3049 51.1418 88.6 51.2C84.5 51.38 83.89 52.08 83.89 52.08C83.7236 52.194 83.5266 52.2549 83.325 52.2549C83.1233 52.2549 82.9264 52.194 82.76 52.08C82.5612 51.9335 82.4236 51.7187 82.3737 51.4768C82.3239 51.2349 82.3653 50.9832 82.49 50.77C82.9305 50.0983 83.1726 49.316 83.1885 48.513C83.2044 47.7099 82.9935 46.9186 82.58 46.23C82.0167 45.1467 81.1333 44.2633 80.05 43.7C79.6542 43.5319 79.3094 43.2629 79.05 42.92C78.79 42.4 79.31 41.52 79.66 41.18C80.535 39.8755 81.2533 38.4725 81.8 37C82.58 35.51 83.72 29.06 85.81 29.93Z" fill="url(#paint12_radial)"/>
<path d="M58.8061 34.7219C62.9504 33.0231 64.9328 28.2862 63.234 24.1419C61.5351 19.9975 56.7982 18.0151 52.6539 19.714C48.5096 21.4128 46.5271 26.1497 48.226 30.294C49.9249 34.4384 54.6617 36.4208 58.8061 34.7219Z" fill="url(#paint13_radial)"/>
<path d="M148.797 29.0441C148.797 29.0441 154.557 32.6141 156.127 27.6441C157.517 22.6441 146.357 22.7641 146.357 22.7641C146.357 22.7641 134.237 22.4141 126.827 28.7641C119.237 35.1341 117.407 42.1141 117.407 42.1141C115.569 47.2386 114.77 52.6777 115.057 58.1141C115.403 62.845 117.374 67.3107 120.637 70.7541C120.637 70.7541 127.437 77.2941 135.637 77.0341C144.017 76.6841 146.977 74.0341 146.977 74.0341C146.977 74.0341 149.977 71.5941 149.327 70.3741C148.677 69.1541 146.327 69.3741 146.327 69.3741C146.327 69.3741 140.657 72.5141 135.517 71.2041C130.377 69.8941 127.517 67.2741 126.007 62.1341C124.497 56.9941 126.357 45.3941 126.357 45.3941C127.569 40.7508 129.939 36.4911 133.247 33.0141C138.727 27.1241 148.797 29.0441 148.797 29.0441Z" fill="#575756"/>
<path d="M177.487 34.9741C172.309 34.2927 167.058 35.4815 162.679 38.3266C158.299 41.1716 155.079 45.4863 153.597 50.4941C150.017 61.5641 150.807 72.7041 161.727 75.7741C171.317 78.5641 182.387 72.5541 186.727 61.3041C190.917 50.3141 191.087 36.6241 177.487 34.9741ZM178.487 58.1641C176.567 67.2341 170.727 72.0241 166.277 71.3341C160.957 70.5441 160.177 60.8641 162.527 52.5841C164.877 44.3041 168.727 38.8041 174.957 39.7041C180.017 40.4641 180.537 48.3941 178.447 58.1641H178.487Z" fill="#575756"/>
<path d="M255.007 34.9741C244.797 33.7041 234.727 39.4141 231.107 50.4941C227.487 61.5741 228.317 72.7041 239.217 75.7741C248.807 78.5641 259.887 72.5541 264.217 61.3041C268.607 50.4041 268.777 36.6241 255.007 34.9741ZM256.007 58.1641C254.097 67.2341 248.247 72.0241 243.807 71.3341C238.487 70.5441 237.697 60.8641 240.057 52.5841C242.417 44.3041 246.287 38.8041 252.477 39.7041C257.617 40.4641 258.057 48.3941 255.957 58.1641H256.007Z" fill="#575756"/>
<path d="M203.037 23.5441C203.037 23.5441 198.237 23.1941 197.537 26.9441C197.555 29.0191 197.381 31.0913 197.017 33.1341C196.757 35.8441 190.217 71.5041 190.217 71.5041C190.217 71.5041 189.347 74.9041 193.447 75.2541C197.547 75.6041 199.367 71.7641 199.367 71.7641C199.367 71.7641 201.207 59.2941 202.367 54.1541C203.527 49.0141 205.937 44.2141 208.727 42.1541C210.468 41.0386 212.512 40.4901 214.577 40.5841C214.577 40.5841 217.627 40.7641 217.367 45.1241C217.187 48.9541 213.267 70.1241 213.267 70.1241C213.267 70.1241 211.787 74.5741 216.667 75.1841C221.547 75.0141 222.247 71.8741 222.247 71.8741C222.247 71.8741 222.507 68.6441 222.767 66.8141C223.027 64.9841 226.437 44.5741 226.437 44.5741C226.437 44.5741 228.267 36.2941 219.287 34.6341C210.567 33.0641 205.157 39.6341 205.157 39.6341L207.427 26.3841C207.477 26.5941 208.527 23.8041 203.037 23.5441Z" fill="#575756"/>
<path d="M278.367 36.1041C278.367 36.1041 273.747 35.7541 272.877 39.5941C272.787 41.3341 272.707 42.8141 272.527 44.5941C272.347 46.3741 268.347 69.7041 268.347 69.7041C267.984 70.6648 267.778 71.6778 267.737 72.7041C268.347 74.9741 272.007 75.4041 272.007 75.4041C272.007 75.4041 276.107 75.5841 277.147 72.1841C277.147 72.1841 277.757 67.4741 278.147 64.2441C278.537 61.0141 280.417 52.9941 280.417 52.9941C281.022 50.3143 282.18 47.7904 283.817 45.5841C285.338 43.8788 287.234 42.5505 289.357 41.7041C291.797 41.0041 294.417 39.9641 294.237 37.7041C294.212 37.292 294.102 36.8895 293.914 36.5219C293.726 36.1542 293.465 35.8293 293.146 35.5674C292.826 35.3055 292.457 35.1123 292.059 34.9999C291.662 34.8875 291.246 34.8583 290.837 34.9141C289.048 35.3035 287.377 36.1085 285.957 37.2641C284.977 37.9849 284.073 38.8023 283.257 39.7041C283.257 39.7041 283.517 35.9241 278.367 36.1041Z" fill="#575756"/>
<path d="M294.327 75.2541C294.327 75.2541 299.207 75.6041 300.087 72.2541C300.609 69.4327 300.943 66.5798 301.087 63.7141C301.087 63.7141 303.727 45.5241 304.727 42.3841C305.727 39.2441 307.077 35.5841 301.237 35.5841C295.397 35.5841 295.477 40.2041 295.477 40.2041C295.567 40.0241 294.477 51.4541 293.647 55.9841C292.867 60.2541 291.297 69.4941 291.297 69.4941C291.297 69.4941 289.267 74.3841 294.327 75.2541Z" fill="#575756"/>
<path d="M339.667 39.1541C337.927 36.0141 333.917 34.2741 328.507 34.5341C323.097 34.7941 318.307 36.7141 315.337 40.0241C312.367 43.3341 307.407 48.5741 306.967 59.3841C306.537 70.5441 312.967 76.0341 319.877 76.3041C324.237 76.4741 333.877 75.6941 332.877 70.4541C332.357 67.8441 327.127 71.7641 322.497 71.1541C319.977 70.8041 315.877 69.7641 316.657 59.3841C316.657 59.3841 328.347 59.5541 334.097 54.3841C339.847 49.2141 341.237 42.3841 339.667 39.1541ZM330.167 47.8741C326.677 56.1541 316.827 57.5541 316.827 57.5541C316.827 57.5541 317.177 48.5541 321.007 43.5541C324.837 38.5541 328.947 39.1041 328.947 39.1041C328.947 39.1041 333.727 39.5941 330.167 47.8741Z" fill="#575756"/>
<path d="M431.927 39.1541C430.177 36.0141 426.167 34.2741 420.757 34.5341C415.347 34.7941 410.557 36.7141 407.597 40.0241C404.637 43.3341 399.657 48.5741 399.227 59.3841C398.787 70.5441 405.227 76.0341 412.127 76.3041C416.487 76.4741 426.127 75.6941 425.127 70.4541C424.607 67.8441 419.377 71.7641 414.757 71.1541C412.227 70.8041 408.127 69.7641 408.917 59.3841C408.917 59.3841 420.597 59.5541 426.347 54.3841C432.097 49.2141 433.667 42.3841 431.927 39.1541ZM422.507 47.8741C419.017 56.1541 409.167 57.5541 409.167 57.5541C409.167 57.5541 409.517 48.5541 413.347 43.5541C417.177 38.5541 421.287 39.1041 421.287 39.1041C421.287 39.1041 426.077 39.7041 422.507 47.8741Z" fill="#575756"/>
<path d="M366.957 34.6241C361.117 34.0941 356.407 37.4141 354.667 38.8941C354.837 37.0641 354.057 35.5841 350.307 35.5841C344.467 35.5841 344.557 40.2041 344.557 40.2041C344.637 40.0241 343.507 51.5341 342.717 56.0741C341.937 60.3441 340.277 69.6741 340.277 69.6741C340.277 69.6741 338.447 74.3841 343.417 75.2541C343.417 75.2541 348.297 75.6041 349.177 72.2541C349.694 69.4286 350.028 66.5727 350.177 63.7041C350.177 63.7041 350.527 61.1741 351.047 57.7741C353.007 45.6041 356.727 43.2541 356.727 43.2541C356.727 43.2541 360.207 39.9441 364.047 40.4641C366.667 40.8141 366.927 43.4641 366.927 45.0841C366.927 45.5241 366.837 45.8641 366.837 46.3041C366.487 49.7041 365.967 53.8041 365.527 55.9841C364.747 60.2541 363.087 69.5841 363.087 69.5841C363.087 69.5841 361.257 74.2941 366.227 75.1641C366.227 75.1641 371.107 75.5141 371.977 72.1641C372.514 69.3436 372.865 66.4907 373.027 63.6241C373.027 63.6241 375.027 49.9341 376.167 44.2641C377.247 38.2841 374.547 35.3141 366.957 34.6241Z" fill="#575756"/>
<path d="M385.537 34.6241C384.775 34.5573 384.018 34.794 383.43 35.2828C382.842 35.7716 382.47 36.4729 382.397 37.2341C382.413 37.8247 382.643 38.3895 383.044 38.8235C383.445 39.2575 383.989 39.5313 384.577 39.5941L380.037 65.1341C380.037 65.1341 378.297 73.2441 383.357 74.9041C386.374 75.962 389.595 76.3044 392.767 75.9041C392.767 75.9041 396.767 74.2441 396.087 72.0641C395.926 71.476 395.55 70.9701 395.033 70.6475C394.516 70.3249 393.896 70.2094 393.297 70.3241C393.297 70.3241 390.067 71.1041 389.297 69.4541C388.8 68.2703 388.605 66.982 388.727 65.7041L393.347 39.8041H398.237C398.61 39.8484 398.988 39.8178 399.349 39.714C399.71 39.6103 400.047 39.4354 400.339 39.1997C400.632 38.964 400.874 38.6723 401.052 38.3416C401.231 38.0109 401.341 37.648 401.377 37.2741C401.443 36.9345 401.431 36.5842 401.341 36.2501C401.251 35.916 401.086 35.6069 400.858 35.3463C400.63 35.0858 400.346 34.8808 400.027 34.747C399.708 34.6131 399.362 34.554 399.017 34.5741H394.487C394.676 32.4901 395.01 30.4217 395.487 28.3841C396.017 26.9841 396.537 24.8941 392.437 24.6341C388.337 24.3741 386.597 28.2941 386.597 28.2941L385.537 34.6241Z" fill="#575756"/>
<path d="M305.775 30.956C307.275 29.0088 306.912 26.2147 304.965 24.7152C303.018 23.2156 300.223 23.5785 298.724 25.5257C297.224 27.4729 297.587 30.267 299.534 31.7665C301.482 33.2661 304.276 32.9032 305.775 30.956Z" fill="#575756"/>
</g>
<defs>
<radialGradient id="paint0_radial" cx="0" cy="0" r="1" gradientUnits="userSpaceOnUse" gradientTransform="translate(90.6831 39.9326) scale(3.9402)">
<stop stop-color="#28B4E5"/>
<stop offset="0.54" stop-color="#00A6E0"/>
<stop offset="1" stop-color="#0979EC"/>
</radialGradient>
<radialGradient id="paint1_radial" cx="0" cy="0" r="1" gradientUnits="userSpaceOnUse" gradientTransform="translate(56.1419 16.9646) scale(29.6901)">
<stop stop-color="#BDDF29"/>
<stop offset="1" stop-color="#9DBE11"/>
</radialGradient>
<radialGradient id="paint2_radial" cx="0" cy="0" r="1" gradientUnits="userSpaceOnUse" gradientTransform="translate(3266.61 8240.39) scale(773.582 624.877)">
<stop stop-color="#28B4E5"/>
<stop offset="0.54" stop-color="#00A6E0"/>
<stop offset="1" stop-color="#0979EC"/>
</radialGradient>
<radialGradient id="paint3_radial" cx="0" cy="0" r="1" gradientUnits="userSpaceOnUse" gradientTransform="translate(4498.06 12170.5) scale(3326.79 1449.86)">
<stop stop-color="#BDDF29"/>
<stop offset="1" stop-color="#9DBE11"/>
</radialGradient>
<radialGradient id="paint4_radial" cx="0" cy="0" r="1" gradientUnits="userSpaceOnUse" gradientTransform="translate(4208.44 7797.01) scale(1942.43 653.665)">
<stop stop-color="#28B4E5"/>
<stop offset="0.54" stop-color="#00A6E0"/>
<stop offset="1" stop-color="#0979EC"/>
</radialGradient>
<radialGradient id="paint5_radial" cx="0" cy="0" r="1" gradientUnits="userSpaceOnUse" gradientTransform="translate(3009.3 14647) scale(1395.58 1402.02)">
<stop stop-color="#28B4E5"/>
<stop offset="0.54" stop-color="#00A6E0"/>
<stop offset="1" stop-color="#0979EC"/>
</radialGradient>
<radialGradient id="paint6_radial" cx="0" cy="0" r="1" gradientUnits="userSpaceOnUse" gradientTransform="translate(705.006 6033.51) scale(309.524 255.365)">
<stop stop-color="#BDDF29"/>
<stop offset="1" stop-color="#9DBE11"/>
</radialGradient>
<radialGradient id="paint7_radial" cx="0" cy="0" r="1" gradientUnits="userSpaceOnUse" gradientTransform="translate(309.1 2386.6) scale(47.8289)">
<stop stop-color="#BDDF29"/>
<stop offset="1" stop-color="#9DBE11"/>
</radialGradient>
<radialGradient id="paint8_radial" cx="0" cy="0" r="1" gradientUnits="userSpaceOnUse" gradientTransform="translate(2161.81 6738.6) scale(351.067 295.141)">
<stop stop-color="#BDDF29"/>
<stop offset="1" stop-color="#9DBE11"/>
</radialGradient>
<radialGradient id="paint9_radial" cx="0" cy="0" r="1" gradientUnits="userSpaceOnUse" gradientTransform="translate(819.627 2522.59) scale(47.7323)">
<stop stop-color="#BDDF29"/>
<stop offset="1" stop-color="#9DBE11"/>
</radialGradient>
<radialGradient id="paint10_radial" cx="0" cy="0" r="1" gradientUnits="userSpaceOnUse" gradientTransform="translate(458.997 5396.06) scale(246.189 229.279)">
<stop stop-color="#28B4E5"/>
<stop offset="0.54" stop-color="#00A6E0"/>
<stop offset="1" stop-color="#0979EC"/>
</radialGradient>
<radialGradient id="paint11_radial" cx="0" cy="0" r="1" gradientUnits="userSpaceOnUse" gradientTransform="translate(172.026 2002.36) scale(31.2032)">
<stop stop-color="#28B4E5"/>
<stop offset="0.54" stop-color="#00A6E0"/>
<stop offset="1" stop-color="#0979EC"/>
</radialGradient>
<radialGradient id="paint12_radial" cx="0" cy="0" r="1" gradientUnits="userSpaceOnUse" gradientTransform="translate(1869.98 6216.9) scale(207.709 240.582)">
<stop stop-color="#28B4E5"/>
<stop offset="0.54" stop-color="#00A6E0"/>
<stop offset="1" stop-color="#0979EC"/>
</radialGradient>
<radialGradient id="paint13_radial" cx="0" cy="0" r="1" gradientUnits="userSpaceOnUse" gradientTransform="translate(977.387 3941.06) scale(130.068)">
<stop stop-color="#28B4E5"/>
<stop offset="0.54" stop-color="#00A6E0"/>
<stop offset="1" stop-color="#0979EC"/>
</radialGradient>
<clipPath id="clip0">
<rect width="433.87" height="99.31" fill="white"/>
</clipPath>
</defs>
</svg>
